<svg width="1701" height="564" viewBox="0 0 1701 564" fill="none" xmlns="http://www.w3.org/2000/svg">
<g clip-path="url(#clip0_22600_183)">
<path d="M1321.52 269.318C1321.52 269.318 1319.83 273.07 1319.47 274.402C1318.74 277.186 1317.89 279.97 1317.29 282.754L1318.98 283.843L1318.38 288.322L1320.55 285.901L1323.82 286.506L1323.21 292.195L1319.83 293.889L1317.05 291.953C1316.68 296.189 1316.08 300.184 1314.63 304.178C1315.84 304.178 1320.92 307.083 1319.47 308.535L1314.63 307.325C1315.72 311.44 1314.87 314.467 1314.02 318.34L1317.65 317.129C1317.89 320.277 1315.23 323.666 1312.21 324.634C1311 327.176 1313.9 327.055 1314.02 328.507C1314.02 330.444 1312.21 330.807 1311.48 331.776C1309.07 335.165 1313.18 334.196 1314.75 335.528L1315.11 337.101C1312.69 338.675 1311.85 340.006 1310.88 342.79L1309.07 342.427L1309.31 346.18C1313.9 346.906 1312.82 349.206 1313.3 352.837C1310.52 353.079 1313.3 348.358 1309.67 348.6C1309.91 355.621 1303.99 361.189 1306.65 368.209L1310.88 366.393V368.814H1307.01L1306.04 369.783C1306.04 375.472 1304.59 381.161 1303.26 386.607C1302.66 389.028 1301.08 391.086 1300.6 393.749C1300 397.622 1301.33 400.769 1301.08 404.643C1300.6 411.179 1297.09 420.983 1296.25 428.004C1295.76 431.877 1296.97 435.145 1296.73 439.018C1296.49 442.65 1294.92 445.192 1294.31 448.339C1293.47 453.301 1294.55 459.717 1293.59 464.195C1291.65 472.91 1290.93 477.389 1289.96 486.346C1289.11 494.456 1285.61 501.476 1283.43 509.344C1279.8 514.064 1273.88 511.28 1269.4 511.159C1257.19 511.159 1245.82 513.822 1233.85 514.306C1227.44 514.549 1221.63 512.612 1215.47 512.975C1210.02 513.338 1203.13 515.517 1198.05 515.759C1193.7 516.001 1187.89 514.549 1183.66 514.791C1180.64 514.912 1177.62 516.727 1174.47 516.727C1170.12 516.727 1167.7 516.364 1162.86 516.727C1160.81 516.848 1155.12 516.485 1153.07 516.122C1151.62 515.88 1149.44 513.338 1149.2 512.007C1148.83 510.312 1149.8 508.981 1149.68 507.286C1149.68 505.228 1148.35 502.686 1148.35 500.508C1148.35 496.392 1150.16 491.188 1150.29 487.072C1150.41 481.988 1149.08 476.42 1149.68 471.095C1150.04 467.584 1152.34 466.253 1151.25 462.137C1150.89 460.685 1149.2 458.99 1149.2 457.538C1149.2 455.843 1151.86 452.817 1152.1 450.638C1152.82 441.802 1150.53 432.845 1151.01 423.767C1151.25 419.047 1153.19 413.479 1152.95 409C1152.82 406.458 1151.62 404.885 1151.25 402.706C1150.65 398.833 1152.1 395.322 1152.34 391.449C1154.52 392.417 1152.34 394.112 1153.43 396.17C1153.91 397.138 1155 397.743 1156.09 398.106C1157.42 396.049 1155.36 394.959 1155.49 393.507C1155.49 393.144 1156.57 393.265 1156.69 392.66C1156.94 391.691 1157.66 387.334 1157.3 386.971L1153.07 388.786C1153.67 385.276 1153.67 381.645 1154.4 378.135C1154.64 377.166 1155.61 376.319 1155.61 375.593C1155.61 374.745 1154.52 374.019 1154.4 373.051C1154.15 371.235 1155.36 369.904 1155.49 368.693C1155.49 367.604 1154.52 366.757 1154.4 365.667C1154.28 363.367 1154.4 360.947 1154.4 358.647C1155.36 358.647 1155.12 359.857 1155.97 360.462C1162.62 364.82 1161.17 356.468 1154.4 356.831C1154.4 354.652 1154.4 352.595 1154.4 350.416C1154.4 348.237 1156.33 346.179 1152.58 346.664L1155.61 337.101C1155.61 337.101 1158.87 340.006 1159.96 338.675C1160.08 335.407 1157.42 335.044 1156.57 332.26C1156.09 330.928 1155.12 322.939 1155.61 322.455L1159.84 323.061C1160.56 320.882 1158.75 321.245 1158.27 320.64C1157.78 320.034 1159.96 309.383 1159.23 306.357L1154.88 305.388L1155.49 291.953L1157.3 292.558L1156.69 277.791H1159.11V273.312L1157.42 272.344L1156.82 275.37L1156.33 271.376C1161.05 269.56 1162.5 265.082 1156.82 263.992V258.908H1158.63C1159.23 257.093 1157.3 255.882 1157.42 254.309C1157.54 252.614 1160.08 251.888 1158.63 249.467C1158.39 248.983 1157.42 249.104 1157.42 248.741C1157.66 245.836 1163.83 244.504 1158.02 242.447C1157.54 238.815 1158.39 234.337 1158.02 230.827C1157.78 228.164 1154.88 223.201 1156.82 220.78C1156.82 220.78 1157.9 221.385 1159.11 220.417C1161.17 218.965 1161.05 215.818 1164.07 217.633C1163.59 215.212 1164.68 212.67 1164.68 210.613C1164.68 209.16 1164.43 209.886 1163.95 209.886C1162.98 209.765 1161.05 209.765 1160.32 210.613L1159.84 216.665L1158.02 217.633C1158.02 217.633 1159.23 213.155 1159.23 211.823C1159.23 210.492 1158.15 209.16 1158.02 207.466C1157.66 203.834 1158.75 200.687 1158.75 197.661C1158.75 195.361 1157.42 193.667 1157.42 191.488C1157.42 188.825 1159.72 185.678 1160.2 182.652C1160.44 180.836 1159.72 179.142 1159.96 177.447C1160.32 174.058 1161.77 162.68 1163.35 160.501C1164.31 159.049 1167.58 157.475 1167.94 156.386C1168.3 155.176 1166.97 154.207 1166.85 153.36C1166.73 152.513 1170.12 149.971 1167.7 149.487C1166.13 149.124 1165.89 153.481 1164.43 154.207L1163.1 157.839C1161.89 158.686 1160.08 156.87 1158.51 156.87C1154.4 156.749 1154.28 160.865 1153.31 163.77C1153.19 164.254 1152.22 164.012 1152.1 165.101C1151.49 170.427 1151.98 175.753 1151.49 181.079C1150.77 191.125 1149.56 201.171 1149.08 211.097C1148.83 214.849 1149.68 217.633 1150.29 221.264L1148.47 218.844C1147.14 222.596 1148.47 226.953 1148.11 230.585C1147.14 243.415 1145.21 256.488 1143.51 269.439C1142.67 275.975 1142.42 280.817 1140.97 287.232C1139.64 293.163 1140.25 296.431 1140.97 302.362L1139.76 301.757C1138.92 309.141 1141.34 316.766 1137.95 323.908L1136.14 323.303C1135.41 324.997 1137.22 325.118 1137.35 325.602C1138.43 331.291 1135.41 337.101 1134.93 342.669C1134.56 347.632 1134.2 356.226 1134.2 361.068C1134.2 363.488 1135.65 365.909 1136.02 368.33L1130.57 371.477L1134.2 372.688C1132.99 375.351 1133.84 378.377 1133.6 381.161C1133.36 383.945 1131.18 386.728 1132.99 390.36L1130.69 393.507C1131.78 397.864 1131.54 404.643 1131.06 409.363C1130.82 411.784 1129.24 414.326 1129.85 417.11L1128.03 416.505L1127.43 418.683C1128.64 420.136 1129.61 417.957 1129.36 420.62C1129.24 421.71 1128.28 421.346 1128.16 421.952C1128.16 422.315 1127.55 425.825 1127.55 426.067C1127.67 426.793 1129 426.793 1129.12 427.156C1130.09 428.609 1127.55 439.624 1127.43 442.65C1127.31 445.555 1127.43 448.339 1127.43 451.244C1127.19 461.29 1124.29 473.757 1123.8 484.409C1123.68 487.798 1124.65 491.066 1124.41 494.214C1124.29 497.845 1122.23 501.96 1122.11 504.865C1121.87 508.012 1124.53 512.975 1121.62 516.122C1121.38 516.364 1116.67 517.575 1115.94 517.817C1112.19 518.785 1105.66 520.48 1101.43 520.359C1090.91 520.359 1080.15 519.39 1069.5 519.753C1064.43 519.874 1058.26 521.811 1053.54 521.69C1050.03 521.69 1046.29 520.48 1042.66 521.085L1041.93 519.874L1041.21 521.085C1037.82 520.48 1035.16 522.537 1032.14 522.9C1027.18 523.385 1021.98 522.537 1017.14 522.295C1019.2 525.079 1018.83 529.558 1014.72 529.074C1014.36 530.647 1016.54 531.01 1016.42 532.342C1016.42 532.584 1014.6 536.941 1014.36 537.062C1013.76 537.667 1011.09 538.031 1010.01 538.152C998.639 539.967 986.425 539.846 975.058 539.483C963.69 539.12 950.63 539.241 939.021 540.694C932.128 541.541 925.235 542.63 918.1 543.114C908.425 543.841 899.477 543.114 899.96 531.131C899.96 529.558 902.5 518.18 903.225 517.454C904.193 516.485 908.425 517.333 909.151 515.759C910.36 513.459 906.007 515.396 905.765 515.396C904.677 515.396 903.588 514.306 902.379 514.185C903.588 509.949 899.96 505.107 903.225 501.355C904.072 502.928 904.918 503.292 906.611 503.776C906.611 502.323 906.853 500.871 906.249 499.539C905.644 498.329 903.225 497.603 903.104 496.755C902.984 495.666 903.83 492.156 903.83 490.582C903.83 484.046 903.225 477.268 902.863 470.61C908.305 471.579 902.984 467.947 902.863 466.011C902.863 465.042 902.863 463.348 903.225 462.501L905.402 461.653C906.128 459.232 903.83 460.685 903.588 459.838C902.984 452.091 907.942 444.95 904.918 437.445L908.304 438.05C908.304 438.05 910.239 440.713 909.877 438.413C909.272 434.903 906.853 431.03 904.677 435.629L902.5 433.208L901.895 436.235H888.351L888.956 433.208C886.537 433.451 885.812 430.303 884.723 429.819C884.239 429.577 878.919 430.061 877.709 429.94C876.621 429.94 874.444 427.641 873.235 431.272C871.663 435.992 874.202 435.75 877.467 438.05C880.007 436.719 878.435 434.782 878.435 432.603C879.281 431.756 886.658 435.145 887.021 436.84C883.756 436.84 878.314 438.655 878.435 442.408C875.774 440.834 874.807 441.681 872.509 441.681C870.453 441.681 867.43 440.108 868.277 444.223C870.453 443.376 871.421 445.555 872.63 445.918C873.719 446.281 879.039 445.676 878.919 446.402C878.072 448.339 878.193 452.817 877.105 454.27C876.621 454.996 874.807 454.27 874.202 455.238C873.719 455.843 874.202 457.175 873.839 457.901C873.477 458.869 872.267 458.748 872.146 459.354C871.663 461.169 871.784 466.495 874.565 464.8C874.807 462.985 873.598 459.596 876.379 459.596L873.235 480.415L869.244 479.325L867.914 480.294L868.76 486.104L873.96 487.919L873.356 490.945C871.663 491.551 872.146 489.856 871.542 489.372C869.123 487.798 867.914 493.003 868.519 494.819C868.881 495.787 870.212 495.424 870.332 496.755C870.574 499.902 869.002 501.355 867.188 503.534L870.091 507.286C869.123 511.159 869.849 516.122 868.881 519.995C868.519 521.569 866.826 523.142 866.705 523.869C866.463 525.079 868.035 525.926 868.277 527.016C869.002 529.679 866.342 531.252 866.1 533.794C866.1 535.126 866.705 536.336 866.584 537.667L864.165 536.457C863.681 539.362 867.067 539.241 865.858 542.146C864.407 546.019 855.942 544.446 853.402 544.446C851.467 544.446 849.049 545.535 846.63 545.656C843.002 545.777 839.495 544.204 836.835 544.446C833.812 544.688 831.998 547.956 828.733 548.198C826.193 548.198 824.379 546.625 821.961 546.261C817.244 545.656 807.933 545.898 803.7 547.714C802.128 548.319 801.04 550.014 799.226 550.014C797.412 550.014 795.961 547.835 793.784 547.835C791.607 547.835 789.189 549.166 787.012 549.409C781.086 550.014 767.905 550.014 761.979 549.409C760.528 549.288 759.077 548.682 757.747 548.319C756.9 547.714 756.054 540.209 756.054 538.757C756.054 536.578 757.626 534.399 757.868 531.979C758.11 530.042 758.23 522.537 757.747 521.085C757.505 520.359 755.449 518.422 754.723 517.938C750.007 514.912 744.082 518.059 739.124 518.18C736.705 518.18 734.528 517.09 732.472 517.09C728.482 517.09 722.556 518.059 717.719 518.18C716.631 518.18 714.696 519.269 713.849 518.664C713.486 518.422 713.124 515.759 711.431 517.696C710.826 518.301 710.947 519.511 710.584 519.874C709.979 520.48 695.831 519.632 694.379 517.575C692.807 520.601 689.663 520.843 686.519 520.722L685.552 518.543L682.045 518.906L682.407 521.327C680.593 520.843 677.691 520.116 675.998 520.116C674.547 520.116 673.217 520.843 671.766 520.843C666.566 520.843 667.775 517.211 666.445 513.822C665.598 511.644 664.026 511.038 663.784 508.496C663.542 506.076 665.719 503.655 665.719 502.081C665.719 500.629 664.026 497.603 663.663 495.787C662.333 488.767 664.752 481.625 664.147 474.484C663.421 465.527 662.333 456.691 662.212 447.491C662.212 446.039 662.938 444.707 662.817 443.255C662.696 441.318 661.124 439.14 661.003 437.082C660.64 429.093 662.091 418.805 661.607 410.695C661.245 402.101 658.463 397.017 659.914 387.576C661.003 380.313 659.189 380.434 659.068 374.503C659.068 372.082 660.156 369.904 660.156 367.846C660.156 365.546 658.463 363.004 658.101 360.826C657.738 358.284 658.342 355.863 657.496 353.442C656.045 349.569 650.24 346.179 649.394 351.747C648.547 357.315 648.668 364.82 648.063 370.751C647.217 379.829 646.975 388.665 646.249 397.743C645.887 402.948 643.468 409.605 643.226 414.326C642.984 417.11 644.073 420.136 643.831 423.525C643.71 426.43 642.017 430.182 642.017 432.724C642.017 436.84 642.621 440.229 642.017 444.95C640.324 456.327 637.784 469.158 637.784 480.657C637.784 486.709 637.905 486.83 636.938 492.882C636.575 494.819 637.905 501.597 637.301 502.444L634.882 502.081L634.277 505.107C630.287 507.891 633.794 502.807 631.254 501.597C627.626 499.781 627.142 504.865 630.045 506.56V507.407C628.231 507.286 628.594 511.401 628.956 512.612C629.561 514.549 635.245 516.485 635.608 514.549C633.915 512.249 633.431 506.56 636.817 505.712C635.97 510.433 636.938 519.511 631.738 521.811C627.626 523.627 629.44 521.448 629.319 520.843C629.198 520.237 627.022 519.874 627.022 517.09C627.022 515.517 628.956 514.549 627.142 513.096C623.636 510.433 616.863 514.064 618.436 518.543C622.547 519.39 622.91 517.938 624.845 514.912C626.78 516.243 623.998 516.606 623.998 518.18C623.998 519.148 625.087 520.48 624.361 521.569C623.273 523.143 618.677 522.537 616.984 522.779C614.687 523.142 612.147 524.837 609.124 523.99C608.519 523.869 608.156 522.053 607.189 521.448C605.254 520.116 603.803 521.448 605.012 523.385C601.022 523.143 597.515 525.442 593.645 525.805C582.882 526.895 572.482 525.805 561.719 525.805C553.254 525.805 539.952 528.589 532.454 526.895C531.608 526.653 526.287 523.869 525.803 523.021C525.078 521.811 525.078 520.964 525.199 519.632C527.859 519.632 529.915 522.295 532.454 520.722C531.608 517.211 536.445 511.644 530.399 513.459L529.673 512.128L526.892 513.338L526.287 509.102C528.101 510.675 529.068 510.796 530.519 508.739C529.31 507.044 528.101 506.802 526.287 507.77C525.44 505.834 527.254 503.05 527.254 501.96C527.254 500.871 525.319 497.603 526.287 495.545C526.65 495.182 531.608 496.876 532.212 497.24C533.543 497.966 533.422 499.902 535.115 499.176C537.292 498.329 535.961 495.545 536.324 494.94C536.808 494.214 538.138 494.456 538.501 492.761C538.622 492.156 538.501 488.404 538.501 488.282C536.203 487.556 534.147 486.83 531.85 487.919C532.575 489.009 533.664 488.161 534.752 488.646C537.654 489.977 536.566 491.309 535.478 493.608L528.222 493.124C529.794 488.404 528.101 485.499 526.287 481.262C528.947 480.052 529.673 475.331 533.059 477.268C532.696 472.668 531.003 475.21 528.101 475.089C527.98 472.668 530.278 469.642 530.399 467.584C530.64 464.195 530.64 461.048 531.124 457.296C531.608 452.938 530.882 443.497 532.212 440.592C532.817 439.382 534.631 438.292 534.752 437.566C534.994 436.235 531.366 433.935 533.543 430.425C533.906 429.819 535.236 429.94 535.478 428.488C535.84 426.188 533.059 424.372 532.938 421.71C532.938 419.41 534.51 417.473 534.873 414.931C535.236 411.421 535.961 402.343 535.84 398.954C535.84 396.896 534.631 394.959 534.873 392.781C534.994 390.844 536.445 389.27 536.687 387.213C537.292 383.097 536.445 376.561 537.171 372.93C538.259 367.604 540.073 364.941 540.315 358.405C540.315 355.621 539.226 351.626 539.831 348.6C540.194 346.785 544.91 345.695 542.612 341.58H540.436C539.468 338.433 542.008 335.77 542.25 333.349C542.612 330.323 542.008 325.966 542.25 322.939C542.25 321.608 543.459 320.156 543.459 318.582C543.459 316.887 542.492 315.193 542.854 313.377C548.417 314.467 542.25 310.835 543.459 309.746H545.273C545.273 306.115 543.943 303.452 547.812 301.515C543.217 299.215 546.603 296.068 545.999 291.953C549.022 292.437 552.529 291.105 550.836 287.716C549.626 287.474 548.054 287.474 547.208 288.443C546.603 289.169 547.208 290.742 545.999 290.621C545.636 288.564 546.603 286.748 546.603 284.811C546.603 280.575 546.845 279.001 547.208 275.007C547.45 272.223 546.482 265.929 547.208 263.992C547.692 262.661 549.143 262.54 549.143 262.177C549.143 262.055 548.054 261.45 548.054 260.482C548.054 259.635 549.022 258.182 549.143 256.73C549.505 251.283 548.659 243.778 549.143 238.937C549.385 236.274 551.319 233.369 550.352 229.979C552.287 231.19 552.771 229.132 554.585 228.648L552.166 224.775L554.826 223.685C557.85 222.233 553.738 217.875 551.561 218.965L552.166 212.791C556.157 214.123 556.157 211.339 552.408 210.371L552.166 209.523C553.375 206.013 552.408 202.14 552.771 198.509C553.133 195.361 554.826 191.367 555.189 187.978C555.673 182.41 555.068 176.842 555.189 171.395C555.189 169.701 556.036 168.006 555.794 166.19L558.817 166.796C559.059 164.133 555.915 164.617 557.003 161.228C558.333 161.954 560.026 161.349 560.147 159.654C560.268 157.96 557.85 158.323 557.366 157.596C556.761 156.628 557.487 153.602 557.366 152.029C556.882 142.708 558.212 134.599 558.938 125.278C559.18 122.373 557.85 116.2 559.301 114.506C559.905 113.779 560.994 113.537 561.719 112.569C563.654 110.027 561.357 106.396 561.357 103.007C561.478 96.2283 564.985 87.7554 564.985 81.5822C564.985 76.8616 564.743 75.5301 565.105 70.5674C565.831 59.7947 560.994 47.4485 571.757 39.8228C583.003 37.8862 594.491 38.9755 605.859 38.3703C612.268 38.0072 619.161 36.0705 625.57 35.9495C627.263 35.9495 628.473 37.0389 629.803 37.0389C631.375 37.0389 633.31 35.5864 634.882 35.4653C646.975 34.497 659.794 35.8284 672.128 35.4653C676.845 35.3443 679.989 33.1655 685.552 33.6497C687.607 33.7707 689.784 34.8601 691.719 34.8601C694.5 34.8601 698.491 33.2866 701.514 33.0445C717.84 31.9551 728.24 35.7074 743.719 39.2176C751.821 41.0332 749.524 41.2753 756.054 45.2697C762.221 49.022 768.147 50.2324 774.435 55.0741C782.537 61.3683 786.528 69.236 791.123 78.1931C791.849 79.6456 791.728 81.4612 792.575 82.9137C793.3 84.1241 794.751 84.8504 795.477 86.1818C797.412 89.9341 801.523 116.079 801.161 120.437C801.04 122.494 800.193 124.189 799.951 126.005C799.709 128.062 800.798 130.362 800.435 132.662C800.072 134.962 798.258 136.656 798.016 139.44C797.654 143.919 798.863 150.092 798.621 154.812C798.258 161.47 796.444 173.453 795.477 180.594C794.751 185.92 793.905 187.373 793.784 193.546C793.542 202.261 792.816 210.129 791.849 218.601C791.365 222.838 791.607 227.316 791.244 230.827C791.002 232.521 789.43 234.216 789.43 236.395C789.43 239.421 791.607 242.689 791.244 245.473C791.002 247.53 788.705 249.104 788.342 251.162C787.979 253.219 788.342 255.398 788.1 257.577C786.407 266.776 783.021 278.759 778.547 286.748C773.709 295.463 766.333 301.999 762.584 311.319C762.1 312.409 760.044 318.34 759.923 319.187C759.682 321.608 761.012 322.455 761.133 324.15C761.496 327.055 760.891 330.323 761.133 333.228C761.496 336.496 763.43 340.369 763.551 343.759C763.793 348.358 761.737 352.958 762.342 358.405C762.584 360.947 763.793 363.004 764.156 365.788C764.882 373.414 764.398 381.403 765.486 389.028C765.849 391.328 767.058 393.628 767.3 395.807C767.784 400.769 765.486 406.7 766.091 411.784C766.333 414.568 768.147 417.231 768.51 419.773C769.356 426.672 768.872 433.329 769.235 439.987C769.235 442.287 769.719 446.039 771.412 447.612C771.896 447.612 774.314 440.713 774.435 439.624C776.007 432.724 776.733 426.551 778.789 419.531C780.603 413.479 780.723 413.479 781.449 406.942C781.933 403.311 783.868 400.164 784.109 396.17C784.23 393.265 783.384 389.633 783.868 386.607C784.23 384.308 786.286 381.524 786.77 378.377C787.133 376.198 786.77 374.14 787.133 371.961C787.495 369.298 789.43 366.878 789.672 364.82C789.914 363.125 789.068 361.068 789.43 358.889C789.793 356.226 791.728 352.837 792.333 349.448C793.3 343.396 793.784 337.828 794.389 331.897C794.63 329.597 796.081 327.539 796.202 325.602C797.654 304.904 803.942 283.722 807.812 263.024C809.505 253.946 810.593 244.747 812.649 235.91C815.43 224.169 816.277 212.307 818.454 200.687C819.421 195.604 819.663 194.03 820.147 188.946C820.388 186.525 823.412 184.105 823.775 181.442C824.137 179.384 823.654 176.963 823.775 174.784C824.742 166.675 826.193 159.775 828.612 152.029C830.426 146.461 828.733 144.282 829.216 139.803C829.7 135.93 831.998 133.025 832.723 129.757C834.054 123.463 833.812 116.321 834.9 110.39C835.263 108.09 837.56 105.427 837.681 103.37C837.802 101.675 836.593 99.9806 836.714 98.6491C836.835 97.1966 839.616 93.3233 840.1 90.4183C841.067 83.882 840.947 78.6772 842.519 71.4147C843.002 69.236 843.123 65.3626 843.97 63.668C844.333 63.0628 851.226 58.4633 851.951 58.2212C854.491 57.4949 855.095 58.4633 857.03 58.4633C867.551 58.5843 878.435 58.3422 888.835 57.858C891.012 57.858 893.672 56.0424 895.607 56.0424C899.356 56.0424 905.402 58.1001 910.36 57.9791C913.384 57.858 916.528 56.4055 919.551 56.1635C942.89 54.1057 966.472 54.711 990.053 53.7426C992.714 53.7426 995.858 52.5322 998.639 52.5322C1005.05 52.2901 1012.55 53.6216 1012.55 61.4893C1012.55 66.2099 1011.34 72.3831 1011.34 76.7406C1011.34 81.9454 1014.24 86.4239 1013.76 92.1129C1013.39 95.9862 1010.61 98.7702 1010.61 101.917C1010.61 106.275 1013.76 112.69 1013.76 117.29C1013.76 120.195 1011.94 124.068 1011.94 127.094C1011.94 132.662 1014.36 140.651 1014.36 146.703C1014.36 148.76 1012.67 151.423 1012.18 153.723C1010.01 164.98 1013.63 173.332 1013.76 183.499C1013.76 187.252 1012.43 192.699 1012.43 196.33C1012.43 199.235 1014.72 202.745 1014.72 205.529C1014.72 208.676 1012.79 212.307 1012.67 214.728C1012.55 217.512 1014.72 219.933 1014.72 222.112C1014.72 223.685 1013.63 225.259 1013.51 226.953C1012.91 234.458 1014.36 243.536 1014.24 250.92C1014.24 256.003 1012.18 263.629 1013.27 268.471C1015.21 277.912 1015.21 279.122 1014 288.564C1012.79 298.005 1015.93 306.841 1015.45 316.524C1014.96 325.723 1015.69 334.923 1015.45 344.122C1015.45 347.39 1012.91 351.384 1012.91 354.531C1012.91 357.678 1014.96 360.947 1015.33 363.852C1016.66 374.14 1015.45 388.786 1015.33 399.438C1015.33 403.916 1014.12 408.395 1014.12 411.663C1014.12 414.447 1016.29 420.136 1016.54 423.283C1017.26 430.303 1015.93 442.65 1015.81 450.275C1015.81 452.091 1016.9 454.149 1016.54 456.085L1017.75 445.313C1016.05 438.655 1020.16 432.119 1020.29 426.309C1020.29 423.041 1018.23 419.047 1018.71 415.9C1019.08 413.358 1021.13 411.179 1021.49 408.516C1021.74 406.095 1020.77 404.401 1020.89 402.464C1020.89 400.769 1022.46 398.712 1022.7 396.775C1023.07 393.87 1022.34 390.481 1022.7 387.697C1023.07 385.518 1024.4 383.218 1024.52 380.313C1024.52 376.803 1023.31 373.414 1023.91 369.904C1024.16 368.088 1025.61 366.878 1025.73 364.941C1025.85 363.004 1024.76 361.068 1024.64 359.01C1024.28 350.779 1026.45 338.433 1026.94 329.355C1027.42 319.792 1029.36 311.319 1030.08 301.757C1030.56 295.705 1029.72 288.079 1030.08 282.148C1030.44 277.065 1033.35 270.165 1033.71 264.96C1033.95 261.087 1032.62 257.093 1033.1 252.735C1033.71 247.894 1036.37 241.599 1036.73 236.758C1036.97 233.853 1035.89 231.069 1035.89 228.164C1035.89 224.048 1037.94 220.296 1038.06 216.544C1038.3 210.25 1036.49 203.713 1037.46 196.33C1038.06 191.488 1040.96 184.589 1041.09 180.352C1041.09 178.9 1040.36 177.326 1040.48 175.511C1041.09 164.617 1042.78 153.723 1043.63 142.95C1044.59 129.152 1046.29 115.595 1047.25 101.796C1047.74 95.7441 1048.7 90.9024 1050.03 84.9714C1051.85 76.7406 1048.7 74.5618 1048.83 68.8728C1048.83 65.8468 1050.52 61.8524 1050.88 58.7053C1051.73 52.2901 1050.76 44.4224 1054.99 38.8545L1056.81 40.7912C1062.61 39.5807 1057.17 36.7968 1057.17 36.1916C1058.86 34.0128 1061.64 33.8918 1064.18 34.0128C1067.09 34.0128 1072.77 35.8284 1074.58 35.8284C1076.16 35.8284 1080.27 33.5287 1082.81 34.618L1081.84 36.4337C1083.41 37.523 1086.07 41.7595 1088.01 41.3964C1090.18 38.7334 1085.95 38.3703 1087.16 35.2232C1089.46 35.1022 1091.88 35.4653 1094.17 35.2232C1096.47 34.9812 1098.41 33.2866 1100.7 33.0445C1102.64 32.9234 1105.42 33.8918 1107.48 33.6497C1109.53 33.4076 1111.22 32.3182 1113.16 32.1972C1116.18 31.8341 1119.93 32.6814 1122.96 32.1972C1124.41 31.9551 1126.1 30.6237 1127.43 30.5026C1128.76 30.3816 1130.21 31.9551 1132.27 32.1972C1137.59 32.8024 1145.69 30.6237 1151.25 30.9868C1154.28 31.1078 1157.78 32.9234 1160.44 32.8024C1162.86 32.8024 1164.55 30.9868 1166.13 30.6237C1167.58 30.3816 1170.36 30.9868 1172.54 30.8657C1175.8 30.6237 1178.95 28.5659 1181.24 28.4449C1184.27 28.2028 1187.05 30.5026 1190.43 30.6237C1195.03 30.7447 1203.62 29.4132 1208.82 29.0501C1217.28 28.4449 1230.34 26.1451 1238.32 26.6293C1239.41 26.6293 1242.43 27.3555 1242.92 28.2028C1242.68 30.9868 1245.82 35.2232 1245.94 37.2809C1245.94 38.8545 1244.85 40.428 1244.73 42.1226C1244.37 47.5695 1246.3 54.5899 1245.94 59.3105C1245.58 64.5153 1242.8 72.8672 1242.92 77.7089C1242.92 80.856 1245.7 82.9137 1245.46 86.3029C1245.34 88.2395 1244.01 89.2079 1243.64 90.7814C1242.43 96.4704 1241.83 106.154 1241.71 112.085C1241.47 121.526 1241.59 130.725 1241.1 140.287C1240.74 147.671 1239.65 155.297 1239.17 162.317C1239.05 164.738 1240.38 167.038 1240.38 169.095C1240.38 170.79 1238.81 173.332 1238.68 175.269C1237.72 189.915 1238.08 205.166 1238.08 219.933C1238.08 222.112 1236.27 224.411 1236.27 226.711C1236.27 230.464 1236.75 231.432 1236.27 236.032C1234.94 253.219 1233.36 270.286 1232.64 287.474C1232.4 294.374 1231.19 301.757 1231.19 308.293C1231.19 312.167 1232.4 316.403 1231.91 320.64C1231.67 323.061 1229.86 324.997 1229.49 327.418C1228.53 334.681 1231.07 344.969 1228.89 353.2C1228.29 355.5 1226.23 358.526 1226.11 360.099C1225.87 362.036 1227.2 365.667 1227.08 368.451C1226.71 375.108 1224.9 383.339 1224.54 389.876C1224.54 392.296 1225.26 398.591 1227.68 399.68C1228.89 400.285 1232.52 400.285 1233.24 398.954C1233.61 398.348 1236.02 387.455 1236.15 386.123C1237.84 369.541 1237.11 351.99 1239.29 335.286C1239.65 332.381 1241.59 329.234 1241.59 325.966C1241.71 318.34 1238.08 309.988 1240.98 301.515C1243.04 295.584 1243.16 295.947 1244.25 289.411C1244.61 287.474 1246.42 285.174 1246.55 283.722C1246.67 281.422 1244.13 279.607 1244.25 277.186C1244.25 274.886 1246.18 272.223 1246.55 270.286C1247.03 267.502 1246.18 264.355 1246.79 261.329C1247.27 259.029 1249.93 256.609 1250.17 254.309C1250.54 251.404 1248.48 248.499 1248.6 245.836C1248.6 243.536 1250.42 241.357 1250.9 239.058C1252.95 230.464 1251.5 223.685 1252.71 216.302C1253.44 212.065 1254.04 213.155 1253.92 207.708C1253.92 200.566 1255.37 198.024 1256.34 191.73C1256.82 188.462 1256.46 184.226 1257.19 180.957C1257.55 178.9 1259.12 177.689 1259.48 175.874C1260.21 171.516 1258.4 165.222 1259 160.017C1259.48 156.386 1261.66 154.086 1262.27 150.697C1262.99 147.187 1262.51 138.714 1263.11 133.509C1264.93 120.073 1267.47 106.396 1269.76 92.9602C1271.46 83.5189 1269.28 73.2303 1271.94 63.3049C1272.42 61.7314 1273.88 60.2789 1274.12 58.5843C1274.36 56.7687 1273.39 55.0741 1273.51 53.1374C1273.51 50.7166 1275.45 48.4168 1275.45 45.7539C1275.45 43.333 1274.48 41.2753 1274.72 38.3703C1274.72 37.402 1276.66 29.2922 1276.9 28.9291C1278.71 25.782 1288.15 24.8136 1291.65 24.5716C1296.13 24.3295 1309.07 26.0241 1311.24 25.5399C1314.15 24.8136 1316.32 23.1191 1319.83 22.7559C1325.27 22.2718 1331.2 23.3611 1336.28 23.3611C1348.13 23.1191 1362.52 19.7299 1373.76 19.7299C1376.06 19.7299 1378.84 20.9403 1381.14 20.9403C1401.58 21.1824 1421.89 17.7932 1442.45 17.7932C1444.51 17.7932 1446.32 18.5195 1448.62 18.5195C1453.82 18.3984 1459.99 12.7095 1462.65 20.4561C1467.85 35.3443 1462.65 46.9643 1461.92 61.2472C1461.92 63.426 1462.89 65.2416 1462.41 67.9045C1462.16 69.4781 1460.83 70.9306 1460.71 72.3831C1460.47 74.4408 1461.44 77.4668 1461.2 80.2508C1460.83 83.2768 1459.14 86.3029 1459.99 89.8131L1457.57 88.6027C1456.84 91.9918 1458.78 94.1706 1459.38 97.1966H1456.96L1456.24 98.7702L1458.66 99.0122V100.828C1453.09 100.586 1453.82 106.88 1459.26 106.638L1454.91 125.278L1451.28 126.368C1452.37 128.788 1450.68 135.204 1454.42 133.63C1454.42 132.42 1453.21 128.667 1455.63 129.031C1456.84 135.325 1455.39 141.014 1454.91 147.308L1451.88 148.397V152.876L1453.82 153.239V165.222L1451.28 163.406V168.974L1453.09 169.216C1452.01 171.879 1449.95 173.211 1450.68 176.237L1451.88 175.632V177.81L1449.95 178.416L1448.86 190.278H1450.68C1450.19 191.246 1450.07 191.972 1450.07 193.062C1449.95 197.903 1450.31 202.987 1450.07 207.708C1449.95 210.25 1448.74 213.397 1448.86 216.06L1445.84 214.849C1444.27 218.844 1445.72 222.596 1444.02 226.227L1445.48 227.074L1447.05 225.864C1448.62 231.916 1446.44 237.484 1445.84 243.415C1445.48 246.683 1446.2 251.404 1445.84 253.704C1445.6 255.519 1444.27 256.972 1444.02 259.272C1443.42 264.839 1444.39 271.376 1444.02 277.065C1443.78 281.543 1442.21 287.353 1441.61 291.832C1441.36 294.253 1441.61 296.673 1441.61 298.973L1437.25 300.668C1439.31 303.331 1440.52 305.873 1439.07 309.262L1433.87 301.878L1431.08 305.267C1431.08 306.478 1437.25 312.409 1439.07 310.472C1439.07 312.409 1439.79 314.224 1437.49 314.709L1437.25 315.677L1439.19 316.282L1439.79 325.723L1434.59 322.092L1432.41 325.481C1432.17 327.055 1434.23 326.087 1435.56 326.692C1436.28 327.055 1436.65 328.386 1437.49 329.113C1437.98 329.476 1439.07 329.355 1439.31 329.476C1439.55 329.718 1438.7 332.623 1438.7 333.349C1438.34 343.275 1437.74 348.358 1436.41 358.042C1436.16 359.736 1436.65 362.036 1436.41 363.367C1436.41 363.731 1431.08 367.483 1430.84 369.056C1430.6 370.267 1431.69 370.267 1432.41 370.025C1432.9 369.783 1434.71 365.788 1436.04 368.814C1437.13 371.235 1434.11 377.65 1433.87 380.797C1433.5 384.913 1435.32 390.481 1434.83 394.354C1434.47 396.896 1432.41 398.954 1432.05 401.132C1431.45 405.248 1432.54 410.453 1432.05 414.568C1431.81 416.505 1430.6 417.836 1430.48 418.805C1430 422.315 1431.08 428.246 1430.84 432.361C1430.6 435.629 1429.27 438.897 1429.15 442.166C1429.15 443.739 1430 445.434 1429.63 447.612C1429.27 450.275 1425.52 452.454 1426.61 455.964L1428.42 454.754C1427.82 457.054 1429.51 459.596 1429.39 461.532C1429.03 464.437 1425.88 468.795 1425.52 472.184C1424.8 477.752 1426.97 482.23 1426.73 486.83C1426.49 491.43 1423.22 497.119 1422.74 501.839C1420.2 505.228 1416.69 504.018 1413.67 504.381C1400.97 506.076 1385.37 507.165 1372.55 507.407C1368.93 507.407 1365.66 506.439 1362.15 506.802C1359.61 507.044 1357.56 508.496 1354.78 508.617C1350.91 508.86 1347.76 507.165 1343.65 507.286C1337.97 507.528 1330.95 509.465 1325.27 509.828C1321.88 510.07 1319.1 509.828 1316.68 507.286C1313.06 503.655 1312.82 500.508 1313.54 495.424C1314.02 492.035 1316.81 488.161 1317.05 485.983C1317.29 484.046 1314.75 474.484 1315.84 473.515H1318.26C1318.5 470.731 1320.19 470.247 1321.4 468.311C1321.64 463.953 1317.41 468.795 1317.17 466.495C1317.17 466.253 1317.77 464.558 1317.77 463.348C1317.77 461.895 1316.93 459.475 1317.05 458.506C1317.05 458.022 1318.26 458.143 1318.38 457.659C1318.62 456.327 1317.41 454.633 1317.77 453.18H1322.73V451.365L1318.98 450.396C1318.98 448.097 1320.31 446.039 1320.31 443.739C1320.31 440.471 1318.98 435.266 1319.1 432.119C1319.1 430.425 1320.68 428.125 1320.92 425.946C1321.52 421.467 1320.68 416.384 1320.92 411.784C1320.92 409.726 1322.01 400.406 1322.49 399.196C1322.85 398.227 1325.15 396.17 1325.15 394.354C1322.73 394.354 1321.04 392.054 1322.73 389.997C1323.34 389.27 1323.7 392.538 1325.15 391.812C1324.42 385.518 1324.06 379.587 1325.75 373.414L1323.94 374.624C1322.97 371.356 1326.84 372.203 1326.36 369.056L1323.94 368.693C1327.57 363.125 1327.93 357.073 1327.57 350.537L1326.36 351.505C1326.6 349.206 1328.05 347.148 1328.17 344.727C1328.66 340.006 1328.17 338.554 1329.14 333.349C1330.11 327.539 1330.83 321.608 1331.2 315.798C1331.92 305.146 1332.77 294.253 1333.37 283.601C1333.61 279.728 1335.31 275.491 1335.55 271.618C1335.79 268.471 1334.82 265.445 1334.82 263.024C1334.82 260.966 1336.64 259.635 1336.76 257.456C1337 254.551 1335.43 250.072 1335.43 247.046C1335.43 244.989 1336.52 243.294 1336.64 241.478C1336.76 240.147 1335.43 233.611 1337.12 233.248H1342.08L1342.81 231.19C1342.44 229.737 1339.18 230.343 1337.97 230.222C1336.76 225.864 1339.54 221.87 1339.78 218.238C1340.15 213.397 1338.45 204.924 1339.78 199.961C1339.9 199.235 1341.35 199.356 1341.6 198.63C1341.84 197.782 1340.39 195.24 1340.51 193.788C1340.63 192.093 1342.44 190.883 1342.81 189.309C1343.41 186.646 1342.81 183.62 1342.08 181.2C1340.39 183.015 1341.72 186.404 1340.02 188.341C1338.94 189.551 1336.03 189.551 1334.46 189.794C1334.46 188.22 1336.15 187.615 1336.64 186.162C1337.12 184.71 1337.24 181.321 1336.64 179.989C1335.91 178.295 1331.92 176.6 1336.64 174.542L1341.96 179.989C1342.56 177.084 1342.2 173.937 1342.68 171.153C1343.05 168.611 1343.65 161.47 1344.26 159.654C1344.62 158.202 1346.19 157.839 1346.43 155.781C1346.92 150.818 1340.39 143.798 1336.28 148.76C1333.86 151.544 1336.4 152.876 1336.52 154.57C1336.76 158.444 1334.46 163.164 1334.1 166.917C1333.74 170.669 1334.58 175.269 1334.1 179.142C1333.61 183.015 1331.92 186.889 1331.68 191.488C1331.44 195.846 1332.28 194.03 1333.25 195.482C1334.34 197.177 1332.77 197.903 1332.53 199.114C1331.8 202.503 1331.32 206.376 1330.23 209.644C1328.78 214.002 1325.88 216.181 1328.05 221.87L1331.68 221.264L1332.28 223.322C1330.95 224.775 1329.38 226.106 1327.45 224.896L1326.48 233.005C1326.48 234.7 1330.23 234.579 1329.87 236.274C1329.75 237.121 1327.45 237.605 1326.84 237.121C1326.36 236.758 1326.72 234.579 1325.51 234.7C1326.84 240.873 1322.73 245.594 1323.7 251.888C1326.36 250.072 1329.02 250.193 1331.08 252.856L1325.51 254.067C1325.15 255.519 1327.93 258.182 1329.14 258.908C1327.93 261.087 1324.91 258.545 1323.7 259.272C1321.52 262.419 1322.85 265.808 1322.37 268.955C1322.61 268.35 1326.36 266.655 1327.33 267.381C1328.41 268.229 1328.17 271.981 1327.93 273.312C1326.36 271.013 1325.63 271.618 1322.97 271.134C1322.37 270.77 1322.13 269.56 1322.37 268.955L1321.52 269.318ZM1068.42 46.6012C1068.9 44.5435 1064.43 36.4337 1062.61 36.7968C1059.71 37.402 1063.94 41.0332 1064.3 41.8805C1065.39 44.3014 1064.3 47.0853 1068.42 46.6012ZM1069.02 48.5378C1071.68 49.5062 1071.92 46.4801 1073.13 46.117C1073.74 45.996 1074.46 46.4801 1074.82 46.3591C1076.64 45.996 1080.39 37.8862 1073.01 38.0072C1069.87 38.0072 1067.09 42.1226 1069.38 42.9699C1071.68 43.8172 1070.47 39.9439 1073.01 39.9439C1075.31 39.9439 1075.55 43.212 1074.46 44.7855C1071.68 44.6645 1069.02 45.2697 1069.02 48.5378ZM1085.59 50.3535C1088.25 45.996 1084.86 42.9699 1080.63 45.7539C1080.39 46.9643 1082.08 46.9643 1082.32 47.4485C1083.05 48.7799 1081.23 52.1691 1084.26 52.2901V53.5005C1082.08 52.2901 1077.73 57.858 1079.42 59.0685C1081.23 60.3999 1081.96 56.6476 1082.2 56.5266H1086.43L1088.01 51.4428L1085.47 50.4745L1085.59 50.3535ZM1058.5 45.996L1056.69 46.9643L1058.38 50.5955C1054.75 52.8953 1058.74 56.1635 1060.07 53.3795C1061.28 50.8376 1058.74 48.5378 1058.5 45.996ZM1062.13 61.8524C1062.73 61.2472 1065.15 56.2845 1063.22 55.9214C1061.76 55.5583 1062.01 57.9791 1061.28 58.4633C1060.56 58.9474 1058.5 58.7053 1058.02 60.0368L1058.98 62.6997C1059.83 62.9418 1061.52 62.5787 1062.13 61.9735V61.8524ZM1452.13 122.131C1452.61 120.195 1454.06 116.2 1450.92 115.958C1450.92 118.379 1449.1 120.8 1452.13 122.131ZM660.156 236.879C658.463 245.836 657.617 254.672 669.71 253.462C674.305 252.977 673.338 251.646 675.756 249.709C676.482 249.104 677.691 248.983 678.538 248.257C681.44 245.836 679.868 244.383 680.352 241.478C680.835 238.452 682.166 235.063 682.166 231.674C682.166 228.769 680.835 226.469 680.835 224.29C680.835 221.991 682.649 218.723 682.649 215.696C682.649 213.518 681.924 211.46 682.045 209.523C682.045 207.103 683.859 204.803 683.98 202.14C684.1 199.477 682.528 197.54 682.649 194.756C682.77 191.125 685.31 187.01 685.673 183.015C686.156 178.416 684.826 172.969 685.068 168.974C685.068 167.28 686.64 165.222 686.882 163.285C687.366 159.533 686.398 155.539 686.64 152.029C686.882 146.097 690.51 141.861 684.221 137.261C681.44 135.204 676.119 133.388 672.854 134.477C667.896 136.051 670.798 142.708 668.621 146.461L664.389 144.645L665.598 145.613L664.389 146.582C665.114 148.518 666.807 148.639 668.621 148.397C665.598 155.055 665.598 161.591 664.994 168.611C663.059 168.006 664.873 165.706 664.389 164.375C662.454 164.133 660.64 164.98 659.552 166.554C660.519 168.732 662.091 171.274 662.938 173.453C663.542 175.147 662.575 177.931 665.114 177.81L665.719 176.842C665.235 180.715 664.631 184.589 664.51 188.462C664.51 190.399 665.114 192.577 664.994 194.514C664.631 201.656 661.366 208.434 663.3 215.696C661.849 215.454 660.64 214.365 659.673 216.06C659.068 218.117 662.091 218.602 662.091 219.207C662.091 220.296 660.519 225.622 660.156 227.074C661.124 229.979 661.487 231.553 660.882 234.7C657.617 233.005 655.803 237.242 660.277 236.516L660.156 236.879ZM910.844 341.096C910.965 338.796 912.174 336.859 912.053 334.075C912.053 330.565 911.449 327.66 911.449 323.666C911.449 320.882 909.998 319.187 911.449 316.403C912.174 314.951 917.858 310.593 911.932 312.288C914.956 302.968 910.844 293.889 913.746 284.69L916.165 287.111C918.584 288.564 915.56 279.001 914.956 278.154C914.109 277.065 913.504 277.428 912.537 277.912C914.351 275.249 913.746 256.124 914.956 255.156C922.091 256.972 919.188 252.735 918.825 249.225C918.825 248.862 919.793 241.236 917.374 244.989C916.286 246.683 916.891 248.862 916.77 250.799C915.56 250.92 915.802 250.799 915.439 250.072C914.109 247.046 917.253 239.421 917.495 235.789C917.495 234.337 916.891 232.037 917.011 231.553C917.253 230.585 919.188 230.585 919.43 229.011C919.672 226.711 917.374 226.227 915.681 226.832C917.374 221.022 915.681 215.454 915.681 210.008C915.681 203.834 919.067 198.266 919.43 193.425C919.672 190.641 918.584 188.22 918.584 185.436C918.584 182.047 920.881 170.911 918.704 168.732C917.616 167.643 912.9 167.643 912.053 168.974C911.086 170.548 910.602 177.084 910.118 179.263C909.393 181.2 905.16 180.231 908.425 185.436C908.909 186.162 909.997 186.283 910.239 186.889C910.723 188.825 908.063 193.788 907.821 195.967C907.216 200.324 908.304 205.65 907.821 210.008C907.579 212.065 906.37 212.913 906.128 214.365C905.644 216.544 906.853 219.57 904.798 220.659C904.798 219.691 904.072 217.149 903.225 217.028C901.049 216.544 902.137 222.717 902.621 223.806C903.104 224.775 904.918 224.896 905.281 225.985C905.765 227.316 905.281 229.616 905.281 231.069L901.895 228.043L899.839 230.827L903.104 234.095C903.951 234.216 905.644 231.795 905.16 233.853C904.072 238.694 903.951 242.205 903.225 246.562C902.863 248.62 901.17 249.951 900.928 251.646C900.686 253.704 901.653 255.277 901.532 257.093C901.411 261.45 900.081 266.413 900.202 270.892L898.025 269.681L896.574 271.86L900.081 274.281C896.453 279.122 899.718 286.627 897.784 291.469C897.3 292.8 894.76 293.768 894.639 295.705C896.332 298.126 896.937 297.037 897.179 300.668C897.421 305.146 894.156 313.74 893.551 318.461C893.309 320.64 893.793 323.061 893.551 325.118C892.825 330.807 889.923 337.222 893.551 342.185C897.542 347.632 901.29 344.485 906.37 342.911C908.304 342.306 908.184 344.001 910.602 340.733C910.36 343.638 911.207 344.243 914.23 343.759L914.593 337.707L912.779 337.101C911.811 338.675 911.691 339.401 910.602 340.733L910.844 341.096ZM663.784 181.684H659.552L658.826 185.315H655.319V189.067C657.738 189.794 657.738 186.889 658.947 186.283C661.124 185.194 663.784 186.041 663.905 181.684H663.784ZM1166.49 188.462L1163.83 187.857L1162.86 189.309L1165.89 192.093L1166.49 188.462ZM653.989 206.739C655.319 206.013 661.124 207.466 660.761 205.287C659.189 203.108 655.924 203.592 653.384 203.108L653.989 206.739ZM650.966 211.097L650.603 213.639C652.175 215.212 654.715 215.212 653.747 212.428L650.966 211.218V211.097ZM1160.08 231.916C1158.27 232.279 1159.72 236.516 1161.29 236.153C1163.1 235.789 1162.02 231.432 1160.08 231.916ZM654.594 250.314C659.31 251.404 655.682 243.173 653.626 243.536C651.208 244.02 655.682 248.62 654.594 250.314ZM897.905 262.055C896.453 262.055 894.76 262.298 893.43 261.934C892.342 261.571 891.979 259.998 890.528 260.24C890.165 262.54 892.946 263.145 893.914 265.082C895.123 263.992 898.025 264.234 897.905 262.055ZM891.253 276.702C889.923 277.791 895.486 279.607 895.97 279.607C898.993 280.091 898.267 275.612 897.058 275.37C896.332 275.37 892.946 277.549 891.253 276.581V276.702ZM891.858 295.826C888.835 296.31 888.714 293.042 885.812 292.679C884.239 296.794 886.416 295.221 887.384 297.037C889.077 300.184 885.932 304.904 891.374 304.42L891.979 295.826H891.858ZM892.221 324.392C893.067 323.787 893.309 322.092 892.1 321.487L888.714 323.666C888.23 325.481 891.253 325.118 892.221 324.392ZM885.691 330.081C883.877 332.139 894.156 335.286 891.253 327.66L890.649 329.476L885.812 330.202L885.691 330.081ZM1422.74 337.464C1425.88 335.286 1433.26 327.902 1424.68 328.992L1422.74 337.464ZM550.352 331.291L546.119 330.686C545.878 334.075 549.868 335.044 550.352 331.291ZM887.505 335.044H882.667C883.03 336.012 884.239 336.012 885.086 337.101C885.691 337.828 886.174 339.764 886.537 339.885L888.109 339.522L887.384 335.044H887.505ZM1423.95 341.096C1423.47 342.669 1422.62 345.453 1424.55 346.301C1425.76 346.906 1426.73 345.816 1427.82 346.058C1428.67 346.301 1429.88 348.358 1431.08 345.937C1432.9 342.306 1427.82 344.243 1427.09 343.88C1426.01 343.274 1425.76 340.733 1424.07 341.096H1423.95ZM1432.54 343.032C1433.26 349.448 1439.07 351.021 1435.32 343.032H1432.54ZM1425.76 378.013C1425.76 379.103 1425.4 382.734 1427.34 382.25C1430.24 379.829 1429.75 377.771 1425.76 378.013ZM1430.48 397.501L1431.08 395.565C1429.75 392.66 1427.34 394.959 1426.97 397.259C1427.94 398.712 1429.27 398.227 1430.48 397.38V397.501ZM1151.74 400.648C1150.41 401.859 1157.18 406.095 1155.97 399.438C1154.64 400.285 1153.31 400.89 1151.74 400.648ZM547.329 403.795C545.515 403.19 543.096 405.974 544.91 407.185L547.329 407.427V403.795ZM1423.47 405.369C1423.47 405.369 1422.74 402.827 1420.32 403.674V410.09L1421.53 410.816L1426.37 409.847C1426.73 411.784 1423.95 411.542 1423.83 413.237C1423.83 414.81 1426.37 415.536 1427.21 416.626C1428.79 414.326 1427.7 411.542 1429.88 409C1429.88 408.637 1426.73 406.095 1426.25 405.853C1425.28 405.369 1424.07 405.853 1423.34 405.369H1423.47ZM542.371 412.268C541.282 412.268 540.073 412.268 539.226 413.116C536.324 416.747 543.701 419.047 542.371 412.268ZM887.746 425.704C886.9 424.736 887.142 422.315 883.877 422.799C882.425 426.067 891.616 432.724 891.012 428.004C890.891 426.793 888.23 426.309 887.625 425.704H887.746ZM896.695 431.998C895.849 428.73 896.937 423.767 892.463 423.404C893.793 424.978 892.221 427.156 892.705 428.246C892.825 428.609 895.728 432.119 896.695 431.877V431.998ZM542.854 444.344C542.008 443.497 538.985 443.013 538.138 444.465L543.58 447.249C543.58 447.249 543.217 444.828 542.854 444.344ZM867.309 446.644C867.067 447.855 868.277 448.46 868.398 449.549C868.76 451.244 867.188 453.059 869.365 454.633C872.026 452.938 870.333 450.396 869.123 448.218C868.639 447.37 868.639 446.402 867.309 446.765V446.644ZM866.705 485.377C865.253 485.377 863.923 486.104 863.802 487.677C863.439 491.793 868.398 488.282 866.705 485.377ZM907.821 498.813C906.974 503.171 912.416 500.145 912.053 498.45C910.844 496.513 909.393 498.692 907.821 498.813ZM861.505 501.96C859.207 501.96 861.505 510.433 865.495 505.349L861.505 501.96ZM910.118 505.712C910.118 505.712 908.184 505.107 907.458 504.381C906.128 505.349 906.249 507.165 907.095 508.375C909.635 511.159 911.932 507.528 910.118 505.712ZM712.035 506.439C712.035 506.439 709.979 505.107 709.375 504.986L706.956 506.923L702.361 505.591C701.393 509.707 708.166 509.707 710.947 508.617C711.552 510.191 709.859 509.586 709.738 510.191C708.407 516.122 713.849 515.517 713.97 512.612C713.124 511.522 712.398 506.802 712.035 506.318V506.439ZM692.566 516.606C692.566 516.606 692.566 511.159 692.566 510.191C692.686 508.86 696.193 506.681 694.017 506.197C693.049 505.955 689.663 507.77 689.421 508.496C688.938 509.949 688.212 516.001 689.784 516.606H692.445H692.566ZM1116.18 507.407C1108.08 505.712 1114.01 511.522 1115.58 510.433L1116.18 507.407ZM914.714 509.465C913.263 510.917 915.077 512.854 916.649 512.37C918.704 511.765 917.374 506.802 914.714 509.465ZM1032.14 514.67C1034.19 507.286 1029.84 507.649 1029.72 514.67H1032.14ZM681.561 512.975C682.528 510.554 677.691 508.86 677.328 510.796C676.966 512.491 680.352 513.338 681.561 512.975ZM602.594 512.37C602.594 512.37 602.11 520.359 598.845 521.206L600.417 522.658C604.287 521.448 603.198 518.664 603.924 515.88C604.408 514.306 607.431 511.644 605.496 510.433C605.859 512.491 602.836 511.886 602.473 512.37H602.594ZM864.891 511.765C859.932 511.28 861.384 516.243 863.319 519.148C865.495 519.632 864.528 512.854 864.891 511.765ZM1113.16 516.606C1113.89 507.77 1106.39 513.701 1110.86 516.122C1111.59 516.485 1112.31 516.606 1113.16 516.606ZM1023.67 517.211C1025.24 515.638 1016.66 512.491 1018.47 517.211H1023.67ZM861.746 520.359L859.933 520.601L859.449 524.595C863.923 524.837 859.086 526.169 859.449 527.379C860.295 528.71 861.505 529.074 863.077 528.953L860.658 531.131C861.867 533.915 866.705 532.342 866.1 529.921C865.858 529.074 864.165 528.953 863.802 527.863C863.077 525.805 864.044 522.658 861.746 520.359Z" fill="white"/>
<path d="M498.11 78.1929C498.957 78.9191 499.32 80.4927 500.771 81.34C503.673 82.9135 509.961 82.6714 512.017 86.0606C512.501 86.9079 512.622 88.3604 513.106 88.9656C514.073 89.9339 519.999 91.3864 522.296 93.4441C526.771 97.1964 527.012 99.9804 529.189 104.58C530.278 106.759 532.454 107.969 533.785 109.906C538.864 117.41 535.961 122.978 539.226 129.515C539.831 130.846 541.403 131.693 541.766 133.267C542.129 134.961 541.161 136.172 541.403 137.866C541.645 139.561 545.636 146.824 542.733 147.429L538.864 146.945L538.138 149.607L543.701 151.544C544.305 154.57 543.096 157.838 542.975 160.622C542.975 164.011 544.789 167.038 542.371 170.79L536.808 169.579L537.292 173.574L541.04 174.784C542.975 183.015 540.436 191.246 539.831 199.598C538.743 199.114 538.138 197.782 536.808 198.629C533.905 202.987 535.115 209.765 539.589 202.624C541.161 202.624 538.017 209.402 538.017 210.249C537.775 213.639 537.896 215.817 537.533 219.449C537.171 223.08 537.533 233.005 535.357 235.668C534.026 237.363 534.873 234.7 533.785 235.063C532.575 238.452 534.268 241.599 534.268 244.625C534.268 247.651 532.575 251.646 532.575 254.793L531.366 254.188C531.729 256.608 529.431 256.85 528.343 258.303C525.924 261.45 527.012 264.839 525.44 267.623C522.538 272.828 507.422 290.137 502.464 293.768C500.045 295.584 490.371 298.973 492.306 303.209C493.515 305.872 499.32 307.204 501.859 309.019C505.366 311.682 514.919 322.334 517.217 326.207C526.65 341.943 526.045 358.404 526.408 375.956C526.408 380.797 528.947 386.486 523.989 389.996C529.552 393.022 524.594 400.648 523.626 405.248C523.143 407.911 522.901 411.663 523.264 414.205H520.845C520.361 415.778 522.538 415.657 522.659 416.505C522.78 417.352 523.264 421.951 523.264 423.162C523.264 425.22 522.538 438.534 522.054 439.381C522.054 439.502 519.878 438.292 519.636 440.955C519.394 443.013 521.087 442.65 521.329 443.255C521.571 443.739 521.087 452.575 520.845 453.906C520.482 456.327 518.426 459.837 518.426 461.29C518.426 462.621 519.515 463.227 519.515 464.195C519.515 465.526 517.58 469.158 517.338 471.215C516.854 474.847 517.943 478.357 515.887 481.746H511.171C511.654 485.619 512.501 487.193 510.929 491.187C507.906 498.934 503.189 503.655 498.957 510.433C497.626 512.491 496.175 517.09 494.845 518.543C493.757 519.632 487.347 523.99 485.292 525.563C477.915 531.373 472.231 534.641 464.371 539.604C461.589 541.299 459.05 544.446 456.148 545.414C454.334 546.019 451.915 545.777 450.343 546.382C434.017 551.95 418.659 557.397 401.004 557.881C396.771 557.881 392.901 555.46 387.58 556.066C384.92 556.429 383.227 558.365 380.808 558.608C374.883 558.971 370.408 557.639 364.845 557.034C361.339 556.671 351.664 558.123 347.794 558.608C345.618 558.85 343.199 560.302 341.022 560.423C338.846 560.544 336.306 559.092 334.371 559.213C329.171 559.455 324.334 559.576 319.013 559.697C317.078 559.697 315.869 561.27 315.385 559.092C313.813 561.149 310.911 560.06 308.613 560.302C307.525 559.092 310.79 560.423 310.185 558.729C309.701 557.518 304.864 554.129 304.622 557.518L305.953 560.302C302.929 562.118 300.874 559.576 298.334 559.697C295.795 559.818 294.101 562.481 291.562 562.723H270.52C270.036 561.876 269.916 560.907 269.795 560.06C269.432 555.824 269.795 551.829 269.795 547.835C269.795 538.151 271.367 530.768 271.004 520.842C270.762 514.427 273.422 510.433 274.027 504.865C274.632 499.297 273.06 492.64 273.422 487.677C273.664 484.046 276.083 479.083 276.567 475.331C277.05 470.731 275.599 465.042 275.962 460.564C276.204 458.022 277.413 455.964 277.534 453.543C277.534 451.607 276.809 449.186 277.171 447.128C277.171 446.523 280.557 446.886 280.92 445.191C281.162 443.739 278.743 443.376 278.502 443.013C278.502 443.013 279.106 441.681 279.106 440.955C279.106 435.508 278.26 432.482 278.985 427.277C280.678 414.084 280.678 400.769 282.25 387.576C282.613 384.671 285.032 381.402 285.032 379.466C285.032 378.013 283.702 376.077 283.46 374.503C282.734 369.661 285.153 365.667 285.636 361.067C285.878 358.404 285.395 355.621 285.636 353.2C286.241 347.995 288.781 338.433 288.781 334.196C288.781 331.17 286.483 329.354 286.967 325.723C287.208 323.787 288.539 322.576 288.901 321.003C290.353 316.161 291.562 311.924 289.99 306.962L292.65 307.446C297.608 303.33 290.836 304.057 290.595 303.815C290.353 303.573 289.99 298.852 289.99 298.126C289.99 293.405 293.013 289.169 292.408 283.964C292.408 283.48 291.32 283.601 291.199 283.117C290.715 281.059 292.288 278.033 292.408 275.854C293.255 265.929 293.013 251.404 295.553 242.204C295.795 241.115 297.488 240.389 297.729 238.936C297.971 237.121 295.432 229.495 296.036 228.89H299.664V225.864L296.641 224.774V220.659L299.181 219.328C299.543 218.117 297.488 218.117 297.367 217.391C296.883 215.575 298.455 208.676 301.115 208.918V206.739L298.697 207.344C298.092 204.924 301.236 205.166 301.115 202.745C301.115 201.171 299.06 201.171 298.818 200.324C298.818 199.84 299.301 197.903 299.301 196.572C299.301 194.877 298.455 191.972 298.697 190.52C299.06 187.494 301.841 185.194 302.204 182.289C302.567 179.868 300.995 176.963 301.72 174.663C301.841 174.179 303.05 174.058 303.655 172.726C304.018 171.879 305.953 162.801 305.832 162.196C305.711 161.227 304.381 161.106 303.534 161.349L301.962 164.375C299.664 162.075 303.776 159.533 303.897 158.565C305.348 148.034 301.478 135.809 306.557 125.399L305.348 124.189C307.162 120.557 305.832 117.168 305.953 113.416L308.371 114.021C308.855 110.269 304.26 108.937 310.185 107.485V104.217L307.767 104.822V99.8593L309.339 101.07C311.757 99.9804 310.669 93.5652 310.911 91.2654L308.492 93.081C307.767 91.0233 307.404 89.5708 309.46 88.2393L311.636 90.6602V83.2766C307.041 83.6398 309.581 77.2245 312.846 75.651C317.078 73.5933 327.962 72.625 332.799 72.867C335.58 72.9881 338.604 74.1985 341.385 74.1985C345.013 74.0775 349.608 71.2935 352.511 71.0514C356.985 70.8093 364.362 72.3829 369.078 72.3829C373.794 72.3829 380.325 69.962 385.041 70.4462C387.943 70.8093 391.571 72.867 394.836 72.867C397.497 72.867 401.245 70.2041 404.631 69.962C411.524 69.2358 419.022 71.4145 425.31 70.8093C427.608 70.5672 428.817 68.8727 430.994 68.6306C435.589 68.2674 442.724 70.3252 447.562 69.962C450.222 69.72 452.399 68.1464 454.938 68.0254C462.557 67.9043 471.022 71.0514 478.036 73.1091C483.478 74.8037 494.361 74.4406 498.594 78.0718L498.11 78.1929ZM435.106 148.518L432.566 148.881L430.994 144.887L428.334 146.46C429.059 151.423 432.203 149.365 435.589 150.939L434.985 148.518H435.106ZM427.003 157.838C426.278 157.475 425.552 157.475 424.827 157.838L424.101 162.68C428.455 160.743 428.576 164.011 432.083 164.496C432.445 164.132 430.631 161.106 430.269 160.622C430.027 160.38 427.245 157.959 427.003 157.838ZM408.017 162.196L403.906 159.533C402.817 163.043 404.39 166.795 408.138 167.522C408.501 166.19 408.985 163.164 408.017 162.196ZM434.985 165.101C432.566 165.948 434.38 169.095 438.008 168.732C442.724 168.248 438.976 163.769 434.985 165.101ZM411.887 173.695C411.766 171.758 410.194 168.369 407.897 168.732C407.05 171.879 405.841 172.363 403.301 173.937C404.269 177.447 405.115 172.242 407.897 174.179C408.38 174.421 410.92 177.931 411.041 178.294C412.25 182.289 409.469 185.557 409.348 188.583C409.348 190.399 410.194 192.335 409.952 194.635C409.59 197.903 406.929 201.292 408.138 205.408C406.929 203.229 402.092 206.255 401.971 207.586C401.971 208.676 402.938 210.249 403.906 210.613C405.478 211.218 406.566 208.918 407.292 210.249L407.534 216.423C405.357 217.028 406.083 212.428 404.148 212.67C402.576 212.912 400.883 215.333 400.278 216.786L402.455 219.449L405.72 217.028C404.39 219.328 405.962 220.659 406.083 221.99C406.083 223.927 405.115 227.316 405.115 229.616C405.115 231.553 406.566 239.905 405.72 240.994C402.455 239.178 401.124 245.109 405.115 243.415C405.962 248.62 403.543 261.45 410.92 261.934C417.571 262.297 423.738 258.061 425.069 251.525C425.794 248.257 424.948 245.352 425.069 242.325C425.31 238.452 426.641 232.884 427.124 228.406C427.366 226.832 428.938 225.138 428.213 223.201H426.399C426.278 221.022 428.092 219.328 428.213 217.27C428.213 215.454 427.003 213.154 427.124 211.218C427.124 209.039 428.817 206.86 428.938 204.681C430.148 205.287 430.269 207.102 431.115 208.313C431.599 208.918 432.808 209.16 433.171 210.007C433.534 210.976 433.171 212.428 433.292 213.518C433.655 215.575 435.106 217.996 433.896 219.812C432.808 221.385 429.785 221.264 429.543 223.443C429.906 225.016 435.469 223.322 435.106 227.074C434.985 228.648 431.72 230.948 436.315 231.069C436.557 226.59 438.855 219.085 437.524 214.849C437.041 213.518 436.194 213.033 435.831 212.186C434.743 209.16 433.776 202.382 429.543 203.471L430.148 187.373L431.72 186.888C432.929 188.583 437.041 196.088 439.338 193.425C440.789 191.73 439.338 188.704 437.766 187.615C436.073 186.283 433.896 186.888 432.203 185.799C431.841 185.315 431.72 181.926 431.962 181.199C432.203 180.473 437.162 180.473 433.896 176.842C433.292 176.237 432.083 175.874 431.72 175.268C431.236 174.542 432.687 171.274 428.696 173.453L428.455 176.6C426.278 175.026 424.343 173.453 424.101 170.548C420.715 168.611 420.11 170.79 417.813 171.637C416.12 172.242 413.217 171.637 413.097 173.453H411.887V173.695ZM400.883 201.171C400.883 201.171 399.794 197.056 397.738 197.54V204.924C399.552 202.987 402.938 204.197 404.873 202.503C405.599 201.898 406.203 199.84 405.72 199.356C404.39 197.903 403.18 202.503 400.883 201.05V201.171ZM395.924 237.484L397.738 237.847C398.706 237.121 398.706 235.063 399.311 234.458C400.278 233.368 402.576 234.458 402.697 232.279C403.059 228.164 396.771 223.201 395.924 227.437C395.199 230.705 396.045 231.674 396.287 234.216C396.287 235.063 395.441 237 395.924 237.484ZM435.106 244.262L435.71 236.879C434.017 238.936 427.971 238.573 430.873 242.083C431.236 242.447 434.864 244.625 435.106 244.262ZM420.231 266.776C421.441 264.839 422.529 263.387 419.506 263.266C414.79 263.024 417.208 267.381 416.483 268.834C415.757 270.407 412.371 266.655 413.097 269.076C413.701 271.133 415.757 271.86 417.571 271.133C419.022 270.649 418.296 268.713 418.901 267.502C419.143 267.139 419.99 267.018 420.231 266.655V266.776ZM406.687 357.436C402.697 357.436 398.101 357.92 395.683 361.431C392.78 365.546 394.715 367.846 394.473 371.719C393.627 386.002 389.515 400.527 391.571 414.447C392.055 418.078 389.999 420.862 389.757 424.251C389.636 426.551 390.483 428.609 390.362 430.303C390.241 432.24 388.306 433.692 387.943 435.266C387.459 438.05 387.58 449.428 387.943 452.454C388.306 455.722 394.594 456.569 397.376 456.206C400.157 455.843 407.534 454.148 408.743 451.728C409.952 449.428 410.678 442.65 411.283 439.623C412.129 435.508 413.58 431.393 413.943 427.035C414.064 424.977 412.734 423.041 412.492 421.104C411.766 415.778 413.822 412.873 414.306 408.274C414.79 404.158 413.822 397.38 414.91 393.507C415.515 391.449 416.966 389.27 417.208 387.697C417.45 385.276 416.12 381.281 416.241 378.861C416.483 373.777 420.715 369.419 417.934 364.093C415.273 359.131 412.129 357.315 406.687 357.315V357.436ZM292.167 540.814C287.45 538.999 289.506 547.23 292.65 544.325C293.86 543.114 293.497 541.299 292.167 540.814ZM280.678 541.177C276.204 541.177 278.018 547.593 281.646 548.44L283.097 546.503C281.525 544.809 280.195 543.84 280.678 541.177ZM299.06 550.982C297.246 555.339 306.194 554.492 306.436 553.161L305.227 550.377C303.171 552.434 301.599 551.345 299.06 550.982ZM288.66 557.155C288.418 562.36 292.65 561.149 294.222 557.518L292.046 552.919C289.506 555.097 292.892 555.097 292.408 557.155H288.781H288.66ZM281.162 556.066C280.557 555.097 273.906 555.097 273.906 556.187C276.688 558.123 278.139 560.907 281.525 561.997C283.097 560.181 281.888 557.881 281.041 555.945L281.162 556.066Z" fill="white"/>
<path d="M260.362 345.332C260.362 345.332 258.669 345.574 258.185 346.179C256.25 348.116 259.274 354.289 259.757 356.952C260.483 360.825 261.088 368.572 260.725 372.324C260.483 374.745 258.548 377.166 258.669 378.861C258.79 381.039 261.692 383.823 261.692 386.849C261.692 389.27 260.12 392.054 259.878 394.838C259.516 399.075 260.967 401.98 260.967 405.248C261.088 411.3 259.395 420.015 259.878 426.188C259.999 428.609 261.209 430.303 261.209 432.966C261.209 435.871 259.878 438.655 259.878 441.56C259.878 447.854 261.692 453.664 262.297 459.474C262.539 461.774 262.297 467.826 260.846 469.521C260.241 470.247 258.79 469.884 258.669 470.489C257.823 473.394 260.725 472.91 261.209 473.636C263.264 476.541 261.209 485.377 261.209 488.887C261.209 492.519 260.967 499.176 261.209 502.444C261.33 505.228 263.143 507.044 263.143 509.828C263.143 512.612 261.209 516.485 261.209 519.632C261.209 524.716 261.934 531.01 261.934 536.215C261.934 538.757 262.418 548.561 261.088 549.893C260.362 550.619 252.864 552.919 251.655 553.04C249.478 553.282 247.423 552.192 245.004 552.434C241.376 552.676 239.32 555.46 235.088 553.766C233.999 553.282 233.032 551.829 232.064 551.829C231.097 551.829 230.371 553.161 229.525 553.524C223.72 555.945 218.037 552.071 212.837 554.855V551.466C209.572 550.256 210.297 553.887 211.023 556.066H206.065C207.032 550.861 202.558 550.014 204.251 555.46L187.079 556.066L187.683 554.25C185.265 553.524 183.33 552.798 183.33 556.066C181.032 555.218 178.855 556.55 176.316 556.671C170.027 556.913 163.739 556.187 157.33 556.671C154.427 556.913 153.46 558.608 149.59 557.518C143.06 555.824 146.083 549.893 145.358 544.93L147.534 547.351L150.195 544.083C150.195 542.509 148.139 542.146 147.897 541.42C147.655 540.572 148.623 539.362 148.381 538.515C148.381 538.151 145.116 536.699 146.567 535.125C147.414 534.157 150.921 537.546 151.404 536.941C151.525 532.463 152.13 528.347 146.446 529.315C148.139 527.137 157.451 530.042 157.451 526.289C157.451 524.353 154.669 524.837 153.823 523.99C153.339 523.505 149.469 513.459 149.348 512.733C149.348 511.28 150.921 510.433 150.558 509.223C150.195 507.77 147.293 507.891 147.051 507.528C145.6 505.712 148.744 497.239 148.744 494.455C148.865 491.066 147.534 488.282 148.744 485.014C151.162 484.651 151.646 487.919 154.307 486.588C156.362 485.498 154.669 483.683 155.153 482.593C155.637 481.625 157.814 480.899 157.33 479.204C156.846 477.752 152.855 477.873 152.13 479.446L152.372 482.593C150.437 481.383 147.897 483.441 147.414 481.02C146.688 476.299 149.953 472.305 150.437 467.826C153.339 469.642 157.209 470.126 157.209 465.647C157.209 464.679 156.483 463.106 156.604 462.621C156.846 461.774 159.023 462.258 158.418 459.595C158.176 458.385 152.734 454.512 152.251 454.996L155.274 458.627H151.646L149.711 461.653L150.8 457.175C147.776 454.875 146.809 451.486 142.576 451.243C140.4 451.243 138.344 452.212 136.167 451.849L136.772 445.676C133.507 446.765 131.814 445.07 128.79 444.465L131.814 447.37C132.418 452.817 124.437 452.091 125.162 447.007C123.107 447.975 120.93 449.307 121.535 451.849C128.307 453.422 121.414 457.901 120.93 459.716C120.93 460.08 120.809 466.132 120.809 466.979C120.809 469.037 122.381 470.61 122.018 473.031C121.776 474.726 120.204 475.936 119.6 478.115C118.874 481.02 120.204 484.893 120.083 487.919C120.083 488.888 118.753 490.219 118.511 491.671C117.181 499.902 116.939 508.254 115.246 516.364L111.376 515.154C110.288 515.517 109.925 517.695 110.772 518.301C114.4 518.664 116.214 520.358 115.851 523.99C115.73 525.684 114.4 535.125 113.916 536.215C113.19 537.909 107.144 541.056 112.828 542.509L109.2 557.881L106.781 556.55C105.935 555.46 108.474 553.161 107.99 552.676C106.176 551.103 104.967 555.218 105.572 557.155C105.814 558.002 107.869 557.76 107.386 559.455C100.13 559.455 92.8742 560.907 85.6184 561.27C78.9672 561.634 72.0742 561.149 65.4231 561.392C63.7301 561.392 61.9161 562.36 60.465 562.36C58.651 562.36 56.8371 560.786 55.0231 560.786C51.1534 560.665 44.9859 563.57 40.8743 563.812C38.5766 563.812 36.279 562.965 33.4976 563.207C31.1999 563.328 28.7813 564.539 26.7255 564.539C24.9116 564.539 23.4604 562.965 21.7674 562.965C19.9534 562.965 17.8976 564.297 16.2046 564.418C12.6976 564.902 2.78138 563.449 0.604644 560.544C-2.53953 556.187 1.81394 553.282 2.41859 550.014C3.02324 546.745 1.33022 543.961 1.81394 540.814C2.0558 539.241 3.2651 537.788 3.74882 535.973C7.01393 522.053 9.43253 508.375 12.6976 494.576C14.5116 486.951 15.7209 481.867 15.9627 473.878C15.9627 472.547 15.1162 471.215 15.3581 469.642C15.6 468.068 17.7767 467.221 18.1395 465.647C18.3813 464.558 17.293 463.469 17.4139 462.258C17.5348 460.322 19.8325 455.601 20.1953 452.817C22.8557 433.208 25.1534 413.236 31.1999 394.596C33.7394 386.849 32.1674 381.402 33.2557 373.898C34.2232 366.756 37.6092 360.704 38.6976 352.958C40.7534 337.827 43.5348 321.85 46.0743 306.357C46.7999 302.241 47.7673 298.852 48.372 295.221C50.6696 282.269 52.7254 269.923 54.7812 256.85C57.8045 237.605 64.4556 219.328 66.8742 200.203C67.1161 198.387 66.5115 196.814 66.8742 194.756C67.237 191.972 69.051 189.793 69.2928 187.251C69.5347 185.073 69.051 182.894 69.2928 180.11C70.5021 170.669 73.0417 161.954 74.251 151.907C74.6137 148.639 77.5161 143.919 77.637 141.861C77.637 140.045 75.944 138.472 76.0649 136.535C76.3068 134.114 79.33 132.056 79.9347 129.394C80.6602 126.246 79.4509 124.431 79.5719 121.768C79.9347 116.563 84.7719 113.658 83.1998 107.848C86.4649 110.874 86.5858 104.701 83.1998 106.638L84.4091 97.4385L89.2463 99.2541C90.0928 98.4068 85.6184 95.1387 85.2556 94.2914C83.8044 91.1443 88.2788 83.8818 88.2788 80.2506C89.8509 76.0141 94.2044 74.4406 98.437 74.0775L97.8323 77.1035L107.265 79.6454L111.256 76.2562L110.167 74.3195L111.135 72.9881C114.037 72.867 115.972 74.3195 118.995 74.1985C122.018 74.0775 125.646 72.5039 128.186 72.2618C132.781 71.8987 137.618 72.9881 141.73 72.867C145.841 72.746 153.097 69.841 156.483 69.841C161.079 69.841 168.818 71.6566 172.93 71.5356C190.344 70.9304 208.12 68.9937 225.776 68.7516C233.999 68.6306 242.102 68.0254 250.325 67.4202C254.557 68.0254 257.339 75.651 257.339 79.4033C257.339 83.5187 255.041 87.8762 255.404 92.2337C255.646 95.1387 258.064 98.1648 258.185 100.828C258.185 103.006 256.734 105.185 256.734 107.001C256.734 111.6 257.823 116.321 257.218 121.647C256.613 126.973 256.492 126.125 256.734 131.572C256.976 137.019 255.283 142.587 255.404 146.339C255.404 148.518 257.339 150.334 257.339 153.118C257.46 163.527 255.888 175.631 256.13 185.557C256.25 191.609 259.032 202.382 258.427 207.708C257.702 214.244 257.097 220.78 257.218 227.437C257.218 229.737 259.153 232.037 259.153 234.216C259.153 235.789 258.064 237.363 257.943 239.178C257.097 249.951 258.427 260.361 258.548 271.133C258.548 277.186 257.46 280.696 257.218 285.901C257.218 289.048 258.669 291.711 258.548 294.494C258.306 298.368 256.25 301.394 256.613 306.236C256.855 309.262 259.032 311.44 259.153 314.224C259.153 316.282 257.943 317.856 257.823 319.792C257.823 321.85 258.911 324.392 259.032 326.571C259.274 330.081 258.064 334.801 258.427 337.585C258.669 339.643 260.725 344.727 259.637 346.421L260.362 345.332ZM106.781 84.245C106.781 84.245 106.418 84.9712 106.297 85.3343L106.902 86.5448C108.353 85.3343 111.376 86.7868 112.102 86.3027C113.795 85.3343 113.795 79.8875 112.102 78.7981C108.837 78.0718 109.683 81.2189 108.716 82.7925C108.232 83.6398 107.265 83.6398 106.781 84.245ZM102.307 88.9656C102.79 87.392 100.614 82.5504 98.9207 82.7925C97.7114 83.0345 98.4369 84.366 98.5579 84.9712C98.9207 87.5131 99.2835 89.3287 102.307 88.8446V88.9656ZM98.1951 95.865C95.6556 98.4068 99.8881 101.312 101.46 98.77C102.79 96.5912 100.13 93.9283 98.1951 95.865ZM156.967 344.122C155.395 340.49 157.814 337.464 160.474 335.407C154.427 331.654 157.934 330.202 157.934 325.602C157.934 323.908 156.725 322.092 156.846 320.155C157.088 313.256 158.66 305.388 158.66 298.005C158.66 281.664 160.716 264.839 160.474 248.257C160.353 237.484 159.869 228.164 161.804 217.028C162.288 214.244 164.707 212.428 164.827 209.039C164.948 206.739 164.223 204.924 164.102 202.866C164.102 197.782 165.069 192.214 164.586 187.009C163.255 182.894 159.144 182.289 156.121 185.194C157.209 190.399 155.032 194.756 154.307 199.235C152.614 210.734 152.372 222.233 151.162 233.489C150.8 236.637 148.865 241.236 148.744 244.625C148.744 247.288 149.832 249.588 149.348 252.493C148.986 254.672 147.051 256.729 146.567 258.908C144.39 270.286 145.479 282.632 144.148 294.01C143.544 298.489 140.641 305.025 140.762 309.019C140.762 311.077 143.302 312.651 143.06 314.466C143.06 315.677 141.125 317.734 140.762 319.55C139.916 324.755 140.4 330.323 139.069 335.649C138.223 339.159 135.562 343.153 135.2 345.937C134.837 348.721 136.893 352.958 134.595 355.136C136.772 355.136 136.167 356.589 137.376 357.799C143.786 364.215 158.176 359.615 155.395 348.6C156.725 349.932 159.99 349.932 160.958 348.237C161.562 347.027 159.507 347.39 158.781 346.784C158.297 346.3 158.297 345.332 157.814 344.727C157.572 344.364 156.846 344.243 156.725 344.122H156.967ZM136.53 334.317C137.255 333.712 137.739 330.081 135.2 330.807C131.935 331.654 134.232 336.012 136.53 334.317ZM135.321 342.911C135.321 342.911 136.772 339.038 136.893 338.675C137.135 337.585 137.135 337.585 136.167 336.859L131.693 340.369C131.33 342.064 134.111 344.001 135.2 343.032L135.321 342.911ZM254.92 440.592C261.571 440.592 257.702 433.087 254.92 437.929C254.316 439.018 254.678 439.502 254.92 440.592ZM251.05 452.938C247.906 455.722 252.381 458.627 255.283 456.569C256.371 453.543 253.832 452.212 251.05 452.938ZM112.465 458.022C111.497 458.869 109.442 460.08 111.256 461.411C115.367 460.564 116.818 454.149 112.465 458.022ZM114.762 475.936C113.916 475.21 113.795 473.394 112.102 473.636C110.046 478.599 118.753 482.109 116.939 477.025C116.576 476.057 115.246 476.299 114.762 475.815V475.936ZM113.916 482.23C111.739 481.746 111.739 483.562 110.53 484.651C109.079 485.014 107.869 480.536 106.539 484.409C111.256 489.009 115.972 492.035 113.916 482.23ZM104.725 513.58H106.781C108.716 512.854 107.869 508.496 106.176 507.407C104 506.923 104.725 512.491 104.604 513.58H104.725ZM250.688 508.617C249.72 509.465 255.525 513.822 256.25 511.401C256.976 508.738 252.26 508.375 250.688 508.617ZM108.474 522.779C106.781 521.569 103.879 525.805 106.297 526.41C108.595 527.016 109.321 523.384 108.474 522.779ZM109.079 541.178L103.879 543.719L102.911 545.777C106.781 548.682 109.321 545.051 109.079 541.178ZM237.144 541.783C234.604 540.572 232.064 541.904 231.097 544.446C233.999 548.561 235.692 544.93 237.144 541.783ZM239.683 545.414C242.102 546.382 246.092 547.956 246.334 543.961C244.52 541.904 241.86 543.84 239.562 543.598V545.414H239.683ZM196.027 547.351C193.609 546.382 191.795 545.535 189.255 546.988C188.046 547.835 189.739 548.077 189.739 549.287C189.739 549.893 189.134 550.74 189.255 551.587L192.279 550.619L196.027 547.351ZM153.581 553.04C152.614 552.192 151.283 552.192 150.074 552.192C148.744 553.403 153.46 557.639 154.911 554.976C154.186 554.613 153.944 553.403 153.46 553.04H153.581ZM175.59 552.313C171.841 555.097 175.953 557.639 178.372 554.371L175.59 552.313Z" fill="white"/>
<path d="M1604.38 3.51021C1605.59 4.11542 1612.96 4.84167 1614.9 4.96271C1618.89 5.08375 1619.13 4.3575 1622.4 5.44688C1623.12 5.68896 1628.56 6.6573 1628.93 6.6573C1629.89 6.41521 1629.89 4.23646 1631.34 4.3575C1633.4 4.96271 1634.49 7.02042 1631.71 7.38355C1630.98 8.35188 1637.63 10.6517 1638.72 10.4096L1639.33 8.59396C1641.14 9.07813 1640.66 10.8938 1641.87 11.62C1644.16 13.0725 1649.12 13.5567 1651.78 14.646C1652.27 14.8881 1656.62 17.309 1656.86 17.5511C1657.47 18.1563 1657.47 19.0036 1657.47 19.7298L1658.43 18.5194C1661.7 20.6981 1665.08 22.8769 1668.23 25.2977C1670.28 26.8713 1681.17 35.5863 1682.01 36.6756C1683.1 38.4913 1683.95 41.6384 1685.28 43.8171C1687.21 46.9642 1690.36 50.1113 1691.81 53.2584C1694.35 58.4632 1699.55 71.7777 1700.27 77.2246C1700.76 80.2507 1699.79 82.0663 1699.79 84.4871C1699.79 88.4815 1701.6 102.401 1699.79 104.58C1699.07 105.548 1696.28 105.306 1696.65 109.301L1699.43 109.906C1700.64 115.232 1701.6 120.679 1700.27 126.247C1699.91 127.699 1697.86 129.03 1697.98 129.999C1697.98 130.604 1699.55 131.33 1699.91 132.178C1701.6 135.325 1698.34 140.772 1697.86 144.161C1697.61 146.46 1698.58 156.144 1696.77 156.628L1692.66 156.144C1691.08 156.386 1691.69 159.533 1692.66 159.775L1697.73 159.17C1697.73 160.259 1698.34 161.228 1698.22 162.438C1698.1 164.133 1693.14 173.332 1691.57 172.121C1694.71 168.853 1690.36 168.127 1689.39 166.553C1688.91 165.827 1690.36 163.769 1687.58 164.133C1685.88 164.133 1685.76 166.19 1686 167.522C1686.37 169.337 1688.79 169.216 1688.42 170.548C1687.21 171.153 1685.52 173.816 1684.43 173.937C1682.38 174.3 1679.72 173.09 1677.42 173.937C1678.51 171.153 1675.36 169.822 1675 168.611C1674.76 167.643 1675.97 166.553 1675.24 165.948C1671.49 165.948 1672.7 169.337 1670.04 171.153L1672.46 173.937C1670.53 174.179 1668.47 175.632 1666.53 175.753C1664 175.995 1662.67 174.663 1660.49 174.542C1658.92 174.542 1648.27 173.937 1647.67 173.937C1638 175.753 1622.03 177.447 1612 176.963C1608.73 176.842 1605.1 174.905 1602.56 174.784C1601.35 174.784 1600.39 175.995 1599.3 175.632C1598.33 175.389 1597.6 173.211 1595.79 173.816C1595.79 174.663 1595.67 175.632 1595.79 176.479C1596.15 177.689 1598.57 177.084 1597 178.415C1595.55 179.626 1589.87 177.568 1590.23 175.995C1590.47 175.026 1593.49 174.663 1593.86 173.453C1594.58 171.274 1591.92 170.548 1592.16 169.337C1592.4 167.764 1596.15 164.617 1596.76 162.196C1597.12 160.864 1597.36 158.323 1597 157.112C1596.88 156.628 1593.01 155.054 1594.58 151.786L1590.95 153.118V155.539L1593.98 156.144C1592.4 157.354 1592.65 164.133 1592.04 164.738C1591.8 164.98 1590.59 164.617 1590.11 164.738C1589.62 164.859 1588.05 167.401 1586 167.159C1585.39 160.017 1585.15 153.118 1587.2 146.097L1591.56 144.766C1592.16 142.103 1588.54 141.377 1588.54 141.014C1588.29 140.045 1588.66 136.777 1588.9 135.567C1589.14 134.477 1589.74 131.209 1591.07 132.178C1588.66 137.019 1589.74 138.835 1594.46 140.772C1595.31 140.772 1596.4 135.93 1596.27 134.962C1596.03 132.057 1589.74 130.604 1589.26 127.457C1588.17 120.437 1595.07 109.18 1583.94 106.396H1583.09C1581.88 111.116 1577.89 107.606 1576.44 108.09C1570.4 110.39 1570.03 118.379 1571.24 123.826C1571.48 124.552 1576.08 124.068 1570.64 126.489C1572.09 134.962 1568.22 142.95 1567.86 151.302C1567.86 153.481 1568.7 158.202 1568.34 160.017C1568.22 160.622 1567.01 160.743 1566.53 161.47C1563.14 167.159 1567.74 166.432 1570.03 170.064C1570.76 171.274 1570.88 172.727 1571.61 173.937C1573.06 176.479 1574.87 178.9 1576.08 181.563C1575.96 183.136 1567.74 184.104 1570.03 187.736C1572.33 189.188 1574.75 186.888 1575.23 187.009C1576.08 187.009 1577.89 190.762 1579.83 189.914L1579.47 184.952L1582.25 188.341L1580.67 191.73L1583.82 195.361C1587.81 194.272 1592.77 196.814 1591.44 201.534L1594.22 195.967C1596.76 198.751 1601.11 199.84 1603.89 201.534C1607.04 203.592 1610.06 206.739 1612.84 209.039C1613.93 209.886 1616.23 209.765 1614.9 211.218C1612.72 209.886 1611.03 211.218 1610.3 213.397L1610.91 215.212L1616.71 214.728L1617.68 212.307C1619.86 211.944 1620.7 214.244 1622.4 215.333C1626.02 217.633 1630.13 219.086 1633.64 221.869C1635.7 223.564 1637.39 226.59 1638.84 227.679C1642.35 230.221 1648.27 229.616 1647.07 235.91C1646.82 237.242 1645.01 237.968 1646.7 239.299C1649.73 241.599 1650.33 236.637 1649.85 234.337C1650.45 234.942 1651.18 235.547 1651.66 236.152C1656.62 243.294 1662.18 247.53 1667.38 255.277C1667.99 256.245 1670.16 257.94 1670.28 258.545C1670.53 259.998 1668.23 261.329 1667.99 262.297C1667.74 263.387 1668.83 266.897 1667.99 268.592C1670.4 267.381 1670.53 264.234 1670.4 261.813H1672.22C1673.55 268.107 1676.69 274.523 1678.02 280.817C1678.39 282.39 1677.78 284.811 1678.39 286.506C1678.75 287.474 1682.98 291.832 1683.47 293.042C1686 299.578 1683.1 303.694 1682.86 309.383C1682.62 315.072 1684.55 324.755 1683.71 330.565C1683.22 334.075 1680.32 336.496 1680.2 340.006C1679.96 344.848 1682.13 352.11 1682.13 357.194C1682.13 359.252 1680.44 360.583 1679.96 362.399C1677.78 369.904 1680.08 382.129 1678.39 390.844C1677.9 393.628 1676.21 397.017 1675.48 400.285C1674.27 405.853 1674.03 415.536 1671.73 419.894C1670.89 421.588 1669.32 422.92 1668.47 424.614C1666.41 428.972 1667.14 434.903 1665.33 438.655C1664.48 440.35 1662.54 440.955 1661.21 442.529C1658.07 446.281 1656.26 452.817 1653.47 456.206C1651.54 458.506 1648.88 459.353 1646.58 462.743C1642.71 468.31 1644.4 467.826 1638.84 472.789C1628.8 481.504 1617.92 487.193 1606.19 492.882C1604.5 493.729 1603.41 495.545 1601.35 496.634C1595.31 499.781 1581.04 502.928 1573.66 505.107C1568.58 506.681 1566.89 505.47 1562.9 505.954C1558.91 506.439 1557.7 508.012 1551.77 507.77C1542.82 507.286 1540.65 508.133 1531.94 509.465C1525.53 510.433 1523.96 506.318 1519.73 505.47C1515.74 504.623 1510.78 506.075 1506.67 504.744L1506.06 499.781C1503.76 499.781 1503.64 503.049 1503.64 504.744C1497.96 503.413 1492.4 501.476 1487.2 498.813C1485.02 497.724 1483.21 495.787 1480.79 494.819C1478.61 493.85 1475.83 493.729 1473.89 492.519C1473.41 492.156 1465.79 485.135 1464.94 484.288C1463.13 482.351 1462.28 480.051 1460.11 478.115C1458.66 476.904 1454.91 475.452 1454.67 475.21C1454.67 475.21 1455.03 474.363 1454.79 474.12C1451.52 470.489 1452.25 469.642 1450.19 465.89C1449.1 463.953 1447.05 461.895 1445.35 460.201C1445.6 458.869 1448.98 458.99 1448.38 457.78C1447.65 455.964 1444.39 458.264 1442.94 457.417C1441.97 454.754 1442.33 452.091 1441.61 449.307C1440.88 446.765 1439.07 444.949 1438.34 442.771C1435.8 434.782 1435.56 424.978 1434.83 416.747C1434.59 414.568 1433.5 413.115 1433.62 410.695C1433.62 406.942 1435.44 403.069 1436.04 399.559C1436.41 397.864 1435.8 395.806 1436.04 394.233C1436.04 393.749 1437.61 393.628 1437.74 392.175C1437.86 390.723 1436.65 390.239 1436.65 389.27C1436.04 383.702 1438.34 375.471 1438.58 369.661C1438.7 364.336 1437.98 365.667 1439.43 360.099C1441.12 353.563 1439.07 345.332 1440.64 340.127C1441.12 338.554 1442.21 338.07 1442.45 337.464C1442.81 336.496 1441.73 333.47 1443.42 332.139L1449.95 333.712C1451.4 332.744 1450.8 331.896 1450.31 330.686C1452.49 330.686 1454.42 331.412 1456.72 331.291C1473.89 331.049 1487.56 327.418 1505.09 329.112C1510.17 329.597 1515.25 327.055 1519.85 327.539C1521.66 327.781 1523.11 328.991 1525.05 328.749C1524.44 329.839 1522.99 329.597 1521.66 330.565C1516.82 334.317 1526.14 339.522 1527.83 334.317C1528.43 332.502 1528.31 329.96 1527.47 328.144L1538.83 325.602C1543.31 326.934 1550.56 325.118 1551.41 330.928C1551.65 332.865 1552.26 340.127 1552.14 341.943C1551.77 346.421 1549.11 352.352 1548.99 358.526C1548.75 368.209 1548.63 378.134 1547.78 387.939C1547.54 390.117 1546.45 391.57 1546.45 394.112C1546.57 407.426 1559.27 410.331 1566.65 400.164C1566.4 396.896 1567.13 393.628 1567.37 390.481C1567.74 385.518 1567.98 380.071 1567.98 375.108C1567.98 373.172 1567.61 370.146 1567.98 368.33C1568.46 365.788 1570.88 368.33 1571.12 365.909C1571.12 364.457 1569.91 363.246 1569.79 361.552C1569.79 359.373 1569.79 354.652 1569.91 352.352C1569.91 350.658 1571.73 349.447 1571.73 346.906C1571.73 343.759 1569.55 341.701 1569.19 339.522C1568.94 337.464 1570.03 335.649 1569.79 333.47C1569.43 331.049 1567.61 330.444 1566.53 328.749C1561.69 321.487 1560.96 321.729 1554.8 316.282C1552.98 314.708 1546.81 308.051 1545.6 307.325C1542.94 305.63 1537.02 304.178 1534.24 302.362C1532.3 301.152 1530.73 298.731 1528.92 297.278C1523.6 293.284 1514.89 290.621 1511.14 284.327C1510.29 282.996 1510.54 281.059 1509.33 279.97C1508.48 279.122 1506.91 279.001 1506.42 278.517C1505.58 277.428 1507.03 275.975 1506.18 275.128L1502.43 274.523L1501.59 278.517C1497.6 273.433 1491.19 271.497 1486.59 267.139C1481.51 262.297 1477.88 254.793 1472.44 249.951C1477.52 247.651 1471.96 244.262 1471.84 243.657C1471.11 240.51 1477.04 239.421 1474.62 236.152C1473.53 234.7 1473.77 236.516 1472.68 237.363C1472.2 237.726 1470.99 237.726 1470.75 238.21C1470.39 238.815 1470.87 240.873 1469.66 241.115C1467.12 241.599 1463.98 236.273 1464.7 235.063C1466.28 232.521 1469.06 236.152 1470.63 235.426C1472.2 233.732 1473.53 231.795 1472.44 229.616H1470.63C1470.75 230.584 1470.63 233.005 1469.06 232.642L1464.7 229.011L1462.53 231.432L1458.9 217.996C1463.98 219.933 1464.34 211.339 1461.68 211.823L1458.9 213.639C1459.62 211.581 1457.45 210.613 1457.21 209.523C1456.72 207.95 1457.45 203.471 1457.08 201.171C1456.72 199.477 1455.75 198.024 1455.51 196.693C1454.42 190.762 1454.3 183.499 1457.57 178.173C1458.29 176.963 1460.23 176.963 1460.35 175.389C1460.59 172.727 1458.17 172.242 1457.93 171.879C1457.81 171.516 1458.54 166.553 1458.54 164.859C1458.54 163.285 1457.81 161.833 1457.93 160.259C1459.26 160.864 1460.59 161.47 1461.56 160.017C1460.59 157.838 1461.32 156.023 1458.54 155.66C1458.05 151.544 1460.23 147.066 1464.1 151.06L1465.31 145.25C1463.01 143.434 1462.41 147.187 1461.32 146.824C1459.26 145.613 1459.38 142.103 1460.23 140.166C1460.71 138.956 1462.16 139.561 1462.28 137.261C1462.41 134.719 1460.95 134.235 1460.47 132.783C1459.5 129.273 1463.25 124.915 1463.37 121.163C1463.37 118.863 1461.32 115.353 1461.56 112.69C1461.68 110.995 1463.49 109.18 1463.86 107.606C1464.34 105.185 1463.25 103.612 1463.49 101.796C1463.74 99.7384 1466.15 97.0755 1466.76 94.6546C1467.36 92.2338 1467.12 88.3605 1467.73 86.4238C1467.97 85.5765 1469.54 85.5765 1469.9 84.245C1470.27 82.6715 1468.81 82.3084 1469.42 80.7348C1470.39 77.7088 1473.77 77.3457 1474.74 75.6511C1475.47 74.4407 1475.59 72.1409 1476.43 70.5673C1477.64 68.1465 1479.46 66.2098 1480.79 63.91C1481.75 62.3365 1482.6 58.5842 1483.69 57.6159C1485.38 56.1634 1485.74 61.8523 1488.04 58.8263C1488.28 57.2527 1487.07 56.2844 1485.62 56.0423L1492.4 47.2063L1497.35 50.5954C1498.08 47.4484 1495.18 46.9642 1493.73 45.0275C1496.14 44.7854 1496.75 41.7594 1498.2 40.3069C1499.41 39.2175 1501.59 38.3702 1502.92 37.2808C1505.46 35.1021 1506.91 32.4392 1508.72 29.6552L1509.69 32.0761C1512.11 32.3181 1513.07 29.7763 1515.01 28.4448C1516.34 27.5975 1517.91 27.3554 1519.24 26.5081C1521.78 24.8136 1523.23 21.0613 1526.86 20.6981L1527.47 20.0929L1526.38 18.7615C1526.01 16.7038 1530.61 16.5827 1530.01 19.7298L1548.99 10.5306C1549.23 8.715 1546.81 9.19917 1546.69 7.02042C1546.69 6.17313 1547.54 5.32584 1548.27 5.08375C1551.29 4.23646 1551.65 7.02042 1551.17 9.32021C1557.09 7.38355 1563.87 9.32021 1569.91 7.14146C1570.88 6.41521 1570.27 6.53625 1569.91 5.93104C1568.82 4.23646 1567.74 2.54188 1566.89 0.72625L1571.85 0.968334L1572.45 5.56792C1578.14 5.68896 1583.58 4.11542 1589.26 3.75229C1591.07 3.63125 1594.7 4.59959 1595.67 3.38917C1596.76 2.17875 1596.4 0.121042 1599.18 0C1600.27 0 1602.56 1.57354 1603.65 2.29979C1604.01 2.54188 1604.26 3.38917 1604.5 3.51021H1604.38ZM1470.14 90.7813C1467.24 92.3548 1467.12 99.1332 1470.75 98.7701C1473.53 98.528 1471.84 90.4182 1470.14 90.7813ZM1594.82 102.038C1592.89 99.3753 1589.99 105.669 1594.1 106.759C1595.91 107.122 1595.07 102.401 1594.82 102.038ZM1470.39 105.669C1463.25 104.943 1466.03 112.932 1471.47 109.301L1470.39 105.669ZM1592.53 120.921C1590.83 120.194 1590.71 124.794 1590.83 125.399C1591.2 129.03 1595.43 130.967 1593.49 125.399C1593.49 125.157 1592.65 125.157 1592.53 124.794C1592.28 123.584 1592.53 122.131 1592.53 120.921ZM1463.49 128.304C1461.32 128.788 1463.98 133.872 1465.91 133.146C1468.57 131.935 1464.58 128.062 1463.49 128.304ZM1697.98 133.751L1695.8 134.356C1695.92 137.745 1689.39 144.524 1696.4 140.529L1697.98 133.751ZM1668.47 160.864C1668.47 160.864 1666.41 161.833 1665.81 160.259C1664.96 163.285 1662.54 163.164 1661.21 165.464C1662.42 167.401 1662.91 164.859 1664.12 164.617C1666.53 164.133 1667.5 169.337 1668.95 168.732C1671.73 167.643 1669.56 161.47 1668.59 160.864H1668.47ZM1681.89 161.47C1679.35 159.412 1674.88 161.228 1675.85 164.98C1678.02 164.617 1679.23 165.222 1681.05 166.19C1682.01 165.948 1682.74 162.196 1681.89 161.47ZM1658.67 161.954C1655.89 162.559 1654.68 162.922 1655.05 166.19C1656.74 167.159 1659.4 162.559 1658.67 161.954ZM1640.9 166.311L1634.73 169.095C1635.7 170.427 1635.82 169.943 1637.03 169.579C1637.87 169.337 1642.35 168.006 1640.9 166.432V166.311ZM1684.92 168.248L1681.29 167.522C1681.05 169.095 1682.5 170.911 1684.07 171.153C1685.64 171.516 1684.92 169.095 1684.92 168.127V168.248ZM1604.13 169.337C1602.56 169.337 1599.9 168.974 1599.3 171.032C1598.09 175.389 1605.59 174.058 1604.13 169.337ZM1569.19 182.289C1569.19 180.594 1571.85 175.026 1568.94 174.905C1564.11 175.874 1564.95 181.199 1569.19 182.289ZM1462.53 193.909C1462.53 193.909 1457.45 195.24 1458.54 196.935C1459.62 198.024 1460.95 198.993 1462.53 198.751V193.788V193.909ZM1591.92 201.898C1589.5 200.929 1587.33 200.687 1587.57 203.955C1587.69 205.529 1589.38 205.892 1589.74 206.739C1590.35 208.071 1588.29 208.918 1591.56 210.371C1592.53 209.281 1590.83 208.192 1590.83 207.102C1590.83 206.134 1592.04 202.019 1591.92 201.777V201.898ZM1607.16 219.691C1608.85 216.907 1610.67 210.976 1605.47 213.154C1604.62 216.302 1602.8 218.601 1607.16 219.691ZM1480.3 254.067C1480.3 254.067 1482.36 253.946 1482.72 253.098C1481.15 251.525 1480.54 243.778 1478.49 249.104L1480.91 250.072C1480.06 250.677 1479.7 253.582 1480.3 254.067ZM1647.07 255.277L1647.67 259.877C1649.12 260.24 1653.47 260.603 1654.2 259.513C1654.68 258.787 1653.72 257.577 1653.84 256.729C1653.96 255.519 1656.26 254.188 1653.84 252.977C1650.57 251.404 1651.9 256.729 1650.45 256.972C1648.64 256.729 1649.48 254.43 1647.07 255.156V255.277ZM1656.62 261.813C1655.89 262.782 1653.35 263.266 1655.89 265.687L1660.37 262.176C1660 260.966 1659.04 256.124 1658.31 255.882C1657.22 255.64 1656.01 256.487 1655.65 257.577C1654.8 259.877 1658.92 258.787 1656.62 261.934V261.813ZM1492.52 266.897C1491.67 265.081 1489.13 260.845 1486.95 263.508C1487.32 266.05 1490.1 267.139 1492.52 266.897ZM1663.51 272.586C1662.54 271.012 1657.59 271.376 1656.01 271.981C1654.8 272.465 1654.93 274.281 1653.47 274.402L1647.67 272.586C1649.6 274.402 1647.67 277.065 1649.85 278.638C1652.87 279.243 1655.89 274.765 1657.83 274.523C1658.92 274.281 1659.64 276.943 1661.94 276.217C1662.91 275.854 1664 273.554 1663.51 272.707V272.586ZM1667.74 280.212C1668.71 279.243 1669.68 275.975 1668.83 274.886C1665.69 272.586 1665.81 277.791 1665.45 280.091L1666.66 280.817C1666.66 280.817 1667.38 280.575 1667.74 280.333V280.212ZM1675.85 309.867C1675.48 312.409 1677.66 313.861 1678.87 315.798L1682.62 313.256L1681.65 311.803C1678.14 313.377 1678.99 311.319 1677.66 309.625C1675.12 306.478 1670.53 304.541 1668.71 309.262L1669.32 310.351L1675.73 309.867H1675.85ZM1682.62 323.302C1683.34 319.429 1681.29 315.677 1679.6 321.124L1682.62 323.302ZM1574.14 332.623C1573.3 333.228 1574.02 336.98 1576.32 336.254C1578.62 335.528 1576.56 331.049 1574.14 332.623ZM1458.9 352.837V344.848L1457.93 346.785H1452.13C1451.52 348.842 1453.21 348.479 1453.58 349.205C1454.79 351.263 1453.46 353.442 1457.93 351.626L1458.9 352.837ZM1450.31 359.615C1449.22 359.373 1444.39 359.978 1444.75 361.794L1448.01 363.246C1449.34 362.52 1450.55 361.31 1450.19 359.736L1450.31 359.615ZM1458.17 381.039C1452.49 381.887 1454.79 374.866 1449.59 375.471L1449.22 381.039C1453.34 382.25 1457.93 389.754 1458.17 381.039ZM1442.33 412.994C1441.97 411.3 1441.73 404.764 1438.94 405.611C1437.74 405.974 1437.86 408.153 1438.46 409.121L1442.33 412.994ZM1573.3 406.942C1571 407.547 1571.12 411.421 1573.78 411.784C1574.87 410.816 1575.96 408.637 1574.99 407.426C1574.51 406.7 1574.02 406.7 1573.18 406.942H1573.3ZM1466.15 426.43C1463.25 426.793 1462.89 429.819 1465.31 431.393C1467.85 430.909 1466.64 428.125 1466.15 426.43ZM1449.1 441.802C1454.42 441.318 1455.03 434.298 1448.74 437.445L1449.1 441.802ZM1441.61 440.592C1438.94 445.313 1447.05 447.249 1448.26 443.255C1447.17 439.624 1444.75 440.592 1442.94 439.503C1442.21 439.018 1442.09 437.082 1440.76 437.324L1439.91 439.503L1441.61 440.592ZM1465.55 450.396C1461.2 451.486 1463.61 444.949 1459.5 447.007C1455.39 449.065 1463.13 453.543 1465.67 452.817V450.396H1465.55ZM1465.55 454.633H1463.49C1461.2 455.48 1462.53 462.985 1465.43 459.111V454.633H1465.55ZM1490.34 484.53C1489.49 483.804 1489.37 481.867 1487.68 482.23C1485.99 486.709 1488.04 487.314 1491.91 485.861C1492.4 483.925 1490.82 485.014 1490.22 484.53H1490.34ZM1504.25 494.577C1502.55 495.545 1501.71 493.003 1500.14 492.882C1494.94 496.15 1500.74 495.545 1503.4 495.787C1504.61 495.908 1504.25 495.787 1504.25 494.698V494.577ZM1513.44 503.17C1514.16 499.902 1510.17 498.208 1507.87 500.387L1513.44 503.17Z" fill="white"/>
<path d="M1341.11 173.09C1334.82 172.363 1335.43 166.432 1338.45 162.317L1336.15 159.291L1337.73 157.112C1338.45 156.991 1340.99 161.833 1341.11 162.317C1341.84 165.706 1339.78 169.458 1341.11 173.09Z" fill="white"/>
<path d="M1334.46 234.337L1333.86 237.363C1332.16 236.879 1328.54 237 1329.87 234.337H1334.46Z" fill="white"/>
<path d="M1154.16 309.262L1157.18 311.44L1155 314.709C1153.43 313.377 1154.28 311.077 1154.03 309.141L1154.16 309.262Z" fill="white"/>
<path d="M1448.38 222.717C1445.48 221.264 1445.84 217.996 1448.98 217.149L1448.38 222.717Z" fill="white"/>
</g>
<defs>
<clipPath id="clip0_22600_183">
<rect width="1701" height="563.933" fill="white"/>
</clipPath>
</defs>
</svg>
