<svg width="1253" height="520" viewBox="0 0 1253 520" fill="none" xmlns="http://www.w3.org/2000/svg">
<g clip-path="url(#clip0_22600_27)">
<path d="M275.817 0.355791C277.525 1.49463 280.181 1.30482 281.7 2.72836C283.502 4.34171 284.451 8.89706 285.78 10.9849C286.729 12.4085 288.436 13.3575 289.101 14.781C289.765 16.2046 289.67 18.1026 290.619 19.6211C287.488 19.1466 289.385 22.4682 291.188 20.1905C290.998 22.3733 293.276 24.3662 293.75 26.2643C294.224 28.1624 293.37 29.0165 293.56 30.2502C293.845 31.9585 296.027 36.0393 296.217 37.6526C296.312 38.7915 295.648 39.6456 295.648 40.3099C295.648 40.5946 297.83 43.6315 297.83 44.7704V55.4944L296.407 54.3556L295.553 56.5383L297.45 56.0638L298.21 56.823C298.21 58.9109 297.071 62.0427 297.261 63.8459C297.45 65.7439 299.443 67.4522 300.107 69.3502C301.436 73.2412 301.056 77.7017 301.72 81.4978C302.29 84.7245 304.472 87.8563 304.851 90.5136C305.326 93.5505 304.092 96.2078 304.092 99.0549C304.092 105.983 307.413 113.955 307.129 121.357C307.129 123.445 305.895 122.021 305.99 123.54C307.793 124.299 307.224 128.095 308.172 130.183C308.172 131.037 304.757 129.519 305.421 131.607H309.216L310.924 138.25C309.785 139.199 307.888 133.789 307.034 136.826C307.603 138.345 310.639 139.199 310.829 139.389C311.114 139.958 310.829 141.382 311.019 142.236C313.012 148.404 312.252 146.886 312.537 152.77C312.727 155.617 314.719 158.369 314.15 161.311L312.727 157.99C311.398 157.61 311.778 159.888 311.968 160.457C312.252 161.691 312.917 162.545 314.15 161.881C313.201 166.341 316.997 171.466 316.997 175.357C316.997 178.963 312.727 177.445 315.858 179.248C314.15 182.664 316.617 184.183 317.566 186.84C318.135 188.359 319.559 195.097 319.464 196.33C319.464 196.9 318.42 197.374 318.61 197.659C318.61 197.659 319.559 197.469 319.748 198.039C319.938 198.893 319.559 200.126 319.843 201.17C321.551 207.719 321.077 208.763 321.646 214.836C321.931 217.494 324.113 220.531 324.682 223.378C325.631 228.597 324.777 232.109 326.106 237.898C326.39 239.227 327.624 243.497 325.821 242.928V243.497C329.427 243.212 327.813 250.71 328.098 253.652C328.383 256.404 329.616 259.82 330.091 262.668C330.375 264.66 330.755 275.669 333.791 274.91C335.404 272.917 337.017 270.26 337.681 267.792C338.915 262.952 337.681 255.835 338.535 250.994C338.82 249.571 341.192 246.914 341.192 245.395C341.192 244.921 339.2 244.921 339.579 243.782L341.192 244.067C339.294 235.051 340.433 225.845 340.623 216.829C340.623 215.406 340.054 213.698 340.054 211.8C340.054 208.668 341.761 205.726 341.761 202.974C341.761 200.221 340.243 198.608 340.054 195.856C339.864 192.534 341.192 189.877 341.192 187.03C341.192 182.759 339.959 177.824 340.054 172.7C340.243 158.939 340.813 144.513 340.054 130.847C339.674 123.255 337.302 115.663 338.44 108.355C339.01 104.844 341.761 102.092 338.44 98.6752C340.433 98.6752 339.959 96.7772 340.623 95.7333C341.002 95.0689 342.426 95.1638 342.331 94.025C341.951 92.2218 339.01 94.5944 338.44 95.1638C337.776 95.9231 338.251 97.1568 337.302 97.0619C336.827 94.974 338.061 92.6964 337.871 90.7983C337.681 89.2799 336.258 88.141 336.163 86.3379C336.163 81.308 336.922 74.0005 337.302 68.7808C337.397 67.4522 338.346 66.3133 338.346 64.8898C338.346 63.2764 337.681 61.9478 337.776 60.0497C338.156 55.4944 341.192 52.932 345.747 53.0269C348.688 53.0269 352.673 54.5454 355.14 54.6403C356.848 54.6403 358.841 53.6912 360.643 53.5963C366.621 53.2167 376.204 55.5893 382.087 55.6842C383.226 55.6842 384.744 54.6403 386.547 54.5454C392.714 54.5454 400.59 55.7791 406.947 56.2536C419.282 57.1077 430.383 57.7721 442.718 57.867C447.652 57.867 452.966 59.0058 457.046 59.0058C459.228 59.0058 460.936 57.7721 462.549 57.867C464.921 57.9619 468.622 60.4294 471.374 60.5243C473.366 60.5243 476.023 59.2905 478.015 59.0058C484.278 58.2466 490.35 56.0638 492.722 63.4663C493.482 65.9337 494.43 70.9636 494.715 73.6209C495.095 76.8476 493.387 81.9723 496.708 83.2061C504.109 86.0531 517.013 80.4539 519.385 81.6876C519.575 81.7825 519.29 83.0163 520.903 82.6367C521.188 82.6367 521.188 81.5927 521.852 81.308C530.107 77.9864 538.457 77.6068 547.091 76.1832C555.156 74.9495 563.411 75.0444 571.476 73.6209C573.754 73.2412 576.221 71.8177 578.308 71.6279C579.826 71.4381 581.629 72.3871 583.147 72.1024C589.03 71.1534 588.745 71.3432 594.628 71.4381C598.613 71.4381 601.46 69.4451 604.876 69.1604C609.525 68.7808 615.123 69.4451 620.057 68.7808C623.473 68.3063 625.845 65.3643 628.976 64.9847C632.297 64.6051 637.895 66.4082 640.932 66.0286C642.45 65.8388 644.253 64.3204 645.961 63.8459C654.69 61.0937 663.609 62.6121 672.339 61.6631C674.141 61.4733 676.798 59.2905 678.791 58.7211C681.827 57.867 691.031 56.5383 693.782 57.2976L694.162 58.9109C695.585 59.3854 695.111 58.1517 695.68 57.867C696.914 57.2976 704.694 56.4434 705.738 57.0128C708.205 59.5752 708.774 63.1815 708.489 66.6929C707.92 66.1235 706.592 66.6929 706.402 66.5031C706.307 66.5031 706.402 64.5102 705.263 65.8388L707.92 68.1165C708.11 70.2044 708.395 72.1973 706.876 73.8107C709.628 73.526 709.628 76.6578 709.628 78.7456L707.73 77.7017C706.307 78.6507 707.161 79.7896 707.541 80.9284L709.723 80.4539C707.541 84.9143 710.956 85.9583 711.905 89.09C712.475 90.7983 713.328 99.7192 713.234 101.522C713.234 103.515 712.38 107.976 710.767 108.925L711.336 109.494C712.664 108.45 713.234 112.151 713.423 113.48C713.898 116.897 713.423 120.693 713.803 123.825C714.182 126.672 715.796 128.665 715.036 131.986C714.942 132.556 713.898 133.22 714.088 133.505C714.088 133.505 715.131 133.22 715.511 134.549C715.89 135.877 715.226 136.826 715.511 137.87C716.555 144.229 716.175 143.659 715.795 149.733C715.416 157.041 715.985 164.443 715.226 171.656L714.088 172.32C717.598 173.743 715.036 177.54 714.657 180.102C714.277 182.664 715.511 185.511 713.518 187.22C715.226 187.789 714.467 190.826 714.657 192.629C715.701 200.791 713.708 201.645 712.949 208.668C712.475 213.128 713.139 218.443 713.423 222.903L711.241 223.473C712.19 224.422 713.803 226.035 713.993 227.364C714.277 229.167 713.993 232.299 714.277 234.197C714.467 235.335 715.131 236.569 715.226 237.803C715.321 239.037 713.613 238.088 714.088 239.701L716.839 240.65C715.701 243.212 717.409 244.636 717.409 246.629C717.409 248.052 716.365 249.096 716.555 249.666C716.744 250.52 718.168 251.184 718.263 251.469C721.583 257.827 722.248 264.755 724.999 271.019C725.758 272.727 727.561 278.706 729.743 278.327C729.838 276.998 732.116 275.669 732.211 275.479C732.4 275.005 731.736 274.435 731.831 273.961C731.831 273.866 732.685 273.961 732.685 273.676C732.875 271.399 732.495 268.267 732.685 265.894C734.393 253.367 737.904 241.125 739.896 228.502C740.94 222.144 743.502 212.179 743.692 206.39C743.692 202.974 742.363 200.316 742.553 196.995C742.743 194.337 744.735 191.016 744.545 188.738C744.356 186.745 742.743 179.343 743.122 177.824C744.451 172.605 742.932 171.466 742.553 166.151C741.889 156.566 742.173 146.411 742.553 137.016C743.027 124.014 743.122 110.918 744.166 97.916C744.356 95.3536 745.779 93.7403 745.779 93.5505C745.684 92.032 745.589 87.8563 746.348 86.4328C746.443 86.1481 749.005 85.4837 749.1 83.5857L746.348 85.0092C746.918 80.0743 745.399 75.2342 746.348 70.1095L747.202 72.8616L750.144 72.1973C752.041 67.3573 749.574 69.7298 749.195 69.4451L748.815 68.4012L747.487 68.9706C746.918 67.7369 748.436 66.1235 748.341 65.3643C748.341 64.9847 747.487 64.3204 747.487 63.6561C747.012 57.867 746.348 53.1218 749.954 47.9971C751.472 49.5155 749.195 53.976 751.852 54.0709C750.903 52.4575 752.231 50.4645 752.231 49.8951C752.231 49.6104 750.618 47.6175 750.333 46.4786C749.574 43.7264 749.954 41.4488 750.144 38.8864C750.144 38.6017 749.29 38.6966 749.195 38.4119C748.625 34.9954 750.523 26.4541 755.172 28.1624L754.603 27.0235H756.216L755.647 28.6369C756.975 28.8267 757.355 27.9725 756.786 27.0235L771.967 27.5929C787.433 26.4541 801.951 29.1114 817.701 28.0675C819.314 27.9725 821.212 26.9286 822.635 27.0235C824.153 27.1184 828.898 30.2502 831.46 30.0604C831.839 30.0604 832.788 29.2063 834.211 29.1114C837.532 28.9216 841.233 30.6298 845.787 30.2502C854.422 29.491 859.45 29.3012 867.99 30.6298C881.653 32.8126 896.93 29.6808 910.878 30.1553C919.417 30.5349 928.052 33.2871 937.256 32.3381C939.533 32.0534 939.343 30.5349 942.759 31.8636C945.416 32.9075 946.649 35.375 946.934 38.1272C947.693 44.6755 946.554 49.041 945.89 55.2097C945.795 56.3485 946.08 58.2466 945.89 59.0058C945.7 59.5752 943.138 59.0058 943.044 62.3274C943.044 64.3204 945.985 61.0937 945.795 64.5102C945.605 69.0655 940.671 74.475 940.007 78.0813C939.628 80.2641 940.671 82.4468 940.292 84.9143C939.912 87.0971 937.92 88.5206 937.635 90.5136C936.876 95.1638 938.584 100.573 938.204 104.844C937.92 107.596 935.927 109.779 935.927 112.531C935.927 117.846 937.825 125.533 937.54 130.658C937.35 134.169 935.168 138.06 934.978 142.331C934.694 148.12 934.599 148.025 933.365 153.529C932.227 158.559 931.657 174.787 932.132 179.817C932.322 182.095 933.555 184.088 933.27 186.46C933.081 188.264 930.803 190.826 930.234 193.578C929.95 194.717 930.044 199.083 929.95 200.696C929.475 210.281 929.76 220.815 927.672 230.401C926.818 234.292 925.205 238.847 925.585 243.118C925.775 244.826 927.103 246.819 927.103 248.717C927.293 254.126 924.256 260.485 925.016 266.084L923.402 265.515C923.497 267.223 922.833 267.887 921.22 267.697L921.505 268.836L922.833 268.362L923.118 269.406L925.016 267.792C925.395 272.632 923.782 277.662 923.402 282.407C922.833 289.43 923.687 297.592 922.833 304.425C922.549 306.987 921.41 309.36 921.22 311.543C920.935 314.295 922.074 316.667 921.789 319.23C921.6 321.033 919.892 323.975 919.702 325.398C919.512 327.202 920.271 330.428 919.987 332.991C919.892 334.035 919.417 334.984 919.512 336.027H916.191L918.279 338.97L917.804 343.24H916.191L917.33 343.81V345.423C915.432 344.474 914.104 347.416 916.191 348.175L917.33 345.992C916.761 348.27 918.089 351.876 917.14 354.059C916.666 355.103 914.388 355.198 915.148 357.57L916.761 356.716C915.337 363.454 915.053 373.989 905.185 370.762L905.754 371.901C902.433 373.135 900.251 371.616 897.214 371.331C891.901 370.857 884.784 372.47 879.851 372.186C876.909 371.996 872.165 369.623 869.603 369.718C864.479 369.908 858.407 370.952 853.093 370.762C851.006 370.762 849.108 369.908 847.59 369.908C845.787 369.908 844.079 371.331 842.656 371.237C841.612 371.237 840.284 370.098 839.05 369.813C834.306 368.769 827.095 369.244 821.686 368.959C819.03 368.864 819.979 370.762 818.46 367.345L818.176 368.959L806.031 368.2L805.271 366.302C804.133 366.112 804.228 367.82 803.469 367.915C799.673 368.769 791.323 370.098 787.623 369.528C786.01 369.244 784.587 368.01 782.594 367.915C780.602 367.82 779.083 368.769 777.186 368.484C775.668 368.295 774.055 366.966 772.157 366.966C768.646 366.966 763.997 367.345 760.012 367.345C751.662 367.345 743.027 364.973 744.261 376.456C744.545 379.208 747.202 384.618 743.692 386.136V386.99C745.02 387.56 745.589 391.356 745.779 393.064C746.728 399.897 748.626 406.73 749.669 413.468C750.523 419.162 749.1 424.762 743.502 427.039C741.225 427.988 731.072 430.456 728.415 430.741C724.904 431.12 720.919 430.361 717.503 430.836C714.942 431.215 712.285 433.018 709.628 433.398C707.635 433.683 705.643 433.303 703.84 433.683C702.512 433.967 701.468 435.296 699.76 435.676C696.724 436.245 693.118 435.486 689.987 435.865C686.097 436.245 674.141 439.567 671.295 438.997C666.266 438.048 664.273 437.004 658.485 437.479C645.771 438.333 630.02 439.946 617.875 443.173C616.167 443.647 615.408 446.02 613.036 444.691L613.605 446.305C610.379 446.874 606.868 448.298 603.642 447.444L604.212 449.057C600.701 449.152 597.57 452.284 594.438 452.758C589.979 453.517 582.198 452.948 577.739 454.277C575.936 454.846 574.703 456.08 572.9 456.459C567.396 457.788 560.849 456.459 554.967 457.313C552.974 457.598 549.938 459.306 547.566 459.876C543.58 460.825 534.187 462.628 532.289 457.788C531.435 455.51 529.348 446.495 529.063 443.932C528.684 439.946 529.253 434.822 528.684 430.551C528.304 428.083 526.122 425.046 525.932 422.199C525.742 419.163 526.786 415.366 526.501 411.76C526.122 406.066 523.56 399.992 523.18 395.247C522.991 392.59 523.844 390.502 523.75 388.129C523.75 385.472 522.231 382.53 522.042 379.873C521.947 377.595 522.611 375.982 522.611 374.368C522.611 374.178 522.137 373.229 521.947 371.711C520.903 362.885 519.764 351.781 518.057 343.145C517.203 338.685 516.538 337.831 516.538 332.516C516.538 326.063 515.969 318.281 515.4 311.637C515.305 310.214 514.261 308.98 514.261 307.177C514.261 305.564 515.02 304.14 514.831 302.242C514.641 299.11 511.984 296.453 511.51 293.321C511.035 290.189 511.699 286.583 511.51 283.451C510.75 274.72 507.809 265.04 507.145 256.404C506.86 253.367 507.619 250.045 507.43 247.388C507.24 244.731 505.437 241.599 505.437 239.416C505.437 237.518 506.576 234.861 506.386 232.868C506.196 229.641 504.298 226.984 504.014 224.042C503.729 220.531 504.678 215.88 504.298 212.464C503.919 209.427 501.452 207.719 503.824 204.207L502.685 203.353L503.824 202.594C501.547 197.374 502.401 191.301 501.452 186.176C500.977 183.329 498.415 180.766 498.226 177.729C498.036 174.977 499.839 172.889 499.934 170.612C500.029 168.334 498.7 163.399 498.321 160.647C497.846 157.515 497.182 154.953 496.802 152.295C496.423 150.018 494.715 139.294 495 138.155C495.095 137.68 496.897 137.87 496.043 136.731C496.043 136.731 495.095 136.921 495 136.352C494.81 135.498 495.095 134.359 494.905 133.22C494.336 130.658 493.671 128 492.912 125.438L491.204 125.058C490.54 127.905 492.058 131.512 491.774 134.074C491.489 136.257 489.402 138.25 489.117 141.287C488.927 143.469 490.54 145.652 490.445 147.266C490.35 148.879 488.737 150.587 488.453 152.295C488.263 153.719 489.876 157.895 489.971 159.983C490.445 169.188 487.978 178.394 487.219 187.504C487.029 189.687 487.694 191.395 487.788 193.483L485.511 194.622L487.219 195.761C486.65 198.134 487.504 201.36 484.942 202.404L486.081 204.587L483.898 204.302L483.424 206.2L486.081 207.529L481.621 207.814L480.577 211.989L485.227 211.515L486.081 209.807C487.314 216.355 482.095 220.341 483.234 226.889H481.621L481.906 228.028L483.329 227.459C484.468 231.255 481.811 235.146 481.716 238.277C481.336 247.578 479.534 255.929 478.869 265.23C478.68 267.223 479.723 270.355 478.869 272.917L477.161 273.202C480.103 275.005 478.11 275.954 478.205 278.421C478.49 289.24 479.344 299.775 478.205 310.404C477.541 316.952 479.154 322.077 478.68 327.961C478.015 336.122 478.774 343.05 478.68 351.212C478.585 359.374 476.307 366.776 475.264 374.843C474.979 377.31 473.176 379.683 474.789 382.53L473.651 382.815C473.461 383.859 474.694 383.099 475.169 383.479C476.687 384.713 474.03 392.779 473.935 394.867C473.935 396.671 474.979 398.758 474.979 400.751C475.074 405.117 473.366 414.987 472.702 419.637C472.133 423.243 473.651 424.952 468.337 426.185C467.199 426.47 461.221 427.039 460.177 426.945C458.279 426.85 456.287 425.141 453.82 425.711L453.535 424.097H451.638V425.806C450.973 425.521 450.499 425.236 449.74 425.236C444.616 424.952 439.397 424.287 434.274 424.097C425.26 423.813 416.151 425.711 407.327 424.572C405.429 424.382 403.247 422.959 401.728 422.959C400.305 422.959 398.692 423.908 397.269 424.003C392.145 424.572 389.488 421.155 384.27 422.01C382.087 422.389 380.285 423.718 378.007 423.528C376.204 423.433 375.161 422.104 373.548 421.915C371.65 421.63 369.468 422.104 367.57 421.915C363.49 421.44 358.176 419.068 354.855 422.959C352.009 426.28 354.476 428.937 355.045 432.259C355.899 437.099 357.892 442.129 358.461 445.925C358.936 449.152 357.702 452.189 357.702 455.226C357.702 461.869 361.877 462.818 359.03 471.739C358.366 473.827 357.133 477.053 354.571 476.389L355.14 477.528C353.432 478.287 351.819 477.338 350.016 477.623C347.17 478.097 344.134 478.762 341.192 479.331C339.769 479.616 338.44 480.66 337.207 480.849C335.594 481.039 337.681 479.331 335.594 479.141C335.214 479.141 335.499 480.09 334.93 480.28C325.726 483.317 316.807 481.704 307.793 484.456C306.464 484.835 305.516 486.259 303.618 486.354C301.53 486.544 299.443 485.12 297.071 485.215C293.845 485.405 289.006 488.157 285.875 488.442C284.072 488.631 281.035 487.113 278.948 487.588C277.525 487.872 276.576 489.391 274.963 489.675C272.686 489.96 270.029 488.821 267.277 489.106C265.285 489.296 263.956 490.435 262.248 490.719C260.161 491.004 257.789 490.529 255.701 490.719C248.87 491.479 241.753 493.187 234.827 492.333C232.36 492.048 233.309 491.573 232.834 490.624C231.885 488.821 230.937 491.384 230.652 491.573C229.039 492.617 217.653 491.384 214.427 491.858C212.055 492.238 210.441 494.61 207.785 494.61C206.551 494.61 199.15 493.851 198.486 493.566C197.727 493.092 197.632 491.194 195.355 491.858L196.968 493.471C194.406 492.902 192.224 494.61 189.946 494.99C186.246 495.559 181.786 494.99 178.086 495.844C175.714 496.413 173.247 498.122 170.78 498.406C166.32 498.976 161.481 498.406 156.642 499.166C148.482 500.494 142.504 505.714 133.585 504.006L134.724 505.05L132.731 505.524L132.257 504.48C122.673 507.992 113.659 510.744 103.507 512.642C99.3319 513.496 94.8724 514.35 90.6975 515.109C89.7486 515.299 88.7998 514.635 87.756 514.92C86.3328 515.299 86.6174 517.956 84.0556 517.007V512.072H82.4425L81.8732 517.577C79.9755 516.913 77.7932 517.862 76.3699 519.19H74.7569C73.4285 518.146 71.9104 518.241 70.9615 516.628C70.7718 516.248 67.8303 508.751 67.7355 508.276C65.648 497.173 64.2247 485.025 62.6117 473.732C61.7577 467.658 59.7652 459.781 59.3856 453.802C59.101 450.006 60.2396 446.305 59.9549 442.793C59.2907 434.727 57.6777 430.266 57.7726 421.345C57.9624 411.286 57.4879 401.416 56.634 391.546C56.0647 384.143 58.247 375.982 57.7726 368.959C57.6777 366.966 56.634 364.783 56.634 363.549C56.634 362.411 57.6777 361.367 57.6777 360.228C57.6777 358.33 56.1596 354.344 56.2544 351.876C56.2544 349.978 57.1084 347.985 57.1084 346.087C57.1084 342.576 54.6414 338.969 54.4516 336.027C54.3568 333.75 55.5903 331.947 55.5903 329.954C55.5903 325.493 54.0721 314.01 52.554 309.834C51.2256 306.038 51.3205 307.177 50.5614 302.432C49.233 293.226 47.4302 283.072 45.3427 274.056C44.4888 270.26 42.2116 265.515 41.7371 261.624C41.4525 258.777 42.5911 256.594 42.1167 253.557C41.5474 249.951 37.4673 245.49 36.898 241.125C36.5185 238.657 37.1827 236.759 37.0878 234.766C36.9929 232.773 35.5696 230.401 35.1901 228.502C34.7157 225.466 35.0952 220.436 33.672 217.968C32.818 216.45 30.7305 215.691 30.2561 213.698C29.5919 210.945 30.9203 208.668 30.6357 206.2C29.7817 198.134 25.3221 190.731 24.1835 182.854C23.7091 179.343 24.658 177.35 22.8552 173.743C22.0961 172.225 20.483 170.991 20.0086 169.378C19.2495 166.721 20.0086 164.158 19.1547 161.406C18.4905 159.508 16.3081 158.084 15.9286 156.376C14.2207 149.069 14.79 140.527 12.7974 133.03C12.323 131.132 10.8048 129.329 10.6151 127.431C10.4253 126.007 10.6151 125.438 10.3304 123.35C9.95088 120.693 10.3304 118.035 8.6225 115.663L10.2355 114.334L8.52761 114.05C8.52761 111.677 8.71738 109.399 8.43273 107.027C8.05319 103.895 5.39643 99.6243 5.30155 97.4415C5.30155 95.5434 6.62993 93.2658 6.62993 91.083C6.62993 89.4697 5.87085 87.6665 5.87085 85.9583L4.16293 85.2939C4.92201 78.9354 2.83455 73.3362 1.98059 67.1675L4.16293 65.7439L1.98059 66.3133C1.79082 62.4223 -0.676168 56.1587 2.5499 53.4065C1.79082 52.8371 1.12663 53.5014 1.41129 52.0779L3.02432 50.9391L1.3164 51.2238L-0.296631 47.6175V45.4347C1.12663 44.106 3.68851 40.3099 5.49131 39.9303C7.00946 39.6456 8.81227 40.1201 10.4253 39.9303C16.2132 38.9813 17.5416 39.1711 23.1398 38.8864C25.3221 38.7915 28.1687 37.5577 30.2561 37.7476C31.4896 37.8425 33.1975 38.9813 33.2924 38.8864C33.2924 38.8864 33.1027 38.0323 33.9566 37.6526C34.8106 37.273 44.5837 33.4769 45.153 33.382C47.1455 33.1922 50.087 34.2361 52.8386 33.9514C56.0647 33.6667 57.7726 31.6738 60.6191 31.2942C64.3196 30.8196 67.8303 32.0534 71.0564 31.7687C75.516 31.484 81.8732 28.7318 87.0919 28.4471C88.7998 28.4471 91.8361 29.2063 93.4491 28.8267C94.9673 28.542 97.1496 26.8337 99.237 26.2643C103.032 25.3153 106.923 26.6439 110.623 26.0745C112.141 25.7898 113.944 24.556 115.747 24.0815C123.527 22.1835 133.49 21.6141 141.461 20.5701C145.92 20.0007 151.803 17.4383 156.073 17.5332C161.766 17.723 166.89 17.1536 172.678 15.9199C177.517 14.9708 183.494 12.5034 188.903 11.839C192.793 11.3645 201.522 12.2187 204.179 11.5543C205.982 11.0798 207.31 9.37157 209.777 9.08686C212.244 8.80215 215.375 9.27667 218.032 9.08686C227.616 8.23274 238.622 5.29074 247.826 5.48055C248.3 5.48055 248.87 6.33468 249.439 6.23977C250.388 6.04997 250.578 4.34171 251.337 4.05701C252.57 3.67739 256.46 2.63346 257.884 2.44366C261.299 1.87424 265.759 2.63346 269.175 0.165985H274.678L275.817 0.355791ZM17.4467 40.0252C15.9286 40.1201 14.1258 39.4558 13.0821 40.8793C14.5053 42.0182 15.3593 44.3908 17.4467 43.3468L16.3081 40.8793L17.4467 40.0252ZM935.168 42.208L930.614 43.3468L930.234 44.9602C930.898 45.6245 935.453 44.106 935.168 42.208ZM53.2181 42.7774C51.6051 42.208 51.7949 43.6315 51.1307 43.8213C49.6125 44.2959 46.5762 44.106 45.4376 46.099C48.5688 45.0551 50.087 47.6175 53.0284 45.4347V42.7774H53.2181ZM13.0821 46.6684C11.1844 46.3837 9.57134 47.2378 9.76111 49.4206L12.7974 49.99L13.4616 48.8512L13.1769 46.6684H13.0821ZM252.001 52.2677C251.621 51.6983 250.388 51.6034 249.818 50.2747C249.249 49.041 252.096 47.5226 247.731 47.7124L248.585 51.034C246.972 50.4645 246.592 49.1359 244.695 48.8512C242.323 48.4716 240.615 49.4206 238.717 49.4206C237.294 49.4206 236.155 48.4716 234.827 48.3767C230.177 47.8073 223.63 50.1798 218.886 50.2747C212.529 50.4645 205.128 51.8881 198.296 52.3626C183.589 53.5014 169.072 56.4434 154.555 57.2027C152.467 57.2976 150 59.1007 148.292 59.2905C146.11 59.4803 144.402 57.867 142.315 57.5823C140.227 57.2976 138.709 58.1517 136.811 58.2466C134.534 58.3415 133.775 56.9179 131.023 58.5313C129.79 59.2905 128.841 61.0937 127.607 61.758C124.097 63.5611 119.068 62.0427 115.273 62.0427C108.346 62.0427 98.7626 63.8459 91.5514 64.5102C85.6686 65.0796 81.4937 66.3133 79.3113 72.3871C78.0778 75.7087 79.2165 78.6507 79.2165 82.1621C79.2165 87.2869 79.2165 92.1269 78.6471 97.0619C77.3188 110.253 78.9318 125.438 79.6909 138.914C79.9755 145.083 79.3113 149.448 78.6471 155.427C78.2676 158.559 78.8369 162.07 78.6471 165.297C78.5523 166.91 77.5085 168.239 77.6034 169.663C77.6034 171.466 79.4062 173.743 79.6909 175.831C80.9244 184.278 79.9755 196.71 79.6909 205.536C79.3113 218.633 77.6034 234.007 78.6471 246.819C79.6909 259.631 80.0704 272.253 80.1653 284.78C80.2602 292.657 79.596 300.629 79.596 308.506C79.596 311.353 81.1141 314.579 81.0192 317.332C81.0192 319.704 79.0267 321.792 79.1216 323.88C79.2165 326.063 81.3039 328.34 81.3039 331.093C81.3039 334.414 79.8806 340.298 79.6909 343.81C79.2165 349.694 79.2165 350.548 80.6397 356.052C81.3988 358.994 81.4937 371.901 81.3988 375.697C81.209 380.062 78.9318 385.282 79.7858 389.932C80.0704 391.356 81.1141 392.59 81.3039 394.488C81.6834 397.809 80.45 403.124 80.7346 407.11C80.8295 408.913 81.7783 410.337 81.8732 411.57C81.8732 413.184 80.4499 414.512 80.2602 416.505C80.0704 418.498 81.3039 420.871 81.3039 422.579C81.3039 425.236 80.1653 427.704 80.3551 430.836C80.45 433.683 82.2527 437.384 82.2527 439.662C82.2527 441.655 81.0193 444.502 80.9244 446.779C80.7346 451.714 82.3476 457.598 82.063 462.628C83.1067 467.373 90.0333 465.665 93.7338 465.19C96.3905 464.811 99.5217 463.577 102.084 463.577C105.12 463.577 106.638 465.475 109.2 465.285C111.762 465.096 113.754 462.533 116.506 462.059C127.228 460.255 138.424 459.781 149.336 458.452C158.065 457.408 167.269 457.693 175.904 456.364C177.706 456.08 179.13 454.561 180.932 454.277C183.589 453.802 185.772 454.846 188.049 454.846C190.8 454.846 193.362 453.138 195.829 452.663C203.325 451.24 214.047 451.809 221.638 450.955C228.659 450.196 239.476 449.152 246.023 447.254C251.811 445.546 249.629 444.691 252.76 441.844C253.614 440.99 255.037 440.8 255.606 440.231C256.176 439.661 255.417 438.807 256.081 437.953C256.745 437.099 257.599 437.669 257.694 437.574C257.979 437.289 258.263 435.581 258.833 434.632C260.161 432.639 264.051 430.361 265.664 427.704C266.708 426.09 266.708 424.097 267.847 422.769C268.795 421.63 270.314 421.44 271.167 420.586C275.153 416.695 279.328 412.424 281.415 407.205C282.459 404.642 281.415 401.985 285.115 401.226L284.641 399.612L283.028 400.751C284.736 396.291 281.984 391.736 281.889 387.75C281.889 384.238 284.641 380.822 284.736 377.31C284.736 374.748 283.502 373.229 283.123 371.142C282.364 366.207 280.941 358.425 281.415 353.679C282.364 343.145 283.502 331.662 283.028 321.128C283.028 318.85 281.415 315.813 281.51 313.346C281.51 308.126 282.459 300.913 283.028 295.694C283.313 293.416 282.079 291.138 281.889 289.145C281.605 284.305 280.656 276.428 280.751 272.063C280.751 270.355 282.364 269.595 282.459 267.697C282.459 266.559 281.889 265.42 281.889 264.376C281.889 262.193 282.174 259.346 281.889 257.258C281.415 254.316 278.094 253.747 276.101 251.943C272.211 248.432 268.321 244.256 264.241 240.65C261.489 238.183 255.891 235.241 255.986 230.78C255.986 229.546 259.022 223.093 259.876 221.954C266.708 212.369 275.532 210.376 280.941 197.279C282.838 192.724 280.466 190.636 280.846 186.176C281.035 182.949 282.743 178.584 282.459 175.262C282.269 172.605 279.992 168.714 279.802 165.202C279.422 158.464 281.415 153.434 281.889 147.645C282.174 144.893 280.941 142.995 280.751 140.527C280.466 136.636 281.225 133.125 281.32 129.519C281.32 126.861 279.992 123.635 281.795 120.598L280.751 119.839C280.751 119.839 281.605 120.028 281.795 119.554C282.079 118.795 280.846 113.195 280.751 111.867C280.466 108.64 279.612 102.946 279.612 100.289C279.612 97.2517 281.51 94.2148 281.7 91.9371C281.889 90.2289 280.846 87.8563 280.751 85.9583C280.751 85.0092 281.415 83.8704 281.32 82.7316C280.846 77.3221 274.583 75.9934 271.642 73.0514C268.985 70.3942 265.854 66.3133 263.672 63.9408C260.825 60.7141 254.658 58.816 252.665 54.925C252.286 54.1658 252.475 52.932 251.906 52.1728L252.001 52.2677ZM804.607 56.4434C799.958 54.5454 794.929 57.2027 794.265 62.3274C793.411 68.4012 794.265 74.5699 792.177 80.5488C791.134 83.3959 788.287 85.7684 789.805 89.5646L788.667 88.9951C788.856 90.9881 789.141 93.8352 788.951 95.8282C788.667 98.8651 787.718 101.143 787.243 103.895C786.484 108.64 787.243 113.385 786.389 117.941C785.915 120.503 784.017 122.211 783.733 124.109C783.448 126.007 784.207 127.146 784.112 128.475C783.638 143.564 778.894 162.07 776.047 176.97C775.383 180.197 776.332 184.088 775.857 186.65C775.288 189.972 772.252 192.724 773.201 195.856L772.062 195.286C771.967 199.272 772.347 203.163 772.062 207.149C771.777 210.471 770.164 214.836 769.974 217.778C769.974 219.107 770.544 220.341 770.354 221.954C770.069 225.086 767.033 227.459 766.559 230.875C766.179 233.912 767.318 236.474 767.033 239.037C766.748 241.599 764.471 244.731 764.281 247.958C764.092 250.9 765.325 254.031 764.851 257.258C764.566 258.966 763.143 260.485 762.858 262.383C762.384 265.42 762.858 268.836 762.099 272.063C761.245 276.428 758.304 283.072 757.734 287.058C757.26 290.474 758.588 296.548 758.304 299.68C758.114 301.198 756.406 303.191 756.121 305.279C755.742 307.841 756.501 310.878 755.932 313.346C755.362 315.813 752.8 317.996 752.326 320.748C751.852 323.785 752.421 329.1 754.603 331.377C758.399 335.268 764.661 332.801 768.931 332.991C770.923 333.086 772.916 334.509 775.003 334.699C779.937 335.173 787.148 333.275 792.083 333.56C794.36 333.655 795.878 334.984 798.155 335.268C808.782 336.407 819.884 334.794 830.7 335.268C835.729 335.458 842.087 335.933 847.115 336.407C856.035 337.261 865.523 337.356 874.632 337.451C876.719 337.451 882.982 337.451 884.215 336.027C884.879 335.268 887.252 329.859 887.441 328.815C888.105 325.019 888.105 319.894 888.77 316.288C889.244 313.725 889.813 311.543 890.952 309.17L889.813 307.841L890.857 307.557C889.624 304.045 892.47 300.534 892.945 297.497C893.229 295.978 892.28 295.029 892.28 294.365C892.28 290.474 892.565 286.868 895.317 283.831C892.47 282.787 895.317 282.502 895.317 282.123C896.076 278.896 893.609 274.53 890.762 273.012C886.018 270.544 880.894 272.158 875.771 272.063C868.085 271.873 859.64 270.544 852.144 270.355C847.78 270.355 841.992 271.968 838.481 271.304C835.255 270.734 831.27 266.843 830.89 263.427C830.795 262.193 831.744 254.98 832.124 253.652C832.503 252.038 833.927 250.71 834.116 249.096C834.591 246.249 833.642 243.023 833.832 240.555C834.021 238.562 835.255 237.139 835.729 235.241C836.488 232.299 835.445 229.452 835.824 226.51C837.912 210.471 842.656 194.717 844.554 178.489C844.743 176.97 843.984 175.262 844.269 174.123C844.648 171.94 846.926 170.042 847.305 168.049C847.59 166.531 847.875 163.399 846.261 163.114C849.203 153.244 849.013 142.141 850.721 131.796C851.195 128.665 852.524 125.438 852.998 122.496C854.801 111.867 854.896 101.807 857.363 91.083C858.596 85.9583 858.027 86.4328 858.312 81.5927C858.407 78.9354 859.64 73.2413 860.02 70.0146C860.684 65.3643 863.91 63.3713 858.881 58.9109C857.742 57.9619 856.224 58.6262 856.889 57.0128L856.319 56.4434C856.319 56.4434 856.319 57.2027 855.655 57.4874C852.619 58.7211 845.123 57.4874 841.422 57.4874C839.145 57.4874 836.868 58.6262 834.401 57.9619C833.357 57.6772 832.693 55.9689 830.985 55.874C829.372 55.7791 828.044 57.0128 826.62 57.2027C820.643 58.2466 819.979 56.9179 815.424 56.5383C812.103 56.2536 808.118 57.7721 804.512 55.3046L804.228 56.2536L804.607 56.4434ZM46.6711 59.2905C46.6711 59.2905 47.0507 61.2835 47.3353 61.6631C49.4228 64.9847 52.0795 58.816 46.6711 59.2905ZM19.9137 68.9706C18.6802 66.8828 17.4467 65.8388 14.79 65.9337L13.936 68.1165C13.1769 68.591 12.5128 65.9337 11.469 66.9777C10.2355 68.3063 12.9872 69.0655 13.0821 69.1604C13.4616 69.7298 11.9434 70.7738 12.0383 71.533C12.1332 72.2922 14.79 75.0444 14.6951 76.6578C15.3593 77.1323 19.0598 76.6578 19.9137 76.3731C20.2933 76.1833 20.483 74.0954 21.9063 73.9056C22.3807 72.8616 20.9575 73.2413 20.7677 72.7667C20.5779 71.8177 20.9575 70.6789 20.7677 69.6349C20.7677 69.2553 20.1035 69.2553 19.9137 68.9706ZM355.709 71.4381C354.191 69.0655 351.629 69.0655 349.068 69.2553C348.973 70.6789 348.973 70.2044 349.922 70.2993C351.914 70.6789 353.717 71.1534 355.709 71.4381ZM619.962 69.3502C617.875 68.1165 617.211 72.6718 617.4 74.0954L619.203 74.7597L621.765 71.7228L620.057 69.3502H619.962ZM44.9632 74.1903C39.6497 70.1095 38.3213 76.1832 44.6786 75.3291L44.9632 74.1903ZM472.987 127.621C474.22 125.058 472.797 122.781 472.987 120.218C473.081 118.7 473.935 117.371 474.125 115.758C475.074 107.122 470.804 99.0549 466.345 92.1269C465.491 90.8932 456.572 82.9214 455.053 81.9723C451.068 79.315 448.317 79.41 444.142 77.9864C440.916 76.9425 438.828 74.7597 435.412 75.2342C434.179 75.424 433.135 76.1833 431.996 76.2782C430.099 76.2782 426.968 75.1393 424.975 75.3291C423.267 75.5189 420.99 77.2272 419.092 77.7017C417.289 78.1762 415.676 77.8915 413.779 78.4609C407.421 80.4539 394.802 90.9881 390.912 96.3976C390.532 96.8721 386.832 106.552 386.547 107.501C385.978 110.064 385.313 115.473 385.124 118.225C384.744 124.109 389.014 137.965 392.43 142.9C394.612 146.032 404.385 150.777 408.18 152.485C420.61 157.99 427.347 157.705 440.726 156.186C443.193 155.902 447.557 154.858 449.74 153.624C451.353 152.675 459.323 146.601 460.652 145.273C464.921 141.002 467.768 133.6 471.943 129.044L470.804 128.475L471.374 127.051L472.987 127.621ZM620.626 75.8036H619.013C619.013 77.7017 618.539 79.5998 620.437 80.7386L621.765 79.8845C622.24 78.7456 620.437 79.1252 620.152 78.1762C619.962 77.5119 620.911 75.9934 620.721 75.8036H620.626ZM624.327 82.5417C623.283 81.308 616.547 82.1621 614.933 82.5417C612.941 83.0163 611.233 84.25 609.24 84.5347C605.065 85.1041 599.942 84.25 595.577 84.6296C591.212 85.0092 587.702 86.7175 584.191 87.5716C580.965 88.4257 577.739 89.7544 574.418 90.5136C569.863 91.4626 562.842 91.6524 558.762 92.9811C554.208 94.4046 552.31 99.2447 551.835 103.705C551.456 107.596 553.354 111.772 553.354 115.093C553.354 117.941 552.405 121.926 552.594 125.058C552.689 127.336 553.828 129.234 553.923 131.132C554.113 133.884 552.974 136.826 553.354 139.958C554.018 145.937 555.441 153.814 555.631 159.793C555.631 162.925 554.018 165.677 554.018 168.049C554.018 174.977 557.244 184.847 556.58 192.25C556.39 193.863 555.441 195.476 555.536 197.279C555.536 199.937 557.813 203.068 557.813 206.105C557.813 207.909 556.864 208.858 556.674 210.471C556.2 214.362 556.674 224.706 556.674 229.262C556.674 232.678 558.193 236.569 558.382 239.701C558.572 242.833 557.149 244.921 557.244 247.388C557.434 251.374 560.47 253.557 559.331 258.871C559.047 260.39 557.718 261.149 557.718 263.427C557.718 265.799 559.426 266.938 559.426 268.931C559.426 270.165 558.857 271.399 558.857 272.727C558.857 285.539 560.755 298.541 560.565 311.353C560.565 313.536 559.331 315.623 559.331 317.996C559.331 323.5 561.608 329.954 561.608 335.648C561.608 340.108 560.47 345.897 560.66 350.548C560.755 353.869 562.273 357.096 562.368 360.228C562.462 363.36 561.229 366.491 561.514 369.908C561.798 373.324 564.17 377.785 564.265 380.442C564.36 382.815 561.988 387.18 562.083 390.312C562.178 394.678 564.55 403.314 564.265 407.395C564.076 410.052 561.419 412.709 563.221 416.031C560.944 415.651 560.849 417.075 562.937 417.739L563.791 416.6C563.791 418.024 564.265 419.352 564.36 420.681C564.455 422.674 565.024 435.106 564.74 436.245C564.36 437.858 562.937 438.713 562.557 439.851C562.178 440.8 562.842 441.939 562.178 442.983L565.499 442.414L564.929 437.479C568.82 440.895 572.33 438.143 576.221 437.479C578.403 437.194 580.68 437.763 582.768 437.194L585.804 439.662C583.432 435.201 590.833 436.245 594.154 435.676C600.226 434.632 605.919 433.113 612.087 432.259C612.751 432.259 614.174 432.639 614.364 432.449C614.933 431.879 613.036 431.215 616.831 430.171C618.634 429.697 626.414 428.083 627.933 427.988C635.144 427.799 634.575 427.514 641.311 425.995C646.435 424.762 651.843 424.382 656.967 423.528C660.668 422.864 663.135 420.301 667.594 423.054L668.069 422.01C670.631 423.908 670.82 420.681 672.244 420.586C672.908 420.586 673.477 421.345 674.426 421.25C677.652 421.25 680.688 418.878 683.63 418.688C685.053 418.593 686.097 419.162 687.235 419.068C690.082 418.878 695.395 415.177 699.665 414.892C702.986 414.607 705.928 416.505 708.489 412.235C711.146 407.774 710.577 400.846 710.197 395.911C710.102 394.393 709.154 392.874 709.154 391.356C709.154 387.845 710.577 383.479 710.292 379.778C709.913 374.843 707.066 368.674 707.066 363.739C707.066 361.841 708.489 359.374 708.679 357.191C709.059 352.73 707.161 349.029 707.256 345.043C707.256 341.911 710.292 338.78 706.971 336.217C704.599 334.414 695.87 334.414 693.023 334.889C691.315 335.173 689.797 336.597 687.9 336.882C685.527 337.261 683.914 336.597 682.017 336.692C677.842 336.882 672.054 338.875 667.974 339.634C661.996 340.773 642.165 345.518 637.611 343.904C633.056 342.291 635.523 340.962 635.429 337.831C635.429 336.312 634.29 334.984 634.29 333.465C634.29 331.377 635.713 329.574 635.429 326.822C635.239 325.019 633.626 323.405 633.341 321.792C632.867 319.135 633.721 317.616 633.815 315.339C633.815 310.024 633.341 306.228 634.575 301.293C635.713 296.833 632.867 290.094 632.582 284.495C632.392 280.604 631.538 277.093 631.538 274.056C631.538 272.253 632.487 270.734 632.582 269.121C632.582 266.084 630.874 261.149 630.779 257.543C630.779 254.696 631.538 251.469 631.633 248.717C631.633 246.154 630.874 243.497 631.064 240.46C631.254 237.993 632.772 237.139 631.064 234.386L632.202 234.671C632.582 228.882 631.728 223.188 630.969 217.494C630.684 215.406 629.641 213.033 629.451 210.756C628.881 204.397 630.874 197.279 630.4 190.921C630.115 185.891 627.743 180.007 627.743 174.882C627.743 172.225 629.546 169.758 628.312 167.195L629.451 166.626C627.933 163.589 628.027 160.267 629.451 157.23L627.838 155.332C627.838 155.332 629.641 156.851 629.546 155.048C629.356 152.675 627.079 149.164 626.794 146.222C626.035 139.389 627.174 134.359 627.363 128C627.363 125.248 626.13 122.211 626.225 119.744C626.225 118.13 627.363 116.327 627.363 114.714C627.363 112.816 625.94 110.728 625.75 108.64C625.371 105.224 626.509 102.376 626.604 99.2447C626.604 97.1568 625.276 83.3959 624.517 82.5417H624.327ZM36.7083 86.8124C37.752 85.7684 33.1975 82.9214 32.6282 85.6735L31.205 85.199L32.0589 87.9512C33.8617 87.6665 34.9055 86.0532 36.7083 86.8124ZM341.951 89.5646L341.667 85.199L338.63 85.7684C338.535 86.8124 340.623 86.6226 340.813 86.9073C340.908 87.0971 337.871 89.7544 341.951 89.6595V89.5646ZM932.891 88.0461L930.234 87.6665L929.19 90.7034L932.511 89.5646L932.227 91.1779C933.27 90.2289 933.745 89.1849 932.986 87.9512L932.891 88.0461ZM49.9921 93.4556L50.2767 91.2728C49.8023 91.8422 48.4739 91.7473 47.9995 92.3167C46.5762 94.3097 48.9483 93.9301 49.6125 94.4995C50.087 94.8791 49.7074 95.7333 50.2767 96.2078C50.5614 96.4925 53.0284 97.4415 53.2181 97.2517C52.7437 95.0689 52.7437 94.3097 53.7874 92.3167L49.8972 93.4556H49.9921ZM929.285 96.3976C929.285 96.3976 932.796 93.8352 930.424 94.025C930.139 94.025 925.585 97.2517 926.249 97.8211C928.431 98.3905 928.336 97.0619 929.19 96.3976H929.285ZM38.2264 94.5944C35.6645 95.9231 38.8906 99.6243 40.5985 98.6752C43.2553 97.0619 40.219 93.9301 38.2264 94.5944ZM25.1324 105.603C25.1324 105.603 25.3221 107.976 26.5556 108.355C28.6431 106.647 26.0812 105.034 24.658 104.18L22.95 105.318C23.5193 106.742 24.8477 105.318 25.1324 105.603ZM50.1818 113.1C50.1818 113.1 49.8972 112.151 49.9921 111.677C48.0944 112.246 47.9046 113.195 47.8097 114.999H51.1307C51.6051 113.385 50.4665 113.575 50.1818 113.195V113.1ZM518.151 112.246C517.013 110.633 513.407 113.1 515.969 114.714C517.772 115.853 518.816 113.195 518.151 112.246ZM30.6357 170.042L25.7017 169.473C25.7017 172.13 30.5408 172.794 30.6357 170.042ZM385.029 393.539C388.065 394.962 397.269 391.641 400.02 391.451C403.152 391.261 410.458 392.495 414.348 392.59C420.8 392.685 427.157 391.641 433.609 392.02C439.682 391.071 439.018 377.69 439.492 373.04C439.872 368.864 439.777 366.017 440.062 362.031C440.536 355.957 443.477 349.219 444.331 343.145C445.091 337.831 444.331 330.998 444.996 326.158C445.375 323.69 446.988 321.602 447.368 318.186C448.601 307.272 448.127 295.884 450.025 284.875C451.922 273.866 454.484 261.339 455.433 250.045C455.718 246.819 455.148 243.402 455.433 240.176C455.907 235.81 458.469 230.78 458.659 226.32C458.849 222.239 458.185 217.494 458.659 213.223C459.039 210.376 460.841 208.193 461.221 205.821C461.885 201.55 462.359 196.52 462.929 192.155C463.213 190.351 463.498 183.518 462.929 181.905C460.272 175.357 452.207 178.773 447.368 178.773C442.908 178.773 437.69 176.401 433.04 177.065C431.996 177.255 432.281 178.204 431.902 178.204C428.865 178.204 427.062 179.153 424.785 179.153C423.077 179.153 421.18 178.204 419.282 178.109C410.742 177.824 402.203 178.584 393.948 178.678C388.16 178.678 383.226 176.97 382.372 184.183C381.898 187.979 381.992 192.155 381.328 196.33C379.81 206.295 376.204 217.873 376.015 227.933C376.015 230.97 376.869 233.817 376.584 236.759C376.11 240.176 373.168 244.351 372.978 247.388C372.694 252.513 372.978 259.346 372.504 264.376C372.03 268.741 369.278 275.385 368.898 280.319C368.614 283.546 369.847 286.298 369.847 289.335C369.847 292.752 367.38 296.548 366.906 300.344C366.716 302.052 367.19 304.52 367.001 306.513C365.388 323.31 362.826 338.21 362.257 355.293C361.972 364.024 357.228 375.222 357.133 383.953C357.133 385.472 357.892 391.546 359.125 392.115C360.169 392.59 364.629 393.444 365.957 393.539C373.548 394.203 377.153 389.837 385.029 393.444V393.539ZM43.5399 185.132C44.1092 184.562 45.8172 184.183 45.5325 183.044C45.3427 182 43.4451 182.475 42.9706 182.949C42.3064 183.518 41.4525 186.84 40.0292 187.789C42.1167 188.169 42.4962 186.366 43.5399 185.227V185.132ZM919.228 187.125L917.615 187.979L919.797 190.731L922.548 189.877L922.264 188.738L919.797 189.308L919.228 187.125ZM911.542 215.216C910.498 214.552 910.593 215.406 910.403 215.975C909.644 217.778 909.834 219.392 912.111 219.582C912.016 218.538 912.111 217.873 913.155 217.873V216.829C910.593 217.684 911.732 215.311 911.542 215.216ZM708.205 227.933C705.833 227.648 707.635 230.59 709.249 230.211V231.729C711.146 231.729 713.044 230.97 712.664 228.977H708.584L708.3 227.838L708.205 227.933ZM43.3502 235.62H40.8832L40.5985 237.803L40.0292 236.19C38.3213 236.759 38.1315 237.044 38.4162 238.942L42.8757 238.752L43.4451 235.715L43.3502 235.62ZM918.089 260.39C915.432 259.915 915.337 261.624 914.294 263.427L917.045 263.711L915.907 262.668C917.52 262.952 918.089 262.003 918.089 260.485V260.39ZM325.346 275.29C323.923 275.1 324.492 275.29 324.208 276.144C323.639 278.042 323.259 280.035 325.916 280.319C326.58 278.421 325.536 277.188 325.346 275.385V275.29ZM324.872 295.124L321.551 294.555L322.12 296.738C322.12 296.738 318.799 296.643 319.369 298.351C321.646 298.731 324.492 297.592 324.872 295.029V295.124ZM474.884 310.404C474.315 310.024 474.41 308.695 473.366 308.885C472.322 309.075 472.512 310.499 473.081 311.258C474.315 313.061 478.3 312.966 476.402 310.878C476.023 310.404 475.264 310.688 474.884 310.404ZM318.799 324.829L323.164 321.792C321.077 319.799 318.61 322.551 318.799 324.829ZM329.806 335.363L323.164 336.217L324.018 337.546C325.062 336.787 326.39 337.546 327.149 337.356C327.624 337.356 330.186 336.407 329.711 335.363H329.806ZM719.781 337.546L716.46 336.977V339.729C717.883 340.393 720.919 338.969 719.781 337.546ZM819.504 340.298C819.409 341.247 819.219 344.474 820.833 344.189C822.446 342.861 821.971 339.824 819.504 340.298ZM830.511 354.629C826.905 354.059 827.569 357.191 826.62 359.563L828.234 359.184C828.234 358.614 828.234 357.95 828.613 357.381C829.372 355.957 830.511 355.957 830.511 354.629ZM832.693 368.389C834.021 369.528 836.963 364.973 835.16 364.498L832.408 365.637L832.693 368.389ZM321.551 368.389C323.354 368.2 324.777 369.433 325.916 367.535C323.828 365.447 321.741 364.688 321.551 368.389ZM341.856 367.915L337.492 366.776C337.017 369.338 340.054 369.528 341.856 369.528V367.915ZM470.235 370.572L468.622 370.952C468.812 372.28 468.622 372.565 467.483 373.04L468.337 374.368L471.279 373.04L469.666 372.755L470.235 370.572ZM469.476 379.778C474.03 374.084 467.104 376.741 466.914 377.595C466.629 378.924 467.199 380.347 468.337 381.106C468.527 380.442 469.096 380.252 469.476 379.778ZM736.86 379.968C735.152 378.164 734.677 385.092 738.283 384.903C739.801 383.953 737.904 383.099 737.334 381.961C736.955 381.391 736.955 380.632 736.955 379.873L736.86 379.968ZM350.206 383.289C350.396 381.581 348.783 381.486 347.455 381.676C346.79 384.428 348.498 384.428 349.637 386.326C346.411 387.56 350.681 391.641 351.155 387.845C351.345 386.136 351.155 383.953 349.162 383.859L350.301 383.289H350.206ZM723.671 398.663C723.766 400.467 720.824 401.7 722.817 403.029C725.284 403.693 726.707 398.663 723.671 398.663ZM351.25 402.554C349.827 403.029 348.593 401.511 347.644 401.416C345.462 401.131 344.988 403.409 347.17 403.693C347.739 403.693 350.965 403.409 351.25 402.554ZM471.943 401.985C470.425 400.751 468.242 405.686 468.053 406.92C474.22 407.964 470.614 404.927 470.804 403.314C470.804 403.124 472.987 402.839 471.943 401.89V401.985ZM740.75 409.198C740.276 406.635 741.13 404.453 738.852 402.554L738.283 404.737L740.75 409.103V409.198ZM355.14 419.068C355.709 416.98 354.002 416.41 353.242 415.177C352.009 412.994 351.724 409.577 348.498 410.811L349.637 412.709L348.593 412.994V414.038L351.25 415.461L355.14 418.973V419.068ZM468.053 412.519C465.301 412.614 463.593 413.279 464.162 416.41C464.826 417.17 467.578 413.089 468.053 412.519ZM463.119 415.746L458.754 414.133L458.279 417.17C459.608 419.068 459.987 417.17 460.936 416.6C461.79 416.22 463.213 416.695 463.119 415.746ZM637.136 428.463L630.02 430.93C632.487 433.018 636.567 431.595 637.136 428.463ZM67.0713 437.289C69.4434 433.683 62.4219 434.442 62.1373 435.391C61.8526 436.34 63.5605 436.814 64.035 436.814C64.3196 436.814 64.3196 435.011 65.7429 435.676L67.0713 437.289ZM547.945 442.793C545.099 443.363 543.201 440.895 540.829 440.041L541.398 446.115C544.719 446.115 540.829 443.458 542.821 442.793C543.865 442.414 543.486 443.742 544.34 444.027C545.763 444.596 548.135 444.881 548.04 442.793H547.945ZM347.455 444.407C348.878 443.078 342.615 438.618 343.659 443.837L347.455 444.407ZM542.442 447.159C541.873 447.823 544.245 452.094 544.909 452.094C547.376 452.189 543.486 446.02 542.442 447.159ZM347.929 459.306C350.775 460.73 353.148 458.357 352.104 455.415C349.921 453.707 350.491 456.839 350.016 457.503C349.542 458.262 347.454 457.503 347.929 459.306ZM350.681 462.628H349.068L347.929 469.271H349.542C350.016 466.614 351.535 465.57 350.681 462.628ZM242.133 466.899C243.936 463.767 239.097 462.343 237.389 465.19L237.863 468.702C237.863 468.702 241.943 467.278 242.133 466.899ZM317.661 472.023C319.559 470.885 319.843 467.848 320.033 465.855C320.033 465.38 320.697 463.767 319.559 463.767C318.04 463.767 316.902 470.505 317.661 472.023ZM324.967 468.797C324.398 469.461 324.398 471.074 322.595 471.644L323.544 472.972C326.96 473.067 329.047 471.549 326.485 468.322C326.2 468.038 325.157 468.607 324.967 468.797ZM328.667 479.616V475.82C326.96 476.389 327.529 477.623 327.149 478.856L324.872 479.141L325.726 480.754L328.667 479.616ZM248.3 485.784L244.979 481.609C240.52 481.514 244.031 482.558 244.79 483.222C245.738 484.076 246.023 486.259 248.3 485.784ZM91.8361 505.05C90.3179 503.246 88.9895 511.693 89.0844 512.167C90.4128 513.686 92.3105 505.809 91.8361 505.05Z" fill="white"/>
<path d="M1106.53 469.176C1106.62 470.03 1106.34 469.651 1105.68 469.746C1100.84 470.125 1098.37 468.512 1094.1 468.132C1084.9 467.278 1074.65 467.658 1065.44 467.563C1063.07 467.563 1062.5 466.139 1062.12 466.045C1061.55 465.855 1058.52 466.329 1058.04 465.855V464.241C1052.45 468.322 1046.85 465.19 1040.96 464.526C1033.85 463.767 1026.07 464.146 1019.14 463.672C1009.27 463.008 999.595 463.862 989.537 462.343C988.208 462.154 986.311 461.11 985.552 461.11C984.033 461.11 981.756 463.103 980.713 463.008C979.953 462.913 978.435 461.299 977.392 460.825C972.837 458.832 969.516 460.54 965.152 460.445C958.415 460.255 949.78 458.547 943.138 458.168C940.861 458.073 937.445 459.971 935.737 457.883C932.416 453.612 934.219 449.626 935.168 444.976L936.781 445.546L936.212 443.932L934.599 444.502C933.84 440.326 935.737 436.909 936.117 433.018C936.781 426.565 936.496 420.301 936.117 413.943C935.832 407.964 937.73 403.693 937.825 399.043C937.825 397.43 937.066 395.721 936.971 394.108C936.686 386.611 939.817 380.822 939.723 373.229C939.723 370.477 938.299 366.207 938.394 364.403C938.394 362.79 941.051 359.279 941.146 356.716C941.146 354.818 940.007 353.869 940.007 352.351C940.007 350.927 941.051 349.694 941.146 348.46C941.146 346.941 940.197 345.423 940.102 343.999C939.723 333.18 941.43 322.077 942.759 311.543C943.138 308.126 942.569 299.49 943.518 296.833C943.897 295.789 944.941 295.314 945.51 294.555C944.941 292.847 942.854 293.891 942.759 293.701C942.664 293.606 942.284 290.664 942.189 290.094C941.715 282.882 944.372 272.917 945.416 265.799C945.795 263.427 944.372 257.448 947.693 257.827C947.977 256.878 946.649 257.638 946.554 256.973C946.554 256.594 947.029 255.929 947.029 255.36C946.839 251.279 947.313 253.842 947.977 251.849C948.736 249.571 949.59 239.701 949.97 239.227C950.16 239.037 951.298 239.037 951.393 238.372C951.678 237.139 950.16 232.678 950.539 229.641C950.919 227.079 952.627 224.991 953.006 222.713C953.386 220.626 953.006 218.633 953.386 216.45C954.145 213.033 957.181 209.427 957.466 205.061C957.561 202.974 956.612 201.55 956.517 199.747C956.232 195.476 958.984 191.87 960.123 187.979C962.59 179.438 963.538 170.042 964.962 161.311C965.246 159.698 966.29 158.179 966.385 156.281C966.575 154.099 965.721 152.011 965.911 150.397C966.195 147.835 968.852 142.615 969.516 139.104C970.655 133.03 972.078 128.57 973.312 122.97C973.786 120.693 973.501 117.561 974.26 115.093C974.83 113.006 976.917 110.633 977.202 108.64C977.581 105.793 975.589 100.858 976.348 96.7772C976.727 94.974 978.91 93.6454 979.384 91.5575C979.859 89.7544 979.384 87.9512 979.669 86.3379C980.428 82.5417 982.041 78.9354 982.326 74.9495L983.939 75.5189C984.603 74.0954 982.895 73.7158 982.895 73.6209C983.085 69.4451 986.311 64.9847 986.121 60.6192L990.011 61.758V60.1446L986.121 59.8599C987.449 57.2976 988.873 54.7352 991.434 53.1218C997.128 53.1218 1002.73 53.5963 1008.42 53.7861C1013.73 53.976 1016.29 53.881 1021.7 54.6403C1031.57 55.874 1039.54 55.3046 1049.22 55.7791C1051.97 55.9689 1053.77 57.5823 1055.86 57.9619C1058.8 58.4364 1061.46 57.2027 1064.12 57.3925C1066.2 57.5823 1069.52 59.5752 1072.56 60.0497C1075.22 60.4294 1078.44 60.3345 1081.2 60.7141L1081.48 62.4223C1082.43 62.4223 1081.95 61.3784 1083 60.9039C1086.13 59.2905 1089.45 61.5682 1092.58 61.9478L1092.01 64.1306C1093.06 64.4153 1093.62 63.2764 1094.57 63.1815C1095.52 63.0866 1098.37 64.2255 1100.55 64.2255C1102.73 64.2255 1104.82 63.0866 1106.62 63.0866C1107.67 63.0866 1107.29 64.8898 1109.09 64.2255L1107.95 63.1815C1112.89 62.707 1117.06 65.0796 1122 65.3643C1125.98 65.649 1131.48 65.9337 1135.28 65.9337C1138.41 65.9337 1141.73 64.3204 1145.15 64.7949C1147.33 65.1745 1149.89 67.5471 1151.88 67.9267C1154.73 68.4961 1157.96 67.4522 1160.8 68.591L1159.66 69.9196C1162.32 73.1463 1163.84 69.7298 1164.88 69.6349C1168.58 69.1604 1175.98 69.0655 1179.78 69.0655C1183.01 69.0655 1187.66 70.3942 1190.79 70.2044C1194.39 70.0146 1200.18 67.8318 1203.98 67.4522C1214.79 66.4082 1225.23 68.1165 1235.38 67.9267C1240.13 67.9267 1244.68 64.9847 1249.14 68.591C1253.88 72.482 1251.7 75.1393 1250.18 79.5998C1249.8 80.7386 1250.56 82.6366 1248.86 82.3519L1250.56 83.7755C1250.28 87.4767 1248.67 90.7983 1247.91 94.3097C1247.53 95.8281 1247.91 97.4415 1247.62 99.0548C1246.96 102.376 1244.87 104.654 1243.92 107.501C1242.59 111.487 1243.26 116.042 1242.31 120.028L1240.6 120.408C1243.64 124.584 1239.08 128.57 1239.46 133.03H1237.28C1241.93 137.87 1237.56 141.666 1236.43 146.791C1235 153.339 1234.91 160.742 1232.63 167.1L1229.5 184.752H1227.41C1229.02 187.125 1227.51 187.409 1227.41 189.023C1227.13 194.907 1226.37 196.141 1225.32 201.265C1224.09 207.529 1223.14 213.508 1222.38 219.771C1221.81 224.422 1219.44 231.444 1218.4 236.759C1217.92 239.321 1216.69 241.789 1216.88 244.067L1215.74 243.782C1218.02 248.717 1214.32 251.849 1213.65 255.74C1213.08 259.156 1213.46 263.522 1212.8 267.033C1212.14 270.734 1209.95 274.72 1209.19 278.327C1207.87 284.59 1207.39 291.898 1205.97 298.256C1205.02 302.432 1201.79 309.739 1201.51 313.061C1201.22 315.434 1203.41 319.894 1199.8 320.938L1200.84 321.697C1199.52 324.165 1198.95 326.917 1199.23 329.669C1198.57 329.954 1198.66 327.296 1197.62 328.53C1196.86 329.384 1197.9 330.713 1199.23 330.238C1199.42 334.129 1196.76 337.831 1196.57 341.627C1196.19 348.65 1195.25 350.263 1193.73 356.906C1191.74 365.542 1190.79 374.558 1188.6 383.099C1187.75 386.516 1184.9 392.59 1184.52 395.627C1184.33 397.335 1185.19 398.663 1184.81 400.846C1184.43 403.409 1181.68 406.635 1180.63 409.387C1179.21 413.373 1179.02 418.593 1177.79 422.484C1176.55 426.375 1173.14 431.595 1171.81 435.865C1169.91 442.224 1168.58 457.124 1166.12 461.584C1165.55 462.723 1164.22 463.767 1163.74 464.716C1162.32 468.132 1163.93 468.702 1159.47 470.885C1155.02 473.067 1149.61 472.688 1145.15 471.169L1146 469.556L1143.25 471.739L1142.68 470.125C1141.54 469.936 1141.73 471.549 1140.88 471.834C1136.32 473.067 1126.93 471.454 1122.66 469.366C1122.19 469.176 1121.24 466.709 1120.29 469.081L1121.43 469.651C1117.82 468.987 1114.78 470.315 1111.18 470.22C1109.66 470.22 1107.57 469.841 1105.96 469.651L1105.39 466.045L1102.07 465.76C1100.84 469.841 1103.02 469.176 1105.86 469.556L1106.53 469.176ZM1211.66 67.5471C1208.53 66.9777 1209.57 70.8687 1210.05 73.0514L1216.12 71.9126L1215.55 70.0146L1211.66 69.7298V67.5471ZM1245.82 71.4381C1244.4 70.6789 1243.83 71.8177 1242.78 71.9126C1241.45 72.1024 1239.27 71.3432 1238.7 73.0514C1240.98 73.9056 1242.59 72.7667 1244.78 74.1903L1245.91 71.4381H1245.82ZM1086.7 79.6946C1086.41 83.0163 1092.49 80.359 1092.2 78.8405L1089.73 77.9864L1088.6 80.0743L1086.7 79.5998V79.6946ZM1021.7 78.5558C1021.7 78.5558 1017.15 80.8335 1017.81 81.8774C1019.62 81.0233 1019.14 83.8704 1021.7 83.0163L1020.18 81.1182C1019.99 79.9794 1022.65 79.5048 1021.7 78.6507V78.5558ZM1158.81 80.8335C1158.34 77.6068 1153.4 78.2711 1153.88 81.4029L1158.81 80.8335ZM1054.15 79.6946C1051.59 79.4099 1049.31 79.5048 1046.75 79.6946C1045.9 79.6946 1044.57 79.1252 1044.85 80.4539C1046.47 81.9723 1050.26 81.2131 1052.26 80.7386C1053.01 80.5488 1053.96 80.7386 1054.15 79.5998V79.6946ZM1061.36 81.308C1058.23 81.0233 1057.57 83.3959 1059.47 85.6735L1061.36 81.308ZM1108.14 86.3379H1106.53L1107.1 88.8053L1104.92 89.09L1107.38 92.4116L1109.85 90.2289L1108.14 86.4328V86.3379ZM1139.55 106.173C1137.56 105.793 1135.66 106.552 1133.76 106.742C1132.62 106.837 1130.91 105.224 1131.29 107.311L1134.8 107.786L1139.55 106.173ZM1056.9 111.108C1054.06 110.443 1050.83 110.823 1047.89 110.538C1036.12 109.115 1024.45 107.406 1012.59 106.742C1010.13 106.647 996.368 106.362 995.325 107.406C994.755 108.83 994.281 111.108 994.186 112.626C994.186 118.984 995.23 125.438 995.894 131.512C996.653 138.06 997.981 144.608 998.93 151.157C999.5 155.522 998.076 160.267 998.456 163.209C998.835 165.677 1000.83 169.758 1001.21 173.174C1002.06 181.431 1003.11 189.687 1003.77 197.754C1004.53 207.814 1007.19 213.318 1005.86 223.947C1005.38 227.648 1007.85 229.167 1008.32 232.204C1009.84 241.219 1008.13 249.951 1009.08 258.492C1009.37 261.054 1010.89 263.901 1011.17 266.274C1011.93 272.253 1012.31 278.232 1013.26 284.021C1014.21 289.81 1015.06 295.029 1016.1 300.439C1016.39 302.052 1016.1 308.411 1015.63 310.119C1015.63 310.309 1013.92 311.827 1013.35 314.01C1011.93 319.799 1010.89 325.873 1009.46 331.567C1008.61 334.889 1007.66 340.773 1006.62 343.525C1005.95 345.138 1003.96 346.087 1003.67 347.226C1003.01 349.504 1003.11 352.92 1002.35 355.767C1000.16 363.36 995.609 370.762 993.901 378.164C993.332 380.632 993.522 383.764 992.953 386.041C991.055 394.298 985.362 402.175 983.274 410.526C982.041 415.366 982.041 420.776 980.902 425.806C983.18 433.967 987.734 430.076 992.763 430.266C994.566 430.266 996.938 431.879 998.835 432.164C1002.06 432.639 1005.86 431.974 1009.27 432.164C1012.69 432.354 1016.67 433.683 1019.71 433.872C1022.37 433.967 1024.64 433.208 1027.4 433.303C1029.77 433.398 1032.52 434.537 1034.89 434.727C1038.02 434.916 1045.23 434.727 1048.37 434.442C1049.22 434.442 1049.98 434.252 1050.64 433.683C1051.5 432.923 1054.53 421.915 1055.2 419.732C1057.57 412.045 1059.18 405.022 1062.41 397.714C1065.63 390.407 1065.73 384.048 1067.63 377.026C1068.01 375.507 1072.09 369.908 1072.75 367.82C1073.89 363.739 1074.08 357.191 1075.79 353.11C1076.83 350.643 1078.92 349.788 1079.01 347.226H1081.76L1079.58 346.657C1079.58 345.518 1079.58 344.284 1079.58 343.145C1079.87 340.773 1086.22 320.369 1087.27 318.945C1087.65 318.47 1088.31 318.565 1088.31 318.565C1089.07 317.332 1087.27 317.806 1087.17 316.667C1086.7 312.302 1091.73 311.448 1094.1 308.031C1095.9 305.374 1096.66 301.483 1098.56 298.731C1104.25 290.759 1110.42 284.78 1116.21 276.144C1121.14 268.836 1127.02 262.288 1132.24 255.265C1134.61 252.038 1135.66 250.14 1137.75 247.009C1139.07 245.016 1142.02 243.212 1143.53 241.219C1145.72 238.183 1146.85 235.43 1149.61 231.824C1155.3 224.232 1161.09 217.209 1166.5 209.522C1167.16 208.573 1168.49 207.814 1168.96 206.96C1169.44 206.295 1168.96 205.631 1168.96 205.631C1169.34 205.346 1170.58 205.916 1171.43 205.061C1171.71 204.777 1173.42 199.747 1174.18 198.418C1176.84 193.388 1181.3 190.446 1184.71 186.081C1185.85 184.562 1186.04 184.942 1186.61 184.278C1187.37 183.424 1188.03 180.102 1189.08 178.584C1191.07 175.736 1195.44 172.225 1197.62 169.473C1201.03 165.012 1201.98 159.413 1208.06 156.756L1206.44 156.186C1207.11 155.142 1208.62 155.712 1209.29 155.048C1209.57 154.668 1209.86 153.244 1210.43 152.485C1214.22 147.266 1216.6 142.805 1220.49 137.775C1220.96 137.111 1225.51 129.139 1225.61 128.57C1226.94 122.496 1221.43 125.343 1218.87 125.058C1217.45 124.963 1215.65 123.35 1213.84 122.875C1208.34 121.547 1202.08 122.211 1196.86 121.737C1196.48 121.737 1196.86 120.693 1195.72 120.598C1193.73 120.313 1191.83 121.167 1190.22 121.167C1187.28 121.072 1183.76 119.744 1180.73 119.554C1177.5 119.269 1173.04 120.313 1170.29 120.123C1167.16 119.934 1162.23 117.941 1158.72 117.846C1153.97 117.751 1154.35 119.839 1151.6 121.737C1150.46 122.496 1149.04 122.686 1147.8 123.445C1144.96 125.343 1143.25 131.986 1141.26 135.118C1135.94 143.564 1129.21 150.967 1124.37 159.508C1122.56 162.735 1121.52 167.67 1117.82 169.568C1116.59 170.232 1114.88 169.093 1114.31 170.422C1113.74 171.845 1115.45 171.845 1115.45 172.035C1115.45 173.554 1112.41 177.634 1110.51 176.116C1111.08 179.438 1108.14 180.956 1106.53 183.424C1102.45 189.972 1100.93 196.52 1095.33 203.068C1093.72 204.967 1091.54 205.441 1090.4 206.96C1087.36 210.661 1085.56 216.829 1081.29 221.48C1079.87 222.998 1076.17 227.364 1074.93 223.473C1074.46 221.954 1073.79 216.829 1073.6 214.931C1072.85 208.668 1074.27 202.119 1073.7 196.615C1073.13 191.585 1074.17 186.46 1073.51 181.905C1072.94 177.919 1070.95 175.926 1071.42 170.896C1072.18 163.019 1070.76 158.464 1070.28 150.967C1069.81 143.469 1071.04 135.118 1070.85 127.241C1070.76 123.16 1069.33 118.984 1070.28 114.714L1071.42 113.86C1067.15 112.341 1062.88 110.064 1058.23 110.538L1058.8 108.355L1057.19 108.735V110.538L1056.9 111.108ZM1227.51 111.772C1227.51 111.772 1225.89 110.918 1225.51 111.108L1224.38 114.334C1225.89 115.378 1229.31 113.385 1227.51 111.772ZM1101.5 128.19C1101.5 129.898 1103.02 133.6 1105.11 133.125C1106.05 132.935 1105.77 132.461 1105.39 131.796C1104.92 131.037 1102.73 127.051 1101.5 128.19ZM1088.88 154.099C1085.75 154.858 1082.24 154.668 1080.63 157.99C1083.38 157.42 1086.89 156.281 1088.88 154.099ZM1223.81 159.034L1222.67 159.318C1222.76 160.552 1224.09 164.348 1225.7 163.968C1228.36 163.399 1223.43 160.172 1223.81 159.034ZM1078.44 196.52C1079.01 197.279 1082.05 196.52 1081.76 195.192C1081.2 192.914 1076.83 194.148 1078.44 196.52ZM1077.87 198.703H1075.12C1074.93 201.55 1078.16 201.93 1077.3 205.346C1079.96 205.536 1077.49 201.93 1077.4 201.076C1077.3 200.221 1077.78 199.557 1077.87 198.703ZM1216.69 204.777C1217.83 205.156 1218.59 203.923 1219.25 203.828C1219.92 203.733 1220.3 204.587 1221.15 204.587C1222 204.587 1225.23 203.448 1224.94 202.404L1222.76 200.506L1223.33 202.689C1220.77 203.638 1218.4 201.93 1216.69 204.872V204.777ZM1168.58 389.648C1168.58 389.648 1167.54 390.217 1167.16 390.692L1168.01 392.02L1170.77 390.976L1169.63 388.794C1168.49 388.509 1168.96 389.363 1168.58 389.648ZM1097.14 394.867C1097.14 392.495 1094.86 393.539 1093.62 393.159C1092.49 392.874 1091.82 391.925 1090.59 392.115C1090.78 395.152 1094.95 393.634 1097.23 394.867H1097.14ZM1083.85 410.337C1081.29 409.672 1079.96 411.001 1080.06 413.563C1082.71 412.994 1082.9 414.228 1084.42 415.746L1083.85 410.337ZM1104.25 419.068C1102.54 419.637 1101.03 416.6 1099.89 418.213C1100.27 420.966 1103.68 422.104 1104.25 419.068ZM1071.23 421.82C1074.17 422.01 1077.3 423.433 1077.87 419.352L1074.55 418.498L1075.12 420.681C1075.12 420.681 1070.85 419.257 1071.23 421.82ZM1069.62 419.637C1067.34 420.112 1064.21 418.878 1062.98 421.25C1065.16 421.155 1068.29 421.915 1069.62 419.637ZM1065.92 429.222C1066.87 428.653 1069.43 428.178 1067.63 426.755C1066.87 427.609 1062.6 430.551 1061.84 430.076L1061.55 428.463L1060.89 430.361C1062.03 432.354 1064.78 429.887 1065.92 429.222ZM1134.05 428.463C1133.57 426.85 1131.58 427.988 1130.16 427.324C1130.35 429.317 1131.48 430.741 1133.48 429.792C1135.18 429.032 1132.43 429.032 1132.91 428.368H1134.05V428.463ZM1157.77 435.106L1160.52 433.208L1155.58 430.741C1155.87 432.828 1158.53 432.449 1157.77 435.106ZM986.406 447.159L983.654 444.976C983.844 445.545 984.128 445.925 983.939 446.684C983.654 448.013 982.326 447.349 982.515 448.582L985.267 449.436L984.128 451.619C986.69 451.335 986.88 446.779 989.632 449.436C990.77 447.349 985.741 446.21 987.449 448.298L985.267 448.867C985.172 447.728 985.077 447.159 986.406 447.254V447.159ZM1051.4 448.867C1048.84 450.006 1047.99 447.159 1045.33 447.254C1045.33 450.101 1047.32 450.86 1049.69 450.006V451.619H1051.31V448.867H1051.4ZM1076.17 447.159C1075.22 446.115 1075.31 446.969 1075.22 447.823C1074.84 450.196 1075.12 451.619 1072.37 452.379C1072.75 453.707 1073.98 453.897 1074.55 454.561C1075.03 455.131 1074.93 456.175 1075.22 456.364C1075.6 456.649 1078.82 457.598 1077.87 455.7C1077.4 454.656 1076.17 453.043 1076.26 451.809C1076.26 450.955 1077.3 450.48 1077.21 449.721C1077.21 449.152 1075.88 448.203 1076.17 447.159ZM1152.07 448.962C1152.45 449.626 1152.07 452.758 1154.16 452.663C1156.25 452.568 1154.16 448.108 1152.45 447.728C1149.8 448.677 1151.98 448.772 1152.07 448.867V448.962ZM1037.55 454.846L1036.12 452.758L1033.85 453.897L1034.89 457.124C1037.07 456.839 1036.22 455.036 1037.55 454.846ZM1050.26 457.693L1051.4 452.758L1048.65 453.328C1048.18 453.802 1049.03 457.503 1050.26 457.693ZM976.348 455.036C975.589 454.277 974.355 454.087 973.786 455.131C975.019 456.08 975.684 457.124 975.399 458.737C977.961 459.496 977.676 456.27 976.348 455.036ZM1068.48 454.941L1066.87 457.693L1065.82 456.554L1064.69 458.737L1068.48 458.073V454.846V454.941ZM1107.48 460.35C1107.95 459.591 1107.19 455.795 1105.96 455.51L1106.53 458.262H1104.73L1104.35 459.876L1106.53 459.306L1105.96 460.92L1107.48 460.255V460.35ZM1043.15 457.693L1044.66 459.781L1048.08 458.452C1046.75 456.459 1045.04 457.313 1043.15 457.598V457.693ZM1097.8 461.489C1097.8 461.489 1098.08 458.452 1096.09 458.832C1096.47 460.635 1097.23 462.343 1096.09 464.146C1096.09 464.336 1098.27 464.431 1096.85 465.475L1094.76 463.957L1093.81 464.336V462.818L1091.06 461.584L1088.88 467.088C1090.4 466.424 1090.3 464.336 1092.39 464.526C1094 465.95 1097.04 466.329 1097.7 468.227L1098.56 467.088L1101.03 468.227C1100.93 465.285 1096.66 467.278 1097.8 464.146C1097.99 463.577 1101.88 461.869 1097.8 461.584V461.489Z" fill="white"/>
<path d="M205.413 320.368L206.361 320.748C204.369 324.449 206.267 329.669 206.361 333.94C206.456 339.444 206.646 344.569 206.836 349.978C206.836 351.402 206.361 360.228 206.077 360.702C205.887 361.082 205.128 361.177 204.748 361.272L205.792 363.739C204.843 365.352 203.61 363.549 202.471 364.309C202.471 366.301 205.223 365.352 205.697 365.732C205.887 365.922 206.836 369.908 206.836 370.477C206.931 371.901 206.551 377.12 206.267 378.639C205.982 380.632 203.8 382.625 201.902 383.099C200.953 383.384 200.099 382.815 199.814 382.91C196.304 384.523 194.691 383.859 190.8 384.523C186.91 385.187 182.451 387.275 179.035 387.655C175.809 387.939 172.203 386.801 168.597 387.18C166.32 387.37 164.138 388.509 162.05 388.319C160.437 388.224 159.109 386.895 157.401 387.18C158.065 385.377 156.357 383.953 156.263 381.96C156.263 378.734 157.876 375.602 157.401 371.426C157.116 369.433 155.883 368.769 155.693 367.061C155.124 362.505 155.124 352.541 155.124 347.795C155.124 343.999 156.642 338.969 156.642 335.173C156.642 331.662 154.649 327.676 154.744 324.639C154.744 322.267 156.073 320.653 156.263 317.521C156.263 317.142 157.306 317.426 157.401 316.383C158.065 310.783 156.357 301.103 155.788 295.314C155.314 291.043 155.883 281.838 158.824 278.611C161.481 275.669 163.474 277.472 166.32 277.377C168.977 277.283 172.013 275.479 174.765 275.29C177.706 275.1 179.604 276.334 181.881 276.334C185.677 276.334 192.034 273.392 196.778 273.107C208.449 272.348 204.369 274.625 204.748 282.218C204.938 285.254 206.172 288.861 206.456 292.087C206.836 297.971 205.507 303.666 205.602 309.455C205.602 313.346 207.121 316.383 205.507 320.368H205.413ZM191.56 326.537C191.465 325.019 192.129 323.216 190.706 322.172L189.282 323.121V326.632H191.465L191.56 326.537ZM200.858 360.702H198.676V362.316L197.063 361.746V363.36L200.953 364.498V360.607L200.858 360.702Z" fill="white"/>
<path d="M204.179 120.977L203.04 123.16H204.559C205.982 124.394 204.748 133.694 204.938 135.782C205.128 137.87 206.361 139.958 206.361 142.141C206.361 144.703 204.938 147.455 205.223 150.397C205.413 152.77 206.646 154.763 206.646 157.041C206.646 160.077 204.938 163.019 204.654 165.867C204.084 171.276 205.318 179.722 205.223 185.701C205.223 188.643 204.559 191.775 204.654 195.097C204.654 197.659 205.887 197.944 204.464 200.886C201.807 206.39 197.442 203.828 192.888 204.207C187.954 204.492 182.071 206.865 177.422 207.434C174.101 207.814 171.349 206.865 168.692 206.96C166.89 206.96 165.182 208.383 163.663 208.478C161.576 208.573 159.583 207.054 157.496 207.529C155.409 202.974 154.934 198.513 155.219 193.578C155.503 189.402 155.693 189.687 155.219 185.227C154.839 181.62 156.168 180.102 156.263 177.54C156.263 175.736 155.219 174.028 155.219 172.605C155.219 171.371 156.263 170.327 156.168 168.903C156.073 167.575 154.744 166.246 154.744 164.918C154.744 163.779 155.503 162.165 155.598 160.837C156.168 150.777 153.321 140.433 154.175 130.752C154.27 129.519 155.503 128.38 154.744 126.672C161.576 124.774 168.313 124.204 175.334 124.109C177.327 124.109 180.648 125.058 182.451 124.774C185.202 124.394 186.815 122.021 189.187 121.737C192.793 121.167 197.347 122.211 200.763 122.021C201.522 122.021 202.946 120.598 204.369 121.167L204.179 120.977Z" fill="white"/>
</g>
<defs>
<clipPath id="clip0_22600_27">
<rect width="1251.43" height="519.024" fill="white" transform="translate(0.936859 0.355804)"/>
</clipPath>
</defs>
</svg>
