<svg width="1051" height="528" viewBox="0 0 1051 528" fill="none" xmlns="http://www.w3.org/2000/svg">
<g clip-path="url(#clip0_22600_317)">
<path d="M374.706 475.771H306.638L291.267 387.99H220.454L205.084 475.771H163.913V451.082H178.186L248.999 50.5835H289.072L360.434 451.082H374.706V475.771ZM286.327 363.85L255.586 187.192L225.395 363.85H286.327Z" fill="white"/>
<path d="M549.818 475.771H387.881V451.082H403.251V76.9178H387.881V52.2295H477.358V76.9178H460.89V451.082H514.137L525.116 384.15H549.818V475.771Z" fill="white"/>
<path d="M660.155 475.771H571.776V451.082H587.146V76.9178H571.776V52.2295H660.155V76.9178H645.334V451.082H660.155V475.771Z" fill="white"/>
<path d="M1051 264C1051 447.79 1002.69 480.16 956.033 480.16C909.373 480.16 861.616 447.79 861.616 264C861.616 80.2094 909.373 47.8403 956.033 47.8403C1002.69 47.8403 1051 80.2094 1051 264ZM987.872 264C987.872 97.7655 956.033 72.5286 956.033 72.5286C956.033 72.5286 924.744 97.7655 924.744 264C924.744 430.234 956.033 455.471 956.033 455.471C956.033 455.471 987.872 430.234 987.872 264Z" fill="white"/>
<path d="M844.598 53.8754C844.598 53.8754 828.679 49.4863 812.76 49.4863C768.845 49.4863 696.385 65.9452 696.385 262.903C696.385 459.86 768.845 478.514 814.407 478.514C830.875 478.514 844.598 474.673 844.598 474.673V450.534C839.658 451.631 833.071 453.277 825.935 453.277C797.39 453.277 759.513 430.234 759.513 262.903C759.513 203.761 765.222 161.187 771.919 131.451C781.141 82.5138 793.547 72.5287 793.547 72.5287C793.547 72.5287 802.111 79.3317 810.454 109.287H844.708V53.8754H844.598Z" fill="white"/>
<path d="M81.6822 358.364C81.6822 358.364 77.7299 297.357 77.7299 262.574C77.7299 84.3791 114.838 31.0524 137.784 31.0524C139.76 31.0524 143.163 31.0524 144.591 31.7107L152.056 73.6259H182.468V5.37656C182.468 5.37656 162.925 0 143.273 0C89.1478 0 0 20.2993 0 262.683C0 505.067 89.1478 528 145.249 528C165.56 528 182.358 523.282 182.358 523.282C82.9997 499.581 82.2312 369.776 81.5724 358.474L81.6822 358.364Z" fill="white"/>
</g>
<defs>
<clipPath id="clip0_22600_317">
<rect width="1051" height="528" fill="white"/>
</clipPath>
</defs>
</svg>
