<svg width="1513" height="442" viewBox="0 0 1513 442" fill="none" xmlns="http://www.w3.org/2000/svg">
<g clip-path="url(#clip0_22600_428)">
<path d="M127.523 29.0554C128.328 28.966 129.133 27.9826 130.655 28.1614C131.102 28.1614 138.44 30.4858 138.798 30.754C139.693 31.3799 139.246 32.6315 139.335 33.6149L141.573 31.0222C143.899 31.5587 146.942 32.9891 149.269 33.0785C150.432 33.0785 153.027 31.6481 154.28 31.9163C154.817 32.0057 159.381 37.3697 160.544 32.6315C165.735 34.7771 170.657 37.0121 176.473 36.2075L171.909 33.5255L175.937 34.5089L177.368 32.6315V36.2075C181.753 36.0287 185.691 37.7273 189.539 37.1909C190.613 41.1246 193.924 35.8499 193.745 39.873L196.43 38.085L196.967 39.9624C200.636 39.6048 209.137 39.1578 212.269 40.32C214.596 41.1246 215.312 44.2536 219.428 41.661L220.413 43.5384H221.755C221.576 42.1974 226.23 39.1578 227.214 39.873L224.529 44.343L226.767 42.6444L230.883 43.449L231.778 45.2371L233.568 41.661L233.12 44.343L239.027 43.449L238.132 46.1311H240.816L242.606 43.449L243.054 47.1145L243.591 45.4159C247.528 47.3827 246.454 45.5947 248.96 43.5384V48.0979L253.971 48.7237L257.104 43.5384V48.0085L260.325 48.9025L262.562 47.2039L262.115 48.9919L266.589 49.8859C267.574 49.7965 266.589 31.4693 267.037 29.6812C267.216 29.0554 268.469 29.0554 268.558 28.8766C268.827 28.3402 267.753 27.2674 268.29 26.3734C270.348 22.6185 274.286 28.7872 269.722 29.1448L271.511 30.0388L269.722 32.2739C271.959 32.2739 271.243 36.0287 270.706 37.7273C270.08 39.873 268.737 38.4426 268.737 39.9624C270.706 39.6048 272.048 40.32 272.317 42.3762C272.496 44.0748 270.795 43.2702 270.616 44.1642C269.185 49.7071 274.912 52.2998 275.18 50.3329V45.4159L273.391 49.9753C273.212 46.3993 272.496 44.7006 276.075 43.1808L273.391 42.7338V40.4988L275.18 40.9458C276.075 38.6214 273.48 39.2472 273.391 38.7108C272.048 34.4195 277.507 37.8167 277.776 38.3532C278.134 38.979 276.523 44.1642 276.523 44.9689C276.523 46.0417 278.76 49.2601 277.06 51.7633L297.911 54.4454L297.016 50.8693L299.253 52.6574L301.938 49.0813C303.728 50.1541 302.833 53.015 304.175 54.0878C304.354 54.2666 308.829 55.25 309.097 55.25C311.692 55.3394 315.361 52.4786 316.435 56.3228C320.015 51.5845 324.579 56.5016 329.59 55.4288L329.143 57.2168L334.154 52.6574L332.364 57.2168L335.586 56.4122L335.944 58.1108L338.181 55.4288C339.165 57.5744 343.55 56.2334 341.313 59.0049L343.103 56.3228L343.998 59.0049L346.683 56.3228C348.472 56.0546 346.504 58.6473 348.92 58.1108C349.904 57.932 348.562 55.4288 351.157 56.3228L350.262 60.8823L352.857 58.6473L358.406 59.0943L357.511 61.7763C361.806 62.0445 372.456 66.0676 375.319 62.4021C376.035 61.5081 375.588 59.3625 377.378 59.0943L375.588 64.5477C378.63 64.6371 381.047 62.4915 382.389 59.9883L383.821 62.6703L386.416 61.7763V64.4583L381.941 62.6703C380.689 65.6206 388.743 65.4417 389.011 65.1735C389.638 64.7265 391.517 60.1671 393.665 59.8989L395.454 65.3523L391.338 64.4583L390.89 66.2464L399.034 67.1404L397.692 65.3523L399.034 63.5643C398.855 65.7994 400.913 66.0676 402.703 66.3358L401.808 68.1238L407.267 66.7828L405.477 65.4417C408.52 66.157 408.072 63.9219 409.952 62.7597L410.399 65.5311L414.426 63.7431L416.216 66.4252L417.111 64.6371L418.006 70.9846C419.617 70.9846 418.99 68.3026 419.706 67.051C421.854 63.6537 423.644 68.9284 427.044 68.2132L427.492 63.6537L427.044 66.3358L430.266 65.5311C430.982 68.392 436.978 65.9782 439.304 69.1072L440.647 67.3192V70.0012C443.51 67.1404 446.195 68.5708 448.253 68.2132C449.327 68.0344 448.253 65.9782 449.775 66.3358V69.0178C451.296 69.3754 450.133 67.498 451.206 67.2298C451.922 67.051 456.039 67.498 456.039 68.5708L454.249 72.6833C456.218 71.521 457.65 66.2464 459.171 70.8058L463.287 70.0012C462.572 71.521 462.124 72.5044 463.735 73.5773C465.077 69.3754 467.851 73.2197 470.178 73.5773C471.968 73.8455 476.084 74.2925 478.232 74.4713C481.454 74.8289 484.497 74.7395 487.718 74.4713L485.033 76.2593C488.792 76.0805 492.819 76.9745 496.399 77.2427C498.904 77.4215 501.5 77.0639 504.184 77.6897C506.421 78.2261 509.375 78.9413 509.554 81.7128L512.238 79.9248C512.238 82.7856 513.76 81.7128 514.744 82.1598C515.012 82.2492 514.833 83.4114 515.37 83.4114C519.039 83.322 519.845 84.0372 521.814 84.1266C522.888 84.1266 524.23 82.1598 526.288 83.5902L525.841 86.2722L528.525 82.6962C528.525 90.0271 538.19 85.4676 539.443 90.8317C543.56 87.1663 548.929 91.2787 554.388 91.7257C556.357 91.9045 555.462 91.8151 555.462 90.8317C555.193 87.0769 556.178 84.4842 556.446 81.087C556.983 73.4879 555.462 61.7763 556.625 55.25C556.715 54.6242 558.057 54.803 558.236 54.1772C558.504 53.1938 558.415 50.0647 556.625 50.9587L558.504 49.5283L557.52 46.3993L562.979 45.5053L561.189 42.8232H563.784L563.874 40.0518L567.095 42.7338L569.333 40.0518L571.749 43.5384L584.725 44.6112L586.067 38.2638C589.915 40.9458 588.841 45.1477 590.184 49.0813L595.553 49.9753L596.448 40.0518C598.148 42.6444 600.922 41.7504 602.354 42.6444C604.323 43.896 603.786 46.8463 606.381 46.3993C606.202 43.8066 605.665 40.9458 605.844 38.3532C605.934 36.4757 606.023 35.6711 607.276 37.3697L608.261 54.5348L683.432 81.8022L680.747 84.4842C686.295 81.534 689.249 84.3054 694.26 86.6299C694.886 86.8981 696.05 86.6299 696.855 86.9875C698.556 87.8815 700.703 91.0999 702.046 92.6197L702.941 90.8317C708.847 96.8216 717.438 98.699 724.865 102.454C726.745 103.348 727.64 105.136 729.429 106.03C730.951 106.835 741.153 109.159 739.542 111.573L732.383 116.222L736.41 117.92C737.305 117.92 737.126 119.887 736.947 120.245C736.678 120.781 728.445 126.145 727.192 126.771C718.959 131.062 707.415 134.638 698.466 137.946C674.035 146.976 648.978 154.664 624.548 163.694C632.423 171.829 641.282 178.981 649.515 186.849C652.826 190.067 656.227 194.269 659.359 197.398C670.635 208.305 691.575 225.202 700.345 236.645C701.688 238.344 702.225 241.384 702.583 241.652C716.722 251.575 729.429 264.36 742.047 276.518C763.346 296.991 783.75 317.643 805.317 337.848C806.211 338.652 810.776 339.367 810.328 342.049C809.612 346.609 805.675 344.195 805.048 345.894L806.838 347.235C794.846 346.609 786.792 333.735 775.159 332.662V330.07C775.159 330.07 773.548 330.964 772.832 330.874C770.774 330.695 754.308 318.09 751.086 315.587C748.401 313.53 745.359 309.507 742.763 307.63C737.752 303.964 731.756 302.534 726.476 299.405L723.881 301.104L718.87 297.528L722.986 303.875C720.659 301.64 716.006 300.567 713.769 299.047C694.976 286.352 673.141 263.555 656.853 247.642C649.068 240.043 640.656 231.907 632.244 225.112C631.438 224.397 631.17 223.324 630.901 222.341L628.306 223.235C628.306 219.748 623.295 214.742 620.61 212.328C618.462 210.361 613.362 207.947 613.004 207.59C611.84 206.338 609.066 202.673 607.724 201.421C605.397 199.276 601.907 196.951 599.312 195.074C599.133 202.494 596.985 209.825 596.537 217.156C595.911 228.778 597.701 243.172 596.358 254.168C596.09 256.403 593.405 258.459 592.958 260.784C592.063 265.79 593.584 272.942 591.974 278.396L590.184 275.714C588.573 287.425 589.557 299.852 588.304 311.474C588.036 314.156 587.589 317.822 585.62 319.61L587.499 321.308V351.705L589.199 349.917C589.826 353.225 588.841 353.314 586.604 354.923L588.304 375.217C586.336 375.485 586.515 375.217 586.157 373.519C585.799 371.82 585.53 367.35 586.515 365.741L584.725 365.294V367.976L582.04 367.082V369.764C585.262 366.814 582.488 374.323 582.13 375.754C581.772 377.363 582.756 378.346 580.161 377.899C580.34 374.413 579.982 366.724 578.64 363.595C577.924 361.896 573.628 361.718 572.465 359.751C571.301 357.873 571.301 353.046 571.033 350.721C569.691 350.721 569.78 354.923 569.78 355.996C569.78 358.142 571.749 364.131 568.348 363.327V346.162C568.348 346.162 567.185 346.43 566.737 345.894C566.021 345 567.274 343.122 565.574 343.39L566.558 352.867L565.574 360.645C564.679 350.095 564.321 338.92 562.8 328.55C562.531 326.851 563.695 325.868 561.01 326.315L563.695 353.94L561.905 362.522L558.236 346.251L556.446 346.698L557.341 350.811C555.82 351.079 556.715 349.47 556.088 348.397C555.73 347.771 553.582 348.665 555.462 345.357C552.419 344.374 554.03 348.754 551.882 348.933L553.672 339.904C550.182 339.01 553.672 345.804 550.987 346.251L550.003 337.758L551.882 336.328C551.882 336.328 550.54 336.596 550.271 335.881C549.824 334.629 549.018 328.997 548.84 327.298C545.976 298.779 547.318 269.813 549.108 241.652C549.287 238.97 545.976 232.98 550.092 231.639C548.213 230.924 548.034 223.593 548.482 222.52C548.839 221.715 550.54 222.699 550.092 221.179L548.213 220.642C550.182 217.692 548.303 215.278 548.392 212.596C548.839 189.888 553.493 160.922 551.972 139.108C551.882 137.857 552.598 136.426 550.629 136.873C546.692 137.767 550.182 139.466 548.392 140.896C544.902 143.578 537.653 146.529 533.716 148.943C532.284 149.837 531.568 151.535 529.778 152.25L530.226 146.797L527.988 150.373L526.646 148.585L525.751 152.161L528.436 153.055C525.483 152.34 526.109 155.469 523.424 154.932L522.082 153.144C522.619 157.883 520.113 158.866 517.518 154.932L518.413 158.508C515.46 157.614 515.818 160.207 515.639 160.297C513.133 162.353 514.833 156.095 512.059 157.614C513.67 160.028 510.18 166.018 508.927 161.191L507.585 164.856L504.9 163.068C505.616 163.962 503.2 167.27 502.842 167.449C501.947 167.806 500.784 166.555 500.426 166.823C498.367 168.074 494.877 172.098 491.029 173.26C488.613 173.975 487.181 171.561 488.076 174.869C469.999 184.792 451.743 194.716 433.577 204.55C429.818 206.606 422.122 212.418 418.811 213.401C417.021 213.937 415.321 212.686 415.142 212.865C414.874 213.133 415.769 214.653 414.516 215.636C410.936 218.407 401.45 221.894 397.065 224.308C386.416 230.298 375.588 237.092 364.938 242.903C324.042 265.611 282.877 286.084 243.77 311.117L239.564 330.248C239.385 335.702 238.758 339.814 236.521 344.642C235.358 347.056 239.832 344.016 238.311 346.43C237.684 347.413 236.342 348.218 235.626 349.201L237.505 350.989C237.416 352.152 236.342 353.225 236.074 354.208C234.284 361.539 233.031 371.82 231.778 380.671L223.813 401.233C221.487 400.25 224.529 395.869 223.813 393.992L220.144 400.339C213.343 397.746 217.191 394.349 216.565 388.538L215.67 391.22C211.016 391.846 211.464 387.108 212.985 383.979C208.332 383.71 211.016 393.098 209.316 394.886L207.526 393.992V399.445C202.067 396.316 207.884 387.912 202.067 386.75L200.278 390.415L200.725 383.174L196.609 393.992C194.908 394.17 195.803 392.025 195.982 391.041C196.34 388.627 197.325 386.392 197.503 383.979C194.013 385.588 193.745 389.79 192.94 393.008L192.045 390.326H188.376C187.839 381.922 194.461 374.234 191.955 365.83L188.376 369.406L189.27 360.377L184.796 365.473C187.57 370.39 186.138 376.648 182.917 381.207L184.706 382.101C181.664 381.565 183.454 384.515 182.827 385.945C182.559 386.661 181.485 386.661 181.395 386.929C180.769 388.449 181.216 390.594 179.248 391.131C175.668 387.197 179.695 384.247 176.473 380.313H180.053L179.069 377.184L180.948 376.111C178.174 372.267 183.185 369.496 183.364 368.065C183.364 367.708 181.574 365.473 182.111 364.4C182.648 363.416 183.991 363.327 184.349 362.88C185.064 361.628 184.528 358.857 185.512 357.248L183.633 356.354C183.633 356.354 187.481 349.38 184.08 350.453L126.896 387.555C122.78 386.929 128.597 384.426 126.449 383.085H129.044L128.686 381.207L132.713 378.078C130.565 376.201 130.118 378.883 129.223 379.33C122.511 382.727 115.71 386.035 108.909 389.521C107.745 390.147 106.224 392.829 103.629 392.114L108.193 388.002C108.372 387.286 107.298 387.465 106.851 387.555C105.687 387.912 87.7893 398.73 86.447 399.803C85.9995 400.16 85.1941 400.697 85.5521 401.144C89.4896 400.786 86.447 405.971 84.6572 404.809L85.1046 401.233L30.874 432.792L27.5628 430.199C27.5628 433.239 22.6409 432.702 20.3142 432.881L22.104 434.669C18.1664 435.384 15.3028 437.888 11.7232 438.245L1.25291 441.911C0.536998 436.904 4.38505 439.229 4.74301 439.05C4.92199 438.96 5.72739 436.636 7.15923 435.563C11.0073 432.702 17.719 429.841 22.104 427.875C23.4463 427.249 24.3412 427.964 23.8938 425.64L13.9604 429.305L14.8553 431.093C9.30697 429.841 7.24871 433.954 3.75862 435.831C3.49015 435.921 -3.13207 438.96 -0.536877 436.01C4.47454 434.043 8.85953 430.467 13.692 427.606C25.6836 420.454 37.5857 414.911 48.8614 406.597C49.7563 405.882 51.4566 405.971 51.8145 405.435C52.3514 404.809 51.8145 403.289 51.9935 402.932C52.262 402.574 58.0788 404.898 57.4524 399.266L60.137 400.16L58.3472 397.925L70.0704 390.147L69.1755 388.449H73.7395L72.3971 385.767L70.1599 387.555C70.1599 386.214 70.6073 383.263 71.3232 382.369C72.4866 380.939 83.2254 376.916 85.5521 374.86L80.9881 374.413C81.7935 372.356 84.7467 373.072 85.2836 372.714C85.9995 372.267 86.9839 370.121 88.0578 369.496C91.2794 367.439 94.9485 365.919 98.1701 363.953L97.3647 361.36L100.049 362.254L98.2596 355.907L100.944 356.801C100.944 351.794 108.282 350.095 111.862 348.039C112.399 347.771 112.488 346.519 113.025 346.251C116.426 344.284 118.842 346.788 117.41 339.725L120.006 338.742L120.9 341.424C121.795 338.652 120.9 336.149 124.122 335.076L125.017 338.652L126.001 336.775L130.028 337.311L130.476 334.987L126.359 335.434C127.791 333.646 128.686 332.841 130.923 334.093V327.745L133.608 328.282L135.398 324.08L137.188 324.706L138.082 326.762L138.977 321.308L141.662 324.884C142.646 318.626 145.868 319.788 150.7 320.325L149.806 314.871L151.148 316.659L154.37 312.994L157.054 314.782L156.159 309.328H158.844V315.676L159.739 313.888L164.75 315.765L167.077 313.083L169.672 313.977L171.015 308.524L172.357 312.1C172.804 309.15 176.652 309.418 176.026 305.752C178.8 308.524 181.485 306.825 181.485 303.07L185.064 304.858C186.138 302.623 183.096 303.16 183.275 302.623C184.259 299.226 188.465 298.779 188.734 298.511C189.091 298.064 188.197 296.186 188.286 295.292C189.091 289.75 190.971 284.207 191.866 278.753C192.045 277.502 191.15 275.982 191.597 274.73C191.955 273.657 194.729 272.942 195.087 270.975C195.177 270.439 192.134 270.975 193.298 268.74H195.982V266.058L193.298 265.611C193.745 264.36 194.819 263.466 194.998 262.035C199.741 227.795 206.721 189.441 209.674 153.323C210.301 145.635 208.69 136.605 212.359 129.721C212.627 129.006 210.658 129.542 210.479 128.738C209.943 126.145 214.596 109.338 213.254 106.656L211.464 106.209L215.043 97.0898L213.343 95.4806L215.133 92.7091C214.864 91.3681 203.947 90.3847 201.531 89.4907C201.083 88.1497 205.11 88.7755 203.32 86.8087C202.157 85.557 198.13 86.6299 196.967 86.2722C195.803 85.9146 194.55 84.0372 193.387 83.6796C192.045 83.322 184.349 84.1266 183.812 83.9478C183.275 83.769 183.454 82.2492 182.827 82.2492C181.753 82.2492 180.232 83.5008 178.532 83.2326C177.995 83.1432 170.567 78.7625 168.956 80.3718C168.24 76.6169 166.54 78.7625 164.75 78.2261C160.365 77.0639 156.07 75.7229 151.595 75.0077C150.343 73.7561 151.685 73.3091 152.938 73.2197C156.159 72.9515 159.918 74.3819 162.871 74.5607C163.587 74.5607 167.167 74.5607 166.988 73.2197C163.497 73.1303 160.902 72.7727 157.502 71.968C157.144 71.968 156.875 69.9118 154.28 70.8952L145.6 68.6602L144.347 70.3588L141.662 66.7828C145.242 66.0676 148.732 67.5874 152.043 67.7662C154.638 67.8556 158.218 65.0841 157.949 68.5708C161.708 64.7265 169.851 72.5938 172.446 66.7828L168.867 68.5708L169.314 65.8888H165.198V63.2067L162.961 64.9947C162.245 62.5809 161.26 63.0279 158.934 63.2067L161.618 58.6473L157.054 56.8592L171.552 57.7532L168.867 55.0712L174.326 53.2832H170.657C170.03 52.121 174.236 52.4786 171.552 51.0481C170.388 50.4223 156.696 47.7403 155.801 47.8297C155.533 47.8297 154.459 51.1375 151.595 49.7071L153.385 47.0251C150.432 47.0251 146.942 46.6675 144.078 46.0417C143.362 45.8629 143.452 44.5218 142.825 44.343C141.93 44.0748 137.098 45.5947 135.219 44.343L136.114 42.555L130.655 43.449L132.445 41.661C127.433 41.3928 122.511 39.5154 117.768 37.9955C116.694 37.6379 115.084 37.0121 113.652 36.5651C110.609 35.4923 107.567 33.9725 104.345 33.5255L106.135 31.2905L102.555 27.178C104.613 27.9826 107.388 26.9992 109.356 27.3568C113.025 28.072 116.336 30.4858 122.511 29.86C121.706 30.754 120.095 30.4858 120.721 32.5421L126.18 31.6481L125.285 34.3301L127.523 32.5421L128.865 34.3301C129.491 29.7706 133.34 33.4361 136.114 34.3301L135.487 31.5587L130.207 29.7706L129.76 31.5587L128.328 29.6812L125.196 30.6646C125.196 30.6646 126.001 29.413 126.091 28.8766L127.523 29.0554ZM147.479 33.5255H142.467L142.02 35.3135H144.794L143.899 37.1015H145.689L145.868 35.4923L147.568 36.2075V33.5255H147.479ZM573.539 49.8859C572.286 49.4389 567.901 51.1375 568.975 51.674C570.675 51.8528 573.002 51.9422 573.539 49.8859ZM185.601 55.3394L176.563 54.4454C177.637 56.4122 182.29 56.591 184.528 56.9486C186.317 57.2168 185.601 56.9486 185.691 55.3394H185.601ZM179.248 75.1865H173.789V76.0805H179.248V75.1865ZM190.076 77.0639C188.107 76.7063 186.586 76.3487 184.617 77.0639V77.9579H190.076V77.0639ZM617.031 86.9875H612.556L608.977 128.559C613.541 130.347 612.467 127.844 613.719 127.039C615.599 125.966 620.521 125.519 622.579 126.771L622.758 124.268L626.695 123.284C628.485 126.86 631.08 129.721 635.286 130.347C633.676 128.47 632.87 125.162 629.828 125.788C630.543 122.033 632.333 123.731 633.676 123.016C634.57 122.569 634.481 121.228 634.75 121.228C635.555 121.318 636.897 122.569 638.598 122.659C640.119 122.659 649.336 122.48 649.784 122.033L648.889 120.245L651.574 119.261L650.679 121.943C651.753 121.586 655.243 122.837 655.69 122.748C656.227 122.569 656.048 121.228 656.764 121.049C657.838 120.781 663.297 122.569 665.623 121.049L667.503 122.927C668.755 122.122 670.008 119.887 671.172 119.351C673.409 118.278 671.351 122.122 672.962 122.033C676.72 118.01 682.268 122.927 684.774 116.579L685.222 121.139C688.085 119.619 690.859 121.318 693.813 120.334C695.334 119.798 695.155 118.457 695.692 118.457C696.945 118.457 698.287 120.245 699.629 118.01C690.054 114.791 680.031 112.467 670.456 109.159C657.301 104.51 644.325 98.6096 632.154 93.8714C630.096 93.0667 629.201 95.0336 627.501 91.4575C623.474 93.4243 624.906 90.7423 622.937 89.7589C622.4 89.4907 617.836 88.8649 617.12 89.4907V86.8087L617.031 86.9875ZM395.007 174.869C396.17 174.869 397.423 174.869 398.676 174.869L399.123 176.657L401.361 173.975C401.719 174.958 399.034 180.501 401.808 179.428C405.209 178.087 410.31 174.511 407.714 170.399L411.831 169.505C410.847 166.197 414.068 167.18 413.173 170.399C416.126 170.846 417.827 167.806 419.259 166.733C420.332 166.018 422.212 166.197 423.107 165.392C424.717 164.051 424.002 160.744 429.013 160.475L425.791 163.157C426.418 168.7 430.087 160.922 432.145 161.28L429.46 158.598L437.157 155.826C438.32 155.826 435.188 159.492 438.051 158.508C439.752 157.972 443.958 155.022 446.195 153.949C452.37 150.999 456.934 147.155 462.84 144.025C464.988 142.863 467.762 143.578 469.641 143.131C470.715 142.863 470.626 140.807 471.699 140.539C472.952 140.271 475.995 141.88 478.411 139.466L475.727 136.784C480.112 137.142 481.364 138.93 485.66 136.784L480.201 131.331L483.781 130.436L484.228 133.119L488.882 128.559C492.014 129.185 495.593 133.119 498.278 129.542C490.403 128.47 482.886 125.698 474.742 125.877L477.427 124.089L471.073 125.877L472.863 124.089C470.447 124.357 467.583 122.659 465.346 123.195C464.988 123.195 463.019 126.682 459.26 124.983L460.155 123.195L452.012 124.089L453.802 122.301L435.188 120.513L435.635 122.301H422.928L430.176 119.619C424.896 120.245 420.78 119.44 415.679 118.725L416.574 120.513C412.368 120.334 407.983 121.854 405.209 117.831L404.761 119.619H401.54L401.092 116.937L399.571 118.725H391.964L392.859 115.059H390.174L391.069 117.742L372.903 115.953L374.693 113.271C373.619 112.467 352.499 111.036 348.92 110.5C336.57 108.712 321.983 105.941 310.887 104.153C301.669 102.633 290.841 101.56 282.608 97.8944L281.803 99.6824L278.581 98.7884C277.776 105.136 276.523 111.394 275.449 117.652C274.822 121.139 274.643 123.91 273.928 128.023C269.095 154.396 263.368 181.485 259.072 206.517C257.104 218.229 254.777 231.281 251.376 242.278C253.792 242.099 252.808 247.373 252.271 249.34C252.092 250.145 250.481 249.966 250.481 250.502C250.302 254.168 249.944 255.33 249.586 258.638C249.139 263.376 252.361 266.863 255.224 261.946L256.835 262.661V259.89C258.983 261.052 260.325 261.052 261.846 258.996H263.189L264.084 261.678C263.189 258.191 266.142 253.81 269.543 254.973L270.437 253.9C269.722 251.039 270.169 249.698 271.422 247.195L275.896 248.983L273.212 252.559L276.702 251.486L276.881 247.999C279.834 251.128 280.908 248.446 281.445 245.317H278.76L279.655 240.758L282.34 245.317L284.129 237.182L285.472 238.97C288.425 237.539 288.425 234.231 292.273 235.394L289.588 238.97L292.72 237.182L294.51 240.758L295.942 238.076L298.537 238.88L299.522 235.304L301.222 236.198C301.49 229.94 307.934 233.963 312.14 229.314C313.482 227.884 311.692 226.364 313.482 225.291L314.377 227.079C315.809 225.023 317.956 225.112 320.283 225.291L318.493 221.715L320.731 223.503L322.073 221.715L320.283 220.821L324.847 219.927L325.295 223.503L330.753 215.368L331.201 218.05C334.154 217.603 331.111 213.669 333.438 212.596C335.765 211.523 333.438 216.441 336.57 215.278L335.675 211.702C337.734 211.523 340.06 211.523 340.329 209.11L342.835 209.825C343.103 207.679 346.862 203.835 346.593 208.037C344.356 206.875 343.819 212.596 346.146 211.702C347.846 210.987 350.889 207.411 349.367 205.355L352.052 208.037L352.499 205.355C354.11 206.517 355.453 206.517 356.616 204.818L354.826 202.136L359.301 199.812C357.6 195.699 360.285 196.862 360.196 193.554L363.775 195.342L361.985 189.888L365.654 193.464L368.339 190.782L366.549 195.342C367.713 196.236 372.635 192.928 373.172 191.498C373.798 189.71 372.724 186.491 372.903 186.312C373.887 185.776 375.946 186.759 376.93 183.541L379.704 187.117H381.494C381.584 184.435 385.521 187.206 383.105 184.435C382.926 184.256 382.12 184.614 382.031 184.435C380.778 182.736 386.953 179.071 389.19 179.965V175.495L391.069 175.942L391.517 178.177C392.949 177.372 393.754 175.495 394.738 174.601C394.112 174.601 393.486 174.601 392.949 174.601V171.919L398.408 172.813C397.96 174.69 396.618 172.813 394.828 174.601L395.007 174.869ZM736.768 110.5H732.204V113.182C734.441 113.45 736.947 113.182 736.768 110.5ZM648.799 124.089H645.22V125.877H648.799V124.089ZM548.124 132.225L549.018 128.648L546.334 129.542L547.229 132.225H548.124ZM545.439 132.225C543.202 127.576 539.712 130.705 539.98 134.996L545.439 132.225ZM360.553 202.047H356.884L357.779 205.623L360.464 202.047H360.553ZM286.367 245.317C286.993 245.496 288.693 244.155 289.409 243.708L288.962 239.148C286.725 239.774 284.487 240.4 284.577 243.261C284.577 243.44 286.277 245.317 286.367 245.317ZM689.607 274.462C689.338 271.422 685.043 268.74 682.358 268.115L689.607 274.462ZM587.141 317.017C586.873 313.709 589.736 283.492 587.589 283.492C587.052 293.594 585.799 303.696 586.246 313.888C586.246 314.961 585.53 317.285 587.141 317.017ZM747.596 306.11C746.969 304.59 745.627 303.07 743.927 303.428C744.553 304.948 745.896 306.468 747.596 306.11ZM134.771 334.271V329.712H133.876L132.982 334.271H134.771ZM797.442 340.53C796.726 338.652 794.936 337.49 792.878 337.848C792.072 338.205 796.815 341.066 797.442 340.53ZM586.246 345.983L585.351 338.742C585.53 340.708 582.398 346.609 586.246 345.983ZM84.0308 390.415H79.4668V392.203L84.0308 391.309V390.415Z" fill="white"/>
<path d="M1310.66 110.053C1310.66 110.053 1311.56 109.874 1311.65 109.159C1311.74 108.444 1311.02 107.282 1311.29 106.388L1313.71 107.013C1314.15 105.136 1311.65 105.494 1310.66 105.762C1310.13 103.527 1313.44 103.527 1313.62 103.348C1313.62 103.348 1313.17 102.454 1313.26 102.007C1313.53 100.755 1314.78 100.487 1312.99 98.8778L1314.15 97.9838L1314.42 99.7719L1316.57 98.8778L1315.32 98.252L1317.2 94.0502L1315.94 92.5303H1318.99L1317.82 91.9045C1317.64 89.0437 1318.54 87.7921 1320.24 85.557L1318.45 84.0372L1320.24 83.769L1318.99 82.875H1320.78L1320.15 78.0473L1321.94 79.299C1322.3 76.7063 1323.73 77.8685 1321.94 74.7395L1323.73 75.6335L1323.1 72.5939L1324.89 74.3819C1326.15 71.521 1324.18 70.8058 1323.73 68.3026L1325.52 68.9284L1326.15 67.1404L1327.4 68.9284V65.6206C1327.4 64.8159 1328.47 66.3358 1328.65 65.6206C1328.92 64.0113 1327.31 65.3524 1327.49 64.1007H1328.56L1328.2 63.0279L1329.9 62.0445L1329.01 59.8095C1330.8 58.0214 1331.6 55.6076 1332.41 53.1938L1333.04 56.7698C1339.03 58.0214 1340.11 49.5283 1342.07 45.3265C1344.22 45.5947 1341.81 48.0979 1343.24 48.3661C1343.06 46.3993 1345.83 44.6113 1346.1 43.9854C1346.28 43.7172 1344.94 41.3928 1347.44 41.661V45.3265L1348.61 45.5947C1347.18 49.0813 1345.83 54.356 1345.3 58.0214C1345.12 59.0943 1343.24 60.1671 1345.56 61.0611L1347.98 59.2731L1346.82 57.485H1349.86L1347.44 56.591L1348.34 55.25L1350.49 54.803L1349.32 54.1772C1349.86 53.5514 1350.76 53.6408 1351.11 52.8362C1352.28 50.1541 1352.81 45.3265 1353.89 42.3762C1355.5 40.6776 1356.04 44.1642 1357.82 43.002C1357.82 44.6113 1357.11 46.2205 1356.93 47.8297C1356.84 48.4555 1356.12 49.7965 1357.29 49.7071C1358.72 46.3993 1359.08 41.3928 1361.49 38.8002C1360.33 41.4822 1360.69 44.2536 1360.15 46.8463C1359.88 48.2767 1358.36 51.227 1358.45 52.3892C1358.45 52.6574 1360.42 52.9256 1359.7 54.5348H1358.36L1357.91 55.697L1360.33 58.1108C1359.61 55.9652 1360.15 54.8924 1362.12 53.909C1362.93 55.5182 1360.87 55.7864 1360.87 56.0546C1360.78 57.3956 1362.03 58.5579 1362.12 59.8989L1366.24 59.1837C1367.22 55.9652 1367.49 54.0878 1371.16 54.4454L1370.53 55.8758C1374.38 58.0214 1371.16 63.1173 1370.53 66.5146C1371.34 66.5146 1371.7 66.6934 1372.41 66.157C1374.74 64.0113 1376.17 54.356 1378.41 52.3892C1379.21 51.674 1380.02 52.0316 1380.91 52.0316L1378.5 51.4058L1379.12 49.6177C1380.56 50.0647 1381.45 50.5117 1382.43 48.9919C1383.24 49.2601 1382.52 50.2435 1382.43 50.7799C1381.36 54.8924 1378.94 59.4519 1377.6 63.4749C1377.42 64.1007 1376.8 65.4418 1377.87 65.263C1380.02 60.3459 1381.72 55.1606 1383.78 50.2435C1384.13 49.5283 1384.13 48.4555 1385.12 48.2767C1385.03 53.8196 1379.93 60.4353 1379.03 65.5312C1378.77 67.051 1379.57 66.157 1380.29 65.7994L1380.91 70.0012L1383.33 62.7597C1384.13 62.5809 1383.96 63.0279 1383.96 63.6537C1383.96 65.9782 1382.43 69.3754 1381.72 71.6998C1380.56 75.0077 1377.87 78.6731 1379.12 82.1598L1379.75 80.3718L1380.64 81.534C1381.45 80.9976 1382.52 80.3718 1383.42 80.64C1383.69 80.64 1388.25 82.6962 1388.43 82.7856C1389.68 83.5902 1389.59 85.7359 1391.83 85.11L1391.56 83.8584L1395.5 85.11L1394.34 86.8981C1395.41 86.8981 1396.66 88.1497 1397.56 87.9709C1398.18 87.8815 1398.81 86.6299 1399.17 86.8981C1399.17 86.8981 1399.17 87.7027 1399.35 87.8815C1400.51 88.5967 1404.9 90.5635 1406.42 90.8317C1407.22 91.0105 1410.98 90.5635 1411.25 90.7423C1416.08 93.5138 1417.6 94.5866 1423.6 96.1958C1429.06 97.7156 1433.09 100.487 1438.28 102.096C1440.16 102.722 1443.65 102.454 1445.88 103.259L1444.72 104.421H1448.84L1449.91 106.745C1451.79 106.388 1453.31 106.477 1454.65 107.997L1455.19 106.745C1456.08 107.55 1458.05 107.818 1458.77 108.533C1459.31 109.159 1459.04 110.142 1459.22 110.321C1459.4 110.5 1463.42 110.858 1464.59 111.305C1467.54 112.556 1470.22 113.45 1473.36 114.612C1475.59 115.417 1477.92 117.384 1480.6 117.652L1480.34 118.904L1482.13 117.742V120.155L1483.02 118.904C1484.99 118.904 1484.72 123.106 1488.12 120.155L1488.39 122.033L1490.54 122.301L1491.16 124.357C1492.24 124 1493.13 124.804 1492.86 123.195H1493.49C1495.01 129.274 1506.56 127.933 1507.45 134.638L1503.25 136.158L1505.66 140.36C1504.95 141.88 1499.84 140.181 1498.68 141.254C1496.62 143.042 1497.34 145.814 1496.89 146.797C1495.91 148.764 1491.52 148.406 1492.95 152.25L1486.42 151.982C1442.21 165.035 1397.74 176.746 1354.25 192.123C1361.23 199.812 1367.67 207.947 1374.56 215.725C1382.88 225.202 1392.64 237.092 1401.5 245.675C1402.84 247.016 1403.2 247.642 1405.17 246.569L1405.79 250.771L1406.95 250.145L1406.33 251.933L1407.85 252.559L1408.74 251.307L1409.37 253.721L1411.79 253.095C1411.79 254.794 1412.06 256.761 1412.95 258.28C1414.74 261.32 1429.95 276.25 1432.91 277.949C1432.91 277.859 1433.09 277.323 1432.82 276.876C1432.46 276.339 1430.67 276.429 1431.12 274.909L1435.32 277.949L1435.05 279.111C1434.16 279.111 1433.71 278.306 1432.91 277.859C1435.05 281.435 1435.41 279.021 1436.84 280.273C1438.54 281.793 1440.42 285.28 1442.03 287.246C1455.1 302.534 1468.34 317.822 1481.59 332.662L1511.66 371.284L1510.49 371.909C1512.19 372.803 1511.03 374.323 1511.39 375.217C1511.57 375.664 1514.61 378.078 1512.02 378.257C1509.06 374.77 1505.48 371.105 1501.99 368.244C1500.56 366.992 1496.62 366.456 1496.53 363.506L1494.65 363.148L1495.28 361.986L1493.49 362.612C1493.22 359.93 1491.25 358.499 1489.55 356.801C1488.57 355.728 1486.33 353.046 1485.26 352.331C1484.72 351.883 1483.83 352.331 1483.83 352.331C1483.65 352.062 1483.92 351.079 1483.65 350.721C1483.11 350.185 1479.35 349.38 1480.69 351.436C1481.86 353.135 1485.88 356.532 1487.58 358.142C1489.82 360.287 1490.9 361.449 1493.04 363.595C1494.57 365.115 1498.77 367.976 1499.22 369.853C1499.4 370.658 1498.77 371.105 1497.97 371.105C1497.7 371.105 1496.27 368.691 1495.64 368.244C1495.01 367.797 1494.3 368.244 1494.03 368.065L1495.82 371.105L1492.78 368.959C1492.33 367.886 1493.67 367.708 1493.94 368.065C1488.03 365.741 1484.01 359.93 1478.9 355.37C1476.49 353.135 1472.01 350.632 1470.4 349.112C1469.78 348.486 1469.24 346.43 1468.43 345.983C1467.99 345.715 1467 346.43 1466.73 346.251C1466.47 346.072 1465.84 344.106 1465.21 343.48C1464.76 343.033 1461.54 341.513 1461.36 341.334C1460.56 340.44 1460.38 337.848 1457.78 337.222L1457.25 338.384L1455.1 337.758L1455.64 336.685L1444.81 328.729C1444.54 332.305 1448.03 331.679 1448.48 332.036C1450 333.288 1449.55 335.255 1449.73 335.344C1451.97 337.4 1458.41 339.993 1458.86 344.463L1459.93 344.016C1460.38 345.357 1461.1 345.804 1462.44 345.715L1461.99 346.788L1464.94 348.129L1463.78 350.542C1466.29 350.095 1467.63 352.777 1469.51 354.208C1474.61 357.963 1478.55 361.36 1482.75 366.188C1483.38 366.903 1485.71 368.244 1486.78 368.155L1486.15 370.568C1484.01 370.568 1483.02 368.602 1481.59 367.529C1479.98 366.367 1477.65 365.115 1476.13 363.953C1474.97 363.059 1474.25 360.734 1471.57 360.913L1472.1 359.125C1471.3 358.142 1468.17 357.873 1467.99 357.695C1467.45 357.248 1466.91 355.102 1466.29 354.297C1463.06 350.274 1456.08 347.682 1453.58 343.748C1453.31 343.301 1453.31 342.675 1453.4 342.139L1451.61 342.765C1451.97 339.099 1447.76 340.798 1446.78 339.725C1445.61 338.473 1448.84 338.742 1447.94 337.311C1446.15 338.026 1445.08 338.026 1444.27 336.149H1445.44V334.987C1443.47 335.076 1442.48 331.679 1442.03 331.321C1441.68 331.053 1440.87 331.142 1440.42 330.785C1439.89 330.338 1440.07 328.55 1438.81 329.891L1440.07 331.947L1437.65 333.199V330.785H1435.23V328.997C1432.1 330.07 1433.18 328.907 1432.37 328.371C1431.03 327.656 1429.51 326.583 1427.98 326.494L1428.61 324.706C1425.12 325.421 1425.75 322.828 1424.76 321.845C1423.78 320.861 1420.65 320.682 1419.48 317.732L1420.74 317.106V315.587L1419.48 316.212V313.173C1418.05 313.977 1418.5 317.375 1416.44 314.961H1417.6V312.547H1416.98L1416.35 314.961L1415.72 311.921L1413.93 312.547L1415.1 310.133L1413.31 310.759L1413.04 308.345L1412.15 310.133V307.719L1409.73 308.345L1410.89 306.557C1409.82 307.004 1408.92 307.362 1408.48 305.931L1409.73 304.68C1408.92 305.037 1406.15 304.143 1406.69 303.428C1406.87 303.249 1408.12 303.964 1407.94 302.802L1406.78 301.551H1403.11L1403.38 300.388L1404.9 299.763C1402.57 300.299 1403.29 298.69 1402.75 298.064C1400.69 295.829 1400.69 295.471 1397.65 296.186L1399.44 294.667L1398.18 292.521C1397.38 292.163 1397.65 294.935 1396.39 293.683C1396.22 293.504 1397.74 289.481 1394.61 289.75L1396.39 288.856H1393.35L1393.98 287.068H1392.19C1393.17 284.833 1390.49 285.28 1389.86 284.564C1388.97 283.492 1387.36 280.362 1385.84 278.843C1384.58 277.591 1383.96 276.339 1381.81 276.786L1383.33 275.535C1380.91 275.535 1382.43 274.283 1381.36 273.747C1381.09 273.657 1380.47 273.747 1380.2 273.568C1379.12 272.674 1378.5 268.651 1375.19 270.081L1376.98 267.042C1373.66 267.578 1370.09 263.555 1368.47 260.962L1367.31 262.125C1366.59 259.979 1364.72 257.744 1362.48 257.029C1361.94 256.85 1361.23 257.386 1361.23 257.297C1361.05 256.939 1361.49 255.867 1361.05 255.062C1360.6 254.168 1352.01 247.195 1350.67 246.032C1346.28 242.367 1341.81 237.986 1336.97 233.427C1336.62 233.069 1336.53 232.443 1336.26 231.996L1335.18 232.533V230.745C1332.68 230.745 1330.26 226.453 1328.38 224.755C1328.2 224.665 1327.58 225.202 1327.49 225.023C1324.62 222.52 1322.03 218.497 1318.27 217.335L1318.9 215.547L1315.23 214.295L1290.71 286.889C1287.04 291.806 1286.23 298.064 1283.91 303.607C1283.73 304.054 1282.47 306.11 1282.56 304.143C1282.92 303.339 1285.7 294.756 1284.62 294.756L1280.69 305.663L1280.06 303.875H1277.64L1251.87 363.774C1249.45 365.472 1253.3 360.377 1251.87 360.198C1250.62 361.449 1249.72 363.774 1248.38 364.847C1248.2 365.026 1247.04 363.863 1247.31 365.651H1246.68C1246.95 363.863 1245.61 365.294 1244.89 364.131L1250.97 351.436L1248.56 348.129L1245.52 353.582L1243.99 352.42L1243.1 354.834C1241.04 355.191 1242.47 354.119 1242.12 353.046C1241.76 351.973 1241.04 350.811 1239.79 351.258L1240.06 352.509L1238.54 351.347L1237.01 351.884C1237.19 349.559 1238.36 347.503 1239.16 345.357C1239.43 344.731 1238.09 343.748 1239.97 344.016V343.39L1237.55 341.871C1238.18 340.708 1239.25 341.692 1239.97 341.245C1241.4 340.351 1241.67 337.937 1241.13 336.506C1240.95 335.881 1239.79 336.328 1239.97 335.255C1240.33 333.109 1242.74 329.623 1242.38 327.03C1241.04 326.762 1240.77 327.924 1240.24 328.818C1238.27 332.662 1237.28 339.099 1235.67 342.854C1235.4 343.39 1234.6 343.48 1233.97 345C1233.35 346.698 1233.08 349.38 1232.63 351.258L1232 348.218L1229.59 350.006C1229.77 348.129 1230.84 346.519 1231.2 344.731C1231.47 343.212 1229.85 341.245 1232 341.513L1229.59 340.887L1232 338.205C1228.42 337.043 1234.15 333.109 1230.75 332.126C1230.75 331.142 1232.63 330.427 1232.63 330.248C1232.63 329.176 1230.48 326.047 1233.17 325.778L1232 324.884C1232.54 322.292 1234.42 319.61 1235.22 317.285C1235.76 315.855 1236.21 312.905 1236.66 311.385C1236.92 310.58 1237.55 309.775 1238 309.06L1236.75 308.434C1236.75 308.434 1237.64 307.63 1237.82 307.093C1240.24 300.567 1242.65 293.147 1245.43 286.889C1245.78 285.995 1244.8 284.654 1247.04 284.564L1245.87 283.939L1247.13 283.044L1245.87 282.15C1248.11 281.972 1247.66 279.915 1248.29 278.396C1249.72 274.82 1251.69 269.545 1253.3 265.164C1253.66 264.091 1253.48 262.929 1253.75 262.125C1254.02 261.409 1255.9 260.426 1255.99 260.337C1256.52 258.549 1255.45 256.045 1257.42 252.916C1257.87 252.201 1259.12 252.112 1259.21 251.575C1259.3 250.771 1258.4 249.698 1258.67 248.178C1258.85 247.284 1264.22 233.159 1264.76 232.086C1264.93 231.818 1266.1 231.728 1266.37 231.013C1266.64 230.298 1265.83 229.225 1265.92 228.152C1266.1 226.9 1267.89 224.934 1268.42 223.324C1269.5 220.195 1269.59 219.033 1271.02 215.636C1272.63 211.881 1272.9 209.02 1273.79 205.802C1274.15 204.55 1276.66 202.941 1277.55 201.689C1280.15 198.024 1281.94 194.09 1283.19 189.799C1283.37 189.352 1283.55 187.653 1282.74 188.816L1281.58 189.71C1281.4 188.1 1280.51 186.938 1282.21 185.776L1281.58 185.15C1280.24 185.955 1278.36 181.216 1277.82 179.786C1276.93 177.462 1277.11 177.462 1277.28 175.137C1276.84 175.674 1276.66 176.389 1276.12 176.389C1276.03 174.869 1276.3 172.813 1277.91 172.187C1277.91 173.26 1277.37 174.064 1277.28 175.227C1278.72 173.349 1280.51 170.309 1279.97 167.985L1278.45 171.293C1277.55 172.276 1277.82 170.667 1278 170.22C1278.27 169.058 1281.85 159.492 1282.74 160.118C1282.39 161.906 1285.61 160.744 1286.95 161.28L1284.09 158.598L1285.16 155.29C1288.02 154.664 1288.02 157.972 1291.51 157.436C1292.77 157.078 1293.21 155.826 1293.03 154.664L1291.24 155.916L1290.35 152.876C1289.54 154.038 1288.92 153.86 1287.67 153.502C1287.67 152.429 1289.45 153.413 1288.92 151.356C1288.56 150.284 1284.35 150.641 1286.5 147.423L1287.4 149.837L1288.29 146.797L1289.45 147.423C1288.47 145.277 1289.99 144.115 1290.08 141.969C1291.51 144.383 1292.14 143.042 1293.03 143.489C1293.66 143.757 1295.99 145.814 1296.08 145.635L1294.91 143.489L1296.08 142.327C1293.39 139.466 1291.42 137.41 1293.66 133.566C1294.56 132.761 1295.63 134.996 1295.72 135.354C1295.99 136.963 1294.91 139.645 1298.23 139.645C1298.67 139.645 1298.23 137.678 1299.75 138.393C1300.01 138.661 1299.03 140.628 1300.64 140.181C1301.09 140.092 1300.46 138.036 1301 137.052C1301.89 135.264 1304.94 133.655 1305.12 133.387C1305.65 132.672 1306.28 125.519 1306.55 124.268C1306.82 123.016 1307.71 121.586 1308.25 120.424L1306.99 119.887C1307.35 117.92 1309.23 118.546 1309.41 118.367C1309.59 118.278 1308.43 115.864 1309.41 114.702L1308.16 116.49C1306.28 115.953 1307.62 113.897 1308.16 112.467L1306.99 111.573C1309.77 112.02 1309.14 111.305 1310.04 109.785L1308.25 110.411L1309.77 106.745L1310.04 109.785L1310.66 110.053ZM1371.61 113.361C1368.83 112.467 1366.15 111.305 1363.28 110.321C1356.21 120.424 1350.49 131.509 1345.65 142.953C1344.58 145.456 1343.69 148.853 1342.7 151.356C1342.43 151.893 1341.54 151.893 1341.54 152.161C1341.27 154.038 1344.31 154.932 1343.06 156.631L1340.91 154.217L1342.16 158.419L1343.95 156.631L1344.22 158.419C1346.28 156.989 1345.12 158.598 1346.37 159.045V154.843H1349.32C1349.77 155.201 1351.11 161.638 1352.46 160.207L1351.29 154.128L1353.08 157.167V149.3L1354.33 149.926L1353.71 146.886C1357.47 147.333 1356.21 148.496 1353.98 150.552L1354.6 151.625L1358.54 150.552L1358.27 152.34L1360.15 150.462L1363.46 151.714L1362.84 149.926L1364.63 150.462L1365.25 149.3L1365.88 150.552L1366.15 148.764L1367.04 149.658V147.512L1369.46 148.674L1368.3 143.221C1369.1 143.4 1369.55 144.294 1369.82 145.009C1370.35 146.439 1370 149.032 1371.34 149.837L1370.71 145.635L1372.5 147.423L1373.4 143.221L1375.54 148.674L1376.17 146.886C1377.33 146.708 1377.69 147.87 1378.86 147.87C1379.93 147.87 1380.91 146.529 1382.17 146.886C1381.45 148.049 1382.08 150.462 1383.33 151.088L1382.26 147.78C1382.79 146.082 1384.85 147.423 1384.58 145.635L1386.37 146.797L1385.75 144.383C1387.98 143.757 1387.18 147.512 1387.54 148.049C1390.4 146.886 1390.31 146.529 1391.47 143.847L1391.74 145.635C1392.82 145.903 1392.1 144.651 1392.37 144.383C1392.55 144.204 1394.34 146.171 1395.41 145.545C1395.5 145.545 1394.52 143.757 1394.16 143.489C1393.35 142.774 1391.83 142.953 1391.74 141.969L1394.07 142.506L1394.69 141.343C1394.52 142.953 1394.87 144.383 1396.48 145.009L1395.32 141.969C1397.02 141.522 1396.57 143.489 1398.01 144.472C1399.44 145.456 1399.97 144.651 1401.41 144.472L1400.24 142.059L1402.93 139.645L1405.61 141.433L1406.87 139.019C1406.06 140.896 1407.04 141.79 1408.66 142.684L1408.03 140.271C1408.74 140.002 1410.53 139.913 1410.98 139.555C1410.98 139.555 1410.44 137.857 1411.34 137.857C1412.06 137.857 1411.97 139.198 1411.61 139.645C1413.4 139.019 1413.85 139.108 1415.28 140.271L1414.11 136.605L1417.69 139.645L1416.53 137.231L1419.84 138.483C1420.65 136.605 1423.06 136.516 1424.67 135.443L1425.3 136.695L1428.61 135.532L1428.34 137.32C1430.31 134.907 1431.47 138.125 1432.82 134.549C1433.26 133.476 1432.46 133.834 1432.01 133.655C1416.35 127.665 1400.33 122.659 1383.69 117.205C1379.75 115.953 1374.83 114.523 1371.52 113.361H1371.61ZM1497.16 139.734L1492.95 138.483V140.271L1489.29 140.002C1491.97 142.863 1493.49 141.433 1496.53 140.718C1497.52 140.539 1498.06 140.718 1497.16 139.734ZM1443.2 309.15C1443.2 309.15 1440.42 305.842 1440.16 306.11C1439.8 307.272 1442.48 309.686 1443.2 309.15ZM1444.45 309.776L1443.29 310.044L1446.33 312.726L1444.54 309.686L1444.45 309.776ZM1448.66 313.977C1448.66 313.977 1446.87 314.514 1446.87 314.871C1446.87 316.57 1449.55 314.871 1448.66 313.977ZM1454.12 320.593C1453.67 319.431 1452.15 318.716 1451.07 318.805C1451.52 320.057 1452.77 320.861 1454.12 320.593ZM1458.95 326.672C1458.95 326.672 1456.89 323.096 1455.91 323.007C1455.55 323.365 1458.05 327.477 1458.95 326.672ZM1449.73 328.729C1449.73 328.729 1448.21 327.835 1448.12 327.924L1448.84 330.874H1451.16C1451.16 330.874 1450 328.997 1449.73 328.729ZM1251.24 341.781H1248.2V342.407L1251.24 343.033V341.871V341.781ZM1257.95 348.397L1259.21 344.731C1258.22 344.821 1256.43 348.039 1257.95 348.397Z" fill="white"/>
<path d="M955.569 23.1549C956.822 21.0987 958.88 22.8867 960.849 21.0987L961.207 23.1549H962.549C962.549 21.0093 964.697 21.4563 966.04 20.3835L964.697 23.8702H968.187L966.129 21.8139C968.545 22.6185 969.709 20.4729 969.888 20.4729C970.246 20.4729 973.557 21.0093 974.004 21.0987C974.72 21.2775 974.094 23.0655 975.525 22.4397C976.778 19.0425 981.074 21.2775 984.295 19.6683C983.401 20.8305 982.595 21.9033 983.937 23.1549C985.28 22.9761 985.906 21.0987 987.786 22.4397L987.428 20.2941C988.322 18.6849 998.882 18.8637 1001.12 18.5955L1002.1 21.8139C1002.55 21.8139 1002.73 18.0591 1004.88 18.3273L1005.24 21.0987C1007.03 18.5955 1009.8 17.7015 1012.93 18.6849L1008.73 19.0425L1010.43 19.7577L1010.07 21.1881C1012.04 21.7245 1011.05 20.1153 1012.48 19.6683C1013.65 19.3107 1014.81 19.6683 1015.97 19.8471L1016.33 17.7015C1018.3 17.3439 1017.68 18.4167 1017.76 19.7577H1024.03L1022.69 17.7015C1023.76 17.4333 1024.74 17.1651 1025.91 17.5227C1027.34 18.0591 1026.45 19.1319 1027.61 19.0425L1028.06 16.8968L1033.87 15.5558V17.1651L1035.21 17.6121C1035.3 15.2876 1038.17 17.1651 1037.36 14.1254C1038.88 14.2148 1037 16.0922 1039.42 16.5392C1041.84 16.9862 1041.93 12.4268 1043.27 16.1816L1045.06 15.5558L1045.77 19.0425L1046.49 14.8406C1048.73 15.6452 1050.97 15.4664 1051.41 12.7844L1052.75 13.8572L1051.32 15.2876L1052.04 19.0425L1054.1 13.4996L1056.51 17.7015L1058.93 14.93L1059.2 17.7909L1063.05 18.4167L1063.76 14.3042L1065.82 16.3604L1066.54 14.3042C1068.06 15.377 1066.72 16.3604 1069.31 15.0194C1069.31 16.3604 1068.77 17.5227 1070.74 17.0757C1068.77 13.142 1071.64 11.2646 1072.89 15.6452L1074.95 13.589L1075.31 15.6452H1077.81L1078.17 13.6784L1080.94 15.0194L1080.59 16.4498C1082.47 17.0757 1081.84 15.2876 1082.64 14.7512C1083 14.483 1086.05 14.7512 1086.85 14.3936V17.1651L1087.92 15.1088L1088.64 17.8803C1090.43 16.9862 1093.03 18.0591 1093.56 15.7346L1094.64 17.7909C1094.64 15.4664 1096.6 13.8572 1098.84 13.589C1099.92 14.5724 1094.55 16.5392 1097.41 17.7909C1097.41 17.0757 1099.11 14.93 1099.56 14.7512C1100.63 14.1254 1101.35 16.3604 1100.99 11.5328L1103.76 14.3042L1104.48 11.5328L1106.54 12.248V9.47654C1110.03 9.02954 1105.55 14.93 1108.6 14.3936V15.7346L1107.52 17.1651C1110.3 16.3604 1108.33 14.036 1110.57 13.4102L1109.94 10.1918L1110.65 12.248L1112.71 11.5328L1113.79 14.3042L1115.58 8.76133C1116.56 8.67193 1116.65 12.1586 1116.65 12.6056C1116.65 13.589 1115.76 14.1254 1115.58 15.0194C1116.92 16.4498 1118.62 10.8176 1118.35 10.1024L1123.27 12.248L1122.91 15.0194L1123.27 11.5328C1125.51 10.9964 1124.26 12.7844 1124.79 13.4102C1126.14 15.1982 1127.93 12.6056 1129.36 12.3374C1130.16 12.1586 1131.06 12.8738 1131.51 12.7844C1131.86 12.7844 1132.76 9.56594 1134.73 10.1024L1135.8 11.5328L1136.52 8.76133L1133.03 9.47654C1134.01 6.7051 1136.96 9.65534 1138.31 7.42031L1137.95 10.907L1140.01 11.6222L1136.52 13.0526L1140.45 12.4268L1141.08 13.7678L1142.6 11.6222C1145.02 11.801 1148.87 12.4268 1151.19 12.0692C1151.55 12.0692 1154.59 11.354 1154.77 11.2646C1155.58 10.7282 1154.95 8.94014 1156.83 9.56594L1157.91 12.3374C1158.71 10.3706 1160.95 11.801 1161.04 11.6222C1161.22 11.4434 1161.04 8.31433 1162.47 7.42031L1160.41 5.98989L1166.68 8.04612V4.55947L1168.82 5.27468L1168.11 7.33091L1170.88 5.90049L1172.67 9.38714L1171.6 4.47007L1174.37 5.81109V4.47007C1176.25 6.5263 1177.95 4.29127 1180.64 4.47007V7.95672C1183.86 8.76133 1186.09 5.98989 1189.05 7.24151L1190.12 3.03965L1191.11 5.54289L1189.76 6.5263C1191.64 6.3475 1193.97 6.7945 1195.76 6.5263C1197.28 6.3475 1196.12 4.29127 1199.16 5.81109L1199.61 4.38067H1200.95L1201.31 5.72169C1202.74 4.91708 1203.37 4.73827 1203.1 2.95025H1204.17L1205.6 5.09588L1211.15 2.23504L1211.6 3.48666L1213.21 2.95025L1214.02 4.38067C1216.52 3.66546 1219.12 3.30785 1221.71 3.03965C1241.31 1.25162 1260.19 -0.536402 1279.97 0.178808L1276.93 1.51983L1276.48 3.66546H1282.74C1283.1 6.07929 1280.24 4.20187 1282.03 7.15211L1279.97 5.09588L1279.52 7.24151C1273.62 9.65534 1268.07 8.76133 1262.16 9.38714C1260.28 9.56594 1256.52 10.5494 1258.13 12.695C1255.54 12.695 1254.73 16.0028 1254.29 16.271C1253.57 16.718 1240.68 19.4001 1242.2 20.4729H1250.62L1247.13 21.9033L1247.48 23.1549C1249.45 21.9927 1248.74 24.2278 1247.13 24.3172L1250.62 28.8766C1243.46 29.0554 1236.39 30.3964 1229.32 30.9329C1224.13 31.2905 1217.95 29.86 1213.66 32.3633C1215.36 35.6711 1217.59 33.2573 1220.1 32.8103C1221.17 32.6315 1222.25 32.9891 1222.96 32.8103C1224.84 32.4527 1223.95 30.2176 1225.83 33.7043C1226.63 32.0057 1232.27 33.0785 1233.43 33.7043C1234.42 34.2407 1233.43 35.7605 1234.24 35.8499C1234.6 35.8499 1239.43 35.8499 1239.7 35.8499C1240.15 35.8499 1240.24 34.7771 1240.33 34.6877C1242.03 34.0619 1244.8 37.9956 1247.48 34.4195L1247.84 35.8499H1249.27L1249.99 34.5089L1251.06 36.5651L1251.42 35.2241H1252.85L1252.14 36.5651L1257.33 35.8499L1256.97 39.3366C1258.94 39.6942 1258.76 37.3697 1260.19 36.7439C1260.82 36.4757 1263.06 36.9227 1263.95 36.5651C1264.31 37.8168 1262.97 38.1744 1262.79 39.0684C1262.52 40.5882 1263.23 42.108 1263.59 43.5384C1263.77 44.343 1263.5 44.7007 1262.88 44.8795C1261.53 45.2371 1256.7 44.7007 1254.55 44.8795C1250.44 45.3265 1246.05 46.9357 1241.67 46.3099L1241.22 48.2767L1231.91 49.4389C1230.66 50.1541 1232.54 52.3892 1232.63 53.2832L1189.67 56.7698C1186.63 54.9818 1181.35 59.3625 1180.28 55.3394H1179.56C1179.92 57.2168 1173.57 58.2896 1173.66 56.0546C1165.78 60.2565 1153.43 60.8823 1144.21 61.5081C1132.22 62.4021 1119.78 62.1339 1108.06 62.3127L1071.37 63.1173C1069.49 68.7496 1069.85 74.7395 1068.95 80.4612C1068.06 85.557 1065.46 92.9774 1065.28 97.7156C1065.1 102.454 1067.16 104.689 1065.64 110.679C1059.29 135.89 1054.72 166.823 1050.07 193.643C1046.22 216.083 1044.34 241.652 1039.6 263.466C1038.71 267.399 1036.2 270.886 1035.93 275.177L1034.23 275.892L1033.87 272.406C1032.8 274.104 1033.43 275.624 1030.83 275.267C1031.9 279.111 1029.04 280.899 1028.23 283.581C1027.61 285.727 1028.68 289.124 1025.82 289.571C1025.01 289.66 1024.57 288.766 1023.94 288.766C1023.04 288.766 1022.15 289.303 1021.34 289.124C1020.09 288.856 1019.2 286.621 1018.03 286.084C1016.87 285.548 1014.72 285.816 1014.54 285.727C1014.18 285.369 1014.54 277.412 1015.26 275.982C1009.44 279.379 1017.05 289.75 1008.99 291.359C1008.46 284.743 1009.17 278.127 1008.99 271.422C1008.99 269.187 1007.2 267.846 1009.62 267.31L1008.19 265.611C1008.64 265.611 1009.44 265.611 1009.62 265.164C1009.89 264.181 1009.71 254.347 1009.44 253.9C1009.26 253.542 1008.1 254.078 1008.19 253.453C1009.53 253.363 1010.16 249.877 1010.25 248.536C1010.61 244.96 1010.25 241.115 1010.25 237.45C1010.25 234.678 1012.13 235.215 1008.82 232.89L1010.96 232.533V223.593L1009.53 222.788L1010.96 222.073L1009.62 220.642C1010.43 219.212 1012.31 221.089 1011.68 219.212C1011.5 218.586 1010.43 219.033 1010.25 218.407C1009.71 216.262 1010.69 212.239 1010.25 209.825C1008.28 210.451 1011.23 215.457 1008.19 214.742C1008.19 211.345 1008.99 208.126 1008.64 204.729C1008.37 202.315 1006.22 202.047 1009.89 199.365L1010.96 202.136V195.878C1009.35 196.862 1011.41 198.739 1008.55 199.365C1006.04 199.454 1008.55 197.666 1008.73 196.772C1009.44 193.733 1008.73 191.14 1008.91 188.637C1009.53 180.591 1010.07 172.634 1010.25 164.498C1012.57 164.051 1010.78 167.002 1013.38 165.303L1014.36 166.644C1014.36 163.783 1012.57 162.889 1010.16 163.873C1010.52 162.174 1009.62 160.297 1009.71 158.687C1009.71 157.704 1010.69 156.631 1010.69 155.737C1010.69 147.244 1009.89 137.946 1013.02 129.989L1011.68 129.632C1011.5 127.844 1011.5 126.235 1013.11 125.072L1011.86 124.447C1012.48 122.48 1012.13 120.245 1012.48 118.278C1012.93 115.864 1015.17 108.623 1014.99 105.583C1014.99 104.6 1013.92 103.616 1013.83 102.096C1013.83 100.219 1014.99 98.1626 1014.54 96.1958L1013.2 98.9672C1013.02 95.9276 1013.47 92.7986 1014.1 89.7589C1014.36 88.2391 1018.39 81.981 1013.92 84.3054C1013.74 82.5174 1013.74 80.9082 1015.35 79.746L1013.92 79.0308C1015.08 78.5837 1014.63 77.1533 1014.9 76.7063C1015.08 76.4381 1015.97 76.7063 1015.97 76.5275C1016.06 76.3487 1013.56 73.8455 1015.97 71.968L1013.92 71.2528L1016.06 70.5376L1015.44 69.1072L1016.78 68.392L1016.06 63.9219L990.56 64.5477C989.128 64.5477 987.786 65.2629 986.354 65.2629C932.302 67.2298 877.803 70.5376 823.662 73.6667C792.34 75.4547 760.84 79.0307 729.34 79.9248C726.923 79.9248 710.278 79.9248 709.205 79.2095C708.578 78.7625 708.757 77.7791 708.668 77.7791C708.22 77.5109 707.683 78.7626 706.967 78.9414C704.73 79.3884 706.072 77.0639 704.73 76.5275C703.119 75.9017 699.361 75.2759 697.839 76.3487L697.481 75.0077L712.874 73.5773L712.158 70.8058C716.632 70.9846 722.807 71.074 726.476 68.7496L727.192 70.18C730.682 70.8058 729.519 68.7496 729.877 68.2132C731.756 65.6206 735.246 64.8159 738.02 66.9616L733.814 67.3192L735.515 69.3754C738.378 67.2298 742.495 70.0906 745.358 66.604L747.059 68.6602C748.491 64.1007 743.032 65.4417 742.316 65.0841C741.868 64.7265 741.868 63.2961 740.078 62.7597C735.962 61.4187 729.34 64.1007 724.686 62.4915L725.402 60.4353L723.344 61.8657C723.612 59.2731 719.317 61.0611 719.854 58.3791C725.85 58.3791 730.324 54.2666 736.23 54.2666L736.678 52.121C737.752 51.8528 737.662 54.1772 738.378 54.1772C738.468 54.1772 739.094 53.1938 739.899 53.015C740.436 52.9256 741.421 53.5514 741.51 53.462C741.6 53.2832 741.51 52.121 741.958 51.4057C743.121 49.5283 747.417 49.8859 746.522 52.7468H747.954L748.043 51.4952C752.786 53.5514 753.681 48.1873 755.113 47.2933C755.292 47.2039 758.245 46.3099 758.424 46.3993C758.692 46.5781 758.424 49.2601 759.856 49.1707L759.14 46.3993C760.124 46.9357 761.556 46.3993 762.182 46.3993C762.719 46.4887 762.719 48.5449 764.688 47.7403L763.972 45.6841L768.805 44.9689C770.594 47.1145 767.373 48.3661 769.163 49.7965C770.236 49.2601 771.31 48.7237 771.579 47.3827C772.026 45.5053 769.968 47.3827 769.521 46.0417C770.594 43.9854 772.474 45.0583 773.011 44.9689C773.011 44.5219 773.011 44.0748 773.011 43.5384H775.785C775.964 44.5218 774.084 44.7007 773.011 44.9689C773.011 45.4159 772.742 46.3993 773.369 46.3993C774.8 44.8795 777.306 45.0583 778.827 44.2536C779.633 43.896 778.827 42.2868 780.707 42.9126L781.423 44.2536L781.87 42.8232C785.002 44.2536 783.749 42.8232 784.734 42.1974C786.076 41.3034 787.597 42.1974 788.85 42.9126C789.477 41.0352 793.772 41.7504 795.83 40.1412L795.472 42.1974H797.531V40.4094L800.305 40.1412V42.1974C802.453 41.7504 802.811 40.32 805.227 41.4822L806.39 38.8002C808.18 38.532 809.97 38.8002 811.849 38.6214C813.37 38.4426 817.129 36.2969 816.503 38.6214L817.218 36.5651L818.292 39.3366L819.814 36.6545C821.872 35.1347 825.362 37.3697 825.63 37.1909C825.809 37.1015 825.63 34.7771 829.121 35.8499L828.047 38.6214L830.552 35.2241C834.4 35.5817 838.785 34.7771 842.723 33.7043C841.918 36.7439 844.334 34.0619 845.497 33.7043C848.361 32.8997 850.956 32.8103 853.82 32.2739L854.536 33.7043C859.368 29.86 868.049 31.9163 873.955 30.2176C876.013 29.5918 877.266 29.3236 880.488 29.1448C881.83 29.0554 883.083 30.5752 882.814 28.1614L885.32 29.5918C886.394 28.4296 890.152 27.625 891.763 27.625C892.658 27.625 895.253 28.8766 897.222 28.6978C897.491 28.6978 898.743 25.0324 899.638 29.86L898.207 30.9329H901.697L900.265 26.731C903.218 27.4462 905.276 27.625 907.961 26.0158C908.05 28.3402 905.276 28.7872 903.486 28.7872V30.1282C908.587 29.7706 906.618 29.3236 908.587 26.9992C909.84 25.39 912.346 26.5522 914.225 26.0158L912.167 29.5024C915.031 30.2176 914.136 28.072 915.299 26.731C918.521 23.3337 921.653 27.7144 921.921 27.4462C921.563 25.5688 922.279 25.4794 923.711 24.6748L924.785 28.1614L925.501 23.9596L927.559 24.6748L926.933 26.0158H932.034L932.839 27.4462L933.913 25.6582L931.855 24.943C932.66 23.5125 933.734 24.5854 934.539 24.3172C934.718 24.3172 934.539 23.2443 934.987 23.2443C938.119 23.2443 942.146 25.0324 944.115 21.7245L945.189 24.496L945.904 22.4397L948.589 23.3337L948.768 24.496L953.332 21.7245C953.958 23.8702 954.853 22.8867 956.464 23.1549C956.017 23.8701 955.569 24.3172 955.748 25.2112L958.522 24.496V23.1549C957.807 23.1549 957.091 23.1549 956.464 23.1549H955.569ZM763.525 48.2767L760.751 47.5615V48.9919L763.525 49.7071V48.2767ZM754.397 65.7994L748.848 66.8722C750.907 69.0178 753.233 67.945 754.397 65.7994ZM1032.44 69.1966C1032.44 69.1966 1031.1 66.4252 1030.38 66.4252C1030.02 69.1966 1031.81 75.9911 1027.61 74.8289L1028.32 81.087C1030.47 80.8188 1028.68 76.5275 1029.04 76.1699L1031.19 75.7229C1032.08 73.6667 1031.01 70.18 1031.19 69.6436C1031.37 69.1072 1032.53 69.286 1032.53 69.1966H1032.44ZM1056.87 74.1137L1056.51 69.1966C1055.35 69.8224 1055.71 73.7561 1056.87 74.1137ZM1055.53 80.3718L1056.25 74.8289C1055.08 75.0971 1054.1 80.1036 1055.53 80.3718ZM1029.67 88.0603L1027.61 86.8981L1028.23 82.428C1027.34 81.2658 1025.64 90.8317 1025.55 91.9045C1025.37 93.6032 1025.55 95.3018 1025.55 97.0898C1025.73 97.358 1026.89 97.8944 1026.62 96.2852C1026.36 94.4078 1026.8 93.2456 1026.89 91.4575L1028.23 93.5138C1028.77 91.3681 1027.79 89.7589 1029.67 87.9709V88.0603ZM1028.23 98.5202L1026.18 97.805L1025.46 107.55L1026.89 100.308L1028.32 98.4308L1028.23 98.5202ZM1027.52 111.841C1027.52 110.321 1028.77 108.891 1026.8 108.354V111.841H1027.52ZM1022.69 166.912C1024.83 166.018 1023.94 163.157 1024.03 161.369C1022.6 162.174 1023.22 165.571 1022.69 166.912ZM1011.5 203.924L1009.44 208.126C1010.78 208.126 1009.89 206.07 1010.16 205.087C1010.34 204.282 1011.86 205.087 1011.59 203.924H1011.5Z" fill="white"/>
<path d="M1139.38 77.9579L1136.43 79.4777L1137.86 81.4446L1136.43 83.2326L1136.07 80.9976H1131.95C1133.12 79.2989 1132.04 78.6731 1131.24 77.2427L1135 80.193L1134.28 76.4381C1135.89 76.4381 1137.59 77.0639 1137.32 74.9183H1138.04L1139.56 77.8685C1139.83 77.6897 1140.63 78.0473 1141.08 77.8685L1140.72 75.6335L1144.84 78.6731C1144.84 80.4612 1142.69 78.4943 1141.8 79.0307C1140.81 79.6565 1140.99 80.7294 1141.08 81.7128L1147.79 79.4777L1148.15 83.2326C1150.21 81.7128 1147.61 79.3883 1147.79 78.4049L1151.19 76.5275L1152.36 79.4777L1154.24 77.9579L1155.67 79.3883L1158.71 77.1533C1159.43 79.8353 1160.23 77.7791 1161.22 78.0473C1161.4 78.0473 1163.45 80.8188 1162.83 81.6234L1164.35 79.3883L1165.42 80.9082L1167.3 78.6731L1165.78 82.428L1169.9 80.9082L1170.7 82.428L1172.49 81.6234L1173.66 84.663L1175.89 80.9082L1176.61 82.3386L1178.49 81.6234L1177.77 84.5736L1180.73 83.0538L1178.49 86.451L1180.37 87.5239L1181.89 82.2492L1182.25 86.2722L1183.77 87.0768L1182.25 89.6695L1186.18 89.4907L1190.12 86.7192L1188.96 89.6695C1192.54 91.9939 1190.75 86.898 1193.07 87.4345C1194.24 87.7027 1191.2 90.2953 1194.24 89.6695L1196.48 81.4446L1195.76 85.9146C1197.1 83.9478 1199.34 85.2888 1199.43 85.11C1199.7 84.8418 1199.34 82.2492 1200.95 82.1598L1200.23 86.6298L1202.47 88.1497L1203.19 85.9146L1203.9 87.4345C1205.42 86.451 1205.78 85.6464 1207.66 86.7192L1206.95 84.1266L1208.47 83.769L1207.75 90.4741C1210.08 91.1893 1208.82 88.5967 1209.99 87.7921C1213.66 89.4907 1212.49 83.9478 1215.98 83.769C1213.66 86.5404 1211.15 92.0833 1216.7 88.2391L1217.86 91.1893C1221.98 90.7423 1222.7 88.9543 1224.93 85.9146V88.8649L1227.98 86.6298L1227.26 90.3847L1228.78 91.9045L1229.5 89.6695L1233.26 90.4741L1231.73 91.9939L1235.49 91.6363C1236.75 90.5635 1234.69 86.898 1237.73 87.5239V91.2787L1242.2 89.7589C1243.46 91.5469 1238.09 90.9211 1239.97 92.7091C1240.77 93.5137 1243.19 92.0833 1243.01 90.4741L1244.89 93.4243L1246.77 91.9045V96.3746L1248.29 93.4243L1249.81 93.9608V95.6594L1252.41 94.8548L1253.21 96.3746L1254.46 93.5137H1259.57L1258.76 95.57L1257.42 95.0336L1255.09 98.252L1257.33 98.6096L1256.61 101.56C1260.19 102.99 1267.89 101.828 1264.85 107.55C1263.23 107.818 1265.02 104.6 1262.97 105.315C1261.8 105.762 1260.91 107.818 1261.09 109.07L1258.85 108.354C1260.1 109.606 1261.27 111.752 1263.32 111.305L1262.52 114.255L1251.24 112.377L1248.29 113.182L1258.76 114.344C1259.3 116.669 1256.88 115.596 1255.18 116.4C1254.2 116.847 1253.48 117.652 1252.76 118.457L1254.29 119.977L1252.94 123.284L1231.47 124.804L1230.21 123.284C1229.85 127.307 1221.89 123.463 1219.92 123.463C1218.49 123.463 1213.84 126.235 1211.78 123.284C1211.24 126.324 1205.96 123.731 1204.35 123.642C1201.84 123.642 1198.89 124.357 1196.3 124.357C1190.84 124.268 1184.84 122.927 1179.29 124V120.96L1176.7 123.106L1159.78 120.871L1155.67 146.976L1157.1 150.82C1159.07 150.999 1157.28 148.674 1158.44 147.333C1158.8 146.886 1159.78 146.976 1160.14 146.35L1160.68 147.691L1162.74 147.065L1162.02 149.3L1164.97 147.78L1166.5 151.535L1169.09 150.015L1169.45 152.25L1170.17 150.015C1173.12 150.373 1176.16 152.25 1179.11 150.731L1177.59 153.681L1179.83 154.485C1180.19 148.496 1181.71 155.558 1183.23 155.201L1184.39 153.681L1183.23 152.161L1188.51 155.737L1189.58 153.591L1191.11 155.111L1191.91 151.356L1194.15 152.072L1193.43 154.307H1195.67L1195.04 151.625L1197.91 149.032C1197.64 151.178 1196.12 151.982 1197.19 154.307L1198.71 153.591L1198 156.542H1200.23C1199.61 155.111 1200.23 152.072 1201.76 151.267L1201.04 157.257C1203.63 156.542 1206.95 157.257 1208.91 155.022C1209.63 158.061 1209.81 155.201 1211.87 155.022C1214.55 154.754 1213.84 157.614 1215.98 157.257L1215.63 154.307C1218.04 154.843 1215.89 158.508 1217.86 158.061C1219.38 157.704 1221.44 154.038 1223.86 154.307C1224.04 154.307 1225.74 155.826 1224.57 155.737L1222.79 157.972L1225.74 158.777C1225.56 156.452 1225.83 154.575 1228.78 155.022L1227.26 156.095L1228.78 156.81L1227.26 158.687L1229.85 157.883L1230.21 160.118L1231.73 157.972L1233.43 158.687L1233.88 157.167L1235.76 159.403L1236.48 157.167L1236.84 159.403H1239.88L1239.16 160.922C1244.08 160.922 1250.26 161.101 1255.18 161.727C1256.43 161.906 1258.4 162.085 1257.87 163.873L1255 163.247L1251.96 167.27C1253.39 167.896 1253.75 168.164 1253.48 169.862L1255.72 169.147C1255.36 173.617 1247.48 170.131 1245.96 172.902L1249.72 174.064L1248.65 175.942L1244.53 174.422C1245.78 176.478 1243.99 177.551 1243.82 178.534C1243.82 178.713 1246.14 179.339 1245.34 181.127L1247.57 180.412L1246.77 182.647C1242.83 181.574 1238.8 183.362 1235.22 181.216C1232.72 183.72 1234.15 185.508 1237.1 186.044C1234.15 189.441 1228.33 187.653 1224.13 187.922C1221.53 188.1 1220.19 190.514 1217.68 187.922C1217.86 190.872 1215.72 188.637 1214.19 188.726C1212.67 188.816 1211.24 189.62 1209.81 189.441C1207.66 189.173 1206.5 186.223 1203.37 189.441C1203.63 186.67 1201.93 188.816 1201.22 188.547C1201.04 188.547 1201.13 187.206 1200.68 187.206C1198.71 186.849 1192.9 191.319 1190.21 187.206L1188.78 188.726L1147.97 188.011C1145.73 201.332 1140.81 215.904 1139.29 229.225C1139.02 231.371 1141.44 231.728 1138.13 233.963L1146.72 237.36L1147.52 235.125L1147.88 237.36C1150.03 237.092 1152.27 237.003 1151.64 234.41L1153.16 234.947L1153.61 236.645C1158.35 237.45 1162.29 233.695 1166.68 235.125L1165.15 232.89L1167.03 231.371L1167.39 233.606L1168.91 232.801V234.321L1166.68 235.841L1175.98 233.516L1176.43 235.036C1177.59 235.304 1176.79 233.874 1178.13 233.337C1179.29 232.89 1186.36 232.98 1186.99 233.606L1186.27 235.841H1188.51C1190.3 235.304 1189.85 234.142 1189.23 232.89C1193.25 234.231 1197.1 233.159 1201.22 232.89C1200.05 234.947 1201.22 235.751 1203.1 236.735L1236.48 234.41C1236.75 236.556 1236.21 235.93 1234.6 235.304L1232.72 241.205L1235.67 241.92C1233.79 241.92 1231.82 242.814 1231.91 244.96C1233.35 246.211 1241.22 242.099 1242.38 244.96C1238.54 244.781 1237.64 249.43 1240.86 250.234C1238.18 254.257 1231.38 254.257 1226.63 255.867C1224.4 256.582 1222.87 259.174 1219.92 258.459L1220.64 259.979L1217.59 260.337L1220.55 265.522C1220.37 266.326 1218.67 267.131 1217.77 267.31C1213.3 268.293 1206.41 268.204 1201.49 269.008C1166.68 275.177 1132.94 283.76 1097.68 288.051C1095.08 288.319 1091.95 287.246 1089.45 288.409C1088.91 286.352 1091.06 286.621 1092.4 286.174C1090.34 282.24 1093.92 282.598 1094.55 281.525C1094.82 281.167 1094.28 274.551 1095.44 273.032C1095.44 272.316 1086.67 274.015 1091.68 270.797L1089.45 265.879L1092.4 264.628L1091.68 261.32L1094.64 262.84C1094.73 261.946 1094.01 261.052 1093.92 260.158C1093.92 255.151 1093.65 253.81 1094.82 249.251C1096.43 242.903 1095.8 234.768 1099.83 230.655C1097.77 229.314 1100.18 219.748 1101.35 219.033C1102.24 218.497 1103.41 218.676 1104.3 218.676V216.441L1101.35 217.156C1103.59 204.64 1106.18 192.123 1109.22 179.697C1109.76 177.551 1110.92 175.405 1111.55 172.992C1112.36 169.773 1111.19 166.108 1114.06 163.515L1112.53 162.085C1112.18 160.386 1113.79 161.369 1114.06 160.475C1114.23 159.939 1113.52 157.436 1114.06 156.452C1112.44 157.346 1111.01 157.257 1111.1 154.932L1115.58 155.648C1114.95 153.502 1117.37 150.82 1117.55 149.3C1117.99 142.774 1120.41 140.002 1121.57 134.907C1122.11 132.493 1120.32 128.47 1123.09 127.218L1123.81 129.453C1124.62 127.844 1122.56 125.966 1122.56 125.341C1122.56 124.357 1125.6 121.675 1123.81 119.44L1125.24 118.725C1122.29 115.149 1127.03 110.768 1127.3 109.695C1127.75 108.086 1125.51 104.957 1128.37 104.331L1127.57 101.828H1129.81L1129 99.2354L1130.52 99.593C1130.97 98.1626 1128.91 97.6262 1129.18 96.3746C1129.27 95.8382 1130.16 95.2124 1130.34 94.4972C1131.24 90.5635 1132.58 86.9875 1131.33 83.1432L1133.21 83.8584C1133.21 83.8584 1133.74 80.9976 1135 82.428C1135.89 83.4114 1133.21 84.7524 1133.03 85.7358C1133.03 86.004 1133.21 90.1165 1134.19 89.8483C1135.44 87.0769 1136.88 86.3616 1135.71 83.1432C1141.35 85.3782 1137.68 78.2261 1139.47 77.1533L1139.38 77.9579ZM1137.86 89.9377C1138.31 88.5967 1138.31 87.6133 1137.86 86.1828H1137.14V89.9377H1137.86ZM1141.62 89.9377C1141.89 88.5967 1140.63 87.5239 1139.38 86.9874C1139.11 88.3285 1140.37 89.4013 1141.62 89.9377ZM1171.06 103.974C1170.52 103.348 1171.6 101.649 1170.17 101.917L1169.36 104.868L1171.69 105.225C1172.4 105.583 1170.97 107.997 1172.76 107.103C1176.52 105.315 1171.15 104.153 1171.06 103.974ZM1260.01 104.957H1258.49V107.907H1259.21L1259.92 104.957H1260.01ZM1212.05 111.662C1212.05 111.662 1212.85 108.712 1212.76 107.907C1211.06 108.354 1211.15 110.321 1211.24 111.662C1211.51 111.662 1211.87 111.752 1211.96 111.662H1212.05ZM1127.39 121.407C1127.57 120.334 1127.66 119.351 1127.66 118.367C1127.66 117.473 1127.66 113.45 1126.58 113.182C1126.58 115.059 1126.58 116.937 1126.58 118.814C1126.58 119.708 1126.05 121.586 1127.3 121.407H1127.39ZM1141.62 237.45L1137.86 236.735C1137.59 237.807 1138.13 238.344 1139.02 238.97H1140.45L1141.62 237.539V237.45Z" fill="white"/>
<path d="M878.608 341.513L877.087 333.288L875.566 340.798C869.838 340.619 872.344 332.126 871.091 328.103L869.57 330.338C869.57 330.338 865.632 327.298 864.648 328.818C864.111 329.533 864.827 335.97 864.827 337.311C864.827 337.937 864.558 339.546 863.574 339.278L862.858 324.706L861.337 325.063L862.053 322.113L857.578 320.593L860.531 323.543L858.384 323.901V328.013L856.773 327.209L856.415 329.444L853.82 317.464L848.629 321.934L847.108 311.474L848.629 311.832L847.913 308.434L849.435 309.954V307.719H847.197C848.271 304.948 847.108 302.445 847.197 299.852C847.376 292.521 848.808 284.833 849.524 277.412C852.209 249.072 847.197 220.017 845.676 191.319C845.05 178.177 846.482 164.409 845.497 151.625C845.229 148.496 845.497 146.708 841.918 147.423L843.439 144.473L845.676 145.188C844.871 142.863 845.408 142.148 842.633 141.79C845.945 140.718 844.334 138.036 845.676 135.443L841.56 134.728L841.202 126.503L842.007 127.933C844.781 127.486 844.065 125.698 844.96 123.463L826.973 124.983C828.673 121.854 825.899 120.513 826.257 117.473C830.731 118.367 831.179 115.059 833.774 112.556L832.253 112.199L831.895 109.964C830.642 110.858 829.836 114.523 827.778 113.361C829.747 110.142 830.105 107.371 834.49 109.248L833.774 107.103L840.486 104.063L838.606 109.338C839.77 108.354 840.575 105.851 842.007 105.225C843.618 104.51 845.05 105.583 845.766 105.225C846.034 105.136 849.345 101.292 849.435 100.398H850.956C850.061 101.828 849.614 105.941 852.477 105.583C851.761 102.99 851.314 99.0567 852.835 96.6428C853.641 97.5368 852.925 99.3249 853.193 100.666C853.372 101.292 855.341 100.845 853.909 102.633C855.251 102.543 856.415 102.633 856.146 104.153L857.31 102.633L863.127 104.242L865.453 101.202L866.527 102.722L866.885 99.7719C869.301 102.186 871.986 105.136 875.476 105.762L872.523 103.169C874.85 99.5037 881.293 103.259 882.635 99.7719H883.709L884.783 101.292C885.946 101.202 886.931 100.129 888.005 99.9507C893.732 98.6991 901.339 98.7885 907.155 97.358C909.303 96.8216 911.809 93.6926 912.614 96.8216C914.852 93.4244 917.178 95.9276 919.326 95.7488C919.952 95.7488 920.668 94.7654 921.563 94.676C924.606 94.3184 928.901 94.8548 931.855 93.8714C932.57 93.6032 932.481 92.9774 932.392 92.441L934.271 93.9608L937.313 90.2059L936.955 93.1562L941.072 90.2059L940.714 93.1562C942.504 92.7092 943.488 90.3847 944.115 93.1562L944.473 90.1165L945.994 92.3516C945.994 91.7258 946.262 90.9211 946.71 90.5635C949.216 88.4179 950.737 93.0668 951.9 92.3516C952.079 92.2622 951.363 90.2059 953.422 90.9211V93.1562L957.896 91.6364L957.18 95.3912L959.686 94.676L960.223 91.6364L961.386 94.676C973.199 93.2456 984.832 90.2059 996.645 88.6861C999.33 88.3285 996.734 90.9211 995.482 91.2787L997.003 91.994C995.75 92.888 995.392 96.017 994.587 96.6428C992.618 98.2521 980.626 99.5037 977.315 100.755L973.736 104.689L976.331 107.192L994.676 105.851C994.408 110.053 988.233 108.623 989.396 113.361L991.634 112.646C991.634 113.629 991.902 114.791 991.276 115.685C990.291 117.116 972.125 119.977 969.082 120.155L969.53 122.39C968.545 123.463 965.95 123.642 965.413 125.162C964.339 128.201 968.545 127.576 966.04 130.258L899.459 141.254L897.849 154.217L898.564 152.697C899.549 151.446 899.549 153.86 899.37 154.217C898.922 155.648 897.938 155.29 897.849 155.826C897.491 157.257 898.028 159.045 897.849 160.565H902.323L900.802 157.615L903.755 155.379H899.996L901.876 151.625L902.591 154.575L905.992 152.34L903.844 154.843L905.366 157.525L908.14 156.899L909.303 159.045C910.288 157.972 910.735 156.542 912.256 156.005C913.957 155.29 914.762 156.989 915.299 154.575L917.178 158.33L919.415 156.095V159.045L921.295 156.81L923.174 159.045L923.89 156.81L926.127 158.33L926.933 154.575C928.364 154.396 927.291 156.095 927.738 156.81C927.827 156.989 930.244 156.273 931.407 158.33C930.244 155.737 932.302 153.77 933.376 156.899L941.877 154.575C940.535 164.677 944.204 154.575 945.994 153.86C947.605 155.916 948.321 155.469 947.157 158.33H949.305C950.289 156.452 949.663 156.095 948.679 154.575L950.558 153.86L950.916 156.81L953.153 154.575V158.33L974.183 156.81C974.631 159.403 971.319 157.883 969.44 159.045C968.635 159.492 968.366 161.191 967.382 161.727C969.261 161.995 968.724 163.962 968.993 164.23C969.351 164.588 977.047 163.426 979.016 163.604C984.832 164.051 976.51 166.733 976.331 167.091L976.51 171.025C981.879 171.114 975.704 175.495 972.662 174.154L977.136 175.227L973.02 178.624L971.946 177.104L971.23 180.054C972.93 179.25 973.736 181.574 973.915 181.574C975.436 181.574 979.463 179.339 980.984 182.289C977.673 181.932 976.689 184.167 974.273 185.329L974.631 186.759C976.689 185.955 977.584 188.279 977.226 189.799C950.826 196.236 923.711 199.633 897.043 205.176C894.985 205.623 890.689 205.981 889.616 207.5C888.542 209.02 887.378 218.586 886.931 221.268C886.394 224.397 886.752 225.917 885.141 229.136C884.067 231.192 887.378 228.599 886.662 230.655L885.141 231.549L885.946 236.556L884.425 237.807L885.946 238.254L884.425 243.35L885.946 244.155L884.425 245.675L885.857 246.39C883.799 250.771 885.857 257.118 882.904 260.694L884.425 261.052L883.709 267.757L881.472 267.042V271.512L882.993 269.277C882.993 272.227 883.351 280.362 882.009 282.508C881.83 282.776 881.114 282.776 880.756 282.776L882.277 284.654L880.667 319.52L878.429 316.928V322.56L879.235 320.682L880.756 320.325V332.305H880.04C879.056 330.07 881.293 325.153 878.519 324.08V342.049L878.608 341.513ZM834.937 115.149C835.743 114.165 836.996 111.483 837.354 110.142L832.879 115.059C832.342 117.116 834.758 115.417 834.937 115.238V115.149ZM881.651 258.37V253.9H880.935V258.37H881.651ZM880.13 277.055C879.414 273.926 880.846 270.528 880.935 267.667C880.935 266.863 880.666 264.27 879.414 264.27C878.787 268.293 879.414 272.227 878.877 276.25C878.698 277.591 879.145 277.055 880.13 276.965V277.055ZM879.414 285.369L878.698 280.094L877.176 283.76L879.414 285.28V285.369ZM877.892 303.339V298.064H877.176V303.339H877.892Z" fill="white"/>
<path d="M778.201 107.907C778.201 108.444 778.201 108.891 778.201 109.427L781.96 108.712C781.155 106.656 782.318 104.689 783.034 102.722C784.466 105.315 784.376 106.566 787.956 106.477L787.598 111.752L789.477 106.835L791.983 107.282C791.714 105.941 796.01 105.672 796.547 105.851C796.815 105.851 797.71 108.354 799.5 107.997L801.827 102.007C802.99 104.957 803.527 109.517 803.706 112.824C804.511 126.86 803.079 141.522 803.706 155.558C805.138 189.62 809.254 224.218 807.733 258.102C807.643 260.247 809.612 267.578 807.822 268.204L807.107 266.684H806.033C806.301 267.846 804.78 269.009 803.795 268.562L798.963 263.644L798.158 265.164L794.846 264.628L794.131 267.31L791.177 265.075L790.819 267.31C789.567 266.505 789.567 264.717 788.761 263.823C786.613 261.409 786.971 264.896 785.629 264.36L783.392 261.409L784.108 267.399C782.765 266.773 782.049 264.449 781.244 263.913C780.349 263.287 777.933 263.108 777.754 262.929C776.322 261.231 779.633 261.767 779.275 260.694L776.949 260.337V258.459H773.637C773.279 255.598 774.174 251.486 770.326 250.949L772.564 246.837C770.147 246.301 771.311 241.115 771.042 238.612L769.521 238.97L771.042 234.857C768.358 233.874 770.147 228.689 769.521 226.007C769.342 225.381 768 225.738 767.91 224.397C767.552 213.222 767.91 202.494 765.225 192.213C764.688 190.157 767.015 186.044 765.673 181.932C764.688 178.981 764.688 180.948 764.241 176.568C763.794 172.187 762.272 167.18 764.331 163.426H762.093L762.809 160.744L761.377 160.386L762.899 158.151L761.377 157.704C763.436 155.111 761.109 153.144 761.019 151.803C760.303 142.595 759.767 133.297 759.767 124.089C759.767 121.586 758.156 115.775 760.661 115.149L759.14 110.232C760.482 110.589 762.183 109.427 763.167 109.517C763.615 109.517 763.615 110.768 764.152 110.947C765.673 111.573 767.373 111.573 768.805 112.467L768.358 110.232L765.852 109.517C769.252 110.053 768.179 107.013 770.326 105.762L770.684 107.907H774.085C773.19 110.142 773.727 111.215 774.98 113.093L779.275 113.271V110.321L776.322 111.841L777.038 108.533C777.307 107.729 778.201 108.265 778.649 108.086C778.649 107.46 778.47 102.901 780.17 104.331V107.639C779.991 108.533 779.096 107.907 778.649 108.086L778.201 107.907ZM764.331 113.54C764.331 113.54 763.883 111.394 763.257 112.824L761.735 114.612H765.136C766.299 113.808 764.778 113.987 764.331 113.54Z" fill="white"/>
<path d="M1287.04 157.346C1285.96 157.346 1285.88 153.055 1285.96 152.519C1286.05 151.625 1287.31 147.691 1288.56 148.406L1287.04 146.171L1288.56 146.529C1287.31 142.148 1288.38 139.913 1292.23 143.489L1287.04 157.346Z" fill="white"/>
<path d="M1048.82 205.981L1047.21 204.729L1049.27 183.451C1050.61 183.451 1048.19 204.193 1048.82 205.891V205.981Z" fill="white"/>
<path d="M1284.8 156.542L1285.52 161.012L1283.28 158.777L1282.92 163.247L1281.04 160.654C1283.73 160.118 1282.03 156.095 1284.8 156.542Z" fill="white"/>
<path d="M1048.01 219.57C1044.7 220.106 1046.94 214.831 1047.21 213.133L1048.01 219.57Z" fill="white"/>
<path d="M598.954 335.97L597.343 327.119C598.506 327.119 598.775 329.98 598.864 330.785C599.043 332.483 598.954 334.182 598.864 335.881L598.954 335.97Z" fill="white"/>
<path d="M743.032 29.9494C743.3 30.4859 744.643 29.9495 744.374 30.5753L741.958 32.5421C741.51 30.5753 740.258 28.6084 742.763 27.7144C742.763 28.4296 742.674 29.2342 743.032 29.86V29.9494Z" fill="white"/>
<path d="M1194.15 231.728L1195.04 234.053L1193.34 232.622L1190.21 233.248C1190.39 231.728 1193.34 231.102 1194.15 231.728Z" fill="white"/>
<path d="M1051.5 257.118C1051.77 257.565 1053.56 256.85 1052.84 258.906L1050.34 257.744V254.973C1051.86 254.704 1050.88 256.224 1051.41 257.118H1051.5Z" fill="white"/>
<path d="M1048.01 225.202C1044.7 224.934 1045.15 222.967 1047.65 221.179L1048.01 225.202Z" fill="white"/>
<path d="M777.664 265.701C778.917 267.399 779.275 266.326 778.112 269.277L776.501 264.896C777.217 263.644 777.306 265.164 777.664 265.701Z" fill="white"/>
<path d="M633.497 186.67C631.975 187.028 630.991 187.206 629.47 186.67V185.865C631.17 185.865 632.87 184.435 633.497 186.67Z" fill="white"/>
<path d="M617.478 256.492H615.867L616.673 252.469H617.478V256.492Z" fill="white"/>
<path d="M615.867 326.315C613.988 325.868 614.167 323.186 615.509 322.292L615.867 326.315Z" fill="white"/>
<path d="M330.664 22.9761H329.858V18.9531C332.096 19.6683 331.111 21.1881 330.664 22.9761Z" fill="white"/>
<path d="M328.248 43.002H326.637L327.442 39.7836H328.248V43.002Z" fill="white"/>
<path d="M1232.36 158.062L1229.32 157.704L1231.2 156.542L1232.36 158.062Z" fill="white"/>
<path d="M1048.82 277.412L1049.26 274.194L1050.43 276.161L1048.82 277.412Z" fill="white"/>
<path d="M1206.86 154.307H1205.33V156.542H1206.86V154.307Z" fill="white"/>
<path d="M1184.93 238.523C1184.93 238.523 1185.74 238.97 1186.18 238.88V239.685H1182.96L1184.57 237.271C1184.57 237.718 1184.57 238.165 1184.93 238.523Z" fill="white"/>
<path d="M1192.63 236.466L1191.46 238.076L1189.41 236.824L1192.63 236.466Z" fill="white"/>
<path d="M488.076 136.158C488.703 139.019 484.944 137.41 483.244 137.767C483.781 135.801 486.555 136.963 488.076 136.158Z" fill="white"/>
<path d="M664.818 109.606H659.985V110.411H664.818V109.606Z" fill="white"/>
<path d="M1378.86 131.509C1379.66 132.672 1380.64 132.582 1380.02 134.907C1377.69 135.443 1378.32 132.046 1377.78 130.794C1378.41 129.632 1378.59 131.062 1378.94 131.509H1378.86Z" fill="white"/>
<path d="M1376.17 136.337C1374.47 135.979 1375.81 132.403 1375.45 131.062C1377.96 131.867 1375.9 134.37 1376.17 136.337Z" fill="white"/>
<path d="M1439.89 125.162H1438.37C1438.19 123.821 1438.37 123.016 1439.53 122.212L1439.89 125.162Z" fill="white"/>
<path d="M1391.2 129.632H1389.68V131.867H1391.2V129.632Z" fill="white"/>
</g>
<defs>
<clipPath id="clip0_22600_428">
<rect width="1513" height="442" fill="white"/>
</clipPath>
</defs>
</svg>
