<svg width="2254" height="485" viewBox="0 0 2254 485" fill="none" xmlns="http://www.w3.org/2000/svg">
<g clip-path="url(#clip0_22600_463)">
<path d="M384.944 7.40967C391.056 13.3893 390.016 16.7691 399.769 15.4692C406.402 14.5592 417.456 8.83958 422.528 8.83958C439.694 8.83958 469.215 21.3188 482.22 32.4981C503.938 51.347 509.01 84.7549 504.588 111.923C503.808 117.123 498.216 135.582 494.314 138.442C492.234 140.001 485.991 141.301 482.87 142.861C481.18 143.641 476.498 146.241 475.587 147.671C473.897 150.271 476.498 151.701 476.628 154.301C477.278 163.79 469.345 166.39 462.973 171.07L449.968 177.959C471.816 178.739 478.839 193.818 484.691 211.887C497.436 250.885 503.288 293.782 527.997 327.32H486.642L485.471 322.77C480.009 321.73 470.255 326.67 464.533 327.32C459.852 327.84 448.017 327.97 443.465 327.32C442.685 327.32 441.775 327.32 441.255 326.54L428.25 278.573C432.411 277.793 435.272 271.293 434.362 267.394C433.322 262.584 429.55 261.934 429.03 259.984C428.12 257.124 429.81 253.094 427.99 250.105L419.927 250.755C415.115 236.715 412.774 219.687 406.011 206.427C404.191 202.918 397.298 192.908 393.267 192.908H368.037V247.375C368.037 249.195 368.688 250.755 368.818 252.575C369.468 264.924 369.988 276.103 372.069 288.452C373.759 298.592 378.311 310.811 379.222 320.3C379.352 321.73 379.612 325.63 378.961 326.67L371.028 327.32L372.979 324.33L372.069 322.9C358.154 320.95 344.238 323.42 330.843 327.32H285.457C287.797 318.35 290.789 309.511 292.739 300.412C302.493 254.264 295.99 206.687 298.852 160.15C303.013 158.59 300.802 151.051 301.192 146.761C301.453 143.381 303.403 138.702 303.403 135.582C303.403 132.202 300.802 127.782 300.412 124.272C300.022 119.983 301.453 115.433 301.192 110.753C300.932 105.294 298.591 99.574 298.201 94.2443C297.681 88.1347 298.591 81.6351 298.201 75.5255C296.771 52.2569 291.829 29.6383 284.676 7.53966H384.944V7.40967ZM368.037 165.09V172.889L369.858 174.059C387.675 173.019 409.653 173.669 422.007 158.59C438.524 138.702 437.093 88.5247 429.16 65.1261C419.667 37.0478 398.469 24.0486 368.688 29.1183C368.558 36.7879 368.948 44.4574 368.688 51.9969C368.167 72.5356 370.248 101.264 367.907 120.373C367.647 122.583 366.477 123.882 366.347 126.352C366.087 129.992 368.037 133.112 367.907 136.102C367.907 138.442 365.957 140.781 365.566 143.641C364.916 149.231 366.087 155.73 365.566 161.58C355.683 168.21 366.867 163.92 367.907 165.09H368.037Z" fill="white"/>
<path d="M1816 287.022C1816 287.022 1820.55 287.022 1819.77 285.203C1817.3 281.693 1811.71 281.433 1808.97 278.703C1806.24 275.973 1800 265.184 1797.92 261.284C1774.64 219.297 1770.61 171.98 1777.37 124.922C1783.09 121.803 1785.7 121.153 1784.53 113.613L1779.32 113.223C1780.1 109.713 1785.96 104.514 1786.61 101.784C1787.65 97.7541 1785.44 93.0744 1786.35 88.0047C1787.65 81.3751 1795.58 65.9061 1799.09 59.5365C1819.25 23.6587 1856.44 -1.81972 1898.97 1.04011C1908.98 1.69007 1930.05 11.1795 1938.37 17.2891C1944.48 21.7088 1950.08 28.7284 1955.8 33.6681C1958.14 37.6978 1954.37 39.2577 1955.02 42.6375C1955.28 44.0674 1956.71 44.9774 1957.49 46.2773C1957.75 46.7973 1957.49 47.8372 1957.75 48.3572C1960.61 52.3869 1966.46 51.217 1969.32 52.5169C1971.4 53.4269 1985.06 75.3955 1987.14 79.0353C2011.85 122.193 2015.75 162.49 2008.34 211.497C1999.5 270.253 1965.68 330.83 1899.88 335.119C1860.73 337.719 1839.02 321.73 1818.08 290.792C1817.56 290.012 1815.48 287.802 1816.13 287.152L1816 287.022ZM1945.92 226.186C1946.83 218.907 1948.78 210.587 1948.91 203.308C1949.95 168.99 1939.15 128.562 1922.9 98.5341C1916.26 86.4448 1909.5 78.1253 1904.69 64.9961C1903.39 61.6164 1895.59 48.7472 1893.12 45.7573C1888.95 40.5577 1884.79 39.5177 1880.5 35.8779C1877.9 33.6681 1878.42 30.5483 1873.74 31.9782C1872.57 32.3682 1867.89 36.2679 1867.11 37.4379C1863.98 41.5976 1858.52 57.8466 1856.44 63.5662C1837.06 118.683 1832.77 169.77 1852.93 225.536C1861.25 248.675 1879.07 278.573 1897.8 294.822C1899.49 296.252 1909.63 304.051 1910.93 304.181C1917.3 304.831 1920.82 292.612 1925.11 289.882C1927.06 288.712 1931.09 288.322 1932.65 286.892C1933.69 285.982 1933.43 284.553 1933.95 284.033C1934.6 283.383 1939.41 282.473 1940.84 281.563C1947.35 276.883 1939.93 265.444 1942.79 261.674C1943.44 260.764 1945.39 260.634 1945.79 259.334C1946.31 257.774 1944.61 250.495 1945.79 247.765H1942.79C1942.79 247.765 1944.22 237.235 1944.74 236.456C1945.39 235.416 1947.22 235.546 1948.13 234.376C1949.69 232.426 1950.08 228.526 1951.12 226.316L1945.92 225.926V226.186Z" fill="white"/>
<path d="M2100.67 8.44933C2095.08 21.3185 2099.76 32.1079 2105.74 43.5472C2110.56 52.3866 2120.7 64.8658 2124.08 73.3153C2126.03 78.125 2126.42 84.4946 2128.76 89.5643C2129.93 92.0341 2133.18 95.154 2133.45 96.0639C2134.88 100.874 2131.62 109.843 2136.7 113.873C2143.2 119.072 2153.73 122.712 2158.8 129.342L2212.9 217.086L2213.29 75.5252C2211.34 52.7766 2207.7 30.028 2200.55 8.31934H2253.87L2247.89 28.0781C2243.34 29.248 2240.73 33.5378 2238 37.1775L2239.3 38.9974L2245.55 38.7375C2236.18 87.7444 2241.78 138.441 2240.34 188.228C2239.3 193.818 2233.06 203.567 2234.62 208.897C2235.27 210.847 2236.83 212.407 2237.74 215.656C2239.04 220.726 2237.74 226.576 2240.34 230.216V327.45H2205.36C2203.28 324.2 2200.03 321.34 2197.95 318.35C2191.58 309.641 2193.79 310.811 2184.42 304.181C2179.61 300.801 2177.14 291.962 2174.15 287.412C2173.11 285.722 2171.29 284.682 2170.25 283.122C2134.49 228.136 2100.28 171.849 2063.87 117.253C2062.83 145.591 2065.3 174.969 2063.87 203.307C2063.35 212.927 2061.92 216.696 2063.09 226.576C2064.26 236.455 2063.09 248.804 2063.87 258.944C2065.3 282.342 2069.85 305.351 2076.61 327.71H2023.29C2029.54 307.301 2034.35 286.372 2036.04 265.053C2036.3 262.064 2035.91 259.074 2036.04 256.084C2039.03 197.198 2038.38 130.642 2036.82 71.3654C2036.69 66.1658 2035.78 60.1861 2035.52 54.8565L2039.55 51.8666C2037.73 47.9669 2037.47 40.9473 2032.92 39.7774C2032.14 28.8581 2027.85 18.4587 2023.16 8.70931H2100.54L2100.67 8.44933Z" fill="white"/>
<path d="M253.724 192.518V260.244C250.473 274.673 246.832 294.952 246.832 309.641C246.832 318.22 252.034 328.879 251.904 337.849C251.904 340.059 248.653 351.108 249.433 351.758H253.724C253.464 353.708 254.375 356.958 253.334 358.648C251.904 360.987 231.486 369.697 227.585 371.127C169.843 393.225 98.5767 394.785 51.8893 348.768C50.7189 346.428 60.7326 346.428 60.3424 343.699C53.0597 336.549 45.2568 329.399 41.4854 319.52L30.9515 321.08C29.651 321.08 29.1308 320.3 28.4806 319.39C23.5387 313.15 16.7762 296.901 13.7851 288.972C7.93291 273.243 -0.520236 242.305 -4.20194e-05 226.056C-4.20194e-05 223.586 2.21078 222.676 3.12112 220.856C5.33194 215.916 2.47088 198.628 2.47088 192.128C2.47088 187.968 4.29156 184.718 4.29156 181.079C4.29156 177.049 2.34083 172.629 2.47088 168.339C2.73098 160.15 8.32306 148.841 9.36345 140.261L6.76248 139.871C18.857 85.9245 55.6607 38.7374 107.81 18.9787C114.833 16.3788 142.273 7.92935 148.255 9.35926C148.905 9.48925 148.775 10.9192 149.426 11.0492C155.148 12.4791 161.91 8.44931 167.242 7.79935C175.565 6.75942 199.754 7.79935 207.817 9.61924C210.158 10.1392 211.069 12.4791 213.149 12.869C216.271 13.519 219.262 11.8291 222.383 12.0891C225.374 12.3491 248.262 18.8487 248.523 20.2786L227.975 120.112C225.114 119.072 223.293 119.202 220.432 120.112C218.091 113.613 209.508 105.423 207.297 99.4437C206.387 96.9738 207.037 94.634 205.997 92.1641C205.086 90.0843 200.925 86.8345 199.104 84.6246C197.544 82.5447 193.512 74.0953 192.992 73.7053C191.301 72.2754 186.359 72.5353 183.758 71.1054C178.817 68.3756 171.534 59.9261 164.901 55.8964C142.403 42.3772 113.142 41.3373 95.0654 62.656C72.567 89.1743 71.2665 155.21 73.7374 188.618C74.9079 203.697 77.1187 219.036 78.8093 233.855C79.3295 238.535 79.9798 242.955 80.5 247.505C81.1502 252.964 81.2802 258.554 81.8004 264.143C94.9353 266.873 96.756 279.223 102.608 289.362C118.084 316.66 144.614 345.778 178.166 347.468C180.247 347.468 187.4 347.988 188.44 346.688L187.92 325.76C188.57 322.77 190.781 323.29 191.301 322.64C191.691 322.12 190.391 320.17 190.521 319C190.521 317.57 191.951 316.27 192.212 314.71C193.382 306.781 187.53 299.631 185.709 292.352C184.149 286.242 184.019 278.183 182.718 271.553C179.987 258.164 177.256 244.775 171.924 232.035L175.045 229.436L172.964 220.596C171.144 220.336 168.153 221.246 166.722 220.206C166.202 219.816 161.52 210.587 160.35 208.767C156.448 203.047 151.636 197.848 147.215 192.518H253.724Z" fill="white"/>
<path d="M1148.07 24.3087C1124.79 26.5186 1108.01 41.5976 1095.01 59.5365C1092.28 63.3063 1090.07 69.0259 1087.08 72.4057C1082.78 77.0854 1071.86 81.5052 1071.6 88.9147C1071.6 91.5145 1073.16 94.3744 1073.03 97.2342C1072.77 103.214 1068.22 108.284 1070.69 114.263L1065.49 115.173L1031.54 1.8201L1090.72 0.000213392C1095.14 11.3095 1110.74 0.260197 1119.46 0.000213392C1193.06 0.390189 1266.93 -0.90973 1340.41 0.910157C1349.77 1.17014 1360.96 -0.129779 1369.93 0.910157C1371.88 1.17014 1374.09 1.56012 1375.52 3.12002L1372.92 4.15996C1366.42 25.9986 1361.22 48.4872 1354.19 70.0659C1353.54 72.0158 1352.24 73.3157 1351.59 75.2656C1350.81 77.6054 1350.81 82.1551 1349.64 84.365C1348.86 85.6649 1346.13 86.0549 1345.48 88.2647C1344.44 91.6445 1346.39 94.5044 1346.13 97.4942C1346.13 98.7941 1341.32 115.303 1340.41 115.433L1336.12 113.613C1338.98 107.244 1333.39 101.004 1331.05 95.2843C1319.86 67.466 1305.95 37.4379 1274.74 27.8185C1272.26 27.0385 1262.77 24.3087 1260.82 24.3087H1243V200.578C1243 203.438 1236.76 211.497 1237.02 215.267C1237.02 218.387 1239.23 224.106 1239.36 228.396C1239.36 230.216 1238.19 232.166 1238.58 234.506C1238.97 236.976 1241.57 236.326 1242.09 238.795C1242.61 241.265 1242.48 250.885 1242.09 253.615C1240.4 267.784 1242.48 287.022 1243.78 302.102C1245.86 324.72 1251.2 347.079 1260.3 367.877C1258.35 368.397 1258.61 370.477 1257.57 371.387C1248.47 379.967 1242.74 385.686 1236.37 396.996C1221.42 423.384 1214.39 455.102 1205.55 483.96L1204.25 485.39L1201.26 485.13L1190.2 449.382C1190.2 447.303 1196.71 443.923 1194.89 437.033C1193.58 432.093 1190.59 429.494 1185.39 431.703L1184.48 431.054C1179.93 420.134 1176.03 408.825 1170.31 398.426C1166.01 390.496 1159.38 381.787 1153.4 375.027C1151.32 372.687 1146.9 371.907 1146.9 367.357C1146.9 365.278 1152.36 352.408 1153.27 348.769C1170.18 289.102 1162.11 229.306 1164.06 168.21C1164.32 160.54 1164.32 146.241 1166.4 139.352C1167.45 135.972 1172 130.512 1171.61 127.652C1171.35 125.442 1168.36 123.883 1167.45 121.543C1167.18 120.763 1164.06 108.284 1164.06 107.634V24.3087C1158.86 24.6987 1153.14 23.7887 1148.07 24.3087Z" fill="white"/>
<path d="M632.556 7.4093L629.564 10.3991C632.686 9.74916 636.067 11.1791 638.928 11.1791C644 11.1791 652.583 7.79928 658.435 7.4093C663.897 7.01932 669.749 7.66928 675.341 7.4093L673.781 10.3991C677.942 12.349 680.804 11.569 685.095 10.7891C687.826 10.2691 695.109 7.4093 696.669 7.4093H742.447L741.276 86.9644C740.106 86.9644 740.366 85.5345 739.455 84.7545C735.424 81.2447 731.913 82.2847 729.442 80.8548C728.791 80.4648 721.639 70.1954 719.948 68.2455C696.409 41.9872 661.556 31.0678 627.094 29.5079L626.443 30.4179L625.533 150.53C626.573 151.18 633.206 150.92 635.026 150.79C646.861 150.4 659.996 148.061 671.31 144.291C673.521 143.511 680.673 139.871 681.714 139.741C683.014 139.741 684.055 141.041 686.005 141.041C688.606 141.041 702.522 136.881 704.082 135.061C705.513 127.392 712.145 125.052 716.437 119.332V207.207L709.674 209.027C687.046 185.888 657.915 171.719 624.883 174.189V220.336C624.883 220.336 623.192 222.286 622.672 223.456C620.721 228.136 625.143 240.615 625.533 246.724C626.183 255.174 625.143 264.403 625.533 272.983L627.874 304.831L635.417 305.221L636.977 309.381C636.977 309.381 649.982 306.521 651.673 305.611C660.906 301.191 667.539 300.411 677.032 297.161C693.808 291.182 708.244 281.172 719.688 267.653C727.881 257.904 734.123 246.854 741.536 236.455L742.316 277.403C741.796 280.002 734.774 281.692 734.774 289.362C734.774 293.782 736.854 300.411 742.316 298.721C742.316 303.141 742.186 307.561 742.316 311.85C742.316 314.58 744.397 319.39 742.316 321.6C741.796 322.25 739.065 323.03 737.895 323.94C736.984 324.46 734.644 327.319 734.514 327.319H543.342C549.975 309.121 553.876 289.882 556.087 270.643C556.607 266.613 556.087 261.154 556.867 257.124C557.257 255.044 559.338 255.304 559.728 254.004C560.639 251.274 558.948 247.894 559.078 245.165C559.208 241.655 562.329 236.845 562.069 233.205C561.809 230.345 557.518 227.096 557.518 222.676C557.518 220.336 559.078 218.776 559.078 217.476C559.078 216.306 557.778 214.486 557.518 212.277C554.657 174.579 558.428 132.072 557.518 93.594C557.388 87.2244 556.997 80.5948 556.737 74.0952C556.737 71.2353 554.787 64.9957 556.347 62.5259C557.127 61.226 559.598 61.7459 559.728 60.316H555.177C554.266 51.7366 553.096 43.0271 551.145 34.5776C549.194 25.4782 545.423 16.7687 543.862 7.66928H632.556V7.4093Z" fill="white"/>
<path d="M1300.74 326.8L1314.66 305.871C1323.24 303.141 1323.11 295.212 1325.71 288.322C1326.62 285.722 1329.23 282.473 1329.88 280.393C1331.05 276.233 1331.31 270.513 1332.74 265.964C1339.89 241.655 1348.86 210.847 1358.1 187.708C1360.18 182.509 1362 177.309 1368.37 176.659C1368.63 173.669 1366.81 171.849 1363.95 171.329L1416.36 4.80981C1424.16 5.32978 1433.13 4.02986 1440.81 4.80981C1443.93 5.06979 1444.97 7.01967 1447.96 7.14967L1446.53 14.5592L1452.38 15.4692L1512.33 201.488C1514.54 214.097 1509.86 226.836 1517.93 237.885C1520.14 240.875 1521.57 240.875 1525.21 240.745C1531.84 263.234 1539.51 285.592 1549.92 306.521L1560.58 324.07L1545.24 327.06H1451.73C1459.66 308.601 1458.49 287.022 1455.24 267.524C1454.46 262.844 1450.17 249.195 1451.34 245.815C1451.99 243.995 1453.42 243.995 1453.16 241.135C1453.16 240.225 1449.39 231.906 1448.87 231.256C1447.96 230.086 1444.84 232.036 1444.97 227.096C1431.31 232.556 1417.4 237.235 1403.74 242.565C1396.59 245.295 1388.66 249.975 1381.89 252.314C1378.12 253.614 1371.49 253.874 1368.11 255.824C1367.59 256.084 1360.7 263.754 1360.31 264.144C1357.58 267.914 1357.32 296.512 1357.84 302.621C1358.62 310.811 1360.83 319.78 1364.6 327.06H1300.74V326.8ZM1375.78 205.127L1434.17 186.799L1408.81 91.7744L1375.78 205.127Z" fill="white"/>
<path d="M860.921 7.40967C857.15 16.8991 856.89 25.4785 858.06 35.4879C858.58 40.1676 862.091 44.1974 854.939 44.9773C855.979 49.2671 855.979 54.4668 855.719 58.8865C855.589 61.3563 853.898 63.9562 854.549 66.036C855.589 69.5458 862.091 70.4558 865.213 72.7956C866.253 73.5756 866.903 75.5255 867.293 75.6554C868.464 76.3054 870.805 75.1355 871.585 77.0854C884.46 103.344 893.953 132.852 907.088 158.72C907.348 159.24 908.649 161.97 909.299 161.45L949.484 68.3759C956.767 49.3971 962.489 27.5584 955.856 7.53966H1014.51C1013.6 9.74952 1010.35 10.3995 1009.18 12.3494C1008.27 14.0393 1008.53 15.7292 1007.62 17.549C1006.06 20.5389 999.813 26.9085 997.342 30.5482C978.355 58.2365 965.48 88.5246 951.435 118.943C946.103 120.763 940.251 121.543 935.569 125.052C939.34 128.042 944.022 130.252 943.502 135.972L919.443 186.929C919.443 209.027 918.272 231.386 919.053 253.484C919.703 270.643 922.044 289.882 926.075 306.521C927.766 313.541 930.757 320.3 931.927 327.45H865.082C865.082 327.45 865.603 326.15 865.213 325.37C862.742 319.39 844.795 321.08 839.463 322.9C838.813 322.25 843.104 309.381 843.625 307.171C847.916 289.102 849.997 270.643 850.777 252.055C851.037 250.625 858.97 251.405 859.881 243.735C860.791 236.066 859.881 230.606 850.907 232.036L850.517 186.149C848.436 178.349 835.562 160.41 834.651 153.911C834.521 152.871 835.692 152.351 835.692 151.441C835.692 151.051 832.44 143.511 832.18 143.121C831.53 142.211 829.839 142.991 828.669 141.951C828.019 141.431 822.036 128.822 821.516 127.262L825.158 125.052L822.947 118.683C821.646 117.773 817.875 120.373 816.965 118.163L819.956 115.953C816.965 112.573 817.875 109.193 812.413 109.063C794.726 74.4855 780.421 36.2679 753.891 7.40967H861.311H860.921Z" fill="white"/>
<path d="M1626.65 8.44955C1626.65 8.44955 1626.65 9.87946 1627.82 10.6594C1630.42 12.4793 1635.49 10.2694 1638.74 9.61947C1639.52 9.48948 1640.43 8.44955 1640.56 8.44955H1669.43C1668.13 12.6093 1666.96 16.899 1666.05 21.1888C1653.44 81.635 1662.54 147.801 1659.68 209.287C1654.48 218.777 1659.16 229.046 1658.12 237.755C1657.73 241.005 1655.26 243.345 1655.13 246.855C1655.13 249.585 1656.3 251.405 1656.82 253.874H1659.68L1662.8 302.231C1663.32 304.051 1668.91 303.531 1670.6 303.531C1707.28 302.231 1738.1 282.733 1757.34 252.054C1760.47 246.985 1762.81 241.395 1766.32 236.585C1766.19 241.395 1766.45 246.335 1766.32 251.275C1766.32 253.094 1765.54 254.654 1765.54 256.474C1765.15 272.983 1767.62 295.732 1765.54 311.201C1764.63 318.35 1759.69 316.66 1758.91 318.87C1757.86 322.25 1760.6 324.46 1760.99 327.32H1613.38C1607.4 323.81 1602.46 326.93 1596.08 327.32C1590.23 327.71 1584.25 327.06 1578.4 327.32C1583.86 309.121 1588.54 290.402 1590.36 271.423C1592.44 249.975 1591.01 228.006 1592.57 206.817C1595.04 206.427 1598.56 201.618 1598.69 199.278C1598.82 196.418 1596.47 192.258 1596.34 188.748C1596.21 184.069 1599.47 180.559 1596.34 176.139C1595.3 174.579 1591.92 174.059 1591.79 172.239V86.5747C1590.49 67.7259 1589.32 48.6171 1584.38 30.2882C1584.38 28.9883 1588.41 30.0282 1588.15 27.9483C1588.15 27.0384 1586.2 23.5286 1585.55 23.0086C1584.25 21.9687 1582.69 22.6187 1582.04 21.8387C1580.74 20.0188 1579.31 10.7894 1577.62 8.05957H1626.39L1626.65 8.44955Z" fill="white"/>
</g>
<defs>
<clipPath id="clip0_22600_463">
<rect width="2254" height="485" fill="white"/>
</clipPath>
</defs>
</svg>
