<svg width="1558" height="495" viewBox="0 0 1558 495" fill="none" xmlns="http://www.w3.org/2000/svg">
<g clip-path="url(#clip0_22600_197)">
<path d="M238.276 457.699C237.52 455.43 237.016 453.918 236.511 452.658C235.503 450.011 235.125 448.877 234.494 444.719C233.864 440.182 233.738 438.418 233.738 435.645C233.738 433.755 233.738 431.487 233.36 427.832C232.603 416.995 231.847 406.157 231.09 395.32C230.838 391.161 230.46 389.019 230.208 387.002C229.956 384.986 229.577 383.222 229.325 379.315C229.073 375.535 229.073 373.644 229.073 371.628C229.073 369.612 229.073 367.47 228.821 363.311C228.443 357.64 228.065 351.843 227.686 346.172C227.434 342.014 227.056 339.871 226.804 337.855C226.552 335.839 226.173 334.075 225.921 330.168C225.669 326.388 225.669 324.497 225.669 322.481C225.669 320.339 225.669 318.07 225.417 313.534C223.148 280.769 220.878 248.004 218.609 215.365C218.357 211.333 217.979 209.19 217.727 207.174C217.475 205.032 217.096 203.142 216.844 198.857C216.592 195.076 216.592 193.186 216.592 191.17C216.592 189.154 216.592 187.011 216.34 182.853C215.583 171.763 214.827 160.799 214.071 149.71C213.818 145.551 213.44 143.409 213.188 141.393C212.936 139.376 212.558 137.612 212.306 133.706C212.053 129.421 212.053 127.531 212.053 125.388C212.053 123.372 212.053 121.23 211.801 117.071C211.549 112.912 211.171 110.77 210.919 108.754C210.667 106.738 210.288 104.973 210.036 101.067C209.784 97.4122 209.784 95.3959 209.784 93.3796C209.784 91.1113 209.784 88.717 209.532 83.8022C208.776 73.2167 208.019 62.5051 207.263 51.9196C207.011 48.5171 206.758 46.3748 206.632 44.7366C206.38 42.0902 206.128 40.4519 206.128 35.7893C206.128 31.0006 206.506 29.7404 207.137 26.7159C207.389 25.4558 207.767 23.9435 208.145 21.6752C208.776 19.5329 209.784 18.1467 210.919 16.7605C212.936 13.9881 216.088 9.82948 210.919 3.90662C210.919 3.90662 210.919 3.7806 210.793 3.65458C205.119 -2.14226 199.95 0.252087 196.925 1.76431C195.286 2.52042 193.647 3.27653 191.63 3.52856C186.587 3.90662 181.67 4.28467 176.627 4.66273C172.845 4.91477 171.08 4.91477 169.189 4.91477C167.172 4.91477 165.028 4.91477 160.994 5.1668C156.456 5.54486 154.312 5.79689 152.169 6.17495C150.278 6.42699 148.387 6.80504 144.731 7.05708C142.966 7.1831 141.579 6.67902 139.814 6.17495C136.662 5.1668 131.241 3.27653 126.45 10.0815C126.45 10.0815 126.45 10.2075 126.324 10.3336C122.29 16.7605 125.82 20.415 127.963 22.6833C129.224 24.0696 130.359 25.2037 130.863 27.22V27.472C131.619 29.6144 132.25 31.1266 132.754 32.3868C133.889 35.2852 134.393 36.4193 135.149 41.208C135.906 45.7447 135.906 47.509 136.032 50.2814C136.032 52.1716 136.158 54.44 136.41 58.0945C136.662 61.8751 136.662 63.7653 136.662 65.7816C136.662 67.9239 136.662 70.1923 137.04 74.7289C137.293 78.7615 137.671 80.7778 138.049 82.9201C138.427 85.0624 138.679 87.2047 139.058 91.8674C139.31 95.648 139.31 97.5382 139.31 99.5545C139.31 101.697 139.31 103.965 139.688 108.502C140.066 112.534 140.318 114.677 140.697 116.693C141.075 118.835 141.327 120.978 141.705 125.64C142.083 131.185 142.588 136.73 142.966 142.149C143.218 145.803 143.218 147.82 143.218 149.836C143.218 152.104 143.218 154.499 143.596 159.413C144.479 170.629 145.361 181.971 146.244 193.186C146.496 195.833 146.748 197.471 146.874 198.605C147.252 200.747 147.252 201.251 146.118 206.166C146.118 206.166 146.118 206.418 146.118 206.544C145.235 210.451 145.235 210.955 142.588 211.711C137.419 213.349 137.419 213.349 134.645 213.475C133.637 213.475 132.25 213.475 130.359 213.727C125.316 214.105 120.147 214.609 115.104 214.987C112.582 215.239 110.944 215.491 109.809 215.617C107.666 215.995 107.287 215.995 103.127 214.987C103.001 214.987 102.875 214.987 102.749 214.987C99.7231 214.483 98.4624 213.349 97.0756 209.695C95.1845 204.654 95.0584 204.528 95.1845 202.764C95.1845 201.755 95.1845 200.117 94.9324 197.345C94.4281 191.674 93.9238 185.877 93.4195 180.206C93.0413 175.922 93.0413 174.031 93.0413 171.889C93.0413 169.873 93.0413 167.73 92.663 163.572C91.6545 152.356 90.772 141.141 89.7634 129.799C89.3852 124.884 89.007 122.49 88.6287 120.222C88.2505 118.205 87.9984 116.315 87.7462 112.66C87.242 107.116 86.8637 101.571 86.3594 96.152C85.9812 91.4894 85.9812 89.347 85.9812 87.0787C85.9812 85.0624 85.9812 82.7941 85.603 78.8875C85.0987 73.3427 84.7205 67.7979 84.2162 62.3791C83.838 58.0945 83.2076 55.7002 82.7033 53.6839C82.073 51.2895 81.6948 49.9033 82.073 45.8707C82.4512 41.4601 82.8294 39.9479 83.3337 37.5535C83.7119 36.0413 84.0901 34.151 84.5944 31.1266C84.5944 31.1266 84.5944 30.8745 84.5944 30.7485C84.8466 28.6062 85.8552 27.094 86.9898 25.5818C88.7548 23.1874 92.0327 18.5247 86.9898 13.232C81.6948 7.30911 76.6519 9.45143 73.2479 10.9636C71.4829 11.7198 69.844 12.4759 67.7008 12.6019C63.1622 12.9799 60.7668 13.358 58.7496 13.736C56.9846 13.9881 55.3457 14.3661 52.0678 14.6182C46.8989 15.1223 41.6038 15.5003 36.4349 16.0044C32.6527 16.3824 30.8877 16.3824 28.9966 16.3824C26.9794 16.3824 24.8362 16.3824 20.8019 16.7605C19.0369 16.8865 17.524 16.5085 15.8851 16.1304C12.4811 15.2483 7.31219 13.8621 2.64752 20.6671C-2.14323 27.472 1.51287 31.3786 3.90824 34.025C5.04289 35.2852 6.17754 36.4193 6.8079 38.1836C6.8079 38.1836 6.8079 38.3096 6.8079 38.4356C7.81648 40.578 8.57291 42.0902 9.20327 43.3504C10.5901 46.1228 11.2204 47.3829 12.4811 51.9196C13.2376 56.3302 13.3637 58.0945 13.4897 60.7409C13.4897 62.5051 13.6158 64.6475 13.994 68.0499C16.5155 95.2699 19.0369 122.364 21.5583 149.584C21.9366 153.364 21.9366 155.255 21.9366 157.271C21.9366 159.287 21.9366 161.43 22.3148 165.588C22.693 169.999 23.0712 172.267 23.4494 174.409C23.8276 176.552 24.2059 178.568 24.5841 182.727C28.1141 220.532 31.6441 258.338 35.1741 296.143C35.5524 300.302 35.5524 302.318 35.6784 304.46C35.6784 306.603 35.6784 308.871 36.1827 313.408C36.5609 317.566 36.9391 319.583 37.3174 321.599C37.6956 323.489 37.9477 325.379 38.3259 329.286C41.856 367.217 45.386 405.275 48.916 443.206C49.1682 445.979 49.4203 447.995 49.5464 449.507C49.9246 453.162 50.1767 454.422 49.7985 459.841C49.7985 459.841 49.7985 459.967 49.7985 460.093C49.7985 464.63 49.5464 465.512 48.6639 469.04C48.4117 470.174 47.9074 471.687 47.5292 473.703C47.5292 473.703 47.5292 473.829 47.5292 473.955C47.151 475.845 46.3946 477.357 45.5121 478.87C43.8731 481.768 41.2256 486.557 46.2685 491.976C49.1682 495 51.9417 495.756 54.3371 495.504C56.4803 495.252 58.3714 494.244 59.7582 493.488C61.2711 492.732 62.6579 491.976 64.2968 491.724C68.205 491.346 70.0961 490.967 71.9872 490.715C73.7522 490.463 75.5172 490.085 79.0473 489.833C82.5773 489.455 84.3423 489.455 86.1073 489.455C87.9984 489.455 90.0155 489.455 93.7977 489.077C97.2017 488.825 99.0927 488.447 100.858 488.195C102.623 487.817 104.514 487.565 108.548 487.187C110.565 487.061 112.078 487.565 113.843 488.069C116.869 489.077 121.912 490.715 125.82 484.036C129.854 477.862 126.324 473.955 124.181 471.561C123.046 470.3 121.912 469.04 121.281 467.276C118.886 460.345 118.886 460.219 117.121 453.918C116.365 448.625 116.239 446.609 116.112 443.963C116.112 442.324 115.986 440.308 115.734 437.284C115.356 432.747 114.978 430.479 114.6 428.336C114.221 426.32 113.969 424.43 113.717 420.775C113.213 415.104 112.709 409.308 112.204 403.637C111.826 399.478 111.826 397.462 111.826 395.32C111.826 393.303 111.826 391.161 111.448 387.002C110.944 381.332 110.439 375.535 109.935 369.864C109.557 365.327 109.179 363.059 108.8 360.917C108.422 358.9 108.17 357.01 107.918 353.355C107.414 347.685 106.909 341.888 106.405 336.217C106.027 332.058 106.027 330.042 106.027 327.9C106.027 325.883 106.027 323.741 105.648 319.583C105.144 313.912 104.64 308.115 104.136 302.444C104.01 300.302 103.757 298.79 103.631 297.655C103.379 295.723 103.547 292.909 104.136 289.212C105.018 284.297 106.279 283.667 108.296 283.289C108.296 283.289 108.422 283.289 108.548 283.289C112.835 282.155 113.213 282.155 115.23 282.029C116.365 282.029 117.877 282.029 120.273 281.777C125.316 281.399 130.359 280.895 135.402 280.517C137.923 280.265 139.31 280.139 140.444 280.013C142.335 279.761 142.588 279.761 147.378 280.013C147.378 280.013 147.378 280.013 147.504 280.013C149.648 280.013 151.034 280.517 152.547 285.18C153.724 288.792 154.354 291.564 154.438 293.497C154.438 294.631 154.564 296.143 154.691 298.285C155.195 303.956 155.573 309.753 156.077 315.424C156.33 319.204 156.329 321.095 156.329 323.111C156.329 325.253 156.33 327.522 156.708 332.058C156.96 336.091 157.338 338.233 157.716 340.25C158.095 342.392 158.347 344.534 158.725 349.197C160.868 377.173 163.137 405.275 165.281 433.251C165.533 436.276 165.785 438.166 165.911 439.93C166.289 442.576 166.541 444.593 166.541 450.138C166.541 453.666 166.163 454.926 165.533 457.069C165.155 458.707 164.524 460.597 164.02 463.747C163.642 465.512 162.885 466.898 162.129 468.284C160.49 471.183 158.095 475.467 162.885 481.39C162.885 481.39 162.885 481.39 163.011 481.516C168.054 486.935 172.845 484.667 175.745 483.28C177.257 482.524 178.77 481.894 180.535 481.768C184.318 481.516 186.335 481.138 188.226 480.886C190.117 480.634 192.008 480.256 195.916 480.004C199.446 479.752 201.211 479.752 202.976 479.752C204.867 479.752 206.884 479.752 210.667 479.5C215.331 479.122 220.122 478.87 224.787 478.492C226.804 478.366 228.443 478.87 230.082 479.374C233.234 480.382 237.898 481.768 242.437 475.971C242.437 475.971 242.437 475.971 242.437 475.845C247.228 468.914 243.193 464.756 240.672 462.235C239.411 460.975 238.276 459.841 237.52 458.203L238.276 457.699Z" fill="white"/>
<path d="M423.981 92.2453C423.603 82.4159 423.098 72.5864 422.72 62.757C422.72 60.1106 422.846 58.4724 423.224 56.8342C423.855 53.4317 424.107 50.7853 421.711 45.8706C419.568 40.9558 417.047 39.5696 414.147 38.3095C413.012 37.8054 411.878 37.3013 410.491 36.2932C407.045 33.6048 404.145 30.7904 401.792 27.8499C401.792 27.8499 401.54 27.5979 401.414 27.4719C400.027 26.2117 399.145 25.2035 398.514 24.3214C396.245 21.675 394.732 20.1628 389.185 18.5246C383.89 16.7603 381.116 17.1384 377.46 18.1465C375.821 18.5246 374.056 19.0286 371.283 19.1547C344.051 20.5409 316.693 21.9271 289.462 23.5653C286.94 23.6913 285.427 23.5653 283.788 23.1873C280.763 22.6832 277.611 22.3051 271.559 24.8255C266.643 26.9678 265.256 29.3622 263.869 31.6305C263.239 32.7646 262.482 34.0248 261.095 35.5371C261.095 35.5371 261.095 35.6631 260.969 35.7891C258.448 38.8135 257.818 39.4436 255.926 41.0819C255.044 41.964 253.909 42.9721 252.144 44.4844C252.144 44.4844 252.144 44.4844 252.018 44.6104C250.631 46.1226 249.623 46.7527 248.488 47.5088C245.967 49.147 244.076 50.7853 242.185 55.574C242.185 55.7 242.185 55.826 242.059 55.952C240.546 61.2448 241.302 63.8912 242.059 66.6636C242.437 68.3018 242.815 69.9401 243.067 72.5864C243.319 76.619 243.824 78.6353 244.202 80.5256C244.58 82.2899 244.958 83.9281 245.21 87.2046C245.463 90.6071 245.21 92.2453 245.21 94.0096C244.958 96.0259 244.832 98.0422 245.21 102.075C245.463 106.737 246.093 109.132 246.471 111.148C246.849 113.038 247.228 114.551 247.48 117.827C247.732 121.23 247.48 122.868 247.48 124.632C247.354 126.648 247.101 128.665 247.48 132.697C247.858 137.864 248.11 142.905 248.488 148.071C248.74 152.104 249.245 154.12 249.623 156.011C250.001 157.775 250.379 159.413 250.631 162.69C250.884 166.092 250.631 167.73 250.631 169.495C250.505 171.511 250.253 173.527 250.631 177.56C252.27 202.889 253.909 228.219 255.548 253.549C255.8 257.959 256.305 260.102 256.809 262.118C257.187 263.882 257.565 265.521 257.818 268.797C258.07 272.199 257.818 273.838 257.818 275.602C257.692 277.618 257.439 279.635 257.818 283.667C258.07 287.952 258.574 290.22 259.078 292.236C259.457 294.001 259.835 295.639 260.087 298.915C260.339 302.318 260.087 303.956 260.087 305.72C259.961 307.737 259.709 309.753 260.087 313.786C260.339 317.692 260.843 319.708 261.222 321.725C261.6 323.615 261.978 325.379 262.23 329.034C263.239 344.156 264.247 359.278 265.256 374.4C265.508 377.803 265.256 379.441 265.256 381.205C265.13 383.222 264.878 385.238 265.256 389.271C265.508 393.555 266.012 395.823 266.39 397.84C266.769 399.604 267.147 401.242 267.399 404.519C267.651 408.299 267.399 410.064 267.399 411.954C267.273 413.97 267.021 415.986 267.399 419.893C267.525 422.035 267.399 423.421 267.399 424.808C267.147 428.336 267.021 430.857 269.921 436.527C271.559 440.686 273.324 442.072 275.594 443.458C276.602 444.088 277.737 444.719 279.376 446.357C279.376 446.357 279.376 446.357 279.502 446.483C282.276 448.877 283.788 449.885 285.049 450.767C286.184 451.524 287.192 452.154 288.957 453.792C290.47 455.178 291.227 456.438 291.983 457.698C293.622 460.219 295.261 462.739 300.556 463.873C303.582 464.629 305.725 464.755 307.49 464.629C309.129 464.629 310.39 464.251 311.65 463.873C313.163 463.495 314.676 463.117 317.072 462.991C320.728 462.739 322.745 462.487 324.636 462.235C326.653 461.983 328.67 461.731 332.957 461.479C336.487 461.227 338.252 461.353 340.017 461.353C341.908 461.353 343.925 461.353 347.707 461.227C351.867 460.975 353.885 460.723 355.902 460.471C357.919 460.219 359.684 459.967 363.592 459.841C367.122 459.715 368.887 459.715 370.652 459.841C372.669 459.841 374.813 459.841 378.973 459.715C384.142 459.463 389.185 459.211 394.354 458.959C397.127 458.833 398.766 458.959 400.405 459.211C403.305 459.589 405.952 459.841 410.995 457.951C415.66 456.06 417.173 454.044 418.938 451.398C419.568 450.389 420.325 449.381 421.585 448.121C421.585 447.995 421.837 447.869 421.964 447.743C424.401 444.635 427.048 441.526 429.906 438.418C431.293 436.905 432.301 436.149 433.31 435.393C435.705 433.503 437.344 431.991 438.983 427.58C438.983 427.58 438.983 427.58 438.983 427.454C440.748 421.657 440.496 419.137 439.74 415.734C439.488 414.348 439.109 412.962 439.109 410.694C438.983 406.913 438.731 404.897 438.479 403.007C438.227 401.116 438.101 399.226 437.849 395.319C436.966 375.283 436.084 355.12 435.201 335.083C435.075 331.554 435.201 329.916 435.201 328.026C435.201 326.009 435.201 323.867 435.201 319.708C435.075 315.55 434.823 313.407 434.571 311.391C434.319 309.501 434.193 307.863 433.94 304.334C433.688 299.419 433.562 294.505 433.31 289.59C433.184 286.061 433.31 284.423 433.31 282.533C433.31 280.517 433.436 278.374 433.31 274.216C433.058 269.301 432.932 264.386 432.68 259.472C432.554 255.691 432.301 253.675 432.049 251.785C431.797 249.894 431.545 248.004 431.419 244.097C430.158 213.853 428.771 183.483 427.511 153.238C427.385 149.71 427.511 147.945 427.511 146.181C427.511 144.291 427.637 142.275 427.511 138.494C427.259 133.327 427.006 128.287 426.88 123.12C426.754 119.213 426.502 117.323 426.25 115.433C425.998 113.668 425.872 111.904 425.62 108.376C425.494 104.973 425.62 103.209 425.62 101.319C425.62 99.1763 425.746 97.034 425.62 92.3713L423.981 92.2453ZM362.836 180.962C363.088 182.726 363.34 184.491 363.466 188.019C363.718 193.186 363.97 198.227 364.222 203.393C364.349 206.544 364.222 208.182 364.222 209.82C364.222 211.711 364.222 213.601 364.222 217.634C364.727 227.715 365.231 237.67 365.735 247.752C365.988 251.658 366.24 253.675 366.492 255.439C366.744 257.077 366.87 258.716 367.122 261.866C367.248 265.395 367.248 267.159 367.122 268.923C367.122 270.813 367.122 272.83 367.122 276.61C367.374 280.769 367.626 282.911 367.879 284.927C368.131 286.818 368.383 288.456 368.509 291.984C368.635 295.513 368.635 297.277 368.509 299.041C368.509 300.932 368.509 302.948 368.509 306.729C368.761 311.517 369.013 316.18 369.265 320.969C369.518 325.127 369.77 327.27 370.022 329.286C370.274 331.176 370.526 332.814 370.652 336.343C370.778 339.871 370.778 341.636 370.652 343.4C370.652 345.29 370.652 347.306 370.652 351.087C371.156 360.916 371.661 370.746 372.165 380.575C372.165 381.835 372.291 382.844 372.417 383.726C372.585 386.078 372.039 388.892 370.778 392.169V392.421V392.673C370.526 394.059 370.274 394.941 370.148 395.193C369.896 395.445 369.013 395.697 367.626 396.076C367.5 396.076 367.374 396.076 367.248 396.202C363.844 397.588 363.718 397.588 361.827 397.588C360.692 397.588 359.18 397.588 356.658 397.588C353.002 397.84 351.237 398.092 349.472 398.218C347.833 398.47 346.194 398.722 342.916 398.848C340.269 398.974 338.756 399.352 337.621 399.478C336.234 399.73 335.982 399.856 332.326 398.596H332.074C329.553 397.966 328.544 397.21 327.662 394.311V394.059C326.149 390.279 326.149 390.027 326.149 388.01C326.149 386.876 326.149 385.364 326.149 382.844C323.879 343.274 321.61 303.704 319.341 264.26C319.215 261.11 319.215 259.472 319.341 257.833C319.341 255.943 319.341 254.053 319.215 250.02C318.963 245.862 318.71 243.719 318.458 241.703C318.206 239.813 317.954 238.175 317.828 234.646C317.324 224.943 316.693 215.365 316.189 205.662C315.937 201.503 315.685 199.361 315.433 197.345C315.18 195.454 314.928 193.816 314.802 190.288C314.55 186.759 314.676 184.995 314.802 183.231C314.802 181.34 314.802 179.324 314.676 175.543C313.541 155.633 312.407 135.848 311.272 115.937C311.02 112.282 311.146 110.644 311.272 108.88C311.272 107.115 311.272 105.225 311.272 101.823C310.894 94.6396 311.272 92.3713 312.029 90.355C312.407 89.4729 312.785 88.5908 313.037 87.8347C313.794 85.5663 313.92 85.4403 314.928 85.0623C314.928 85.0623 315.054 85.0623 315.18 85.0623C318.206 83.8021 318.71 83.8021 320.223 84.0541C321.484 84.0541 323.249 84.3062 326.275 84.0541C331.066 83.8021 335.856 83.55 340.647 83.298C344.261 83.13 346.74 83.046 348.085 83.046C348.968 83.046 350.228 83.046 352.12 83.172C354.263 83.298 354.641 83.424 356.532 87.7086C356.532 87.8347 356.658 87.9607 356.784 88.0867C356.784 88.0867 357.036 88.3387 357.036 88.4648C358.297 90.103 358.423 90.9851 358.549 95.5218C358.549 96.6559 358.549 97.7901 358.675 99.1763C358.927 103.965 359.18 108.628 359.432 113.416C359.684 117.197 359.936 119.213 360.188 121.103C360.44 122.994 360.692 124.884 360.819 128.791C361.071 133.705 361.323 138.62 361.575 143.535C361.827 147.189 361.701 148.828 361.575 150.592C361.575 152.356 361.575 154.246 361.575 157.649C361.827 162.816 362.079 167.856 362.331 173.023C362.584 176.93 362.836 178.82 363.088 180.71L362.836 180.962Z" fill="white"/>
<path d="M593.17 383.726C591.531 384.986 590.018 386.12 588.253 386.498C588.253 386.498 588.001 386.498 587.875 386.498C585.984 387.002 584.471 387.506 583.336 387.758C580.436 388.64 579.176 389.018 574.259 389.522C571.233 389.774 569.594 389.774 567.955 389.648C569.342 389.648 570.729 389.648 571.989 389.648C569.72 389.648 568.207 389.648 566.821 389.648C565.055 389.522 562.786 389.27 559.004 389.396C558.5 389.396 558.122 389.396 557.743 389.396C557.365 389.396 556.861 389.396 556.483 389.396C554.465 389.396 552.953 389.522 551.944 389.648C550.179 389.732 547.615 389.438 544.254 388.766C542.236 388.388 541.48 386.876 540.219 383.474C540.219 383.222 540.093 383.095 539.967 382.843C538.328 379.063 538.328 377.299 538.202 373.518C538.202 369.99 538.202 368.225 538.202 366.461C538.202 364.571 538.328 362.555 538.202 358.774C538.202 354.615 537.824 352.473 537.698 350.457C537.446 348.566 537.32 346.928 537.194 343.4C537.067 338.485 536.941 333.57 536.689 328.656C536.689 325.127 536.689 323.489 536.689 321.599C536.689 319.582 536.815 317.44 536.689 313.281C536.563 308.367 536.437 303.452 536.185 298.537C536.185 294.631 535.807 292.74 535.681 290.85C535.429 289.086 535.302 287.322 535.176 283.793C534.294 253.675 533.285 223.556 532.403 193.438C532.403 189.909 532.403 188.145 532.403 186.381C532.403 184.491 532.529 182.474 532.403 178.694C532.403 174.913 532.025 172.897 531.898 171.007C531.646 169.116 531.52 167.226 531.394 163.32C531.268 158.405 531.142 153.49 530.89 148.575C530.89 145.047 530.89 143.283 530.89 141.518C530.89 139.628 531.142 137.612 530.89 133.831C530.764 129.673 530.512 127.53 530.26 125.514C530.007 123.624 529.881 121.986 529.755 118.457C529.251 103.461 528.873 88.4647 528.368 73.5945C528.368 70.066 528.368 68.3017 528.368 66.5375C528.368 64.6472 528.621 62.6309 528.368 58.8504C528.368 55.5739 527.99 53.5576 527.864 51.7933C527.612 49.399 527.36 47.8868 527.864 44.1062C527.864 44.1062 527.864 43.8542 527.864 43.7282C528.116 39.8216 528.368 38.3094 528.747 36.1671C528.999 34.7808 529.377 33.1426 529.755 30.4962C530.26 28.606 531.142 27.3458 532.151 25.9596C533.916 23.4392 536.815 19.5326 532.907 13.8618C532.907 13.8618 532.781 13.6098 532.655 13.4838C532.655 13.4838 532.529 13.3577 532.403 13.2317C527.234 8.06496 522.191 10.2073 519.291 11.5935C517.778 12.3496 516.392 12.9797 514.753 12.9797C510.971 13.1057 509.079 12.9797 507.188 12.9797C505.297 12.9797 503.406 12.8537 499.624 12.9797C495.842 13.1057 493.951 13.3577 492.06 13.4838C490.295 13.7358 488.656 13.8618 485.252 13.9878C480.587 14.1138 476.049 14.3659 471.384 14.4919C469.493 14.4919 467.98 13.9878 466.467 13.4838C463.441 12.3496 458.398 10.5853 453.608 16.7602C449.321 22.4311 452.473 26.3376 454.364 28.732C455.499 30.1182 456.507 31.3784 457.012 33.2686C457.894 36.1671 458.651 37.9313 459.281 39.1915C460.037 40.9557 460.542 41.9639 461.046 45.4924C461.046 45.4924 461.046 45.6184 461.046 45.7444C461.928 50.1551 461.802 51.6673 461.676 54.1877C461.676 55.8259 461.424 57.8422 461.676 61.1187C462.307 76.1149 462.811 90.985 463.441 105.981C463.567 110.14 463.82 112.282 464.072 114.298C464.324 116.189 464.45 117.827 464.576 121.355C464.702 124.884 464.576 126.522 464.576 128.412C464.576 130.429 464.45 132.571 464.576 136.73C464.702 140.636 464.954 142.527 465.206 144.417C465.459 146.181 465.585 147.945 465.711 151.474C465.963 156.389 466.089 161.303 466.341 166.218C466.467 170.503 466.341 172.519 466.341 174.535C466.341 176.425 466.215 178.442 466.341 182.096C466.467 186.003 466.719 187.893 466.971 189.783C467.224 191.548 467.35 193.312 467.476 196.84C467.602 200.747 467.476 202.637 467.476 204.528C467.476 206.418 467.35 208.434 467.476 212.215C468.232 232.252 468.988 252.415 469.745 272.451C469.871 276.61 470.123 278.752 470.375 280.769C470.627 282.659 470.753 284.297 470.88 287.826C471.006 291.354 470.88 292.992 470.88 294.883C470.88 296.899 470.753 299.041 470.88 303.2C471.132 308.367 471.258 313.407 471.51 318.574C471.636 322.481 471.888 324.371 472.14 326.261C472.392 328.025 472.519 329.79 472.645 333.318C472.771 336.847 472.645 338.485 472.645 340.375C472.645 342.392 472.519 344.534 472.645 348.693C473.401 368.729 474.157 388.892 474.914 408.929C475.04 412.332 475.418 414.474 475.67 416.364C476.049 418.759 476.301 420.649 476.175 424.43C476.049 427.832 475.67 428.84 474.788 431.109C474.284 432.495 473.653 434.133 472.897 436.779C472.897 436.779 472.897 436.905 472.897 437.031V437.283C472.645 438.796 471.888 439.93 471.006 441.19C469.367 443.458 466.467 447.869 471.51 453.162C474.157 456.06 476.679 456.942 478.822 456.816C480.713 456.816 482.478 455.934 483.739 455.43C485.378 454.674 486.765 454.044 488.908 453.918C503.532 453.414 518.157 452.91 532.781 452.406C536.311 452.406 538.076 452.406 539.841 452.406C541.102 452.406 542.362 452.406 544.254 452.406C537.698 452.658 532.781 452.784 534.168 452.784C544.001 452.532 553.961 452.154 563.795 451.902C567.703 451.902 569.594 451.65 571.485 451.397C573.25 451.145 575.015 451.019 578.545 450.893C580.688 450.893 582.075 451.397 583.714 451.902C586.74 452.91 590.9 454.422 596.069 449.381C600.86 444.971 600.734 441.694 600.104 437.788C599.851 436.275 599.599 434.763 599.851 432.621C600.23 429.47 600.356 427.454 600.482 425.69C600.734 423.043 600.86 421.279 601.743 416.994V416.742C602.121 413.466 601.995 411.576 601.995 409.937C601.869 407.795 601.743 406.787 603.381 403.006C603.381 403.006 603.381 402.754 603.508 402.628C604.264 400.36 605.273 398.722 606.155 397.21C608.298 393.555 610.82 389.144 605.146 383.222C599.725 377.551 594.556 381.583 592.035 383.474L593.17 383.726ZM553.961 452.28C555.096 452.28 555.978 452.028 556.861 452.028C558.5 451.902 560.139 451.65 563.291 451.524C566.821 451.524 568.586 451.524 570.351 451.524C571.233 451.524 562.786 451.902 553.835 452.154L553.961 452.28Z" fill="white"/>
<path d="M783.539 381.457C778.244 375.66 772.949 379.567 770.427 381.457C768.788 382.717 767.275 383.852 765.384 384.104C765.384 384.104 765.132 384.104 765.006 384.104C763.115 384.608 761.602 384.986 760.467 385.364C758.702 385.868 757.442 386.246 755.677 386.498C760.846 386.498 764.88 386.498 764.124 386.624C762.106 386.75 760.341 386.876 756.307 386.876H751.39C751.39 386.876 751.39 386.876 751.264 386.876C748.112 387.128 746.599 387.002 744.961 386.876C743.826 386.876 742.565 386.876 741.431 386.876C737.522 386.876 735.631 386.876 733.614 386.624C731.723 386.498 729.706 386.372 725.924 386.372C723.906 386.372 722.394 386.372 721.385 386.372C719.62 386.372 717.057 386.036 713.695 385.364C711.677 384.86 711.047 383.474 709.786 379.945C709.786 379.693 709.66 379.567 709.534 379.315C708.021 375.534 708.021 373.77 708.021 369.99C708.021 366.461 708.021 364.697 708.274 362.933C708.4 361.042 708.526 359.026 708.526 355.245C708.526 351.087 708.273 348.945 708.147 346.928C708.021 345.038 707.895 343.4 707.769 339.871C707.769 334.957 707.769 330.042 707.643 325.127C707.643 321.599 707.643 319.96 707.895 318.07C708.021 316.054 708.147 313.911 708.147 309.753C708.147 304.838 708.147 299.923 708.021 295.009C708.021 291.102 707.769 289.212 707.643 287.322C707.517 285.557 707.391 283.793 707.265 280.265C707.013 250.146 706.761 220.028 706.382 189.909C706.382 186.381 706.382 184.617 706.635 182.852C706.761 180.962 706.887 178.946 706.887 175.165C706.887 171.385 706.635 169.368 706.509 167.478C706.382 165.588 706.13 163.698 706.13 159.791C706.13 154.876 706.13 149.962 706.004 145.047C706.004 141.518 706.004 139.754 706.256 137.99C706.382 136.1 706.509 134.083 706.509 130.303C706.509 126.144 706.256 124.002 706.13 121.986C706.004 120.095 705.878 118.457 705.752 114.929C705.626 99.9323 705.5 84.9361 705.374 70.066C705.374 66.5375 705.374 64.7732 705.626 63.009C705.752 61.1187 705.878 59.1024 705.878 55.3218C705.878 52.0454 705.626 49.903 705.5 48.2648C705.248 45.7444 705.122 44.3582 705.752 40.5777C705.752 40.5777 705.752 40.3257 705.752 40.1996C706.13 36.2931 706.382 34.7808 706.887 32.6385C707.139 31.2523 707.517 29.6141 708.021 26.9677C708.526 25.0774 709.534 23.8173 710.543 22.4311C712.434 19.9107 715.334 16.0041 711.551 10.3333C711.551 10.3333 711.425 10.0813 711.299 9.95524C711.299 9.95524 711.173 9.82922 711.047 9.7032C705.878 4.41043 700.961 6.55274 697.936 7.81293C696.297 8.44302 695.036 9.07311 693.397 9.07311C689.615 9.07311 687.724 9.07311 685.833 8.82107C683.942 8.82107 682.05 8.56904 678.268 8.56904C674.486 8.56904 672.595 8.82107 670.704 8.94709C668.939 9.07311 667.3 9.32515 663.896 9.32515C659.231 9.32515 654.693 9.45116 650.028 9.57718C648.137 9.57718 646.624 9.07311 645.111 8.44302C642.086 7.30885 637.169 5.41858 632.126 11.4675C627.713 17.0123 630.739 21.0449 632.63 23.4392C633.639 24.8254 634.647 26.0856 635.278 27.9759C636.16 30.8743 636.791 32.6385 637.421 34.0247C638.177 35.789 638.682 36.9232 638.934 40.3257C638.934 40.3257 638.934 40.4517 638.934 40.5777C639.69 44.9883 639.564 46.5006 639.438 49.0209C639.438 50.6592 639.186 52.6755 639.186 55.9519C639.438 70.9481 639.69 85.9443 639.942 100.814C639.942 104.973 640.195 107.115 640.447 109.132C640.573 111.022 640.825 112.66 640.825 116.189C640.825 119.717 640.825 121.355 640.699 123.246C640.699 125.262 640.447 127.278 640.573 131.563C640.573 135.469 640.825 137.36 641.077 139.25C641.203 141.014 641.455 142.779 641.455 146.307C641.455 151.222 641.581 156.137 641.707 161.051C641.707 165.336 641.707 167.352 641.581 169.368C641.581 171.259 641.329 173.275 641.455 176.93C641.455 180.836 641.707 182.726 641.833 184.617C641.96 186.381 642.212 188.145 642.212 191.674C642.212 195.58 642.212 197.471 642.086 199.361C642.086 201.251 641.833 203.267 641.96 207.048C642.338 227.085 642.59 247.248 642.968 267.285C642.968 271.443 643.22 273.586 643.472 275.602C643.598 277.492 643.851 279.13 643.851 282.659C643.851 286.187 643.851 287.826 643.725 289.716C643.725 291.732 643.472 293.875 643.598 298.033C643.598 303.2 643.725 308.241 643.851 313.407C643.851 317.314 644.103 319.204 644.229 321.095C644.355 322.859 644.607 324.623 644.607 328.152C644.607 331.68 644.607 333.318 644.481 335.209C644.481 337.225 644.229 339.367 644.355 343.526C644.733 363.563 644.985 383.726 645.363 403.763C645.363 407.165 645.742 409.307 645.868 411.198C646.12 413.592 646.372 415.482 646.12 419.263C645.868 422.665 645.49 423.673 644.607 425.942C644.103 427.328 643.346 428.966 642.59 431.487C642.59 431.487 642.59 431.613 642.59 431.739V431.991C642.338 433.503 641.581 434.637 640.699 435.897C639.06 438.166 636.034 442.45 640.951 447.869C643.472 450.893 645.994 451.776 648.137 451.65C650.028 451.65 651.793 450.893 653.18 450.389C654.819 449.759 656.332 449.129 658.349 449.003C672.973 448.751 687.598 448.625 702.222 448.499C705.752 448.499 707.517 448.499 709.282 448.751C711.299 448.877 713.442 449.003 717.603 449.003C721.511 449.003 723.528 448.751 725.419 448.625C727.058 448.499 728.697 448.373 731.849 448.373C735.379 448.373 737.144 448.373 738.909 448.625C740.296 448.625 741.683 448.877 743.7 448.877C745.717 448.877 747.104 448.751 748.491 448.625C750.256 448.499 752.021 448.373 755.551 448.373C757.694 448.373 759.081 448.877 760.72 449.507C763.745 450.641 767.78 452.154 773.201 447.365C777.991 443.08 777.991 439.678 777.487 435.897C777.235 434.385 777.109 432.873 777.487 430.73C777.991 427.58 778.118 425.564 778.244 423.799C778.496 421.153 778.622 419.389 779.63 415.104V414.852C780.135 411.702 780.009 409.685 780.009 408.047C780.009 405.905 780.009 404.897 781.648 401.242C781.648 401.242 781.648 400.99 781.774 400.864C782.53 398.722 783.539 396.958 784.547 395.445C786.69 391.917 789.464 387.506 783.917 381.331L783.539 381.457Z" fill="white"/>
<path d="M786.816 386.498C780.513 386.498 772.318 386.498 768.788 386.498C771.688 386.498 773.579 386.75 775.092 386.876C775.47 386.876 775.848 386.876 776.226 386.876C778.37 386.876 780.513 386.876 782.656 386.876C784.421 386.75 785.808 386.624 786.816 386.498Z" fill="white"/>
<path d="M880.614 431.613C880.614 431.613 880.614 431.361 880.614 431.235C879.269 427.286 878.261 423.169 877.588 418.885C876.958 414.852 877.21 413.466 877.462 411.072C877.588 409.433 877.841 407.417 877.841 404.141C877.841 399.226 877.841 394.311 877.967 389.397C877.967 385.994 878.219 384.23 878.345 382.34C878.471 380.197 878.723 378.055 878.723 373.392C878.723 369.486 878.723 367.595 878.471 365.705C878.471 363.941 878.219 362.177 878.345 358.648C878.345 353.733 878.345 348.819 878.471 343.904C878.471 339.997 878.723 338.107 878.849 336.217C878.975 334.327 879.227 332.31 879.227 328.53C879.479 303.326 879.858 278.122 880.11 252.919C880.11 248.76 880.11 246.618 879.858 244.601C879.858 242.711 879.606 241.073 879.732 237.544C879.732 233.638 879.984 231.748 880.11 229.857C880.236 227.967 880.488 225.951 880.488 222.17C880.488 217.255 880.488 212.341 880.614 207.426C880.614 203.645 880.614 201.629 880.362 199.739C880.362 197.849 880.11 195.958 880.11 192.052C880.11 186.885 880.236 181.844 880.362 176.678C880.362 173.149 880.614 171.385 880.74 169.621C880.866 167.73 881.118 165.714 881.118 161.933C881.118 156.767 881.245 151.726 881.371 146.559C881.371 142.653 881.371 140.762 881.118 138.872C880.992 137.108 880.866 135.344 880.866 131.815C880.866 127.53 881.118 125.514 881.245 123.498C881.371 121.608 881.623 119.591 881.623 115.937C881.623 112.03 881.623 110.14 881.371 108.25C881.245 106.485 881.118 104.721 881.118 101.193C881.118 96.0259 881.245 90.9851 881.371 85.8184C881.371 82.2899 881.623 80.5256 881.749 78.7613C881.875 76.8711 882.127 74.8548 882.127 71.0742C882.127 65.9075 882.253 60.8667 882.379 55.7C882.379 52.0455 882.127 49.7771 881.875 48.0129C881.497 45.8706 881.371 44.4844 881.875 40.9558C882.631 36.7972 883.136 35.5371 883.892 33.2687C884.27 32.0085 884.901 30.4963 885.531 28.228C886.035 26.3377 887.044 25.0775 888.052 23.6913C889.944 21.297 892.969 17.3904 888.557 11.8456C884.144 5.79673 879.101 7.43497 876.202 8.44311C874.689 8.94719 873.176 9.45126 871.285 9.45126C866.998 9.45126 864.855 9.45126 862.964 9.7033C861.325 9.7033 859.812 9.95533 856.787 9.95533C851.996 9.95533 847.205 9.95533 842.288 9.95533C838.884 9.95533 837.245 9.82931 835.48 9.57728C833.589 9.45126 831.698 9.19922 827.916 9.19922C826.277 9.19922 824.764 8.69515 823.251 8.06506C820.226 6.93089 815.183 5.04062 810.644 10.5854C805.727 16.3823 808.753 20.5409 810.518 23.0612C811.527 24.4474 812.409 25.7076 812.661 27.4719C812.661 27.4719 812.661 27.7239 812.661 27.8499C812.661 27.8499 812.661 28.102 812.787 28.228C813.292 29.6142 813.796 30.7484 814.174 31.6305C815.435 34.7809 815.813 35.5371 816.191 40.3258C816.191 40.3258 816.191 40.4518 816.191 40.5778C816.948 45.3665 816.948 46.7527 816.822 49.7771C816.822 51.1633 816.822 52.8016 816.822 55.3219C816.822 60.4887 816.822 65.5294 816.822 70.6962C816.822 74.2247 816.696 75.9889 816.443 77.7532C816.317 79.6435 816.065 81.6598 816.065 85.4403C816.065 89.5989 816.191 91.7412 816.317 93.7575C816.443 95.6478 816.569 97.286 816.569 100.815C816.569 126.018 816.317 151.222 816.191 176.426C816.191 179.954 816.065 181.592 815.939 183.483C815.813 185.499 815.561 187.515 815.561 191.8C815.561 195.958 815.687 198.101 815.813 200.117C815.939 202.007 816.065 203.646 816.065 207.174C816.065 212.089 816.065 217.003 816.065 221.918C816.065 225.447 815.939 227.085 815.813 228.975C815.687 230.992 815.435 233.008 815.435 237.292C815.435 241.199 815.435 243.089 815.687 244.98C815.813 246.744 815.939 248.508 815.939 252.037C815.813 292.362 815.561 332.814 815.435 373.14C815.435 377.425 815.309 379.441 815.057 381.457C814.931 383.348 814.805 385.364 814.678 389.018C814.678 393.933 814.678 398.848 814.678 403.763C814.678 407.039 814.804 409.055 814.931 410.694C815.183 413.088 815.309 414.474 814.552 418.507C814.552 418.507 814.552 418.633 814.552 418.759C814.174 422.539 813.796 423.8 813.039 425.816C812.535 427.076 811.905 428.714 811.274 431.109C810.77 432.873 809.888 434.133 809.005 435.393C807.24 437.788 804.34 441.694 809.005 447.743C809.005 447.743 809.005 447.743 809.131 447.869C813.922 453.288 818.334 451.398 821.108 450.389C822.495 449.885 823.756 449.381 825.268 449.381C839.01 449.381 852.626 449.633 866.368 449.759C868.133 449.759 869.52 450.389 871.033 451.02C872.293 451.65 874.058 452.406 876.076 452.406C878.219 452.406 880.74 451.524 883.388 448.499C883.388 448.499 883.514 448.373 883.64 448.247C887.296 442.828 884.522 438.922 882.883 436.653C881.875 435.267 880.866 433.881 880.488 431.865L880.614 431.613Z" fill="white"/>
<path d="M1091.03 406.787C1091.28 401.62 1091.41 396.58 1091.66 391.413C1091.79 387.884 1092.04 386.12 1092.16 384.356C1092.42 382.466 1092.67 380.575 1092.79 376.669C1092.92 372.51 1092.79 370.368 1092.79 368.352C1092.79 366.461 1092.67 364.823 1092.79 361.295C1092.92 357.388 1093.17 355.498 1093.42 353.607C1093.68 351.717 1093.93 349.701 1094.05 345.92C1094.18 342.014 1094.05 340.123 1094.05 338.233C1094.05 336.469 1093.93 334.705 1094.05 331.176C1094.18 327.648 1094.43 326.009 1094.56 324.119C1094.81 322.103 1095.06 320.087 1095.19 315.802C1098.34 235.276 1101.62 154.876 1104.77 74.3508C1104.9 69.8141 1104.77 67.5458 1104.77 65.4035C1104.77 63.5132 1104.64 61.7489 1104.77 58.3465C1104.77 55.9521 1105.27 54.4399 1105.53 53.0537C1106.28 50.0292 1106.66 47.5089 1105.15 42.3421C1105.15 42.3421 1105.15 42.0901 1105.15 41.9641C1105.15 41.9641 1105.15 41.712 1105.02 41.712C1103.01 37.4274 1101.24 36.0412 1098.72 34.2769C1097.58 33.5208 1096.58 32.7647 1095.06 31.2525C1093.55 29.6143 1092.79 28.7321 1091.91 27.724C1090.78 26.2118 1089.52 24.6996 1086.24 21.8011C1084.85 20.4149 1084.22 19.2808 1083.59 18.1466C1082.2 15.6262 1080.69 13.4839 1076.15 11.4676C1076.15 11.4676 1076.15 11.4676 1076.03 11.4676C1069.72 9.07328 1066.32 10.0814 1063.29 10.8375C1061.53 11.3416 1059.89 11.7197 1057.12 11.7197C1053.59 11.7197 1051.95 11.3416 1049.93 10.9636C1047.79 10.5855 1045.52 10.2074 1040.85 10.0814C1018.41 9.32532 995.844 8.69523 973.403 8.19115C969.243 8.19115 967.1 8.31717 964.956 8.56921C962.939 8.82124 961.048 9.07328 957.14 8.94726C953.232 8.94726 951.341 8.56921 949.324 8.31717C947.054 7.93912 944.785 7.56106 940.246 7.56106C937.851 7.56106 936.212 6.93097 934.573 6.4269C930.287 5.04069 926.252 4.28458 920.957 9.45134C914.78 13.988 918.058 19.0287 919.697 21.4231C920.579 22.8093 921.462 24.0695 921.714 25.7077V25.9597C921.714 25.9597 921.714 26.0858 921.714 26.2118C922.344 27.976 922.848 29.3622 923.227 30.3704C924.361 33.3948 924.613 34.2769 924.992 38.3095C925.244 42.5942 925.118 44.2324 924.992 46.5007C924.992 48.0129 924.739 49.7772 924.739 52.8016C924.739 58.0944 924.613 63.3872 924.487 68.68C924.487 72.5865 924.487 74.4768 924.613 76.3671C924.613 78.1313 924.865 79.8956 924.739 83.4241C924.613 93.5056 924.361 103.461 924.235 113.542C924.235 117.071 923.983 118.709 923.857 120.6C923.605 122.616 923.479 124.632 923.353 128.917C923.353 132.697 923.353 134.714 923.479 136.604C923.479 138.494 923.731 140.384 923.605 144.291L923.353 159.035C923.353 162.564 923.1 164.328 922.974 166.092C922.848 167.982 922.596 169.999 922.47 173.779C922.47 177.938 922.47 179.954 922.596 182.096C922.596 184.113 922.848 185.877 922.722 189.784C922.722 193.312 922.47 195.076 922.344 196.841C922.218 198.731 921.966 200.747 921.84 204.528C921.84 209.694 921.714 214.735 921.588 219.902C921.588 223.809 921.588 225.699 921.714 227.589C921.714 229.353 921.966 231.118 921.84 234.646C921.84 238.049 921.588 239.813 921.462 241.703C921.209 243.845 921.083 245.988 920.957 250.65C920.957 255.565 920.831 260.48 920.705 265.395C920.705 269.301 920.705 271.191 920.831 273.082C920.831 274.846 921.083 276.61 920.957 280.139C920.705 295.513 920.453 310.887 920.201 326.135C920.201 329.664 919.949 331.428 919.823 333.192C919.697 335.083 919.444 337.099 919.444 340.88C919.444 346.046 919.318 351.087 919.192 356.254C919.192 360.16 919.192 362.051 919.318 363.941C919.318 365.705 919.57 367.469 919.444 370.998C919.318 381.205 919.066 391.413 918.94 401.746C918.94 404.015 918.94 405.527 918.94 406.787C918.94 409.812 918.94 410.946 918.184 415.86C918.184 415.86 918.184 415.987 918.184 416.113C917.679 420.775 917.427 421.657 916.167 424.808C915.788 425.816 915.284 427.076 914.78 428.714C914.78 428.714 914.78 428.84 914.78 428.966V429.218C914.528 430.731 913.645 431.991 912.763 433.377C910.998 436.023 907.846 440.812 913.267 446.357C915.914 449.381 918.436 450.263 920.579 450.263C922.47 450.263 924.235 449.633 925.748 449.129C927.513 448.499 929.152 447.869 931.547 447.995C936.842 447.995 942.137 448.247 947.559 448.373C951.467 448.373 953.358 448.625 955.249 448.877C957.14 449.003 959.157 449.255 962.939 449.381C967.478 449.381 969.747 449.381 971.89 449.381C973.781 449.381 975.547 449.255 978.951 449.381C982.733 449.381 984.624 449.633 986.641 449.885C988.784 450.137 991.053 450.263 995.466 450.39C1005.93 450.642 1016.39 451.02 1026.86 451.272C1031.02 451.398 1033.16 451.272 1035.18 451.272C1037.07 451.272 1038.71 451.146 1042.24 451.272C1044.89 451.272 1046.53 451.776 1048.04 452.154C1051.06 452.91 1053.96 453.666 1060.14 451.65C1060.14 451.65 1060.14 451.65 1060.27 451.65C1064.68 450.011 1066.19 447.995 1067.71 445.601C1068.34 444.467 1068.97 443.459 1070.48 442.072C1073.38 439.3 1076.4 436.654 1079.43 433.881C1079.43 433.881 1079.43 433.881 1079.56 433.755C1081.07 432.243 1082.2 431.613 1083.46 430.857C1086.24 429.344 1088.51 427.706 1090.02 422.918C1091.91 417.877 1091.53 415.23 1091.15 412.458C1090.9 410.946 1090.78 409.434 1090.78 406.913L1091.03 406.787ZM1036.31 141.771C1036.31 143.535 1036.44 145.299 1036.31 148.828C1036.31 152.482 1036.06 154.12 1035.81 155.885C1035.56 157.649 1035.43 159.539 1035.3 162.942C1035.18 168.108 1034.93 173.149 1034.8 178.316C1034.8 182.222 1034.8 184.113 1034.8 186.003C1034.8 187.767 1034.93 189.532 1034.8 193.06C1034.8 196.589 1034.55 198.353 1034.3 200.117C1034.04 202.007 1033.92 203.898 1033.79 207.804C1033.67 212.719 1033.54 217.634 1033.29 222.548C1033.29 226.455 1033.29 228.345 1033.29 230.235C1033.29 232 1033.41 233.764 1033.29 237.292C1032.78 252.037 1032.41 266.781 1031.9 281.651C1031.9 285.179 1031.65 286.818 1031.4 288.708C1031.14 290.724 1030.89 292.741 1030.77 297.025C1030.64 301.94 1030.51 306.855 1030.26 311.769C1030.26 315.298 1030.26 317.062 1030.26 318.826C1030.26 320.591 1030.39 322.355 1030.26 325.883C1029.88 335.965 1029.63 345.92 1029.25 356.002C1029.25 359.656 1029 361.294 1028.75 363.059C1028.5 364.823 1028.37 366.713 1028.24 370.116C1028.24 371.754 1028.24 373.014 1028.24 373.896C1028.24 376.081 1027.61 378.937 1026.35 382.466C1025.6 384.986 1025.47 385.112 1022.95 386.498C1018.79 387.38 1018.66 387.38 1016.27 387.254C1015.39 387.254 1014.12 387.254 1012.36 387.128C1007.82 387.002 1003.16 386.876 998.618 386.75C996.853 386.75 995.718 386.75 994.71 386.75C992.062 386.75 991.81 386.75 988.028 385.616C984.876 383.978 984.498 383.222 983.741 379.819C983.741 379.441 983.489 378.937 983.489 378.559C982.985 376.375 982.775 374.61 982.859 373.266C982.859 372.258 982.859 370.872 982.985 368.856C983.237 359.152 983.489 349.575 983.741 339.871C983.741 336.091 983.741 334.075 983.741 332.184C983.741 330.168 983.615 328.404 983.741 324.497C983.741 320.843 983.993 319.204 984.246 317.44C984.372 315.676 984.624 313.786 984.75 310.383C985.002 300.302 985.254 290.346 985.506 280.265C985.506 276.358 985.506 274.468 985.506 272.578C985.506 270.813 985.254 269.049 985.506 265.521C985.758 255.691 986.011 245.862 986.263 235.906C986.263 232.378 986.515 230.613 986.767 228.849C987.019 226.959 987.145 225.069 987.271 221.162C987.271 217.256 987.271 215.365 987.271 213.475C987.271 211.711 987.019 209.947 987.271 206.418C987.271 202.889 987.523 201.125 987.776 199.361C988.028 197.471 988.154 195.58 988.28 191.674C988.28 187.767 988.28 185.877 988.28 183.987C988.28 182.222 988.154 180.458 988.28 176.93C988.28 173.023 988.532 171.133 988.784 169.243C989.036 167.352 989.162 165.336 989.288 161.555C989.793 142.023 990.297 122.49 990.801 102.957C990.801 100.311 991.053 98.5463 991.053 97.1601C991.306 94.6397 991.432 92.6234 991.053 87.3307C990.927 84.9363 990.675 83.5501 990.549 82.416C990.297 80.5257 990.297 80.3997 991.81 75.737C992.314 74.4768 992.44 74.3508 996.222 72.5865C996.474 72.5865 996.727 72.3345 997.105 72.2085C1001.14 71.3263 1001.39 71.3263 1004.04 71.4524C1005.05 71.4524 1006.31 71.4524 1008.07 71.5784C1011.86 71.5784 1013.75 71.5784 1015.64 71.5784C1017.4 71.5784 1019.04 71.4524 1022.45 71.5784C1024.84 71.5784 1026.35 71.5784 1027.49 71.5784C1029.38 71.5784 1029.63 71.5784 1033.67 72.9646C1033.67 72.9646 1033.67 72.9646 1033.79 72.9646C1035.68 73.5947 1036.31 74.0987 1037.2 77.6273C1038.2 82.668 1038.2 82.668 1038.08 85.0623C1038.08 85.9445 1037.95 87.3307 1037.83 89.2209C1037.7 93.3795 1037.83 95.5219 1037.83 97.5381C1037.83 99.4284 1037.95 101.067 1037.83 104.595C1037.7 109.384 1037.57 114.047 1037.32 118.835C1037.32 122.364 1037.07 124.002 1036.82 125.892C1036.57 127.909 1036.31 129.925 1036.19 134.209C1036.19 138.116 1036.19 140.006 1036.19 141.897L1036.31 141.771Z" fill="white"/>
<path d="M1330.06 450.011C1329.68 448.373 1329.56 447.113 1329.31 446.105C1328.8 443.08 1328.55 441.568 1326.78 437.032C1326.03 434.259 1325.4 432.747 1324.89 431.487C1324.26 429.849 1323.76 428.714 1323.13 425.312C1323.13 425.312 1323.13 425.312 1323.13 425.186C1321.99 420.271 1321.87 418.885 1321.74 415.986C1321.74 414.726 1321.61 413.088 1321.36 410.82C1320.98 405.653 1320.48 400.486 1320.1 395.319C1319.47 387.758 1319.35 387.38 1317.58 380.575C1317.33 377.173 1317.33 375.535 1317.33 373.644C1317.33 371.754 1317.33 369.612 1316.95 365.453C1316.57 360.538 1316.07 355.498 1315.69 350.583C1314.81 345.542 1314.05 340.502 1313.17 335.461C1312.79 330.546 1312.29 325.631 1311.91 320.717V320.465C1311.07 315.592 1310.44 310.719 1310.02 305.846C1309.51 300.932 1309.13 295.891 1308.63 290.976C1308 283.541 1307.87 283.289 1306.74 275.854C1306.23 270.939 1305.86 266.025 1305.35 261.11C1304.97 257.455 1304.72 255.565 1304.34 253.675C1303.96 251.659 1303.71 249.768 1303.33 245.736C1303.33 245.61 1303.33 245.484 1303.33 245.358C1302.58 241.451 1302.58 239.813 1302.45 237.545C1302.45 236.032 1302.33 234.142 1301.95 231.37C1301.57 227.463 1301.19 225.573 1300.94 223.557C1300.56 221.666 1300.31 219.902 1299.93 216.373C1299.68 213.601 1299.55 211.837 1299.55 210.325C1299.55 207.93 1299.3 205.788 1298.54 200.747C1298.04 195.958 1297.53 191.296 1297.16 186.507C1296.65 181.592 1296.15 176.552 1295.77 171.637C1295.77 171.637 1295.77 171.511 1295.77 171.385C1295.27 167.982 1294.76 165.966 1294.51 164.202C1294 161.934 1293.63 160.169 1293.25 156.011C1292.74 151.222 1292.24 146.433 1291.74 141.645C1290.98 134.21 1290.98 133.957 1289.72 126.522C1289.21 121.356 1288.84 116.315 1288.33 111.148C1287.83 106.107 1287.32 104.217 1286.69 101.571C1286.44 100.311 1286.06 98.7984 1285.56 96.53C1285.31 93.7576 1285.18 92.1194 1285.18 90.6072C1285.18 88.2128 1284.93 86.0705 1284.17 81.0298C1283.67 76.1151 1283.16 71.2003 1282.66 66.2856V66.0336C1282.15 63.2612 1281.65 61.623 1281.27 60.2368C1280.64 57.8424 1280.26 56.7082 1280.52 52.0456C1280.77 48.7691 1281.02 48.139 1281.9 46.3747C1282.41 45.2406 1283.16 43.7283 1284.05 41.334C1284.05 41.334 1284.05 41.082 1284.05 40.9559C1284.42 39.4437 1285.43 38.4356 1286.44 37.1754C1288.21 35.1591 1291.99 31.1265 1286.82 25.5817C1281.78 19.6588 1277.11 21.2971 1274.09 22.3052C1272.45 22.8093 1270.93 23.3134 1268.79 23.1874C1265.13 22.9353 1263.24 22.6833 1261.35 22.4312C1259.21 22.1792 1257.07 21.9272 1252.65 21.6751C1248.49 21.4231 1246.48 21.4231 1244.46 21.5491C1242.69 21.5491 1240.93 21.5491 1237.65 21.5491C1233.87 21.2971 1232.1 21.1711 1230.21 20.919C1228.2 20.667 1226.18 20.415 1222.02 20.1629C1219.75 20.1629 1218.11 19.4068 1216.34 18.7767C1212.94 17.5165 1208.28 15.7523 1202.73 20.415C1197.43 24.9516 1200.59 29.7403 1202.22 32.0086C1203.23 33.5209 1204.12 34.9071 1204.37 36.5453C1204.87 39.6958 1205.5 41.46 1206.01 42.8462C1206.51 44.3584 1206.89 45.1145 1206.76 47.887C1206.51 52.2976 1206.13 53.5578 1205.38 55.7001C1204.87 57.0863 1204.24 58.9766 1203.61 61.875C1202.73 66.1596 1202.1 67.6718 1201.34 70.0662C1200.84 71.5784 1200.21 73.3427 1199.32 76.2411C1199.32 76.2411 1199.32 76.4931 1199.32 76.6191C1198.57 80.6517 1198.19 82.794 1197.94 84.5583C1197.69 86.4486 1197.43 88.2128 1196.68 91.7413C1195.92 95.3959 1195.42 97.1601 1194.79 98.9244C1194.28 100.563 1193.78 102.327 1193.02 105.603C1190.88 112.912 1190.75 113.038 1189.24 120.978C1188.23 125.892 1187.22 130.681 1186.09 135.596C1185.08 140.006 1184.57 141.645 1183.69 143.913C1183.19 145.173 1182.68 146.811 1181.8 149.332C1180.67 154.498 1179.66 159.665 1178.52 164.958C1177.77 168.739 1177.51 170.755 1177.26 172.645C1177.01 174.409 1176.76 176.174 1176.13 179.576C1173.98 186.759 1173.98 187.011 1172.47 194.446C1171.71 198.353 1171.21 200.117 1170.71 201.881C1170.2 203.646 1169.7 205.41 1168.94 209.064C1167.93 213.853 1166.76 218.642 1165.41 223.43V223.683C1164.65 227.589 1164.4 229.479 1164.15 231.496C1163.9 233.26 1163.65 235.276 1163.02 238.931C1162.26 242.585 1161.76 244.35 1161.25 246.114C1160.75 247.752 1160.24 249.516 1159.49 252.793C1157.34 260.102 1157.34 260.228 1155.83 267.663C1154.82 272.704 1153.81 277.744 1152.8 282.911C1152.17 286.314 1151.54 287.952 1150.91 289.59C1150.16 291.48 1149.53 293.497 1148.64 297.403C1147.89 300.68 1147.76 302.696 1147.64 304.46C1147.51 306.477 1147.38 308.241 1146.25 311.895C1145.24 316.81 1144.23 321.725 1143.22 326.639C1142.47 329.286 1141.96 330.924 1141.46 332.31C1140.7 334.705 1140.07 336.595 1139.06 341.384C1138.31 345.29 1138.05 347.18 1137.8 349.197C1137.55 351.087 1137.3 352.977 1136.67 356.632C1135.74 361.421 1134.61 365.999 1133.26 370.368C1133.26 370.368 1133.26 370.62 1133.26 370.746C1132.51 374.274 1132.13 375.913 1131.62 377.803C1131.12 379.693 1130.62 381.583 1129.73 385.364C1128.98 389.271 1128.72 391.161 1128.47 393.177C1128.22 394.941 1128.09 396.832 1127.34 400.486C1125.95 405.149 1124.69 409.686 1123.3 414.348C1123.3 414.348 1123.3 414.474 1123.3 414.6C1122.55 418.129 1122.04 419.137 1121.03 420.901C1120.4 422.161 1119.52 423.674 1118.39 426.194C1117 430.353 1115.74 434.511 1114.35 438.67C1113.72 440.182 1112.59 441.19 1111.58 442.324C1109.44 444.341 1105.65 448.247 1109.69 454.548C1109.69 454.674 1109.81 454.8 1109.94 454.926C1114.48 460.471 1119.14 458.581 1121.92 457.573C1123.43 456.942 1124.82 456.438 1126.71 456.438C1135.78 456.816 1144.99 457.32 1154.06 457.699C1157.34 457.825 1158.86 458.077 1160.49 458.329C1162.26 458.581 1164.02 458.833 1167.68 458.959C1169.57 458.959 1171.08 459.715 1172.6 460.471C1173.86 461.101 1175.75 461.857 1177.77 461.983C1180.16 461.983 1182.68 461.227 1184.95 457.825C1184.95 457.825 1185.08 457.573 1185.2 457.447C1188.86 450.516 1185.96 446.231 1183.94 443.08C1182.56 441.064 1181.55 439.552 1181.55 437.032C1181.55 432.999 1181.93 431.991 1182.94 429.722C1183.57 428.336 1184.2 426.698 1184.95 424.304V424.052C1185.71 420.523 1185.96 418.759 1186.21 416.995C1186.47 415.356 1186.59 413.718 1187.35 410.442C1188.1 407.039 1188.48 405.653 1188.99 404.141C1189.49 402.503 1190.12 400.864 1190.88 397.084C1192.89 390.405 1193.02 390.027 1193.9 383.222C1194.91 378.811 1195.92 374.274 1196.93 369.864C1197.31 368.1 1197.56 366.839 1197.81 365.705C1198.44 362.555 1198.69 361.421 1200.84 357.388C1201.47 356.254 1201.85 355.372 1202.1 354.742C1202.22 354.364 1202.48 353.985 1202.6 353.733C1203.11 353.481 1204.49 353.103 1205 352.977C1205 352.977 1205 352.977 1205.12 352.977C1209.41 351.591 1210.55 351.843 1213.44 352.221C1214.96 352.473 1216.72 352.725 1219.24 352.851C1224.67 353.103 1230.09 353.481 1235.38 353.733C1238.15 353.859 1240.17 353.733 1241.68 353.733C1244.58 353.733 1245.59 353.607 1249.25 355.372C1249.38 355.372 1249.5 355.372 1249.63 355.498C1250.26 355.75 1251.9 356.254 1252.53 356.632C1252.53 356.884 1252.78 357.262 1252.91 357.514C1253.16 358.144 1253.41 358.9 1253.79 359.782C1255.05 363.185 1255.17 364.445 1255.43 366.587C1255.43 368.1 1255.68 369.864 1256.18 372.636C1257.19 381.71 1258.2 390.909 1259.08 399.982C1259.08 399.982 1259.08 400.234 1259.08 400.36C1259.92 404.813 1260.6 409.476 1261.1 414.348C1261.6 418.885 1262.11 423.548 1262.61 428.084C1262.99 431.235 1263.5 433.125 1263.87 434.637C1264.38 436.654 1264.76 437.914 1264.63 441.568C1264.25 443.963 1262.99 445.349 1261.6 447.113C1259.34 449.885 1255.93 453.918 1259.34 460.975C1262.36 468.41 1268.29 466.268 1270.93 465.26C1272.57 464.63 1274.21 464.125 1275.98 464.252C1284.93 464.756 1293.88 465.386 1302.7 466.016C1305.86 466.268 1307.49 466.52 1309.13 466.772C1311.02 467.024 1312.92 467.402 1316.82 467.654C1318.59 467.654 1319.98 468.41 1321.36 469.04C1324.14 470.3 1328.67 472.317 1333.34 466.52C1337.5 461.101 1334.6 456.942 1332.84 454.548C1331.83 453.288 1330.94 452.028 1330.44 450.263L1330.06 450.011ZM1244.71 291.228C1244.71 291.228 1244.46 291.228 1244.21 291.228C1240.05 291.606 1238.66 291.354 1236.26 291.102C1234.75 290.85 1232.73 290.598 1229.71 290.346C1224.92 290.094 1220.25 289.842 1215.46 289.59C1215.21 289.59 1214.96 289.59 1214.71 289.464C1215.08 282.659 1215.08 282.533 1216.6 275.728C1216.97 274.468 1217.23 273.46 1217.48 272.578C1218.74 268.545 1218.99 267.663 1220.25 261.488C1221.26 256.447 1222.4 251.407 1223.4 246.366C1224.03 243.467 1224.67 241.955 1225.3 240.317C1226.05 238.427 1226.81 236.41 1227.69 232.378C1228.45 228.849 1228.83 226.833 1229.08 224.943C1229.33 223.178 1229.58 221.414 1230.34 218.264C1230.97 215.239 1231.47 213.349 1231.85 211.837C1232.48 209.442 1232.99 207.552 1233.62 203.142C1234.88 198.857 1235.26 196.967 1235.63 194.698C1235.89 197.471 1236.14 200.369 1236.39 203.142C1236.52 210.451 1236.52 210.703 1237.27 218.642C1237.27 218.642 1237.27 218.894 1237.27 219.02C1237.9 222.17 1238.28 224.061 1238.66 225.447C1239.16 227.589 1239.54 228.975 1239.92 233.008C1240.3 236.536 1240.3 238.301 1240.3 240.191C1240.3 242.081 1240.3 244.097 1240.8 248.004C1241.56 254.935 1241.56 254.935 1242.95 263C1243.45 267.789 1243.95 272.452 1244.46 277.24C1244.46 278.374 1244.71 279.257 1244.71 280.013C1244.96 282.869 1244.96 286.146 1244.71 289.842C1244.71 290.598 1244.71 291.102 1244.58 291.354L1244.71 291.228Z" fill="white"/>
<path d="M1556.61 47.257C1556.61 47.257 1556.61 47.131 1556.61 47.0049C1551.95 39.8219 1546.02 41.2081 1542.24 42.0902C1540.22 42.5943 1538.33 43.0984 1535.94 42.8463C1531.4 42.4683 1529.13 42.5943 1526.86 42.5943C1524.84 42.5943 1522.95 42.7203 1519.04 42.4683C1515.01 42.0902 1512.99 41.8382 1510.98 41.4601C1508.83 41.0821 1506.69 40.83 1502.28 40.452C1496.86 39.9479 1491.43 39.5699 1486.01 39.0658C1483.37 38.8138 1481.22 37.8056 1479.08 36.9235C1475.55 35.2852 1469.62 32.5128 1464.58 39.3178C1464.58 39.3178 1464.58 39.3178 1464.58 39.4438C1459.92 46.2488 1463.7 50.7855 1466.22 53.6839C1468.11 55.9523 1469.62 57.5905 1469.5 60.867C1469.5 64.3955 1469.12 65.2776 1467.98 67.5459C1467.35 68.9321 1466.47 70.6964 1465.59 73.4688C1462.69 80.0217 1462.56 80.1478 1460.29 86.8267C1459.03 90.4813 1458.28 91.8675 1457.39 93.8838C1456.64 95.396 1455.76 97.1602 1454.49 100.311C1452.86 104.973 1451.34 109.636 1449.7 114.299C1446.8 120.852 1446.68 121.104 1444.28 128.287C1443.02 131.815 1442.64 133.58 1442.14 135.218C1441.76 136.856 1441.26 138.368 1440.25 141.519C1439.37 143.913 1438.74 145.425 1438.11 146.685C1436.97 149.458 1436.47 150.592 1434.83 156.011C1433.31 160.295 1431.63 164.58 1429.78 168.865C1428.78 171.637 1427.89 174.536 1426.88 177.308C1426.38 174.409 1425.88 171.637 1425.5 168.739C1424.87 165.084 1424.36 163.32 1423.86 161.43C1423.35 159.665 1422.98 158.027 1422.35 154.751V154.499C1421.59 151.348 1421.46 149.71 1421.21 147.694C1421.09 145.677 1420.96 143.409 1419.95 139.628C1419.32 136.1 1418.82 134.336 1418.31 132.445C1417.81 130.681 1417.43 129.043 1416.8 125.766V125.514C1415.79 121.608 1415.54 119.97 1415.29 117.701C1415.16 116.063 1414.91 114.299 1414.4 111.4C1413.14 104.469 1413.14 104.343 1411.38 97.0342C1411 92.1195 1410.5 90.3553 1409.99 87.7089C1409.74 86.3227 1409.36 84.8104 1408.86 82.5421C1408.35 79.8957 1408.1 78.2575 1407.97 76.8713C1407.72 74.603 1407.47 72.7127 1406.34 68.05C1405.7 64.8996 1404.95 63.0093 1404.19 61.4971C1403.44 59.7328 1402.93 58.7246 1403.18 55.5742C1403.81 52.4237 1405.45 50.7855 1407.34 48.8952C1410.12 46.2488 1413.9 42.5943 1410.87 35.2852C1407.47 27.4721 1400.91 29.1103 1397.01 29.9925C1394.86 30.4965 1392.72 31.0006 1390.32 30.8746C1385.91 30.4965 1383.64 30.4965 1381.5 30.4965C1379.61 30.4965 1377.72 30.4965 1374.06 30.2445C1369.52 29.8665 1367.38 29.6144 1365.24 29.3624C1363.22 29.1103 1361.08 28.7323 1357.17 28.4803C1352.75 28.2282 1350.61 28.2282 1348.47 28.2282C1346.32 28.2282 1344.43 28.2282 1340.4 27.9762C1338 27.8502 1336.24 26.968 1334.35 26.2119C1330.94 24.6997 1325.9 22.4314 1320.23 27.9762C1318.34 29.6144 1317.33 31.5047 1317.45 33.395C1317.45 36.5454 1320.1 38.4357 1322.12 39.9479C1323.63 41.0821 1325.14 42.2162 1325.9 43.7285C1325.9 43.8545 1326.03 44.1065 1326.15 44.2325C1326.15 44.3586 1326.41 44.4846 1326.53 44.6106C1327.16 45.4927 1327.79 46.1228 1328.3 46.7529C1330.57 49.5253 1330.94 49.9034 1332.46 54.062C1332.46 54.062 1332.46 54.314 1332.46 54.44C1334.73 59.3547 1334.85 60.2369 1335.36 63.5133C1335.48 64.5215 1335.73 65.7817 1336.11 67.5459C1336.11 67.5459 1336.11 67.672 1336.11 67.798C1337 71.2005 1337.25 73.0907 1337.63 74.981C1338 77.1233 1338.26 79.1396 1339.39 82.9202C1340.15 85.6926 1340.78 87.4568 1341.16 88.843C1341.91 91.1114 1342.42 92.4976 1343.17 96.5302C1344.43 101.193 1345.69 105.982 1347.08 110.644C1347.33 111.904 1347.46 112.913 1347.71 113.795C1348.47 117.953 1348.72 119.465 1350.36 125.262C1351.37 129.547 1351.62 131.185 1351.87 133.328C1352.12 134.84 1352.25 136.604 1352.88 139.502V139.754V140.006C1354.48 144.459 1355.65 149.08 1356.41 153.868C1356.41 153.868 1356.41 154.121 1356.41 154.247C1358.3 161.178 1358.3 161.43 1360.7 168.235C1361.96 174.914 1361.96 175.166 1363.85 182.097C1365.03 186.633 1366.03 191.506 1366.87 196.715C1366.87 196.715 1366.87 196.715 1366.87 196.841C1368.14 203.898 1368.26 204.15 1370.66 211.081C1371.16 213.601 1371.29 215.113 1371.41 216.5C1371.67 218.768 1371.92 220.658 1373.05 225.447C1373.81 228.219 1374.31 229.984 1374.82 231.37C1375.57 233.638 1375.95 235.024 1376.71 239.057C1377.46 243.215 1377.97 245.232 1378.73 247.374C1379.23 248.886 1379.73 250.651 1380.36 253.675C1381.12 258.464 1382 263.252 1382.76 268.041C1382.76 268.041 1382.76 268.293 1382.76 268.419C1383.52 271.444 1384.27 273.208 1384.9 274.594C1385.79 276.484 1386.16 277.618 1386.29 281.399C1386.29 281.399 1386.29 281.651 1386.29 281.777C1386.67 286.314 1386.54 287.7 1386.29 290.598C1386.16 291.859 1386.04 293.371 1385.79 295.387C1385.53 299.294 1385.16 301.184 1384.9 303.074C1384.65 304.838 1384.4 306.729 1384.02 310.131C1382.51 329.538 1381.12 349.071 1379.61 368.478C1379.36 372.006 1379.36 373.77 1379.36 375.535C1379.36 377.299 1379.36 379.063 1379.1 382.592C1378.85 385.742 1378.6 387.254 1378.35 389.019C1378.1 391.035 1377.72 393.051 1377.34 397.336C1376.58 406.913 1375.83 416.617 1375.2 426.194C1374.94 428.84 1374.94 430.479 1374.94 431.991C1374.94 434.259 1374.94 435.898 1374.19 440.56C1373.05 444.971 1372.67 445.853 1371.29 448.499C1370.78 449.508 1370.15 450.768 1369.4 452.406C1369.4 452.406 1369.4 452.658 1369.27 452.784C1369.27 452.784 1369.27 453.036 1369.27 453.162C1368.89 454.926 1367.88 456.06 1366.87 457.447C1364.98 459.841 1361.83 463.748 1365.99 469.922C1368.39 473.325 1370.91 474.459 1373.18 474.711C1374.94 474.837 1376.71 474.333 1377.97 473.955C1379.48 473.577 1380.87 473.199 1382.63 473.325C1386.29 473.577 1388.05 473.577 1389.82 473.577C1391.33 473.577 1392.85 473.577 1395.75 473.829C1405.07 474.585 1414.28 475.341 1423.61 476.097C1425.12 476.223 1426.38 476.853 1427.64 477.484C1430.29 478.744 1434.58 481.012 1439.74 476.097C1439.74 476.097 1439.87 475.971 1440 475.845C1440 475.845 1440.12 475.593 1440.25 475.593C1444.28 470.049 1442.14 466.142 1440.63 463.243C1439.87 461.857 1439.24 460.471 1438.74 458.707C1438.36 455.682 1437.85 453.792 1437.35 452.28C1436.84 450.516 1436.47 449.255 1436.47 445.979C1436.47 445.979 1436.47 445.727 1436.47 445.601C1436.47 445.601 1436.47 445.349 1436.47 445.223C1435.84 441.568 1436.21 440.182 1436.72 437.788C1437.1 436.276 1437.47 434.259 1437.73 431.487C1439.37 412.458 1440.88 393.303 1442.52 374.275C1442.77 371.124 1443.02 369.486 1443.27 367.848C1443.65 365.957 1443.9 364.067 1444.28 360.161C1444.53 356.632 1444.54 354.742 1444.54 352.977C1444.54 351.339 1444.54 349.701 1444.79 346.551C1445.17 341.636 1445.67 336.721 1446.05 331.806C1446.3 328.278 1446.68 326.514 1446.93 324.749C1447.18 322.985 1447.56 321.221 1447.81 317.692C1448.44 310.257 1448.44 310.131 1448.44 303.326C1448.57 301.184 1448.7 299.672 1448.82 298.412C1448.95 295.387 1449.07 294.253 1450.21 289.464C1451.22 285.306 1451.72 284.045 1452.6 282.029C1453.11 280.769 1453.74 279.257 1454.75 276.61C1457.65 269.553 1457.77 269.301 1460.04 262.874C1463.95 254.179 1467.73 245.358 1471.64 236.663C1471.64 236.663 1471.64 236.663 1471.64 236.537C1473.41 231.874 1474.04 229.858 1474.67 227.715C1475.04 226.203 1475.55 224.691 1476.43 222.17C1477.82 219.146 1478.57 217.634 1479.46 215.996C1480.34 214.357 1481.35 212.593 1482.86 209.191C1484.75 204.906 1485.26 203.016 1486.01 200.621C1486.39 199.235 1486.9 197.723 1487.65 195.329C1491.06 189.028 1491.18 188.776 1494.08 182.223C1494.08 182.223 1494.08 181.971 1494.21 181.845C1495.8 177.14 1497.57 172.645 1499.5 168.361C1501.39 163.95 1501.9 162.06 1502.65 159.791C1503.03 158.531 1503.54 157.019 1504.29 154.625C1507.82 148.198 1507.95 147.946 1510.34 141.141C1511.48 137.864 1512.24 136.604 1513.24 135.092C1514.25 133.454 1515.51 131.689 1516.9 128.035C1518.54 123.372 1520.05 118.709 1521.69 113.921C1524.21 109.258 1524.84 107.62 1525.73 104.847C1526.1 103.713 1526.48 102.453 1527.11 100.563C1528.37 97.6643 1529.26 96.2781 1530.14 94.8919C1531.27 93.0016 1532.41 91.1114 1533.92 86.8267C1534.55 85.1885 1534.93 84.0543 1535.31 83.0462C1536.32 79.8957 1536.69 79.0136 1539.59 74.4769C1539.59 74.3509 1539.72 74.2249 1539.85 74.0989C1541.86 70.0663 1542.62 69.1842 1544.51 66.7898C1545.27 65.9077 1546.02 64.8995 1547.16 63.5133C1547.16 63.5133 1547.16 63.5134 1547.16 63.3873C1548.29 61.7491 1550.06 60.6149 1551.82 59.6068C1554.47 57.9685 1560.02 54.566 1556.24 48.0131L1556.61 47.257Z" fill="white"/>
</g>
<defs>
<clipPath id="clip0_22600_197">
<rect width="1558" height="495" fill="white"/>
</clipPath>
</defs>
</svg>
