<svg width="1496" height="615" viewBox="0 0 1496 615" fill="none" xmlns="http://www.w3.org/2000/svg">
<g clip-path="url(#clip0_22600_339)">
<path d="M266.724 0H163.756L94.8354 219.387V0H0V590.869L94.9732 541.779V294.676L121.715 378.928L150.11 468.558L173.267 541.779H275.408L174.095 257.445L266.724 0ZM27.5684 27.5785H67.4048V390.925C54.1719 393.959 40.9391 396.992 27.5684 400.164V27.5785ZM183.743 366.38C172.165 368.586 160.586 370.931 148.869 373.413L121.301 286.402L112.066 257.307L121.301 227.798L184.157 27.5785H227.577L148.18 248.068L144.872 257.307L148.18 266.546L183.743 366.242V366.38Z" fill="white"/>
<path d="M326.41 341.146V541.779H501.332V457.803H421.383V300.192H501.332V224.902H421.383V79.9776H501.332V0H326.41V341.146ZM473.901 27.5785V52.3991H393.953V252.481H473.901V272.613H393.953V331.355C380.72 333.148 367.487 335.078 354.116 337.009V27.5785H473.901Z" fill="white"/>
<path d="M870.611 273.992L821.539 0H731.252L861.099 541.641H880.949L1010.8 0H920.509L870.611 273.992ZM852.553 296.744C847.315 296.744 836.15 297.02 830.912 297.158L766.264 27.5785H798.519M943.529 27.5785H975.784L911.55 295.503C905.898 295.503 894.319 295.641 888.668 295.779" fill="white"/>
<path d="M1068.69 294.124V615.138L1163.66 541.779V0H1068.69V294.124ZM1136.23 27.5785V293.573C1123 293.573 1109.77 293.849 1096.4 293.849V27.5785H1136.23Z" fill="white"/>
<path d="M1401.03 0V255.79L1257.81 0H1241.13V291.78V541.641H1336.1V281.852L1479.46 541.641H1496.14V0H1401.16H1401.03ZM1312.67 208.217V287.781C1296.82 289.022 1280.69 289.988 1264.56 290.815V60.1211L1393.45 280.611C1385.31 281.576 1366.84 282.404 1358.57 283.231L1312.67 208.217ZM1424.46 276.198V23.4417H1472.57V269.166C1456.71 271.648 1440.73 273.992 1424.46 276.198Z" fill="white"/>
<path d="M664.123 304.328V0H569.15V311.499V541.641H744.071V457.665H664.123V304.328ZM596.718 27.5785H636.555V306.259C623.322 307.224 610.089 308.189 596.718 309.293V27.5785Z" fill="white"/>
</g>
<defs>
<clipPath id="clip0_22600_339">
<rect width="1496" height="615" fill="white"/>
</clipPath>
</defs>
</svg>
