<svg width="1689" height="479" viewBox="0 0 1689 479" fill="none" xmlns="http://www.w3.org/2000/svg">
<g clip-path="url(#clip0_22600_330)">
<path d="M1686 424.766C1681.82 424.23 1675.18 424.122 1670.79 423.908C1647.76 423.265 1623.44 424.766 1600.73 424.766C1591.73 424.766 1582.63 424.23 1573.52 424.766C1577.38 418.978 1586.91 416.084 1591.2 411.689C1593.98 408.902 1593.13 405.58 1593.34 405.365C1594.52 404.508 1597.09 404.937 1599.55 402.364C1602.02 399.792 1604.16 392.289 1605.66 389.288C1606.3 388.109 1612.19 384.25 1612.41 383.822C1612.62 383.393 1612.3 375.354 1612.94 373.318C1614.01 370.102 1620.87 358.848 1622.05 355.097C1622.91 352.31 1621.83 343.199 1623.76 339.341L1620.98 339.984L1625.16 327.444L1620.98 326.693C1622.69 322.942 1620.55 316.511 1622.37 313.724C1623.01 312.759 1625.05 312.867 1625.05 312.116C1624.94 309.437 1623.87 302.47 1623.23 300.005C1622.58 297.432 1619.26 297.647 1618.73 293.252C1616.69 276.21 1613.91 267.314 1605.55 252.201C1604.59 250.486 1601.48 249.843 1602.77 244.27C1598.16 247.914 1598.59 239.554 1597.2 236.874C1592.91 229.05 1584.77 219.832 1577.81 214.687C1577.49 214.473 1578.56 210.829 1576.2 207.506C1574.59 205.255 1565.81 196.788 1563.13 194.43C1562.06 193.465 1559.92 193.572 1558.74 192.608C1556.49 190.571 1555.74 186.605 1552.42 185.533C1554.03 190.142 1546.63 192.393 1545.46 194.644C1544.17 197.109 1547.71 197.216 1548.99 196.788C1549.96 196.466 1550.17 193.787 1551.03 193.251C1556.92 189.392 1558.74 201.825 1552.53 203.004C1555.2 206.648 1559.49 201.182 1562.27 205.791L1559.38 214.794C1556.7 212.758 1547.38 220.368 1549.74 223.262C1553.7 223.047 1553.28 219.618 1557.88 218.117C1563.13 216.402 1569.34 216.081 1574.91 216.295C1575.45 216.724 1572.13 224.762 1571.27 225.941C1569.88 228.085 1564.1 231.836 1561.95 233.551C1557.77 236.767 1552.95 237.303 1551.13 242.876C1556.38 242.34 1559.27 237.731 1564.1 235.588C1569.77 233.015 1574.27 233.766 1578.13 232.908C1579.95 232.48 1580.7 229.586 1583.38 230.336L1581.98 235.909C1589.05 232.694 1590.77 237.517 1587.66 243.627L1589.7 245.556L1593.23 244.27L1592.59 247.164L1596.02 249.2C1594.41 251.987 1578.34 258.846 1581.98 262.491C1589.8 262.169 1591.73 253.059 1600.09 254.13C1599.34 256.703 1601.59 259.811 1601.48 261.633C1601.48 262.384 1599.66 262.491 1599.23 263.027C1598.59 264.098 1598.7 265.813 1598.27 266.242C1596.66 267.85 1589.48 271.494 1587.34 272.995C1585.84 274.066 1587.45 276.103 1587.34 276.21C1586.48 276.96 1581.23 276.853 1579.2 278.461C1573.84 282.855 1579.95 284.463 1584.77 282.32C1588.52 280.712 1589.8 277.175 1590.66 276.746C1593.23 275.353 1603.52 275.46 1601.59 269.35L1607.16 271.708L1608.55 279.104H1605.34L1604.37 284.678L1605.77 280.497L1610.69 281.891C1612.51 284.463 1610.8 293.252 1611.66 296.682C1611.87 297.432 1614.23 297.218 1614.12 297.968C1613.8 303.006 1606.19 300.969 1607.16 305.685L1614.12 306.436L1611.44 315.332C1618.94 317.154 1611.12 326.157 1615.3 331.624C1610.69 332.91 1614.23 337.626 1614.01 342.663C1613.26 361.206 1605.02 373.639 1596.98 388.323C1594.2 393.361 1594.95 398.827 1588.73 403.436C1588.41 403.65 1586.81 402.257 1586.48 402.579C1585.84 403.115 1581.66 409.224 1579.63 410.617C1574.81 413.94 1568.59 416.834 1562.7 419.728C1562.27 419.514 1561.85 419.514 1561.2 419.514C1539.78 420.157 1518.35 420.907 1497.04 421.443C1498.11 419.406 1499.18 416.834 1497.57 414.905C1493.72 415.869 1494.68 419.192 1493.07 420.478C1492.54 420.907 1492 421.228 1491.36 421.657C1487.93 421.657 1484.4 421.872 1480.97 421.872C1473.47 421.979 1465.86 421.872 1458.37 421.014C1457.08 420.907 1456.01 421.657 1455.37 422.729L1454.29 421.872L1453.76 419.085C1458.26 416.405 1462.65 410.725 1467.79 408.474C1469.51 407.723 1471.54 409.224 1471.76 409.01C1472.18 408.688 1476.9 399.042 1472.61 400.757L1463.94 406.009L1458.47 402.15L1455.15 403.543V392.396L1457.94 393.79L1459.97 388.109L1478.93 375.569L1462.22 379.856L1463.51 382.428C1455.79 382 1460.29 389.502 1453.76 388.002C1453.76 381.142 1457.19 381.571 1460.72 376.855C1456.65 377.498 1458.58 373.854 1457.83 372.353C1456.76 370.317 1453.87 372.139 1456.22 367.208C1450.87 366.994 1455.79 365.708 1456.01 363.564C1456.01 362.921 1452.47 353.06 1452.05 351.131C1451.72 349.523 1449.9 349.63 1453.01 347.487C1454.08 347.272 1462.54 350.809 1463.83 351.667C1465.22 352.524 1465.22 355.204 1467.04 355.633C1474.43 357.348 1486.22 358.848 1495 357.455C1496.07 362.492 1501 358.419 1506.03 358.634C1509.89 358.848 1513 361.42 1516.85 361.206C1523.82 360.777 1538.17 353.596 1543.53 348.987C1546.53 346.415 1548.88 338.269 1548.78 334.303C1548.78 325.836 1545.67 318.976 1544.6 311.795C1543.96 307.4 1546.42 305.257 1547.17 301.505C1540.96 304.614 1542.99 300.326 1541.17 296.682C1540.74 295.825 1539.56 295.932 1539.35 295.181C1538.6 293.252 1538.81 288.107 1538.49 287.893C1537.96 287.25 1536.24 287.679 1536.03 287.572C1535.17 286.607 1540.53 283.499 1541.6 282.32C1542.46 281.355 1544.38 278.461 1540.96 279.211C1536.78 282.32 1529.82 283.499 1524.89 281.998C1523.71 287.893 1528.96 291.216 1531.64 295.503C1534.32 299.683 1535.17 300.326 1537.31 303.113C1537.74 303.649 1535.07 307.186 1535.28 309.222C1535.39 310.509 1539.14 319.083 1539.78 321.977C1540.1 323.799 1538.6 325.729 1538.81 327.229C1538.81 328.194 1541.17 327.872 1541.39 328.73C1542.46 333.017 1539.24 337.947 1539.56 342.128C1535.17 342.878 1532.6 347.38 1529.6 348.88C1516.96 355.525 1496.29 352.524 1482.9 349.523C1473.68 347.487 1466.29 342.878 1458.58 339.877C1456.54 339.019 1447.22 339.448 1445.3 341.377L1443.9 420.8C1441.87 422.943 1439.4 424.122 1436.73 424.551C1436.41 424.23 1436.08 423.908 1435.66 423.694C1434.48 423.158 1433.41 422.622 1432.23 422.193C1423.87 414.69 1436.94 399.149 1429.87 390.36C1429.66 389.502 1432.44 390.467 1432.76 387.68C1434.05 378.462 1431.58 366.458 1431.58 356.812C1431.58 332.052 1431.69 308.472 1429.87 283.927C1429.87 283.284 1432.12 283.391 1432.33 282.641C1434.16 272.566 1429.66 258.203 1432.66 247.807L1429.87 246.306C1435.55 239.982 1430.41 229.693 1430.51 222.512C1430.62 212.972 1434.37 210.186 1431.37 200.003C1431.05 199.038 1432.66 184.998 1432.23 180.71C1429.44 156.38 1431.8 122.188 1432.87 96.7861C1433.19 88.4258 1433.19 72.7771 1432.87 64.5241C1432.66 59.7008 1429.23 57.45 1429.87 52.6268H1509.46L1490.61 62.3804C1464.69 79.5297 1452.47 106.54 1451.51 136.765C1451.3 143.089 1451.72 143.732 1451.94 148.77C1452.15 153.486 1450.97 158.845 1452.26 163.775L1455.04 163.025C1448.83 171.278 1469.29 217.367 1472.61 217.688C1478.08 218.117 1478.61 210.829 1480.75 209.114C1487.18 203.969 1487.18 208.363 1494.36 198.288C1494.79 197.752 1504.96 195.18 1507.21 193.894C1508.93 192.929 1507.53 190.464 1508.93 189.499C1510 188.749 1519.32 188.642 1516.53 182.64H1523.39C1524.57 180.174 1523.6 177.709 1523.82 175.351C1524.03 173.207 1528.53 172.028 1523.5 170.099C1522 171.814 1517.07 180.282 1516.53 180.603C1513.43 182.747 1500.57 187.248 1496.29 189.821C1494.89 190.678 1489.97 196.252 1488.36 197.216C1487.72 197.645 1477.22 202.04 1476.68 202.04C1474.01 202.04 1468.33 200.325 1468.97 196.68C1471.86 196.895 1474.97 195.394 1475.93 192.5L1468.97 188.963C1469.61 186.284 1486.43 175.673 1489.97 173.851C1491.47 172.993 1495.43 175.673 1495.54 170.099C1498 169.67 1497.14 174.494 1496.61 175.351C1495.75 176.852 1486.75 180.817 1484.29 179.853L1485.47 182.425C1480.65 184.569 1476.36 185.641 1474.43 191C1478.08 192.072 1479.15 188.213 1480.43 187.356C1491.57 180.067 1514.39 171.6 1526.6 165.919C1527.67 165.383 1527.89 161.203 1533.14 163.132C1537.96 177.173 1527.24 169.67 1524.78 178.459L1543.53 175.673L1547.17 179.853L1538.71 159.595L1541.6 158.095C1535.39 155.308 1544.81 139.874 1547.17 138.48C1549.53 137.087 1552.2 138.266 1554.56 137.73C1555.2 137.623 1563.88 130.227 1565.38 128.941L1578.77 122.832L1606.52 127.655C1606.52 127.012 1606.3 126.369 1606.3 125.725C1605.87 122.188 1606.09 118.33 1608.34 115.436C1607.69 98.8226 1610.37 80.1727 1608.66 64.2025C1608.23 60.5583 1606.3 58.5218 1605.87 55.1992C1610.16 52.7339 1616.91 56.9141 1617.76 52.3052C1619.69 52.6268 1621.83 53.2699 1623.87 54.0201C1625.15 52.7339 1626.98 51.9837 1629.33 51.9837C1637.15 51.9837 1644.97 51.3406 1652.79 51.5549L1653.33 51.019C1648.4 52.6268 1644.22 49.4113 1640.58 48.8754C1637.26 48.4466 1628.69 51.3406 1629.55 46.8389L1626.76 49.6256C1626.87 48.5538 1626.87 47.3748 1625.69 46.9461C1614.87 42.6588 1593.98 44.2665 1582.63 45.3383L1581.23 42.5516C1577.16 44.5881 1574.16 44.1593 1570.09 42.5516L1570.74 46.7317L1567.09 42.5516C1556.81 43.0875 1545.88 46.7317 1535.81 43.8378V48.0179H1523.28L1521.89 43.8378C1521.25 51.4478 1515.46 43.1947 1514.18 49.4113H1511.39C1510.43 49.0897 1510.43 46.0886 1508.39 45.3383C1502.71 43.409 1467.36 45.6599 1458.9 46.0886C1456.97 46.0886 1455.26 45.2311 1453.44 45.124L1454.08 49.3041C1451.19 49.84 1451.51 45.9814 1449.9 45.3383C1445.08 43.409 1434.05 48.9825 1429.66 44.3737V8.14589C1429.44 5.78787 1429.34 3.42985 1429.34 1.07183C1429.12 0.75028 1429.01 0.321548 1428.8 0C1428.59 0.214366 1428.48 0.428731 1428.26 0.535914V45.0168C1428.26 45.0168 1425.91 47.5892 1425.48 47.1604C1425.16 40.8367 1424.09 46.6245 1423.44 46.8389C1420.66 48.0179 1413.7 45.7671 1410.7 45.7671C1399.88 45.6599 1387.13 48.1251 1377.17 44.3737C1375.88 50.0544 1375.56 45.124 1373.1 44.9096C1371.6 44.8024 1369.78 46.5173 1368.38 46.4102C1361.42 46.303 1355.85 46.8389 1349.42 46.9461C1346.42 46.9461 1331.32 45.124 1330.46 45.7671L1331.1 49.9472L1329.07 45.7671C1325.21 47.1604 1321.36 45.9814 1317.5 46.303C1306.14 47.1604 1295.43 47.0533 1283.65 47.0533C1276.36 47.0533 1269.29 44.5881 1261.9 47.1604L1261.26 49.9472L1258.47 45.7671H1256.44L1256.33 48.4466L1248.62 44.4809C1247.55 48.7682 1240.37 47.1604 1237.48 44.4809L1236.19 47.2676C1230.73 41.9085 1223.12 46.8389 1218.3 46.8389C1206.41 46.8389 1193.67 45.0168 1181.56 45.7671C1177.06 46.0886 1175.35 49.9472 1169.13 45.7671L1167.74 49.9472L1166.35 45.7671L1162.06 49.9472L1153.07 47.1604L1153.71 49.9472C1146.75 42.9803 1141.71 47.2676 1134.32 46.9461C1127.04 46.6245 1118.89 44.4809 1110.32 45.5527C1107.54 45.8742 1108.5 48.661 1107.65 48.4466C1103.9 47.6964 1097.15 45.8742 1093.61 44.2665L1092.22 47.1604C1089.01 46.6245 1066.4 45.2311 1064.48 45.9814C1061.91 47.0533 1062.01 50.4831 1059.44 51.2334L1058.69 45.6599L1053.12 48.5538C1051.62 43.409 1041.55 47.2676 1036.41 45.5527L1033.62 49.84L1034.27 45.6599L1005.77 47.0533L1004.92 44.2665L1002.24 46.4102L1002.77 51.2334C997.203 47.1604 994.953 46.4102 988.312 45.8742C970.851 44.5881 952.104 46.1958 935.715 46.303C921.682 46.303 907.649 46.303 893.723 45.8742L893.08 48.4466L888.795 46.303C882.582 53.6986 883.653 46.5173 878.297 45.6599C877.119 45.4455 855.694 45.8742 854.516 46.1958C852.695 46.6245 853.016 49.5185 851.731 49.9472H848.303L851.088 45.6599C844.875 47.5892 838.448 44.6952 832.127 45.5527C829.021 45.9814 831.485 49.9472 825.914 47.0533L826.557 51.2334C821.522 48.5538 822.593 44.0521 815.523 47.0533C812.952 42.1228 801.276 46.4102 795.92 46.5173C781.78 46.5173 767.425 44.2665 753.607 46.6245C752.321 46.8389 750.714 45.3383 750.393 45.6599L751.785 49.84H747.608V21.8653H746.215V48.4466L735.074 45.6599L733.682 49.84C733.36 47.3748 735.182 45.6599 731.646 45.7671C728.647 45.7671 725.219 47.0533 721.898 46.8389C693.19 45.7671 655.59 48.7682 627.845 44.6952C626.559 44.4809 624.953 45.9814 624.631 45.6599L626.024 40.0864C619.703 43.3019 611.776 43.409 605.778 47.0533C606.42 43.8378 597.851 44.6952 595.922 45.4455C593.03 46.6245 593.351 47.9107 591.852 49.84L590.459 45.6599C584.996 48.3395 581.032 46.5173 576.533 46.4102C565.5 46.303 536.469 44.4809 528.007 47.1604C526.614 47.5892 526.828 51.3406 522.758 49.84L524.15 45.6599C522.758 46.4102 519.437 45.6599 518.794 46.0886C518.151 46.4102 519.437 49.0897 517.187 48.4466L515.045 44.2665C510.867 48.661 501.976 44.9096 497.048 45.6599C495.656 45.8742 496.834 48.4466 495.549 48.4466L494.906 45.6599C489.335 48.7682 484.622 44.8024 480.23 44.9096C478.516 44.9096 466.411 47.3748 464.912 46.9461C464.162 46.7317 464.269 44.2665 463.412 44.2665C461.055 44.1593 454.628 48.0179 449.486 46.8389C448.629 42.4444 446.272 47.0533 441.023 46.9461C438.667 46.9461 431.382 45.124 430.739 45.6599C427.74 48.2323 435.667 48.1251 433.525 51.2334L427.954 45.6599L425.169 46.4102L423.134 51.2334L421.098 46.303C407.173 43.5162 393.996 46.8389 379.963 46.9461C377.607 46.9461 375.143 44.9096 372.786 44.9096C364.752 44.9096 344.613 48.3395 337.757 46.8389C335.4 46.4102 334.758 45.124 332.937 44.1593V49.7328H328.759L328.116 45.7671L324.581 46.9461V9.43209H323.188V45.7671H316.226V49.9472C310.655 50.9118 315.69 46.6245 314.833 45.7671C313.226 44.1593 311.084 46.7317 312.048 48.5538H310.655C311.084 43.409 301.657 47.6964 298.015 47.1604L298.657 51.3406L291.052 45.7671L287.517 51.3406L288.267 47.1604C280.661 44.4809 277.019 48.1251 270.056 49.9472L272.841 45.7671C266.628 44.2665 267.592 48.0179 263.843 51.019L260.308 47.1604L264.485 45.7671C258.915 43.5162 257.737 49.7328 256.773 49.9472C253.452 50.6975 254.951 46.5173 252.488 45.8742C250.774 45.4455 238.883 46.9461 235.991 47.0533C230.313 47.2676 227.1 43.945 221.851 51.3406L219.708 48.5538L222.493 47.1604C218.101 45.6599 213.709 47.0533 209.532 46.8389C200.747 46.4102 196.784 48.0179 190.999 48.0179C188.964 48.0179 184.144 42.3372 181.251 49.9472L177.073 45.7671L172.896 51.3406L167.325 45.7671L162.505 51.3406L163.148 45.7671C159.184 46.8389 155.756 46.4102 156.827 51.3406L154.042 50.5903L155.435 47.1604C152.328 49.1969 150.293 46.1958 148.9 46.0886C147.079 45.9814 146.222 47.6964 144.937 47.9107C143.651 48.1251 142.044 46.9461 140.973 47.1604C139.259 47.3748 140.973 50.5903 138.724 50.0544C139.366 44.0521 132.618 51.7693 129.618 45.8742C128.226 51.4478 123.298 45.8742 118.585 45.9814C113.443 45.9814 109.051 50.4831 104.444 50.2687L102.409 47.2676L96.9458 50.0544C96.7316 43.7306 86.7692 46.7317 82.0558 47.0533C76.8068 47.3748 76.4854 43.8378 72.4148 51.4478L68.237 47.2676L60.6313 51.4478L58.3817 27.6532L57.6319 45.8742L49.3835 46.0886C50.9903 51.5549 41.5635 51.1262 37.2786 51.2334C28.8159 51.5549 17.9966 49.7328 9.64102 50.2687C7.92706 50.2687 0.964102 50.9118 0.42849 52.8411H57.739L57.4176 98.2866L55.7037 100.216L52.1686 99.68C51.633 102.681 57.6319 103.753 57.6319 105.254C57.6319 106.325 51.0974 113.614 50.776 120.688C50.6689 123.689 53.1327 131.299 53.1327 131.835C53.0256 133.443 49.7048 134.3 49.4906 137.301C49.4906 138.266 51.0974 150.163 51.4188 150.699C54.204 154.45 55.4894 149.091 57.739 149.949C56.9892 153.7 52.1686 152.628 53.5612 157.666L49.3835 152.092C49.3835 154.772 49.2763 157.666 50.3476 160.238C51.3117 162.596 54.3111 160.881 53.5612 163.99L50.776 163.239C51.4188 172.136 49.4906 181.782 49.2763 190.464C49.1692 198.717 49.812 206.541 50.0262 214.258C50.2404 222.726 49.812 230.979 49.812 239.339C49.812 242.126 53.4541 243.305 49.2763 247.914L52.1686 249.307C45.9555 257.132 55.0609 267.1 47.8837 273.102C55.5966 276.103 47.6695 289.822 50.8832 294.431C53.8826 298.719 55.2752 293.038 57.6319 291.966V301.72L49.2763 296.146C50.3476 300.005 49.3835 303.97 49.5977 307.722C49.5977 309.115 51.3117 310.616 51.4188 312.224C51.7402 319.512 45.9555 329.694 52.0615 337.411L49.1692 338.805L52.0615 344.378L49.3835 345.665C53.0256 350.381 48.4194 364.207 49.3835 367.959C50.0262 370.424 55.0609 370.424 54.8467 373.746L49.2763 373.103V408.581L52.0615 409.438C48.3122 413.19 50.3476 415.869 50.776 420.478H55.3823L57.6319 417.799V421.979C53.8826 419.942 49.0621 424.766 48.5265 424.766H0V427.552H48.955C47.5624 435.698 50.7761 444.273 51.2045 452.311C51.4188 456.599 48.7407 463.03 50.6689 468.71L58.7031 473.748C57.6319 469.461 59.9886 464.638 55.9179 461.851L58.8102 459.171V427.552C64.4877 428.838 75.3071 424.551 77.5567 430.339L85.2695 427.552L82.4843 430.339L90.8399 431.732L90.1971 427.445L95.7675 430.339C96.9458 425.73 104.552 426.052 105.516 430.339C108.729 431.089 106.908 427.981 108.515 427.552C116.763 425.409 117.62 430.232 118.156 430.339C122.441 431.411 120.834 426.052 125.869 427.552L125.226 430.339C128.654 428.088 136.153 431.197 137.759 431.089C143.33 430.661 149.864 426.373 157.149 430.446C158.541 424.551 167.647 429.803 169.896 429.803C171.075 429.803 173.646 426.48 176.216 427.552C175.038 429.803 175.252 431.732 178.252 431.732L179.002 427.552L186.714 430.446L188.214 427.552C191.749 426.802 193.892 429.91 195.07 429.91C196.248 429.91 198.284 426.909 201.926 427.552C202.783 427.767 202.676 430.125 203.747 430.339C209.532 431.732 213.174 427.445 216.066 427.552C217.887 427.552 219.173 429.696 220.244 429.803C221.743 429.91 223.672 427.445 225.814 427.445C226.35 427.445 230.313 435.484 234.277 427.445L235.669 430.017C241.454 428.088 242.74 426.159 249.595 430.339L251.095 427.338C254.523 428.088 258.808 430.339 262.343 430.339C265.021 430.339 264.164 427.445 265.235 427.338C265.771 427.338 274.876 427.659 275.84 427.767C277.661 427.981 288.267 433.769 288.052 427.445H290.837L291.48 430.125L301.336 427.659L304.121 431.625C307.977 430.446 315.369 426.052 316.761 431.625L323.081 428.838V476.428H324.474V430.982C324.474 430.982 326.081 428.838 325.974 427.552C328.866 429.374 332.08 427.016 334.758 427.445C335.186 427.445 337.543 432.804 342.685 430.232L339.9 427.445C343.863 425.837 343.97 430.017 345.041 430.232C352.647 431.947 357.468 428.088 364.109 428.303C372.143 428.517 368.501 429.91 369.894 430.232C374.5 431.518 372.358 424.122 378.249 429.696C384.248 424.551 382.641 429.482 383.82 429.91C387.141 431.089 394.425 428.946 396.46 428.838C398.817 428.731 400.102 431.304 403.959 430.768C407.28 430.232 407.28 427.552 407.708 427.445C411.886 426.588 410.815 429.803 411.886 430.017C432.239 434.198 469.304 433.34 490.192 430.339C492.013 430.125 493.299 428.946 494.37 427.552L495.12 431.732C495.12 431.732 503.476 428.303 505.404 427.981C509.153 427.338 513.117 430.232 515.152 430.017C518.366 429.696 518.794 426.159 523.722 430.339C525.864 424.122 530.256 432.375 536.255 427.445L537.648 430.339L538.505 427.874C545.253 426.695 545.789 431.625 552.323 430.339L551.574 426.159C554.359 433.662 562.607 427.874 569.035 430.339L568.392 427.552L573.212 430.339L573.855 427.552C577.926 429.91 583.496 430.982 588.102 431.625C608.027 434.305 627.952 430.553 647.877 428.838L651.519 431.732V426.159L654.304 431.732C658.16 430.017 662.017 427.659 666.302 430.125L667.694 427.445H679.478L676.693 430.339C688.155 432.054 699.938 427.874 711.615 430.339L709.579 427.552L716.542 430.339C717.935 424.337 720.934 430.768 726.397 430.446C728.968 430.339 728.219 427.767 729.076 427.659C729.611 427.659 738.181 427.338 738.717 427.445C739.359 427.659 741.18 432.483 746.644 430.232L747.286 440.093L749.322 429.482C749.964 429.053 761.962 430.553 763.997 430.232C766.568 429.803 768.068 427.124 771.068 427.445C771.71 427.445 771.924 430.232 772.46 430.339H775.245L777.281 427.552C776.638 432.161 782.637 429.482 785.636 431.732L786.386 427.552C790.671 429.696 795.17 430.339 799.991 430.017C805.025 429.696 803.204 429.374 809.417 429.803C814.024 430.125 816.916 428.088 820.665 431.732V427.552L825.593 431.732L827.735 427.552H829.771L831.378 430.446L840.804 428.838L842.304 431.732L844.446 427.552L850.66 430.446C853.873 423.051 857.194 430.017 857.622 430.125C866.621 431.089 880.118 430.661 888.474 429.053L889.759 431.84L893.937 427.659C895.115 433.019 897.579 429.053 900.9 429.374C908.827 429.91 919.968 431.411 927.466 431.304C932.501 431.197 937.214 424.766 941.607 430.446L944.285 427.659L952.533 430.661L954.033 427.659C959.175 430.982 965.495 429.589 971.494 430.446L972.136 427.659C974.922 435.162 983.384 425.837 989.597 427.659L985.42 429.053C986.812 433.34 992.168 429.053 995.918 431.84L996.667 427.659L1001.49 430.446L1002.24 427.659L1004.38 430.553L1013.91 427.552C1013.38 429.91 1022.59 431.411 1023.77 431.304C1026.23 431.304 1028.05 427.981 1029.66 427.767C1031.27 427.552 1032.55 429.803 1033.62 429.91C1034.7 429.91 1036.3 427.231 1039.2 427.552C1039.94 427.552 1039.84 430.125 1040.91 430.446C1051.51 432.804 1065.23 428.838 1075.62 428.838C1081.19 428.838 1080.01 426.48 1085.36 431.84L1088.15 427.659C1090.72 431.197 1094.68 430.553 1098.65 430.446C1098.43 432.59 1098.33 434.841 1098.22 436.984C1099.08 437.842 1099.61 439.128 1099.83 440.736C1101.54 453.49 1103.25 466.352 1104.75 479.107C1105.61 476.749 1104.11 473.641 1104.33 470.211C1104.65 464.423 1105.5 458.635 1105.72 452.847C1102.08 452.847 1100.9 453.705 1101.54 449.31L1105.72 449.953L1102.93 443.63L1105.72 442.236C1101.86 438.699 1105.4 433.769 1105.72 428.946C1105.93 428.946 1106.15 428.946 1106.47 428.946L1107.11 430.232C1108.82 430.446 1109.47 429.696 1110 428.838C1111.4 428.838 1112.68 428.838 1114.07 428.838L1112.68 430.232C1117.72 430.875 1121.68 430.232 1125.21 428.838C1131.53 428.838 1137.85 428.838 1144.18 428.731C1151.35 428.731 1158.53 428.731 1165.81 428.731C1169.35 428.731 1172.78 428.731 1176.31 428.731C1177.7 428.731 1179.42 428.624 1180.6 428.731C1180.92 428.731 1181.78 428.946 1181.78 428.946C1182.2 430.553 1183.38 431.732 1185.1 431.732C1185.42 431.732 1185.74 431.732 1186.06 431.625C1185.74 433.34 1185.31 435.055 1185.31 436.556C1185.31 442.772 1186.7 449.203 1185.85 455.527L1187.67 456.277C1188.85 453.491 1189.92 450.704 1190.56 447.81C1190.56 447.81 1190.77 446.524 1190.99 445.345C1186.92 443.522 1186.38 438.806 1188.2 435.162C1188.1 434.948 1187.99 434.734 1187.99 434.519L1195.7 427.445H1198.38L1201.16 431.732L1204.59 430.232L1203.2 427.552H1206.73C1211.02 436.663 1215.84 425.73 1223.23 427.552C1223.98 427.767 1224.95 432.375 1229.77 430.339C1226.87 426.588 1232.55 428.41 1231.16 423.372L1195.49 424.766L1193.67 423.586C1193.88 422.515 1193.88 421.336 1193.67 420.157C1193.67 419.728 1193.34 419.299 1193.13 418.87L1193.45 417.799C1193.45 417.799 1192.92 418.12 1192.59 418.335C1192.59 414.69 1192.59 411.046 1192.59 407.295C1192.59 399.042 1192.59 390.789 1192.59 382.535C1192.92 382.428 1193.24 382.214 1193.56 382.107C1193.13 381.678 1192.81 381.142 1192.59 380.713C1192.59 379.32 1192.59 378.034 1192.59 376.64C1192.7 375.461 1192.81 374.39 1192.92 373.211C1192.92 372.889 1192.92 372.675 1192.92 372.353C1193.34 370.638 1193.56 368.923 1193.24 367.101C1193.02 366.137 1192.81 365.279 1192.49 364.529C1192.49 359.813 1192.27 355.097 1192.17 350.381C1192.17 349.309 1192.27 348.344 1192.17 347.38C1191.95 345.236 1189.38 343.628 1189.6 341.913C1189.81 340.734 1191.84 339.234 1192.27 336.018C1192.7 332.588 1191.63 326.8 1189.38 324.121L1193.56 323.371C1186.27 317.904 1190.13 306.543 1189.38 298.183C1188.1 282.855 1185.1 267.635 1180.92 252.844L1185.74 254.238C1186.92 264.098 1192.06 273.209 1194.84 282.212C1194.52 281.462 1194.63 277.389 1195.06 276.853L1214.34 266.885C1214.13 274.066 1207.81 274.066 1204.16 276.639C1203.2 277.389 1196.34 286.607 1194.74 282.212L1199.02 297.754C1197.84 298.611 1197.09 300.112 1197.63 301.612C1202.88 316.94 1207.91 332.267 1212.84 347.594V347.915C1215.95 357.669 1219.05 367.316 1222.05 377.069L1222.59 380.07C1222.59 380.07 1222.8 380.07 1222.91 380.07C1223.77 382.964 1224.73 385.858 1225.59 388.752C1226.45 391.432 1227.19 394.111 1228.05 396.898L1228.27 398.184C1228.27 398.184 1228.27 398.184 1228.48 398.184C1229.44 401.185 1230.3 404.294 1231.16 407.295C1229.98 408.581 1229.44 410.617 1231.05 412.225C1232.02 413.297 1233.09 414.369 1234.05 415.441C1234.37 415.869 1234.8 416.084 1235.34 416.298C1235.98 418.227 1236.62 420.264 1237.26 422.193C1237.26 422.515 1237.48 422.729 1237.69 423.051C1237.69 424.766 1238.87 426.48 1241.01 426.373C1252.58 426.052 1264.15 425.73 1275.72 425.301C1274.76 426.052 1274.11 427.016 1274.33 428.195L1279.15 430.339L1278.51 427.552C1281.61 426.909 1283.22 429.589 1285.9 429.91C1289.86 430.339 1296.07 427.659 1298.54 427.874C1301.65 428.195 1310.11 432.054 1314.29 431.411C1317.71 424.98 1316.75 429.267 1322.53 430.125C1326.5 430.661 1329.93 427.552 1332.18 427.445C1332.82 427.445 1336.78 433.769 1342.78 430.339L1341.39 433.126C1349.64 431.84 1343.96 438.592 1344.17 442.129C1344.17 442.665 1345.35 442.665 1346.32 443.308C1346.64 442.772 1346.85 442.129 1347.17 441.593C1348.78 438.271 1351.67 437.306 1354.35 437.735C1354.89 435.698 1355.42 433.554 1355.53 431.947C1364.31 432.697 1373.1 432.804 1381.99 432.161C1385.41 431.84 1388.74 431.518 1392.06 430.982L1392.48 431.84C1392.48 431.84 1392.81 431.196 1393.02 430.875C1393.77 430.768 1394.52 430.661 1395.27 430.553C1395.27 431.196 1395.27 431.84 1395.27 431.84C1400.84 432.59 1413.59 431.196 1419.16 430.553L1420.55 433.34L1426.76 431.84V450.704L1426.87 451.454C1427.73 450.489 1428.59 449.632 1429.55 448.774V432.483C1430.62 431.518 1431.91 430.768 1433.3 430.339C1433.94 430.339 1434.58 430.232 1435.12 429.91C1438.01 429.482 1441.01 430.232 1443.26 432.054C1442.94 433.447 1442.83 435.269 1442.83 437.306C1446.05 435.805 1449.9 436.663 1452.26 439.342C1452.8 436.341 1452.9 433.126 1453.33 430.339L1457.62 431.089L1459.33 428.195C1464.47 428.731 1469.61 428.946 1474.76 428.946C1474.01 429.053 1473.36 429.374 1472.93 430.339L1490.18 430.125C1490.18 430.125 1490.82 429.482 1491.57 428.624C1493.72 428.624 1495.86 428.517 1498 428.41C1500.68 428.41 1503.36 428.303 1506.03 428.195L1503.68 431.732C1514.18 431.625 1524.67 431.947 1535.17 431.732C1542.88 431.732 1548.13 431.518 1556.06 431.732C1565.17 432.054 1568.92 426.695 1577.7 427.445L1575.66 430.232C1580.27 429.91 1584.77 423.694 1586.81 430.232C1590.66 424.23 1599.34 429.696 1603.52 429.589C1621.19 429.16 1640.9 427.767 1659.54 427.445C1669.18 427.231 1678.29 425.301 1688.04 427.445C1690.29 425.73 1688.04 424.873 1686 424.658V424.766ZM1457.51 147.912C1459.22 140.517 1469.18 141.589 1468.76 133.979L1471.22 135.05C1474.86 130.656 1481.93 128.083 1486.22 125.297C1487.18 124.654 1486.97 123.903 1486.97 122.832C1494.57 128.941 1481.08 126.904 1484.07 132.478C1473.36 131.192 1476.58 137.837 1475.08 139.659C1474.33 140.624 1472.93 139.659 1471.86 140.195C1469.83 141.053 1468.01 141.267 1467.36 141.589C1464.79 142.982 1463.4 150.378 1457.51 147.912ZM1486.75 147.805L1482.68 146.412C1483 153.807 1474.65 152.2 1470.58 158.095C1469.08 160.345 1471.97 162.704 1467.58 160.774L1466.61 163.025L1463.08 161.739L1461.69 165.919V158.523C1461.9 157.452 1464.58 156.594 1465.86 155.415C1468.11 153.379 1474.01 147.805 1476.36 146.197C1478.61 144.59 1486.97 145.876 1486.86 140.731L1489.65 142.768L1486.75 147.591V147.805ZM1495.32 120.581L1495.97 117.044C1500.14 117.687 1504.32 109.434 1505.29 109.005C1506.03 108.683 1508.18 110.613 1509.14 110.077C1510 109.541 1509.78 104.825 1513.53 106.004C1513.85 106.325 1508.39 113.399 1507.64 113.828C1505.18 115.329 1506.03 113.078 1501 117.687C1499.93 118.651 1497.04 114.578 1498.11 122.724L1495.32 120.581ZM1513.96 163.347C1505.39 163.775 1507.96 165.919 1506.03 168.384C1505.07 169.563 1499.61 171.064 1498 172.993C1497.36 164.204 1507.75 165.062 1510.86 157.88L1514.71 159.166L1513.96 163.347ZM1576.31 107.397L1572.13 106.004C1573.41 114.257 1567.84 111.363 1563.02 115.114C1559.06 112.542 1544.81 119.402 1544.17 118.651C1544.06 118.544 1543.42 114.15 1545.13 114.471C1549.42 114.9 1552.53 111.256 1556.06 110.291C1559.7 109.434 1555.85 113.399 1558.74 114.364L1562.06 106.647C1567.84 102.467 1570.42 98.9297 1577.59 101.824L1576.2 107.397H1576.31ZM1606.41 118.651H1598.7L1600.09 115.757C1597.2 115.114 1592.59 116.186 1593.13 111.577L1601.48 110.184L1598.7 106.004L1604.91 107.504L1607.05 104.61L1606.41 118.651ZM1607.05 63.9881C1606.62 65.9174 1604.69 66.8821 1603.19 67.8467C1592.48 74.3849 1581.02 78.3506 1570.74 82.9595C1568.49 83.9241 1566.77 87.8899 1564.2 89.0689L1558.1 86.3894L1560.88 90.5695L1542.46 99.4657C1538.17 104.289 1529.49 104.182 1524.46 109.541C1522.42 111.685 1527.99 114.471 1517.6 111.577L1535.49 98.8226L1534.32 96.2502C1543.31 97.8579 1539.89 94.5352 1542.78 91.4269C1543.31 90.7838 1553.28 82.102 1553.92 81.6733C1555.1 80.923 1557.99 81.9949 1559.49 80.1727C1562.6 76.7429 1558.1 73.6346 1565.7 76.7429L1567.2 73.849L1567.84 80.1727L1570.63 80.8158C1570.09 76.0998 1573.41 79.4225 1574.81 78.6722C1583.81 70.5263 1595.37 67.2036 1606.94 64.0953L1607.05 63.9881ZM1514.28 83.0667C1517.07 81.2446 1518.78 75.8854 1519.21 75.5639C1521.35 74.0633 1533.99 69.776 1536.67 67.8467C1542.99 63.2379 1538.49 63.5594 1547.92 60.3439C1549.53 59.808 1553.06 52.4124 1557.99 59.9152C1551.24 61.5229 1542.78 65.1672 1539.78 71.0622C1542.03 72.7771 1569.56 53.8058 1576.09 55.7351C1576.84 59.4865 1575.24 58.2003 1573.31 59.1649C1570.84 60.3439 1563.56 62.166 1562.49 63.0235C1559.49 65.5959 1563.77 70.4191 1555.31 66.9893C1554.78 68.4898 1554.45 70.0976 1553.06 71.1694C1544.71 77.9219 1528.32 84.7816 1518.57 90.7839C1501.43 101.181 1483.97 115.007 1466.08 123.903C1465.11 124.332 1457.62 127.333 1457.29 127.012C1458.37 121.974 1462.86 121.652 1465.22 119.509C1468.97 116.079 1469.08 112.756 1475.18 112.756L1476.9 106.004L1481.08 108.791C1480.33 103.003 1484.93 103.431 1487.93 100.966C1496.18 94.2137 1505.39 89.0689 1514.07 83.0667H1514.28ZM250.131 52.8411C249.488 55.3063 245.739 54.3417 243.168 56.3782C238.348 60.2367 214.781 127.44 210.924 138.802C206.211 152.521 200.533 167.205 197.641 181.461C194.749 195.716 194.106 210.4 192.82 224.87H188.643C188.643 167.848 158.756 116.615 142.58 63.2379L135.51 54.2345L250.131 52.8411ZM136.903 424.766C139.581 398.827 138.081 372.032 138.188 345.665C138.188 342.342 139.688 339.341 139.688 336.018C139.902 306.65 140.438 276.746 131.225 248.557L136.581 250.915L172.681 357.455C179.109 369.888 203.211 369.459 208.889 356.276L244.668 250.915L250.024 248.557C246.81 256.06 244.775 263.991 243.489 272.03C238.24 304.292 238.776 379.213 241.561 412.868C241.99 417.584 243.489 420.371 244.346 424.658H136.795L136.903 424.766ZM257.308 254.666L248.738 259.811L253.023 245.877L255.701 247.164C256.558 243.198 256.344 240.518 261.379 241.59L257.308 254.666ZM322.332 274.71C322.332 274.71 319.225 276.424 319.332 277.925C315.69 276.317 318.582 258.739 322.76 256.917C322.117 262.276 323.938 269.779 322.332 274.71ZM424.633 413.404C418.313 412.332 420.67 418.335 419.063 420.371C418.956 420.478 416.921 419.299 415.635 420.371C412.743 422.836 414.457 426.48 406.637 424.658C412.743 417.799 416.064 408.902 426.24 407.938L424.633 413.404ZM484.086 416.834C482.587 418.442 482.372 421.657 480.766 422.622C478.088 424.23 472.731 422.943 469.518 423.265L496.084 396.684C498.762 396.469 497.584 400.542 496.941 401.828C494.263 408.045 488.693 411.475 483.979 416.727L484.086 416.834ZM519.865 270.208C522.008 325.407 520.615 379.963 562.5 420.478C563.893 421.764 565.178 422.3 564.643 424.658C559.072 421.55 553.609 425.516 548.681 424.658C539.897 423.265 543.004 423.801 534.648 424.015C522.436 424.337 509.474 422.622 497.584 424.658C496.727 422.622 498.976 420.585 498.976 419.728V362.385C498.976 362.385 496.513 359.813 496.191 360.241C497.477 368.923 490.942 368.602 486.443 373.425C482.48 377.712 480.873 385.644 472.517 385.429V393.79L468.554 392.503C468.339 396.898 463.519 396.04 462.769 396.684C462.341 397.112 463.84 399.47 463.412 400.757C462.448 403.329 456.877 406.223 454.842 408.152C451.95 410.939 450.343 415.655 448.415 418.442C445.522 422.515 438.452 424.98 433.525 424.444C431.918 417.584 437.06 417.691 439.845 414.69C443.916 410.189 453.342 400.435 453.128 396.576L458.163 395.183L457.306 391.003L467.054 388.216L464.269 385.429C471.982 386.287 474.66 376.212 479.587 370.745C481.408 368.816 486.443 363.35 487.943 365.815C486.55 360.134 492.228 362.171 494.906 358.098C479.802 355.847 453.878 365.601 443.487 350.917C437.81 342.985 435.453 323.371 434.917 313.403C432.882 280.39 430.418 202.147 449.7 175.78C457.841 164.526 466.304 165.597 479.052 165.812C485.479 165.919 494.692 170.957 498.227 162.704C500.155 158.095 500.048 116.401 499.298 109.219C498.227 99.4657 493.513 96.6789 484.408 94.7496C471.982 91.9629 445.844 91.4269 433.203 93.5706C341.935 108.683 344.292 264.313 352.647 332.803C356.718 366.244 365.716 404.722 397.21 422.407L324.581 423.158V52.8411H587.245L562.821 66.8821C514.509 105.575 518.044 214.151 520.187 270.315L519.865 270.208ZM557.572 247.164C556.823 249.95 554.466 255.738 552.966 257.882C548.253 264.313 540.861 269.029 535.184 274.388C534.113 275.353 523.508 288.965 521.258 286.392C519.544 275.245 522.651 277.603 528.864 272.352C536.684 265.921 546.646 258.311 553.073 252.523C554.68 251.022 553.073 246.092 557.465 247.271L557.572 247.164ZM359.824 230.229C361.11 240.625 369.68 231.408 375.893 230.443V236.017L371.929 234.73C369.037 241.054 360.146 241.483 360.467 249.95L357.682 248.557C357.575 253.702 354.683 258.311 350.719 261.205C352.004 255.738 349.005 238.375 350.719 234.623C350.719 234.516 352.433 234.945 353.504 233.551C358.218 227.549 363.895 221.225 352.112 220.582C350.183 217.903 368.18 202.254 370.965 199.682C372.572 200.861 372.143 203.969 373.108 205.684C373.965 207.292 376.643 205.684 375.893 208.792C370.001 208.899 370.537 213.615 367.966 216.295C363.467 221.225 358.86 221.868 359.824 230.229ZM572.034 423.479L565.928 421.979C567.214 417.477 568.285 417.263 572.891 417.799V412.332C578.247 411.796 580.925 410.939 581.247 405.151L585.424 407.938L582.639 409.331L586.817 413.511L580.068 413.833C580.604 423.051 574.605 417.37 571.927 423.479H572.034ZM574.391 368.816L575.783 361.849L578.354 363.028C578.354 359.277 582.746 358.527 583.71 357.348C584.032 356.919 585.317 346.736 589.709 350.702C591.423 352.203 577.069 368.066 574.391 368.923V368.816ZM587.995 330.552C587.995 330.552 586.281 329.802 585.853 330.123C583.603 331.838 582.853 336.768 578.568 335.268L587.353 323.156L592.494 321.334C593.137 324.764 590.459 328.515 587.995 330.659V330.552ZM647.02 424.766C646.27 422.086 648.091 422.086 649.376 420.8C657.839 412.547 665.016 406.973 670.051 395.397L676.371 424.766C666.73 422.193 656.875 425.087 647.02 424.766ZM746.215 423.372C736.788 422.836 725.005 426.909 716.864 422.622V207.292C716.864 203.111 708.401 201.182 705.08 200.968C688.797 199.467 650.983 199.146 635.129 200.968C626.774 201.932 625.381 206.541 624.631 214.258C623.56 225.298 623.346 252.523 624.845 263.134C626.559 275.138 635.665 273.852 645.627 273.745C641.878 296.253 646.698 321.334 641.021 343.95C638.878 352.417 636.2 357.883 626.559 358.955C614.99 360.134 609.634 354.132 607.063 343.735C604.813 334.839 603.956 318.976 603.528 309.437C601.6 266.778 600.207 201.397 606.742 160.131C612.741 121.974 628.595 119.402 664.374 121.331C675.3 121.867 688.797 130.334 690.297 113.721C691.368 102.252 691.583 75.8854 690.297 64.7384C689.976 61.9517 688.905 58.8434 687.298 56.4853C685.905 54.4489 683.227 54.9848 683.227 52.8411H746.108V423.372H746.215ZM749.75 406.544C741.716 401.507 757.57 391.968 760.248 394.004C758.32 400.864 749 398.72 749.75 406.544ZM824.414 368.816C818.416 366.244 815.63 372.46 809.096 373.103C807.168 379.856 800.526 378.248 800.526 384.036L793.67 384.25L796.67 377.605C803.74 378.677 804.597 373.103 806.418 371.817C807.061 371.388 808.56 373.103 809.096 373.103C809.417 372.032 808.882 370.209 809.096 368.923L813.274 370.317C812.203 364.529 822.272 363.993 825.807 359.17L824.307 368.923L824.414 368.816ZM856.551 422.622L853.445 424.444H847.446L846.053 421.979C840.054 426.266 833.306 423.694 826.557 424.873L828.699 413.083V67.418C828.164 62.9163 827.735 56.6997 823.022 54.8776C823.879 52.9483 828.807 52.7339 830.735 52.7339H857.301L856.551 422.515V422.622ZM863.621 245.234L867.799 222.083C872.084 223.583 868.549 228.943 868.549 232.587C868.549 237.517 868.87 243.627 869.085 248.557L862.229 250.058L866.406 246.52L863.621 245.234ZM877.547 400.328C876.262 401.185 874.012 400.542 873.048 401.078C871.656 401.828 871.87 403.758 871.227 403.758C867.049 403.758 866.514 398.399 866.299 395.397L881.725 392.611C880.011 394.326 878.94 399.363 877.547 400.328ZM988.847 424.551C979.421 425.087 967.637 423.479 957.996 423.265C953.604 423.265 950.712 425.945 946.213 422.086L945.356 424.766L941.714 422.407C941.928 419.192 943.106 416.191 943.32 412.868C944.606 378.998 945.034 337.519 943.32 303.756C942.463 286.607 939.678 269.136 934.965 252.737L939.785 254.13C957.354 307.293 970.101 362.599 987.991 415.655C988.848 418.335 990.026 420.693 992.275 422.622C991.204 424.015 990.776 424.444 988.955 424.551H988.847ZM942.999 171.278C942.999 171.278 947.391 166.776 948.034 166.026C948.569 165.383 947.498 163.668 947.713 163.454C948.569 162.489 958.639 160.667 958.639 164.633C954.997 164.097 956.389 167.955 954.997 168.92C953.818 169.778 950.926 169.778 948.998 171.064C944.392 174.065 940.857 179.531 934.858 178.567C936.036 169.134 941.499 172.028 942.999 171.278ZM940.428 147.912C942.142 146.197 942.035 143.089 943.32 141.803C944.392 140.731 949.212 139.23 950.176 138.695C952.533 137.194 954.783 131.299 960.032 132.692L961.424 138.266C954.033 136.551 953.926 144.375 952.854 145.126C951.89 145.769 947.927 145.126 945.677 145.661C943.749 146.197 942.999 148.877 940.428 148.127V147.912ZM989.704 226.584L940.214 62.166C938.928 57.0213 934.965 55.5207 930.68 53.4842L992.168 52.8411L986.491 61.8445C988.205 117.687 981.563 174.279 994.204 229.05L989.597 226.584H989.704ZM1423.98 89.1761C1422.05 93.5706 1415.84 91.5341 1416.8 97.322L1408.55 98.9297C1410.16 93.1419 1418.52 89.1761 1423.87 89.1761H1423.98ZM1369.88 208.471C1372.45 205.469 1376.84 203.755 1378.45 202.468C1380.81 200.646 1390.99 190.678 1393.13 192.608C1394.41 193.787 1387.34 203.433 1386.06 204.398C1383.49 206.22 1379.52 206.005 1376.52 207.399C1374.81 208.149 1369.13 214.902 1367.95 213.508C1367.2 212.651 1368.92 209.435 1369.78 208.363L1369.88 208.471ZM1356.28 258.311C1357.99 256.06 1370.63 243.734 1373.31 241.59C1381.24 234.945 1383.59 233.873 1391.2 226.263C1392.38 225.084 1395.06 226.906 1396.66 220.689C1398.7 219.51 1403.2 227.871 1403.63 229.05C1406.2 228.192 1407.05 225.513 1408.87 224.548C1411.55 223.155 1417.87 222.297 1418.09 221.868C1418.94 220.475 1417.34 217.26 1422.37 216.509C1424.84 226.37 1413.37 226.477 1407.48 230.979C1392.38 242.448 1377.81 255.095 1361.74 266.349C1360.78 267.1 1354.46 270.101 1353.81 269.672C1356.06 267.314 1354.99 259.918 1356.06 258.525L1356.28 258.311ZM1288.25 140.088C1295.43 133.228 1303.04 128.727 1307.32 120.045L1317.71 112.971C1319.96 124.761 1313 123.046 1307.43 127.119C1303.25 130.227 1298.97 137.301 1292.65 136.765L1295.43 139.552C1289.54 139.123 1289 145.661 1288.47 145.876C1287.18 146.626 1283.43 145.233 1281.4 147.912C1280.01 142.66 1285.15 142.982 1288.25 140.088ZM1313.54 222.726L1298.22 231.836C1296.5 230.229 1305.29 224.012 1306.04 223.155C1306.79 222.297 1304.86 218.546 1312.14 219.296L1311.07 221.868L1313.54 222.726ZM1311.39 185.641C1310.21 187.356 1311.18 190.249 1310.64 191.214C1310.64 191.321 1309.04 190.357 1307.97 190.785C1305.93 191.75 1301.11 193.036 1300.9 193.251C1299.61 194.322 1300.9 196.145 1300.68 196.573C1299.61 197.752 1289.22 203.969 1286.86 205.791C1283.43 208.471 1287.4 211.472 1282.79 210.721C1280.76 204.505 1288.25 205.041 1285.58 199.574C1293.29 201.504 1294.36 191.429 1298.22 187.677C1301.65 184.354 1309.25 184.89 1309.79 177.602L1317.71 171.6C1317.29 174.708 1318.46 179.21 1317.5 181.889C1316.54 184.569 1312.46 183.819 1311.29 185.533L1311.39 185.641ZM1257.19 183.926C1260.3 180.925 1263.51 176.959 1267.37 174.065C1274.01 169.027 1282.68 165.49 1288.25 158.309C1291.79 153.593 1286.65 153.271 1296.82 154.986L1293.93 163.239H1287.08L1288.47 166.133C1283.97 165.919 1280.43 170.849 1277.22 174.172C1271.44 180.067 1265.12 186.927 1259.65 194.001C1257.83 196.359 1252.8 197.967 1254.94 202.576L1250.65 201.932L1249.37 187.141C1250.44 187.677 1256.76 184.462 1257.3 183.926H1257.19ZM1247.87 54.2345L1238.76 61.2014C1237.59 63.4522 1235.55 61.6301 1235.34 60.4511C1233.94 54.5561 1244.12 53.913 1247.87 54.2345ZM1232.44 205.577C1233.3 202.897 1233.41 199.682 1233.94 196.895L1240.91 229.05C1237.91 229.371 1237.05 229.478 1235.66 226.692C1235.23 225.727 1229.98 208.363 1229.87 207.399C1229.87 206.863 1232.12 206.863 1232.55 205.684L1232.44 205.577ZM1178.03 268.171C1178.99 272.78 1174.49 270.208 1171.06 271.708C1169.99 272.137 1164.74 277.389 1163.99 276.532C1164.85 269.136 1171.28 266.135 1177.92 268.171H1178.03ZM1011.34 57.1284C1010.16 57.45 1010.38 59.7008 1009.63 59.5936C1006.74 59.3793 1005.45 56.0566 1003.95 61.2014C999.774 61.4158 997.096 58.2003 997.739 54.1273H1020.13C1019.38 56.8069 1013.81 56.3782 1011.34 57.0213V57.1284ZM1046.59 217.045C1041.44 216.724 1029.88 226.692 1033.3 218.117C1037.7 219.51 1039.84 214.687 1043.8 212.972C1044.98 212.436 1047.12 213.615 1048.09 212.972C1050.23 211.365 1047.76 207.613 1054.94 210.936L1046.48 217.152L1046.59 217.045ZM1064.58 111.684C1062.01 113.292 1060.08 115.65 1056.44 117.58C1052.05 119.938 1043.69 119.08 1043.91 127.012L1039.73 122.832L1038.34 129.048L1021.52 136.765C1018.52 133.764 1035.55 126.369 1036.52 125.19C1043.69 116.401 1046.27 119.294 1050.76 115.007C1052.37 113.507 1052.16 111.041 1053.55 109.541C1053.87 109.219 1060.41 108.362 1061.26 106.004L1063.3 108.791C1062.01 103.86 1067.58 102.681 1071.65 101.824C1073.26 111.363 1068.55 109.005 1064.37 111.684H1064.58ZM1101.11 60.4511C1100.36 64.7384 1101.43 71.0622 1101.11 75.8854C1099.18 109.005 1102.4 144.161 1096.93 176.637L1099.83 178.031L1098.22 182.104L1101.11 183.604C1096.51 188.749 1096.18 195.93 1099.83 201.718L1096.93 203.111L1099.83 204.612C1097.04 209.221 1102.08 213.83 1096.93 217.152L1099.51 218.546C1098.86 222.833 1094.58 230.979 1099.72 232.587C1094.15 241.269 1098.65 255.095 1099.4 264.42C1099.83 269.243 1091.58 277.603 1099.61 279.533L1096.72 281.784L1099.61 298.504L1096.72 300.005C1098.01 310.83 1097.79 322.299 1097.9 333.339C1097.9 337.09 1094.47 340.305 1099.72 341.806C1095.76 346.629 1098.01 349.202 1097.79 354.132C1097.68 357.455 1093.83 360.027 1098.22 362.814L1095.43 364.207L1098.01 365.493C1097.79 369.459 1095.11 377.284 1099.4 378.141C1096.08 383.714 1098.33 387.252 1098.11 391.968C1098.01 395.933 1093.72 402.9 1099.61 404.722C1093.93 406.437 1098.11 420.371 1098.33 423.158C1098.11 423.265 1098.01 423.479 1097.9 423.694C1089.65 425.194 1081.29 424.551 1073.15 422.193V59.0577C1072.62 55.8423 1068.65 55.3063 1067.58 52.7339H1106.68C1106.25 56.5925 1101.65 57.1284 1101.11 60.3439V60.4511ZM1111.4 188.856C1116.11 187.784 1125.75 182.425 1128.75 178.245C1129.61 177.066 1128.96 174.815 1129.18 174.601C1129.39 174.279 1133.78 176.959 1136.14 173.207C1138.18 175.673 1130.46 182.211 1128.64 183.819C1126.71 185.533 1124.04 186.177 1122.21 187.999C1121.36 188.856 1118.68 194.966 1117.72 195.287C1116.32 195.823 1114.82 194.108 1113.97 194.322C1113.75 194.322 1114.18 196.573 1111.18 197.538C1110 197.859 1103.04 197.431 1102.61 196.895L1111.4 188.856ZM1112.36 391.539C1111.72 392.503 1109.79 392.503 1109.57 393.468C1109.04 396.469 1110.97 399.363 1110.43 402.364L1105.4 413.404C1105.5 410.296 1106.36 407.295 1102.61 407.831C1107 403.865 1103.04 402.686 1103.04 400.006C1103.04 395.933 1105.61 391.324 1104.75 386.823C1106.04 386.608 1111.72 384.143 1112.04 383.714C1112.9 382.75 1112.04 380.606 1113.22 379.749C1115.36 378.248 1124.57 376.962 1127.04 372.889C1129.93 379.963 1123.61 377.069 1122.43 377.498C1118.14 379.213 1121.04 385.108 1120.72 385.429C1113.65 384.358 1114.82 387.68 1112.25 391.432L1112.36 391.539ZM1184.24 393.039C1184.24 393.039 1183.17 393.147 1182.52 393.039L1173.74 402.364C1178.45 403.758 1179.85 399.363 1181.78 398.291C1182.31 397.97 1183.06 397.863 1183.92 397.755C1183.7 404.937 1183.7 412.225 1183.92 419.514C1183.92 420.264 1184.13 420.907 1184.56 421.336C1184.24 421.657 1183.92 422.086 1183.7 422.622C1181.67 421.872 1179.1 421.764 1176.85 421.764C1170.74 421.764 1164.53 421.764 1158.42 421.764C1150.92 421.764 1143.32 421.764 1135.82 421.764C1137.21 420.693 1138.71 419.514 1140.21 418.335C1136.03 418.013 1131.32 418.335 1129.07 421.764C1128.43 421.764 1127.89 421.764 1127.25 421.764L1126.29 420.478C1126.29 420.478 1126.39 421.443 1126.39 421.764C1124.79 421.764 1123.07 421.764 1121.47 421.764C1119.43 421.764 1117.5 421.764 1115.47 421.764L1117.61 408.474C1125 403.329 1131.86 399.149 1139.68 394.754C1141.28 393.897 1140.85 389.288 1145.67 392.396C1144.92 385.001 1151.14 387.252 1152.42 386.394C1155.42 384.358 1162.71 377.176 1164.96 375.247C1166.67 373.854 1173.21 366.137 1174.38 365.815L1177.81 369.245L1172.24 376.962L1181.99 380.499L1177.81 385.322L1184.13 381.142C1184.13 381.142 1184.56 381.464 1184.77 381.678C1184.45 385.322 1184.24 389.074 1184.02 392.718L1184.24 393.039ZM1173.85 327.658C1172.46 328.301 1170.31 326.908 1169.88 327.122C1169.03 327.658 1163.46 336.125 1159.92 336.661C1160.03 334.732 1158.96 334.518 1159.49 332.588C1159.49 332.374 1161.42 328.837 1161.64 328.623C1162.92 327.336 1165.92 327.979 1167.42 326.908C1168.71 326.05 1168.28 323.371 1169.67 321.87C1172.35 319.19 1179.53 316.511 1181.56 311.366L1186.27 314.26C1188.31 317.69 1177.06 326.157 1173.85 327.444V327.658ZM1182.95 285.964C1184.35 285.321 1182.74 282.963 1184.99 283.499L1184.35 290.465C1181.78 293.359 1177.38 292.502 1174.49 294.538C1172.46 295.932 1172.13 298.397 1170.53 299.79C1169.88 300.326 1167.85 299.79 1167.21 300.541C1166.46 301.398 1167.42 303.649 1165.92 304.399C1164.1 305.364 1159.71 304.828 1157.67 307.079C1154.35 301.077 1163.35 300.862 1164.96 299.683C1171.06 295.396 1172.99 291.43 1176.74 286.392C1176.95 286.178 1181.78 286.285 1182.85 285.749L1182.95 285.964ZM1186.06 62.2732C1185.42 60.2367 1184.45 58.4146 1182.95 57.0213C1180.81 55.092 1177.17 55.3063 1176.63 52.8411H1228.37C1226.77 60.3439 1226.02 66.6677 1226.87 74.3849L1231.16 75.8854C1231.16 77.386 1228.48 76.0998 1227.3 76.8501C1225.16 78.2435 1226.34 103.431 1226.98 107.933C1221.3 109.862 1226.66 111.684 1227.09 116.401C1227.52 120.688 1225.59 126.154 1225.7 130.334C1225.91 147.376 1228.05 168.384 1226.87 184.998C1226.66 187.141 1226.98 189.07 1224.2 189.714L1186.17 62.0588L1186.06 62.2732ZM1209.95 242.769C1209.41 243.519 1206.52 243.412 1205.56 244.27C1204.16 245.556 1203.84 247.271 1202.45 248.557C1201.49 249.414 1197.31 253.916 1196.24 252.737C1197.84 244.377 1205.88 243.412 1208.88 237.41C1211.34 236.874 1210.48 242.233 1210.06 242.769H1209.95ZM1211.88 191.536C1211.88 191.536 1212.63 193.572 1212.3 194.108C1211.23 195.716 1208.13 192.822 1208.77 196.788L1205.98 196.145C1204.38 193.251 1219.27 182.104 1219.91 182.854C1220.98 189.07 1213.27 189.928 1211.88 191.536ZM1218.84 334.839C1222.05 331.945 1226.34 328.944 1227.94 326.479C1228.91 324.978 1227.94 321.763 1229.77 320.477C1230.73 319.726 1233.09 321.334 1234.8 320.048C1236.41 318.869 1237.59 315.332 1239.51 313.51C1242.41 310.83 1247.55 311.902 1246.58 305.9L1250.76 307.293C1251.19 305.042 1253.33 299.147 1254.94 298.075C1256.33 297.218 1258.47 298.933 1258.9 298.611C1270.37 291.966 1287.18 269.672 1300.57 260.669C1302.29 259.49 1301.97 255.524 1306.68 256.917L1305.5 259.597L1308.07 261.097C1305.93 262.062 1301.11 263.348 1299.72 264.742C1293.18 270.744 1284.83 279.747 1277.76 286.714C1275.19 289.286 1275.61 295.074 1271.76 291.859C1268.12 304.614 1251.73 310.83 1241.12 319.19C1236.09 323.156 1229.77 330.23 1226.66 333.446C1224.62 335.589 1222.37 336.983 1219.7 337.519C1219.48 336.554 1219.16 335.589 1218.95 334.625L1218.84 334.839ZM1307.97 424.766C1307.97 424.766 1307.86 424.551 1307.75 424.337C1308.39 424.337 1308.93 424.337 1309.57 424.337C1310.54 424.337 1311.5 424.337 1312.36 424.444C1312.57 424.444 1312.79 424.444 1312.89 424.551L1307.97 424.766ZM1348.67 57.8787C1347.28 60.2367 1347.28 62.0589 1347.07 64.6312C1344.92 88.533 1346.32 120.902 1346.1 145.769C1345.67 231.301 1345.35 317.583 1345.03 402.471C1345.03 409.224 1350.39 417.584 1343.42 423.265L1320.07 424.23C1320.07 424.23 1320.07 423.372 1320.07 422.943C1318.78 416.405 1310.43 417.263 1305.5 417.37C1298.32 417.584 1291.25 417.799 1284.08 418.013C1271.33 418.442 1258.58 418.763 1245.83 419.192C1245.83 418.978 1245.83 418.87 1245.83 418.656C1245.62 417.263 1244.23 416.298 1242.94 416.191C1241.98 413.297 1241.01 410.403 1240.16 407.509C1240.48 407.509 1240.69 407.616 1241.01 407.831V403.758C1247.66 406.437 1244.01 404.294 1245.83 401.507C1246.58 400.435 1249.58 399.256 1249.58 396.791L1241.66 400.435C1240.59 401.185 1239.73 402.257 1238.87 403.329C1237.59 399.256 1236.3 395.183 1235.12 391.11C1235.98 389.181 1236.09 387.359 1233.62 385.644H1233.52C1232.44 382.107 1231.37 378.57 1230.3 374.925C1230.94 374.39 1231.37 373.961 1231.48 373.746C1232.44 372.567 1235.23 368.602 1234.27 367.423C1232.12 364.85 1231.16 369.888 1230.52 370.317C1230.09 370.638 1229.55 370.745 1229.02 370.745C1226.98 363.564 1224.84 356.383 1222.91 349.094C1222.37 346.951 1221.73 344.807 1221.2 342.556C1242.3 327.336 1264.69 313.51 1287.29 299.469C1292.86 296.039 1302.5 286.607 1309.04 286.821C1310.43 286.821 1312.46 288.107 1314.71 288.858V315.653C1313.96 316.832 1311.39 316.725 1311.18 316.94C1310.11 318.226 1316 321.87 1312.68 326.05C1303.47 327.765 1295.32 332.588 1287.08 336.661C1285.58 337.411 1286.43 340.413 1283.22 337.947V342.128C1275.19 338.269 1275.29 348.987 1270.26 350.917C1268.33 351.667 1265.33 350.273 1265.12 350.595C1264.79 351.024 1265.65 353.382 1264.8 354.454C1264.26 355.097 1262.12 354.668 1261.47 355.311C1259.01 357.669 1256.76 363.028 1253.98 360.349C1254.73 367.315 1245.51 363.886 1244.23 372.889C1250.33 374.068 1252.8 367.101 1255.05 365.815C1265.65 359.17 1283.65 350.381 1295.32 344.7C1301.11 341.806 1301.65 338.805 1310.32 335.161C1311.5 334.625 1311.07 331.731 1313.43 332.374L1314.93 333.339V339.877C1311.39 343.307 1305.61 347.379 1303.89 348.666C1298.54 352.631 1288.36 354.668 1289.11 363.243L1297.04 356.597C1301.43 352.953 1308.07 353.275 1310.96 347.915C1312.57 347.272 1313.96 347.487 1315.04 348.344V355.847C1313.64 355.954 1312.04 354.668 1311.61 354.989C1311.07 355.418 1311.18 358.848 1309.68 360.241C1306.25 363.243 1296.4 369.352 1291.9 372.567C1286.22 376.64 1289.33 373.532 1286.54 374.711C1286.11 374.925 1280.43 381.464 1280.76 382.964C1282.68 384.786 1291.58 375.461 1293.61 374.175C1295.11 373.211 1298.11 373.854 1299.82 372.782C1301.32 371.924 1305.07 365.708 1308.18 365.065C1312.68 363.993 1315.89 366.565 1312.79 371.281C1310.64 374.604 1308.29 373.211 1307.43 373.746C1304.32 375.783 1303.04 379.427 1302.07 380.392C1301.32 381.142 1291.68 385.965 1289 387.787C1288.25 388.216 1286.54 387.359 1286.43 387.466C1284.61 388.966 1285.04 393.361 1288.36 392.825C1292.86 385.001 1303.25 382.857 1310.32 378.677C1311.71 377.819 1313.11 375.783 1314.93 374.39V386.716L1312.79 385.858C1314.61 391.86 1308.18 392.289 1307.22 397.755L1314.93 397.327V409.653C1314.93 409.653 1314.93 410.403 1315.14 410.725C1313.54 411.046 1311.5 411.582 1311.39 413.833H1318.36L1319.86 418.013V412.761C1321.03 412.332 1322 411.26 1322 409.653V285.106C1322 283.499 1321.03 282.427 1319.86 281.998V59.0577C1319.86 57.1284 1313.21 54.9848 1312.89 52.7339H1354.78C1354.03 55.1992 1351.14 54.7704 1349.31 57.7715L1348.67 57.8787ZM1419.8 409.331L1425.37 406.544V420.585C1418.09 419.514 1410.37 420.585 1402.98 421.872C1399.45 422.515 1395.91 423.158 1392.27 423.801C1387.88 423.265 1383.81 422.622 1381.56 423.265C1380.81 423.479 1380.7 424.444 1380.59 425.194C1379.95 425.194 1379.42 425.194 1378.77 425.301C1372.45 421.764 1362.81 424.98 1355.53 424.658C1355.21 424.23 1356.49 419.192 1356.92 418.549C1358.42 416.298 1362.17 419.406 1361.1 414.798L1354.14 416.191L1356.92 405.687C1353.06 404.937 1352.85 399.256 1353.49 395.933C1354.03 393.039 1357.99 393.254 1353.06 391.86C1354.99 388.109 1351.14 385.858 1355.74 384.679L1352.85 377.712L1355.63 372.889L1352.85 374.925C1353.6 369.566 1354.67 360.777 1360.88 361.099L1363.99 356.704L1354.24 360.134C1353.06 358.848 1355.21 345.772 1354.99 342.663C1354.89 339.019 1352.21 322.406 1353.17 321.227C1353.81 320.477 1356.71 321.977 1355.53 318.119H1352.74L1355.53 313.188L1352.74 313.938L1354.14 305.578L1356.81 306.972C1356.81 300.112 1362.81 300.755 1366.13 297.325C1367.85 295.61 1366.78 293.681 1367.1 293.359C1368.28 291.966 1372.45 291.537 1372.35 287.572L1376.42 288.858L1377.81 283.927L1375.02 282.427C1371.92 283.177 1368.92 288.322 1367.2 288.643C1365.17 288.965 1359.6 282.855 1356.17 291.537C1355.21 290.144 1354.46 285.857 1354.78 284.356C1355.63 280.176 1369.56 272.995 1373.2 270.101C1374.7 268.922 1377.7 264.527 1379.84 262.705C1386.59 256.596 1399.13 250.272 1404.91 243.198C1408.45 238.911 1409.84 241.269 1411.87 239.768C1415.19 237.41 1417.23 230.872 1424.09 233.444C1428.69 244.806 1415.84 249.2 1407.27 252.416C1406.3 257.56 1411.02 254.13 1413.59 254.452C1416.16 254.774 1419.48 256.488 1422.48 256.703C1422.91 266.992 1426.66 277.711 1422.48 287.572C1421.3 290.358 1403.2 298.719 1400.3 303.327C1403.41 307.186 1402.55 304.078 1403.95 303.006C1409.62 298.719 1416.59 296.575 1421.19 293.574C1422.8 292.502 1421.84 289.715 1423.98 290.144C1425.8 296.682 1424.19 301.72 1423.44 308.151C1422.91 312.331 1426.34 315.01 1419.8 317.476L1423.98 318.119L1423.66 334.196C1415.84 341.699 1406.09 348.987 1396.56 353.596C1387.88 361.206 1378.34 370.96 1367.1 377.284L1363.88 383.822C1372.24 384.679 1370.95 380.392 1373.2 378.141C1378.34 372.889 1390.99 366.78 1397.63 362.707C1403.95 358.741 1407.16 353.81 1414.23 349.845C1415.09 349.309 1416.91 350.381 1416.91 350.273C1417.66 348.987 1416.05 341.484 1421.84 343.307C1426.55 344.807 1420.66 355.418 1422.59 358.634L1418.41 359.384C1425.05 363.028 1421.84 367.851 1425.37 372.032L1422.48 373.425C1426.01 379.32 1423.98 386.18 1424.09 392.718C1424.09 394.861 1425.59 397.327 1425.59 400.006C1425.59 402.257 1418.84 405.258 1419.91 409.01L1419.8 409.331ZM1509.89 430.339L1507.21 428.195C1508.61 428.195 1510 428.195 1511.5 428.088C1510.96 428.731 1510.43 429.482 1509.89 430.339Z" fill="white"/>
<path d="M1478.5 228.299L1494.68 248.45C1500.79 248.878 1501.43 239.768 1502.5 239.018C1503.46 238.375 1505.71 239.018 1506.78 238.482C1509.25 237.088 1508.82 233.444 1513.32 234.516C1509.25 228.835 1505.07 236.767 1504.21 237.088C1503.68 237.303 1497.04 236.338 1496.72 235.802C1494.68 228.407 1499.39 231.836 1502.18 227.549C1490.39 226.799 1502.29 220.689 1497.25 216.402C1493.29 220.153 1489.43 217.688 1490.93 224.762C1486.32 224.548 1481.61 224.441 1478.4 228.299H1478.5Z" fill="white"/>
<path d="M1518.89 376.319C1511.82 381.142 1496.5 390.574 1491.36 395.719C1489 398.077 1490.5 402.686 1482.68 403.115C1483.43 404.615 1490.5 405.151 1490.82 404.937C1491.14 404.83 1491.79 402.364 1493.29 401.292C1507.11 391.324 1518.78 383.393 1532.17 372.996C1534.1 371.496 1537.31 372.675 1537.1 370.317L1524.57 371.71L1525.96 374.497C1518.35 372.032 1521.46 374.711 1518.89 376.426V376.319Z" fill="white"/>
<path d="M1532.49 240.518C1525.42 243.519 1523.82 242.233 1516.75 246.949C1511.71 250.272 1506.36 253.595 1500.79 256.274L1507.75 263.991C1507.21 260.883 1510.21 261.633 1511.39 260.669C1516.21 256.81 1518.35 250.915 1525.32 250.057L1542.78 236.017C1537.64 234.409 1535.81 239.232 1532.6 240.625L1532.49 240.518Z" fill="white"/>
<path d="M1522.42 269.243C1521.35 269.672 1516.75 268.707 1514.82 269.565C1515.57 277.925 1520.92 282.105 1527.46 275.46V265.278C1523.39 264.099 1525 268.064 1522.32 269.136L1522.42 269.243Z" fill="white"/>
<path d="M1544.17 181.461C1541.81 180.817 1543.53 184.033 1541.92 184.354C1539.46 184.89 1536.89 183.175 1534.42 183.711C1533.14 184.033 1518.03 191.857 1520.5 194.001L1545.67 185.641L1544.28 181.461H1544.17Z" fill="white"/>
<path d="M1280.01 315.761C1289.65 315.225 1293.83 305.9 1299.93 300.862C1300.36 300.541 1305.5 300.219 1306.57 296.789C1302.29 291.108 1300.36 301.934 1293.29 301.612L1292.65 307.293L1290.61 304.506C1287.5 306.328 1286.01 311.044 1283.65 312.974C1281.93 314.474 1277.44 312.116 1278.72 318.44L1280.11 315.653L1280.01 315.761Z" fill="white"/>
<path d="M1397.95 340.734C1390.45 344.7 1385.63 347.701 1379.84 352.524C1374.38 357.133 1369.56 362.385 1363.99 366.78C1367.53 371.603 1369.88 363.243 1371.92 361.849C1378.88 357.133 1387.24 352.953 1394.31 348.88C1396.66 347.487 1400.31 339.984 1404.38 339.555L1401.59 337.412C1400.41 338.591 1399.34 339.984 1397.84 340.734H1397.95Z" fill="white"/>
<path d="M1384.13 389.074C1386.27 387.144 1389.27 386.93 1385.63 384.25C1384.45 387.573 1377.27 388.538 1376.85 388.859C1376.31 389.288 1368.81 398.72 1369.56 399.578C1373.63 394.54 1379.84 392.825 1384.13 389.074Z" fill="white"/>
</g>
<defs>
<clipPath id="clip0_22600_330">
<rect width="1689" height="479" fill="white"/>
</clipPath>
</defs>
</svg>
