<svg width="1313" height="581" viewBox="0 0 1313 581" fill="none" xmlns="http://www.w3.org/2000/svg">
<g clip-path="url(#clip0_22600_34)">
<path d="M445.409 20.3599H323.112L240.606 305.799L153.574 20.3599H0.936859L28.0842 51.1138V347.869L0.936859 378.49H107.264L62.8169 338.683V125.269L194.295 546.771L318.056 127.266V347.869L290.908 378.49H445.409L418.261 347.869V51.1138L445.409 20.3599Z" fill="white"/>
<path d="M601.373 20.3599H447.006L474.02 51.1138V347.869L447.006 378.49H601.373L574.359 347.869V51.1138L601.373 20.3599Z" fill="white"/>
<path d="M884.824 20.3599L929.271 60.3V308.595L755.075 20.3599H616.81L643.957 51.1138V347.869L616.81 378.49H723.27L678.69 338.683V150.299L961.076 580.321L964.137 400.058V51.1138L991.151 20.3599H884.824Z" fill="white"/>
<path d="M1282.59 354.526L1111.72 -0.00964355H1108.66L979.174 275.311H1012.84L1013.11 274.779H1136.34L1171.6 351.996V358.653L1171.07 351.996L1143.92 382.75H1312.66L1282.45 354.659L1282.59 354.526ZM1026.28 246.155L1075.39 140.18L1123.43 246.155H1026.28Z" fill="white"/>
</g>
<defs>
<clipPath id="clip0_22600_34">
<rect width="1311.72" height="580.33" fill="white" transform="translate(0.936859 -0.00964355)"/>
</clipPath>
</defs>
</svg>
