<svg width="1346" height="474" viewBox="0 0 1346 474" fill="none" xmlns="http://www.w3.org/2000/svg">
<g clip-path="url(#clip0_22600_393)">
<path d="M650.874 462.21L468.953 458.717C432.897 457.625 418.365 440.923 419.567 404.898L430.711 50.7623C431.804 14.7375 447.428 -0.982495 483.376 0.109168L665.297 3.60249C701.354 4.69415 716.432 21.3966 715.339 57.4215L704.194 411.557C703.102 447.582 686.931 463.302 650.874 462.101V462.21ZM592.638 183.072L557.783 182.635L554.724 279.357L589.578 279.793L592.638 183.072Z" fill="white"/>
<path d="M899.555 456.97L869.399 237V456.97H821.433V5.23999H869.399V211.564L897.807 5.23999H945.773V6.98665L910.809 224.009L948.723 455.223V456.97H899.555Z" fill="white"/>
<path d="M1039.74 451.621L1015.48 261.781V206.979H1031.65V55.6748H1009.15V451.621H962.381V10.6983H1044.44C1069.24 10.6983 1079.07 20.5233 1079.07 45.304V209.818C1079.07 230.559 1073.28 237.546 1059.41 239.838L1055.91 240.384L1085.41 449.328V451.621H1039.74Z" fill="white"/>
<path d="M1100.82 451.621V10.6983H1147.58V451.621H1100.82Z" fill="white"/>
<path d="M1171.07 451.621V10.6983H1217.84V403.697H1251.93V451.621H1171.07Z" fill="white"/>
<path d="M1265.15 441.796V0.873322H1311.91V393.872H1346V441.796H1265.15Z" fill="white"/>
<path d="M231.854 12.2266L392.36 9.38831V468.214L236.115 471.053V331.756C236.115 313.744 234.695 286.016 234.695 286.016L210.33 422.474L176.786 425.421L152.421 289.4C152.421 289.4 150.891 316.801 150.891 334.813V474.109L0 469.306V10.3708L152.093 12.2266C152.093 12.2266 192.083 202.94 192.629 219.752L231.854 12.2266Z" fill="white"/>
<path d="M770.079 252.065V280.667H749.429V252.065H721.021V233.179H749.429V204.578H770.079V233.179H798.487V252.065H770.079Z" fill="white"/>
</g>
<defs>
<clipPath id="clip0_22600_393">
<rect width="1346" height="474" fill="white"/>
</clipPath>
</defs>
</svg>
