<svg width="1305" height="763" viewBox="0 0 1305 763" fill="none" xmlns="http://www.w3.org/2000/svg">
<g clip-path="url(#clip0_22606_12)">
<path d="M488.686 612.861L489.514 630.608L490.816 647.408L490.461 664.327L491.645 681.246L488.804 698.046L490.816 714.965L489.633 730.819L474.957 732.12L459.215 731.292L443.474 732.949L427.733 733.54L412.11 730.582L396.369 730.346L380.628 730.819L364.887 732.712L349.264 730.227L333.523 732.475L317.782 731.884L302.041 730.464L286.3 732.949L270.558 729.754L254.936 731.529L239.194 731.41L223.453 729.754L207.712 730.109L191.971 731.292L176.23 733.185L160.489 731.647L144.866 729.163L129.125 731.056L113.384 732.357L97.6425 729.517L81.9013 730.464L66.1602 729.163L50.419 730.819H34.5595L34.7962 714.847L34.0861 698.993L34.4412 683.257L35.6247 667.403L33.376 651.549L34.2044 635.814L32.3108 619.96L32.9025 604.106L34.7962 588.37L31.719 572.516L31.1272 556.781L33.731 540.927L32.7842 525.073L30.7722 509.337L34.9146 493.483L33.4943 477.629L31.9557 461.894L31.4823 446.04L31.1272 430.304L33.1393 414.45L34.0861 398.596L32.1924 382.861L29.5886 367.007L30.5355 351.271L30.7722 335.417L31.8374 319.563L32.1924 303.709L32.7842 287.974L31.6007 272.12L28.9969 256.384L31.1272 240.53V224.676L28.4051 208.941L28.1684 193.087L29.1152 177.233L27.8133 161.497L29.1152 145.643L28.1684 129.789L28.7601 113.935L28.05 98.1997L28.8785 82.3458L30.062 66.4919L29.5886 50.6379L28.9969 34.9023L44.8564 35.4939L60.8342 34.3107L76.8121 35.1389L92.6716 34.4291L108.649 33.6009L124.627 34.9023L140.487 32.5361L156.465 33.1276L172.324 31.5896L188.302 29.105L204.28 31.9445L220.139 28.75L236.117 29.5782L251.977 28.2768L267.955 28.3951L283.932 27.9218L299.91 30.5247L315.888 28.9867L331.748 26.0288L347.725 28.0402L363.703 26.0288H379.681L395.541 25.6739L411.519 27.9218L427.496 26.2655L443.474 24.3725L459.452 27.0937L475.312 23.6626L491.881 24.0175L491.526 41.1729L491.408 57.7367L489.514 74.4188L488.804 90.9826L490.106 107.665L489.869 124.229L491.881 140.911L487.857 157.475L490.579 173.92L501.35 185.515L514.132 196.045L515.197 179.481L515.079 163.272L513.303 147.063L514.369 130.854L516.026 114.764L515.434 98.5547L516.262 82.3458L515.197 66.1369L513.185 49.9281L514.369 33.7192L515.434 17.5103L514.842 1.77469L499.338 3.43107L483.36 3.54939L467.382 0L451.404 0.82819L435.545 5.08746L419.567 3.31276L403.589 5.79733L387.611 2.48457L371.633 2.95782L355.655 4.6142L339.677 6.62552L323.7 4.25927L307.722 3.43107L291.744 5.79733L275.884 5.91565L259.906 7.57203L243.929 7.09878L227.951 6.86215L211.973 8.63684L195.995 6.62552L180.017 9.46503L164.039 9.81997L148.061 7.80865L132.084 9.34672L116.106 10.6482L100.128 7.69034L84.15 9.1101L68.1722 10.0566L52.3127 12.0679L36.2165 8.99178L20.2386 10.4115L4.37912 11.713L4.26076 27.4486L2.95886 43.4208L5.79937 59.3931L3.55063 75.247L3.43228 91.2193L4.85253 107.073L4.14241 123.045L3.78734 138.899L4.37912 154.872L5.2076 170.844L3.31393 186.698L4.97089 202.67L3.19557 218.524L5.32595 234.496L3.55063 250.35L2.72215 266.322L4.02405 282.295L2.24874 298.149L5.44431 314.121L2.48544 329.975L4.14241 345.947L2.48544 361.801V377.773L4.02405 393.627L3.31393 409.599L1.89367 425.453L3.66899 441.426L2.01203 457.279L0.828481 473.252L2.72215 489.224L2.01203 505.078L1.42025 521.05L2.6038 536.904L2.95886 552.876L1.77532 568.849L3.19557 584.702L2.95886 600.675L1.53861 616.647L1.06519 632.501L2.36709 648.473L2.84051 664.327L0.473418 680.299L0.236709 696.272L2.84051 712.125L1.18354 728.098L0 744.07V761.462L17.6348 759.214L33.6127 760.515L49.7089 758.386L65.8051 757.913L81.783 760.161L97.8792 759.451L113.857 761.344L129.953 759.806L145.931 760.989L162.027 761.58L178.124 762.29L194.101 759.924L210.198 758.977L226.175 762.763L242.272 761.817L258.368 759.687L274.346 759.214L290.442 761.344L306.538 759.451L322.516 760.87L338.612 758.977L354.708 763L370.686 762.882L386.782 759.096L402.879 762.527L418.857 759.214L434.953 762.763L451.049 760.042L467.027 761.462L483.123 762.409L499.219 762.645L514.724 760.515L515.434 745.845V730.582L513.54 715.32L515.315 699.939L514.605 684.677L516.736 669.296L517.091 654.034L513.895 638.771L515.789 623.391L513.54 608.128L515.315 592.511L501.941 601.858L488.686 612.861Z" fill="white"/>
<path d="M345.95 76.1935L331.511 68.3848L330.091 67.5566L309.142 82.819L288.785 99.2645L267.244 114.29L250.083 134.64L229.371 151.914L227.241 140.082L224.4 110.386L204.753 88.1431L176.23 79.1513L149.955 83.8838L124.746 92.9939L103.205 108.848L87.3456 130.262L84.8602 131.091L95.7488 146.708L100.601 146.471L131.255 132.984L150.31 143.04L156.465 165.638L158.003 194.151L153.151 222.31L146.76 223.966L119.42 232.13L96.9323 250.113L81.0728 275.078L79.0608 278.745L89.7127 291.405L95.0386 285.726L111.017 271.173L132.675 268.215L153.861 281.348L155.518 284.188H148.653L122.023 294.008L103.915 315.541L100.483 318.735L112.2 327.372L114.567 325.597L130.308 320.865L156.583 337.31L154.098 363.457L158.95 389.486L154.453 415.16L136.818 430.422L116.461 444.265L103.442 465.325L96.2222 489.106L96.6956 493.956L112.082 500.937V495.731L132.32 476.801L153.742 465.088L158.832 490.407L154.098 516.436L154.571 542.465L157.293 568.494L154.808 594.522L152.086 622.208L153.032 650.248L144.984 676.987L146.049 681.364L160.725 689.173L160.962 682.547L177.768 665.865L193.983 649.065L212.801 635.222L233.632 624.929H236.827L237.893 614.044L239.905 611.205L229.726 592.274L230.199 570.742L231.146 546.014L229.963 521.287L230.555 496.559L231.62 472.778L254.699 482.717L272.925 503.658L275.411 510.165L280.145 505.078L313.876 486.503L336.837 473.843L358.259 458.581L377.906 441.189L398.381 425.098L416.134 405.932L431.639 384.99L445.131 362.629L453.653 338.02L464.186 313.766L469.276 287.737L469.986 261.235L463.003 235.206L463.358 208.467L451.996 184.331L442.764 159.959L431.639 135.823L414.241 115.592L392.108 100.921L370.213 86.3684L345.95 76.0752V76.1935ZM227.241 410.664L227.832 384.517L226.53 358.843L228.424 333.169L229.016 307.495L231.383 281.821L226.886 256.147V230.474L227.832 204.8L230.081 179.481L247.361 162.917L245.704 190.72L246.414 218.406L244.639 246.091L245.23 273.776L249.61 301.461L249.965 329.147L249.018 356.832L244.994 384.517L245.941 411.966L227.122 410.546L227.241 410.664ZM321.332 452.902L296.36 431.487L265.943 417.645L267.6 394.337L268.191 371.976L270.558 350.206L291.27 334.471L316.243 323.113L342.044 314.121L368.674 307.614L394.712 299.213L391.162 324.059L387.611 348.668L378.971 371.976L369.503 394.692L359.679 418.118L342.991 437.166L321.451 453.02L321.332 452.902ZM266.416 266.441L267.008 242.068L265.706 218.287L267.6 194.506L268.191 170.726L270.44 147.773L281.802 132.274L309.024 137.716L332.931 149.193L352.46 166.585L369.976 185.751L380.51 208.467L358.022 217.577L333.996 226.214L311.272 237.927L291.034 253.899L266.653 266.322L266.416 266.441ZM396.133 277.799L368.911 285.489L343.701 295.546L317.663 303.473L292.572 313.884L270.558 325.597L266.061 289.985L289.613 273.421L313.758 261.117L338.967 251.297L363.112 239.229L387.611 230.71L391.753 252.953L396.133 277.799Z" fill="white"/>
<path d="M675.449 475.618L651.897 491.59L643.493 473.725L641.363 452.665L639.233 427.228L640.416 401.791V376.353L639.943 350.916L641.718 325.479L643.138 299.213L655.921 276.142L669.886 253.781L675.094 249.167L657.459 238.164L653.79 240.885L638.878 255.674L620.533 266.559L593.666 259.105L567.628 250.114L542.892 237.691L538.631 232.367L534.015 237.099L517.446 253.545L495.905 262.891L473.418 269.517L467.855 271.646L467.264 277.799L476.259 301.935L485.727 325.479L495.787 349.023L510.7 368.9L488.804 386.41L471.406 409.363L456.257 433.972L452.233 462.722L458.15 490.289L469.749 515.608L489.869 535.248L515.434 547.197L518.866 549.327L536.619 533L553.662 515.726L572.244 500.345L581.357 519.749L596.033 536.312L615.207 546.606L618.047 549.327L639.824 530.752L663.969 515.134L686.219 497.033L675.449 475.618ZM525.139 428.648L526.441 407.47L531.412 387.948L549.047 398.478L570.942 403.802L569.759 426.4V448.643L570.232 471.122L544.904 492.537L530.228 475.5L526.086 452.074L525.139 428.648ZM568.693 322.994L569.048 350.798L568.693 378.483L545.141 365.824L523.008 348.313L508.333 324.059L497.799 297.912L521.588 306.904L545.141 316.724L568.812 323.113L568.693 322.994Z" fill="white"/>
<path d="M779.364 492.3L763.386 478.457L763.15 451.009L761.374 423.442L761.493 395.757L761.138 368.19L762.795 340.505V313.174L785.874 285.844L765.043 267.86L744.331 250.705L723.619 232.367L704.446 250.587L686.456 269.162L669.295 286.791L691.309 310.926L690.007 336.245L693.084 361.683L691.782 387.12L690.717 412.557L692.374 437.994L693.084 463.432L676.514 493.01L671.188 493.838L670.952 514.425H677.106L701.25 525.546L724.211 539.034L739.005 547.907L743.385 550.628L763.031 532.645L784.927 517.856L806.349 501.41L795.105 479.404L779.364 492.3Z" fill="white"/>
<path d="M744.213 127.778L732.378 156.055L720.424 184.45L708.943 212.845L725.631 221.127L745.633 202.197L765.872 183.503L785.637 164.1L806.231 145.525L806.112 127.423H775.104L744.213 127.778Z" fill="white"/>
<path d="M1035.01 537.614L1013.35 519.275L1006.25 492.892V465.088L1004.95 437.285L1003.17 409.481L1005.42 381.677L1003.65 353.874L1005.07 326.07L1026.61 300.87L1031.81 299.687L1032.52 279.81H1025.9L1001.99 274.013L980.094 263.128L958.908 251.297L937.841 238.4L934.29 234.733L929.319 236.744L910.501 252.125L890.262 265.731L868.604 277.207L845.169 284.188L822.09 292.469L818.421 291.996L816.054 318.617L817.238 345.592L817.474 372.567L815.344 399.543L816.883 426.518L818.421 453.493L818.066 480.469V506.616L839.37 524.481L862.212 539.389L843.276 552.758L825.878 570.15L806.704 585.294L787.767 599.373L801.733 617.712L806.586 612.151L825.641 609.075L848.838 612.979L870.971 622.444L890.499 636.405L910.028 650.366L915.117 653.797L934.172 634.749L956.068 619.605L977.135 603.278L997.373 586.004L1018.44 569.677L1041.76 555.479L1040.1 537.614L1035.13 537.969L1035.01 537.614ZM935.947 471.832L916.537 489.579L888.369 467.336L888.724 443.318L887.185 418.591L885.41 393.864L887.659 369.136L885.883 344.409L887.304 319.681V294.954L892.274 291.523L911.803 306.194L934.527 315.895L933.935 341.924L932.16 367.835L932.397 393.745L935.356 419.656L935.711 445.448L935.947 472.069V471.832ZM936.066 503.066L936.894 533.236L948.966 559.738L970.27 577.13L954.411 593.812L931.687 577.604L909.081 561.158L880.912 554.651L900.559 538.442L918.194 521.997L936.066 502.948V503.066Z" fill="white"/>
<path d="M1172.89 494.43L1152.77 483.072L1131.94 473.015L1130.17 472.305L1129.34 448.406L1130.64 424.625L1152.54 406.878L1173.72 388.185L1195.62 370.438L1217.16 352.217L1240.24 334.471L1222.84 313.884L1206.98 293.298L1190.65 273.066L1174.67 252.598L1158.1 232.248L1152.06 236.626L1131.59 251.652L1108.98 263.246L1086.38 274.723L1064.36 287.382L1040.45 295.901L1037.02 298.267L1037.85 318.735H1042.23L1060.57 340.978L1059.86 369.491L1059.27 398.005L1060.81 426.518L1059.86 455.031L1042.58 487.686L1039.03 489.106L1037.97 506.616L1042.7 508.391L1067.08 515.844L1090.64 525.428L1114.07 535.248L1136.32 547.552L1139.87 549.445L1162 534.538L1183.31 518.447L1204.97 502.83L1226.74 487.213L1211.71 469.702L1192.89 482.717L1173.01 494.193L1172.89 494.43ZM1123.42 300.16L1139.16 320.391L1153.84 341.451L1169.22 362.274L1150.41 379.666L1130.4 395.165L1130.88 366.77L1130.05 338.138L1123.3 300.16H1123.42Z" fill="white"/>
</g>
<defs>
<clipPath id="clip0_22606_12">
<rect width="1240" height="763" fill="white"/>
</clipPath>
</defs>
</svg>
