<svg width="2003" height="793" viewBox="0 0 2003 793" fill="none" xmlns="http://www.w3.org/2000/svg">
<path d="M2002.68 1.4774C2003.65 3.10203 2002.03 7.00116 2000.4 8.1384C1998.61 9.60057 1995.2 9.92549 1993.42 11.0627C1988.22 14.6369 1988.7 14.312 1982.69 17.2364C1974.73 21.1355 1971.81 23.5724 1965.31 28.6088C1957.19 35.1074 1948.09 35.4323 1939.97 43.0681C1937.86 45.0176 1936.4 48.4294 1934.28 49.7291C1930.87 51.8411 1924.05 52.3285 1919.66 55.0904C1912.35 59.6394 1906.02 67.2752 1899.84 72.6365C1889.77 81.4095 1877.91 84.9837 1868 93.7567C1864.92 96.5186 1862.48 100.905 1858.91 103.505C1852.41 108.541 1841.53 112.44 1835.35 118.451C1832.92 120.726 1831.78 124.625 1829.34 127.224C1823.49 133.56 1815.05 136.322 1808.71 141.034C1804.16 144.445 1802.05 149.482 1798.15 153.056C1795.23 155.818 1792.14 156.63 1789.22 159.067C1785.32 162.479 1781.42 169.302 1777.2 172.552C1772.32 176.451 1771.67 175.963 1766.31 181.162C1752.5 194.647 1738.37 207.481 1724.07 220.478C1722.13 222.265 1720.99 225.027 1719.04 226.814C1716.76 228.764 1713.52 229.414 1711.24 232.013C1707.34 236.075 1707.02 242.573 1703.44 246.148C1699.87 249.722 1691.42 253.946 1687.2 257.845C1667.87 275.554 1652.11 296.836 1633.1 314.707C1628.23 319.419 1616.53 326.892 1613.28 331.441C1611.33 334.203 1610.85 337.777 1608.9 340.539C1606.14 344.276 1599.48 347.85 1596.55 351.586C1593.14 355.973 1590.87 362.472 1586.32 366.696C1584.04 368.808 1579.98 369.62 1577.71 372.219C1575.43 374.819 1574.62 378.393 1572.51 381.317C1568.61 387.004 1561.14 393.502 1557.24 399.026C1552.85 405.524 1548.95 415.272 1541.81 420.634C1539.86 422.096 1537.26 421.933 1536.28 422.746C1535.31 423.558 1532.71 428.919 1531.25 430.544C1525.72 437.042 1515.81 446.303 1511.27 452.964C1508.34 457.35 1507.2 464.824 1503.63 469.21C1501.19 472.135 1496.81 473.272 1494.53 475.871C1492.42 478.308 1491.61 482.37 1489.99 484.644C1486.74 489.193 1481.05 493.905 1477.64 498.616C1468.38 511.288 1460.09 526.885 1449.86 538.095C1446.61 541.669 1444.66 540.369 1442.39 546.705C1439.63 554.341 1438.81 560.515 1433.45 567.501C1428.74 573.512 1419.48 578.873 1415.26 585.859C1410.55 593.495 1410.87 598.856 1402.26 605.192C1394.3 611.203 1393 608.442 1384.88 609.579C1381.47 610.066 1377.41 612.99 1372.86 613.153C1369.94 613.153 1368.15 612.016 1365.87 612.016C1361 612.016 1348.17 615.59 1341.02 616.077C1323.31 617.215 1305.93 619.002 1288.22 619.489C1276.2 619.814 1266.13 624.525 1254.92 625.825C1245.34 626.962 1239.49 625.663 1231.53 619.814C1230.55 618.189 1234.78 610.391 1234.94 607.467C1235.26 603.73 1233.32 599.344 1234.29 595.282C1237.7 580.173 1240.14 565.551 1242.41 549.955C1246.15 524.935 1251.18 499.428 1253.3 474.409C1254.27 463.524 1256.55 451.989 1257.2 441.754C1257.52 437.53 1255.9 432.981 1256.22 429.407C1256.71 423.72 1261.58 415.272 1261.91 409.099C1262.39 403.412 1260.77 395.127 1261.09 389.441C1262.07 372.057 1267.43 353.374 1268.24 335.34C1268.4 331.116 1266.62 326.405 1266.94 322.181C1267.27 318.119 1269.87 315.032 1270.52 311.133C1271.98 302.36 1272.63 288.063 1273.44 278.478C1275.71 254.433 1279.45 229.089 1285.14 206.994C1286.11 202.932 1286.27 194.809 1291.47 195.621L1288.71 194.484C1292.28 172.227 1298.94 150.132 1304.79 128.361C1307.23 126.899 1310.32 127.549 1312.92 126.574C1315.35 125.762 1317.14 123.975 1319.58 123.163C1339.72 116.664 1361 116.502 1381.79 112.44C1390.89 110.653 1398.69 106.104 1408.92 106.104C1411.03 106.104 1412.5 107.566 1415.26 107.241C1418.99 106.754 1422.89 102.53 1425.98 101.23C1433.94 97.9808 1439.95 101.88 1446.61 101.717C1449.86 101.717 1453.43 98.9556 1456.2 98.9556C1459.93 98.9556 1469.52 103.992 1473.25 105.779C1473.9 109.353 1466.43 131.123 1464.16 135.347C1462.21 139.084 1457.82 142.658 1456.85 146.07C1455.71 150.294 1457.5 153.543 1456.85 156.793C1456.2 159.717 1452.3 163.129 1450.83 166.053C1447.59 172.389 1448.24 177.913 1445.96 183.599C1441.41 194.972 1432.32 209.593 1429.72 221.291C1425.33 240.949 1416.56 260.444 1410.71 280.752C1408.92 286.601 1404.05 292.287 1401.94 298.948C1401.13 301.71 1401.45 304.472 1400.64 307.396C1399.66 310.646 1395.93 314.707 1394.46 318.444C1390.4 329.816 1387.32 345.088 1382.61 355.973C1380.17 361.659 1377.25 363.121 1376.43 371.082C1376.11 374.006 1377.25 377.256 1376.76 379.368C1376.11 382.455 1369.61 387.978 1367.99 391.553C1365.06 398.051 1364.57 406.824 1363.44 413.323C1362.62 418.684 1359.86 419.659 1358.08 423.233C1353.04 433.468 1348.82 444.353 1344.43 454.751C1342.16 459.95 1336.96 477.821 1339.72 482.207C1340.04 482.857 1350.28 487.731 1351.42 488.056C1358.4 489.843 1361.16 482.532 1364.9 478.633C1366.36 477.008 1368.8 476.684 1370.26 474.734C1372.05 471.972 1372.05 468.073 1373.35 465.149C1375.78 459.462 1382.12 450.202 1386.18 445.815C1389.27 442.566 1394.46 440.454 1396.9 436.88C1398.69 434.118 1399.01 430.869 1400.48 427.944C1403.07 423.07 1407.62 418.684 1410.55 413.323C1416.72 401.95 1423.06 391.878 1429.72 380.992C1431.34 378.231 1431.83 374.656 1433.94 371.894C1436.54 368.483 1439.63 368.645 1442.06 366.046C1445.8 361.984 1450.51 350.449 1454.41 344.925C1458.47 339.077 1464.97 333.716 1468.54 327.867C1475.2 317.144 1480.08 303.497 1487.87 292.775C1489.66 290.338 1493.56 287.576 1495.18 284.976C1499.41 277.828 1501.52 267.593 1507.37 258.82C1511.43 252.809 1523.77 240.624 1526.21 235.1C1528.16 230.876 1527.84 223.89 1530.27 220.641C1531.57 218.691 1537.26 215.28 1539.53 212.193C1550.42 196.921 1560.65 181.487 1570.88 165.566C1577.38 155.493 1584.53 147.857 1590.7 138.922C1592.82 135.835 1593.95 130.636 1595.9 127.874C1597.69 125.437 1600.94 124.95 1602.56 122.35C1604.35 119.588 1604.35 116.014 1606.62 112.927C1609.22 109.353 1615.56 105.454 1618.97 101.88C1622.87 97.8183 1628.72 88.0705 1633.75 86.6083C1637.16 85.6335 1641.39 86.1209 1644.96 85.1462C1650.65 83.684 1655.85 81.0846 1662.67 79.135C1665.27 78.4851 1668.52 75.0734 1672.09 73.7737C1677.13 71.9866 1679.73 72.9614 1684.11 72.3115C1690.77 71.4992 1706.53 61.1015 1715.46 58.8271C1719.2 57.8523 1722.77 58.3397 1725.86 57.5273C1737.07 54.603 1747.3 48.9168 1758.19 46.1549C1764.36 44.5303 1769.56 44.8552 1775.25 43.393C1784.34 41.281 1794.58 36.0821 1804 33.8077C1812.45 31.8581 1825.61 32.0205 1834.54 30.2334C1842.82 28.6088 1852.08 23.0851 1860.21 21.1355C1865.24 19.8358 1870.28 20.3232 1874.67 19.5109C1896.43 14.9619 1912.35 10.7378 1934.77 9.27564C1942.57 8.78825 1952.48 4.72666 1960.6 4.40173C1964.82 4.40173 1968.07 5.70144 1971.48 5.70144C1974.9 5.70144 1985.29 2.7771 1990.49 2.12725C1992.93 1.80232 2000.89 -1.60942 2002.51 1.31493L2002.68 1.4774ZM1331.6 146.07C1330.78 145.258 1324.12 147.207 1323.96 149.319C1328.02 148.507 1327.37 152.569 1331.27 151.594L1331.6 146.07Z" fill="white"/>
<path d="M1035.29 196.434C1031.07 204.882 1030.09 210.893 1026.84 219.341C1023.27 228.114 1023.27 227.952 1020.99 237.699C1018.88 246.472 1014.33 258.495 1012.87 266.455C1012.22 269.705 1013.2 272.304 1012.06 276.528C1010.92 280.427 1007.35 285.951 1006.86 288.713C1006.37 291.8 1007.67 295.211 1006.86 299.598C1006.21 302.685 1003.94 305.122 1002.8 308.046C1000.69 314.382 996.951 324.78 995.327 330.466C994.515 333.39 995.814 337.29 994.84 341.189C993.215 348.012 986.555 357.435 985.417 362.471C984.118 368.32 985.417 376.118 984.118 381.967C983.631 384.404 981.519 386.029 981.031 388.466C979.244 396.589 979.407 408.286 977.295 416.084C976.483 419.171 973.071 421.446 972.259 425.507C970.31 434.768 970.147 445.978 968.523 455.238C966.898 463.686 961.375 474.571 960.4 482.207C960.075 485.131 961.7 487.731 961.375 490.493C961.05 493.417 958.613 496.991 957.801 500.241C954.065 514.862 955.039 534.033 949.354 547.68C948.054 550.767 944.318 552.879 943.018 556.615C941.231 561.977 940.906 569.288 939.444 574.486C935.221 590.245 930.835 607.629 928.235 623.875C926.611 634.598 928.723 645.483 916.539 651.657C910.691 654.743 903.381 655.231 897.207 656.855C882.262 661.08 867.317 665.466 852.209 669.04C841.162 671.64 824.918 671.315 815.171 677.163C810.622 679.925 810.784 683.337 803.962 683.012C795.352 682.687 793.078 680.25 792.915 671.965C792.59 658.968 796.164 642.559 796.489 629.074C805.911 613.478 808.348 596.094 810.784 578.223C811.597 572.049 809.972 565.876 810.784 560.352C811.434 555.641 815.008 552.066 815.983 547.355C817.12 541.669 815.983 535.82 817.445 529.971C818.744 524.448 822.968 520.711 819.557 514.537C815.82 507.714 808.51 511.775 802.5 514.212C790.316 519.249 778.132 527.534 767.086 532.083C757.826 535.983 749.054 539.882 740.119 544.593C736.058 546.705 720.788 558.078 717.051 561.489C708.929 568.638 708.604 581.472 706.654 591.708C703.893 605.842 703.568 620.301 700.481 633.461C699.832 636.06 697.882 638.172 697.395 640.934C695.608 650.194 696.907 665.304 693.171 673.102C692.196 675.214 690.247 676.676 689.11 678.626C685.536 685.612 691.222 689.673 685.211 698.121C678.063 708.032 671.565 701.695 662.956 702.833C660.032 703.32 658.245 704.945 655.483 705.595C648.822 707.057 642.162 706.244 635.827 707.382C619.419 710.144 606.423 713.068 589.529 715.18C573.608 717.129 567.11 722.166 549.891 716.642C538.844 713.068 543.068 706.407 543.718 698.284C544.855 683.337 545.83 677.163 551.678 663.192C552.815 660.43 556.389 656.206 556.714 653.769C558.338 642.559 557.851 630.699 558.826 619.326C559.313 614.29 564.186 606.817 565.161 601.618C566.948 593.332 566.948 591.708 569.71 583.747C573.121 573.512 571.172 565.713 572.796 556.291C573.933 549.792 577.995 544.431 578.482 536.795C578.807 531.596 577.507 525.747 578.969 520.873C582.543 508.526 588.229 494.879 590.178 482.045C590.991 476.521 590.178 469.697 591.478 464.499C592.128 461.412 595.052 459.137 595.702 456.213C597.488 446.953 595.377 430.706 596.514 420.958C597.326 413.81 603.662 400.65 605.124 392.852C606.098 387.978 603.337 383.429 604.311 377.905C605.286 372.057 609.997 363.446 611.622 357.11C614.546 346.225 614.546 335.34 616.82 325.105C617.47 322.343 619.744 319.743 620.556 315.844C621.856 309.996 620.881 299.598 622.506 293.587C623.156 291.312 625.917 289.038 627.054 285.789C628.516 281.402 630.628 264.993 632.902 262.881C634.202 261.581 642.812 259.469 645.086 259.145C661.981 257.033 672.378 255.733 688.623 250.371C691.709 249.397 697.557 250.209 701.131 249.559C711.69 247.61 727.123 241.111 737.032 240.136C740.931 239.811 744.668 240.786 748.566 240.136C756.039 238.999 767.411 232.176 775.208 231.363C779.432 230.876 785.93 231.688 788.204 235.912C790.966 241.274 784.143 255.245 783.006 261.094C782.193 265.643 783.006 271.492 781.868 275.716C781.056 278.64 777.807 279.94 776.183 282.377C773.908 285.464 768.385 304.147 768.06 308.209C767.41 315.844 768.06 324.13 766.436 332.253C765.299 337.939 759.775 345.738 759.126 350.937C758.151 359.222 762.537 363.934 758.476 374.169C754.415 384.404 749.704 395.614 748.891 407.311C748.566 412.348 748.566 414.947 754.415 414.46C763.024 413.81 785.93 395.127 794.215 389.44C814.521 375.793 834.177 362.634 853.021 346.875C865.692 336.152 873.003 336.477 876.901 317.307C878.038 311.783 875.277 304.147 876.901 298.786C877.714 295.536 880.8 293.912 881.937 291.637C885.024 285.951 888.435 270.517 889.897 263.694C891.034 258.657 889.897 253.621 892.821 248.422L894.608 251.346C898.994 249.072 893.958 245.498 893.471 243.061C892.172 236.237 897.532 235.912 899.319 232.176C903.381 223.727 898.507 213.005 908.741 204.882C918.001 197.408 924.174 200.983 933.434 198.708C936.195 198.058 939.119 195.134 942.531 193.997C947.079 192.534 950.816 193.184 955.202 192.372C960.075 191.56 962.675 188.635 966.736 187.336C973.559 185.224 988.666 185.549 996.464 183.924C1002.8 182.624 1009.62 178.563 1017.1 178.075C1019.53 178.075 1033.99 181.324 1035.45 182.624C1038.21 185.224 1037.24 193.184 1035.45 196.434H1035.29Z" fill="white"/>
<path d="M564.999 291.962C566.461 294.237 565.811 302.36 565.486 305.284C563.212 326.567 556.389 342.976 548.916 362.471C547.942 364.908 545.505 367.345 545.017 368.97C543.23 374.819 545.992 383.429 541.768 388.303C540.631 389.603 538.844 389.928 537.87 391.065C531.697 397.888 532.509 405.687 529.585 413.323C528.772 415.597 522.112 425.995 520.325 426.969C516.914 428.757 511.228 427.782 507.654 426.969V424.37C506.03 423.883 505.542 425.507 503.918 425.67C501.319 425.995 497.095 424.37 494.171 424.532C488.485 424.857 482.312 427.132 475.976 427.132C472.727 427.132 469.154 425.67 466.879 425.832C463.305 425.995 457.782 430.056 454.208 430.381C446.898 431.031 439.263 427.619 431.953 428.269C428.216 428.594 424.967 431.031 420.256 431.193C416.195 431.193 413.271 429.894 410.185 429.894C407.098 429.894 401.737 432.493 397.676 432.656C392.153 432.981 386.142 431.193 381.269 431.356C377.857 431.356 374.121 433.63 370.384 433.793C362.912 434.28 354.302 433.793 346.829 436.23C336.757 439.479 326.523 442.241 315.801 444.353C308.491 445.815 295.983 445.978 290.622 450.852C287.86 453.451 283.149 459.625 285.099 463.524C287.21 468.073 302.318 473.921 307.029 476.846C317.263 483.344 327.985 494.717 339.032 500.728C348.779 505.927 358.201 507.226 367.785 510.638C374.771 513.238 383.705 520.873 391.178 524.448C407.423 532.246 428.379 538.419 445.598 543.293C460.381 547.517 463.955 554.341 475.652 560.027C481.987 563.114 490.11 564.576 495.47 568.963C499.044 571.887 499.694 576.111 503.105 579.035C508.466 583.909 516.589 582.772 519.026 590.733C520.812 596.906 516.751 603.892 515.452 610.066C514.639 613.64 515.452 617.539 514.477 620.951C513.665 623.875 510.091 627.125 509.603 630.536C509.116 633.948 511.228 638.497 510.578 643.533C509.928 647.92 506.517 652.956 506.03 657.343C505.705 660.105 506.679 662.379 506.354 664.654C506.03 667.578 503.43 670.99 503.105 674.077C502.781 677.488 504.243 679.925 503.268 684.149C502.943 685.612 493.846 703.645 492.709 705.107C486.536 713.23 479.388 714.53 470.778 718.267C457.457 724.115 449.985 724.928 436.826 728.827C431.14 730.614 424.155 734.676 418.307 735.975C410.997 737.437 403.687 734.513 397.189 738.087C395.564 739.062 394.264 741.337 392.478 741.824C389.229 742.636 383.543 741.174 379.644 741.337C363.074 741.986 343.418 743.773 326.848 745.723C320.188 746.535 314.014 747.51 307.679 750.11L306.054 746.21C303.78 745.561 305.08 748.322 303.618 749.297C300.369 751.409 287.373 748.81 282.824 750.435C284.286 744.261 275.839 750.11 279.9 753.034C274.052 754.659 268.041 752.384 262.518 752.709C255.533 753.196 249.685 758.395 242.212 756.446L243.349 753.684H240.587L241.237 757.258C240.75 757.745 229.216 759.857 228.079 759.857C226.617 759.857 226.129 758.233 224.342 758.558C222.718 758.72 222.556 760.67 221.743 760.832C219.631 761.157 217.357 760.345 214.758 760.832C212.159 761.32 210.372 763.269 208.422 763.594C204.686 764.244 199.975 763.432 195.589 764.081C188.604 765.056 179.994 768.306 173.333 768.955C167.485 769.443 161.312 768.468 155.139 769.443C150.103 770.255 145.717 773.179 141.981 773.667C137.595 774.154 132.721 772.854 128.172 773.179C123.137 773.504 118.263 776.104 113.714 776.754C107.217 777.891 98.9316 777.403 92.2712 778.541C89.5095 779.028 87.885 781.79 84.6361 782.927C75.3764 786.014 59.6189 784.389 48.2474 786.826C33.4645 789.913 21.9306 794.462 6.01058 792.025C4.38609 791.7 2.59915 791.213 1.1371 790.563C-0.649839 783.415 2.27425 774.479 5.03589 767.981C6.98528 763.432 10.5592 762.619 12.3461 759.37C14.4579 755.633 14.9453 749.785 16.8947 745.561C18.8441 741.337 23.2302 737.6 25.0172 733.863C29.4033 725.09 29.7282 720.866 39.1502 714.855C46.7854 709.981 55.2327 709.494 61.5683 706.082C67.9038 702.67 69.6907 696.822 78.1381 694.71C93.4083 690.973 100.231 689.511 114.364 681.55C123.299 676.514 129.797 675.051 138.569 670.827C141.493 669.528 143.605 666.603 146.529 665.953C153.677 664.004 163.099 664.329 170.897 661.567C174.958 660.105 179.344 656.043 182.593 654.906C196.239 650.194 210.697 645.97 224.667 641.421C229.541 639.797 237.176 638.822 241.075 637.035C243.999 635.735 245.136 632.648 246.598 631.999C253.096 629.074 271.778 628.912 280.063 626.962C285.748 625.662 290.622 621.926 296.308 621.276C302.968 620.626 313.527 624.2 320.837 623.063C327.01 616.727 337.895 614.615 334.158 603.73C331.559 596.094 322.949 586.184 316.451 581.31C305.242 572.862 293.708 562.951 281.85 555.316C279.25 553.691 276.001 553.204 273.402 551.254C270.478 548.98 268.204 543.781 264.467 541.506C262.031 540.044 259.269 540.044 256.832 538.582C253.096 536.307 251.472 530.784 247.735 528.022C243.187 524.61 237.014 524.285 232.14 521.523C225.642 517.949 218.494 509.176 211.834 504.952C199.975 497.479 187.466 492.767 175.933 486.269C173.333 484.806 170.897 481.395 167.648 479.445C164.074 477.333 160.013 476.521 156.601 474.246C153.19 471.972 149.941 467.098 146.854 465.148C144.742 463.849 142.306 463.849 140.519 462.711C138.244 461.249 137.27 458.162 135.808 456.7C125.736 446.628 113.227 438.829 101.531 430.869C92.4336 413.81 118.913 413.16 129.797 409.748C145.879 404.712 161.15 398.213 177.232 394.314C180.644 393.502 183.893 393.989 186.979 393.177C190.878 392.365 195.589 387.653 200.462 386.354C212.484 383.267 228.079 377.58 239.613 375.468C242.212 374.981 244.811 375.631 247.248 375.144C249.685 374.656 252.121 370.919 254.721 369.62C267.392 362.471 280.225 362.796 293.871 357.922C304.592 354.186 314.827 349.637 326.036 346.225C346.017 340.214 369.735 335.177 389.066 327.379C392.64 325.917 395.077 323.318 399.3 321.855C406.123 319.581 414.896 320.556 422.043 318.606C426.592 317.469 430.491 314.22 435.202 312.433C447.223 308.208 463.143 307.721 474.677 303.984C477.114 303.172 478.413 301.06 480.85 299.923C489.785 295.699 502.131 294.724 510.741 291.8C513.99 290.662 516.751 287.576 519.513 286.763C524.224 285.464 531.372 286.438 536.083 285.464C538.519 284.976 540.144 282.864 542.256 282.539C545.017 282.052 551.028 282.539 553.465 283.677C554.764 284.326 556.064 286.276 557.526 287.088C559.313 288.225 564.349 290.013 565.161 291.312L564.999 291.962Z" fill="white"/>
<path d="M1081.75 194.971L1083.54 194.484C1083.05 193.509 1081.1 193.347 1080.78 192.21C1079.96 187.823 1082.4 174.664 1088.41 175.476L1086.3 179.537L1088.09 181L1086.14 181.325C1089.22 183.599 1088.09 185.386 1092.47 183.924V181.162L1088.9 181.812C1089.71 178.725 1090.2 177.101 1088.41 174.339L1120.41 168.003C1129.51 163.291 1138.61 164.428 1148.19 162.316C1154.69 160.854 1162.97 156.468 1168.99 155.818C1173.7 155.33 1178.41 157.442 1181.66 157.117C1184.91 156.793 1192.54 151.269 1196.93 150.294C1204.07 148.507 1212.03 149.969 1218.86 148.994C1223.89 148.344 1229.9 142.008 1239.49 141.196C1253.62 140.059 1244.2 153.543 1242.57 160.692C1240.14 170.764 1241.11 183.762 1239.33 191.885C1238.51 195.784 1234.94 200.82 1233.48 205.369C1226.82 227.464 1221.62 250.859 1216.58 273.117C1215.77 276.691 1212.52 279.778 1211.71 282.702C1210.73 286.439 1211.55 290.663 1210.57 294.399C1209.92 297.324 1207.16 300.735 1206.02 304.147C1204.07 309.996 1204.07 316.494 1202.61 322.181C1200.83 328.517 1196.93 335.503 1195.14 341.839C1192.38 351.749 1191.08 363.771 1188.15 373.844C1186.69 378.718 1182.79 384.404 1181.98 389.928C1181.49 393.177 1182.79 395.777 1182.14 399.026C1181.66 401.788 1179.06 404.062 1178.24 406.662C1173.53 420.634 1173.05 434.443 1167.2 449.227C1162 462.549 1162.32 476.358 1159.56 489.518C1152.58 522.498 1141.69 548.655 1139.26 583.26C1138.93 588.458 1135.68 592.682 1134.71 597.231C1132.43 607.304 1133.25 618.514 1128.54 628.262C1125.45 634.436 1117.81 639.31 1115.21 646.295C1108.55 651.494 1101.08 644.833 1094.75 644.021C1090.68 643.534 1077.69 644.346 1073.14 644.671C1070.22 644.996 1067.78 647.27 1065.18 647.758C1061.44 648.245 1057.38 647.108 1053.48 647.433C1041.14 648.57 1032.37 654.744 1019.21 652.632C1004.91 650.357 1006.05 640.122 1008 628.1C1008.81 622.738 1012.38 618.352 1013.36 614.128C1013.85 611.853 1013.03 609.741 1013.36 608.116C1013.85 606.167 1016.45 604.055 1016.93 601.293C1017.74 597.231 1019.86 585.697 1020.18 581.797C1020.34 578.386 1018.72 574.487 1019.21 571.887C1019.86 568.475 1023.59 565.713 1024.08 563.114C1024.57 560.515 1023.43 558.728 1023.59 556.616C1023.76 553.529 1026.52 549.305 1027 545.568C1027.65 541.506 1026.52 536.633 1027.49 533.058C1029.44 526.072 1033.66 525.747 1033.34 516.812C1033.02 509.014 1031.39 504.952 1032.85 496.017C1036.91 472.297 1043.9 449.39 1047.47 425.507C1048.61 418.034 1048.45 419.334 1050.72 412.348C1053.65 403.087 1052.83 396.264 1054.46 387.491C1055.43 382.292 1058.03 376.281 1059.17 370.757C1060.31 364.584 1059.17 357.273 1060.31 352.074C1060.96 349.312 1063.56 346.713 1064.37 343.626C1068.27 326.892 1072.49 301.548 1074.28 284.326C1074.76 279.778 1073.79 274.579 1074.76 269.38C1075.74 264.181 1079.8 258.82 1080.13 254.433C1080.45 250.047 1079.31 245.335 1080.13 240.461C1081.1 234.775 1084.35 228.601 1084.84 222.265C1085.16 217.879 1082.4 214.467 1082.07 210.568C1081.59 204.394 1085.16 199.52 1082.07 194.322L1081.75 194.971Z" fill="white"/>
</svg>
