<svg width="1921" height="819" viewBox="0 0 1921 819" fill="none" xmlns="http://www.w3.org/2000/svg">
<g clip-path="url(#clip0_22600_494)">
<path d="M169.069 352.635L164.229 344.473C121.735 273.432 99.5055 233.679 99.5055 176.091C99.5055 143.593 106.159 121.525 119.316 110.642C128.692 102.783 142.151 100.364 159.39 103.538C195.986 110.038 220.787 136.187 235.154 156.895L247.705 175.033V66.204L246.344 64.3902C225.324 35.9739 192.206 16.7777 150.77 9.06905C106.311 0.453454 70.4704 7.10409 44.3087 28.8698C14.82 53.0539 0 94.1669 0 150.848C0 245.922 42.6452 324.37 89.9784 402.968L93.6077 409.316C140.034 489.426 173.605 547.317 173.605 631.206C173.605 673.528 164.986 702.851 148.502 716.001C138.37 724.163 125.214 726.431 108.428 722.652C69.1094 713.734 33.5718 673.074 17.2395 639.065L4.23428 611.858V732.779L4.9904 734.291C20.5665 763.916 51.265 801.855 109.94 815.005C121.131 817.423 131.867 818.482 142.151 818.482C168.917 818.482 192.206 810.471 211.865 794.448C249.973 763.463 271.901 702.247 271.901 626.218C271.901 524.04 233.188 459.498 168.917 352.484L169.069 352.635Z" fill="white"/>
<path d="M712.871 111.247L724.969 97.4922L706.822 99.9106C673.25 104.294 642.249 107.922 612.155 110.945L599.453 112.154L607.467 121.979C611.248 126.664 618.658 150.848 618.658 185.613V447.86C615.936 441.209 612.912 434.407 609.887 427.454C573.14 348.554 529.285 236.853 529.285 152.511C529.285 143.895 530.494 132.257 532.46 127.571L536.695 117.444L525.655 118.2C486.488 120.769 448.228 122.13 412.086 122.281H398.325H384.866C352.05 121.827 319.688 120.467 288.687 118.049L271.145 116.688L283.092 129.536C288.082 134.826 294.887 158.708 294.887 195.136V692.875C294.887 728.849 288.082 751.824 283.394 756.056L271.75 766.788L287.477 767.997C318.932 770.416 351.596 771.927 384.563 772.229H398.173V772.38H401.198H411.935C442.18 772.229 473.937 771.322 506.299 769.509L520.816 768.753L510.986 758.021C507.206 753.94 500.098 730.814 500.098 694.084V371.982C511.743 402.817 525.353 434.71 540.778 467.509C585.691 564.85 623.8 690.91 595.521 752.429L590.53 763.311L602.326 762.102C635.898 758.777 670.679 754.847 708.334 749.859L723.456 747.894L711.963 737.918C708.939 735.349 702.587 719.175 701.529 685.469V177.602C701.529 142.535 707.275 117.293 712.568 111.247H712.871ZM399.686 770.567L389.705 760.44C385.017 755.603 378.06 731.872 378.06 695.747V198.007C378.06 162.034 385.017 138.454 389.705 133.768L399.232 124.397L407.096 133.466C410.422 137.245 417.228 157.953 418.286 188.183V695.898C418.286 730.814 410.725 756.056 406.944 761.195L399.988 770.567H399.686Z" fill="white"/>
<path d="M874.831 142.535C912.789 136.338 938.194 161.429 947.117 177.149L959.971 199.519V91.8998L958.307 89.9348C937.136 65.1461 910.974 58.042 868.178 64.9949C814.795 73.4594 777.141 101.573 756.12 148.581C736.915 191.357 734.798 243.504 734.798 279.024V558.049C734.798 640.275 748.71 690.457 778.502 715.699C794.38 729.151 814.644 735.953 840.05 735.953C848.972 735.953 858.499 735.198 868.631 733.535C908.252 727.187 940.311 706.025 959.214 674.284L960.122 672.621V567.874L947.117 593.872C940.916 606.266 917.325 647.077 871.958 654.332C857.289 656.75 846.25 654.634 838.386 647.832C820.239 632.415 818.727 592.662 818.727 553.061V263.154C818.727 209.193 823.113 150.849 874.983 142.535H874.831Z" fill="white"/>
<path d="M1573.79 574.826V77.0869C1573.79 41.113 1580.75 17.6846 1585.28 13.3013L1596.93 2.26726L1580.9 1.51151C1549.59 0.151154 1516.93 -0.302299 1483.81 0.302304L1467.48 0.604606L1479.12 12.0921C1483.81 16.6266 1490.77 40.3573 1490.77 76.3311V574.071C1490.77 610.044 1483.81 633.926 1479.12 638.763L1474.28 643.6L1469.6 639.065C1464.3 633.926 1449.63 607.928 1445.1 574.675C1422.26 409.77 1399.43 245.167 1376.74 80.8657C1372.06 45.9498 1380.22 21.7657 1385.67 16.6266L1399.28 3.47647L1380.37 4.83683C1338.79 7.70869 1295.69 11.7898 1248.66 17.5335L1234.9 19.1962L1244.57 29.1721C1248.66 33.4043 1258.94 56.9838 1253.65 91.4462C1231.87 252.422 1210.1 413.851 1188.32 575.28L1176.67 587.221C1170.17 593.871 1144.92 603.847 1111.19 608.986C1100.16 610.649 1089.12 612.463 1078.08 614.126V108.829C1078.08 80.7145 1085.03 57.7396 1090.02 51.8447L1102.27 37.6365L1083.82 40.5084C1049.65 45.9498 1015.32 51.5424 986.132 56.3792L971.312 58.7977L982.805 68.3202C986.132 71.0409 993.996 89.9347 993.996 120.014V627.729C993.996 664.308 986.888 688.945 981.898 694.84L969.649 709.199L988.249 706.176C1049.34 696.049 1114.37 685.469 1180.15 676.4C1215.54 671.412 1248.05 667.331 1279.36 664.005L1294.63 662.343L1283.14 652.064C1278.45 647.832 1267.26 628.636 1271.64 590.244L1275.58 556.839C1302.8 553.816 1329.26 551.247 1354.51 549.131L1358.29 580.57C1362.68 614.73 1351.94 639.368 1346.35 645.414L1334.4 658.413L1351.94 656.901C1390.96 653.727 1428.77 651.611 1464.61 650.553L1474.28 650.251H1483.81C1516.63 649.495 1548.99 649.948 1580.14 651.309L1597.23 652.064L1585.43 639.67C1580.75 634.682 1573.64 610.649 1573.64 574.524L1573.79 574.826ZM1344.84 471.59C1325.48 473.253 1305.22 475.218 1284.5 477.485C1292.36 407.654 1300.22 337.973 1308.24 267.99L1314.29 196.043L1320.19 265.572V265.874C1328.5 334.497 1336.67 403.119 1344.84 471.742V471.59Z" fill="white"/>
<path d="M1882.44 686.527C1866.56 676.097 1856.28 594.778 1856.43 478.997C1856.43 391.027 1826.94 360.948 1806.07 348.705C1850.38 330.113 1857.79 268.746 1859.15 215.541C1860.96 163.092 1851.29 116.537 1831.32 81.0167C1812.12 46.8566 1783.99 25.0909 1752.23 19.4984C1713.52 12.6966 1672.99 7.7086 1632.16 4.53443L1614.62 3.17407L1626.57 16.0219C1631.56 21.3122 1638.36 45.194 1638.36 81.7725V579.512C1638.36 615.335 1631.56 638.31 1626.87 642.542L1615.23 653.122L1630.95 654.332C1663.62 656.901 1695.98 660.68 1727.13 665.517L1745.58 668.389L1733.33 654.332C1728.95 649.344 1721.38 622.741 1721.38 587.523V383.923C1724.86 384.376 1728.19 384.981 1731.67 385.434C1775.07 392.69 1774.77 450.278 1774.31 522.982C1774.31 530.237 1774.31 537.492 1774.31 545.05C1774.31 587.07 1774.31 630.45 1782.63 671.109L1783.54 675.493L1787.92 676.4C1817.87 682.597 1847.81 690.003 1876.84 698.468L1921.15 711.467L1882.44 686.224V686.527ZM1721.38 94.1668C1725.77 94.7714 1730 95.5272 1734.39 96.1318C1758.28 100.062 1774.31 141.93 1774.31 200.577C1774.31 240.33 1765.54 287.942 1748.76 302.15C1744.98 305.476 1741.04 306.534 1736.66 305.929C1731.67 305.173 1726.53 304.266 1721.38 303.511V94.1668Z" fill="white"/>
</g>
<defs>
<clipPath id="clip0_22600_494">
<rect width="1921" height="818.633" fill="white"/>
</clipPath>
</defs>
</svg>
