<svg width="1607" height="469" viewBox="0 0 1607 469" fill="none" xmlns="http://www.w3.org/2000/svg">
<path d="M409.853 63.4937L310.091 460.419L230.377 466.181L61.9462 91.3397L0 34.8075L252.827 15.9634L204.447 77.6568L293.284 324.31L344.546 66.3743L285.601 10.9224L460.155 2.16046L409.853 63.3737V63.4937Z" fill="white"/>
<path d="M414.175 432.694L457.274 386.724L463.276 241.012L415.256 195.642L566.64 144.631L569.041 387.204L613.58 433.654L414.175 432.694ZM452.592 72.9758L510.816 7.56165L570.121 72.9758L510.816 132.989L452.592 72.9758ZM516.699 178.359L482.004 242.092L476.001 387.924L515.018 423.452L516.819 178.239L516.699 178.359Z" fill="white"/>
<path d="M770.966 405.568L641.912 402.327L614.54 368.72L672.645 45.4898L710.341 9.00195L838.675 14.2831L863.285 45.4898L852.721 123.627L784.172 125.547L796.417 69.135L732.79 69.7351L687.651 343.514L749.117 345.435L762.203 267.058H825.109L807.342 367.76L771.086 405.568H770.966Z" fill="white"/>
<path d="M983.336 246.533L978.054 262.137L997.862 352.876L1012.03 364.159L1066.53 337.273L1081.9 368.72L937.116 456.339L880.693 412.169L879.372 291.663L872.769 242.692L825.95 234.411L824.269 195.282L877.931 194.322L880.813 154.113L962.087 61.8134L995.581 70.4552L980.215 197.203L1071.57 185.56L1080.22 215.447L1023.91 241.132L983.696 246.413L983.336 246.533Z" fill="white"/>
<path d="M1081.66 249.294L1097.74 190.841L1141.44 151.233L1204.71 136.83L1267.86 150.633L1309.27 190.961L1323.56 249.414L1309.99 308.467L1267.02 347.235L1203.87 366.439L1141.32 350.476L1097.5 311.467L1081.9 249.294H1081.66ZM1151.77 249.894L1157.89 279.78L1175.78 301.865L1202.67 310.147L1230.64 301.265L1248.41 279.66L1254.89 249.654L1247.69 219.767L1231.6 196.602L1202.55 192.882L1176.14 198.403L1158.37 219.767L1151.65 249.654L1151.77 249.894Z" fill="white"/>
<path d="M1536.17 231.53L1504.36 266.938L1499.55 340.034L1514.2 454.778L1343.97 457.299L1357.65 339.913L1354.41 239.452L1343.61 125.187L1490.91 124.587L1501.24 157.714L1606.28 121.346L1607 245.813L1536.17 231.29V231.53Z" fill="white"/>
</svg>
