<svg width="2138" height="453" viewBox="0 0 2138 453" fill="none" xmlns="http://www.w3.org/2000/svg">
<g clip-path="url(#clip0_22605_533)">
<path d="M1073.11 92.1274L1045.38 113.522C1067.98 152.163 1071.25 202.375 1066.67 246.255C1061.65 293.519 1043.96 339.474 990.259 342.749C981.745 343.294 952.819 343.949 946.27 340.893C936.773 336.527 939.065 308.583 938.738 299.414C936.446 241.343 936.118 181.417 938.738 123.455C939.284 111.448 935.463 85.1414 951.727 83.2858C962.097 82.085 982.728 82.5217 993.425 83.2858C1011.76 84.5956 1027.37 92.2365 1039.27 106.208L1062.74 86.4513C1042.54 77.828 1020.71 72.916 998.664 71.8244C942.122 69.0955 880.558 71.8244 823.688 71.8244C791.596 71.8244 759.395 71.8244 727.303 71.8244L745.969 82.8491C770.747 100.205 777.297 134.589 780.462 162.969L779.916 280.202L619.458 71.8244H523.073V83.2858C558.876 79.0287 555.056 103.916 556.366 129.677C558.44 171.047 557.894 213.181 556.366 254.551C555.492 277.474 556.147 313.277 543.049 332.925C538.901 339.147 530.387 344.823 525.693 350.935C524.929 352.027 523.728 352.245 524.165 354.101H615.856C614.764 351.263 611.162 346.787 609.088 344.713C604.94 340.566 600.683 339.037 596.535 335.326C577.542 318.516 570.119 276.819 568.919 252.477C571.866 208.706 565.207 160.24 568.919 117.015C569.028 115.487 568.045 114.068 570.447 114.395L759.068 356.066H792.906V156.747C794.434 139.283 796.181 87.4337 818.667 83.6132C821.505 83.1766 824.343 83.6132 827.181 83.2858L827.836 80.2294H842.353L843.445 83.5041C863.202 82.4125 869.096 84.0498 871.935 103.916C871.498 171.483 876.519 240.47 873.135 308.037C872.808 315.132 871.935 326.266 869.642 332.706C866.368 342.203 855.015 346.787 847.375 352.027C846.501 352.682 845.41 351.809 846.065 354.319H989.386C1028.03 352.9 1063.83 344.713 1093.52 318.844C1159.45 261.428 1152.36 135.244 1073.33 92.2365L1073.11 92.1274Z" fill="white"/>
<path d="M415.665 22.4861C428.327 18.3381 440.661 13.0987 453.323 9.16907C459.654 7.20427 471.116 7.53174 471.88 0.109156H311.421V12.6621C323.537 13.5353 336.09 12.2254 345.805 20.4121C371.784 42.2432 355.192 104.899 345.805 132.952C327.139 188.621 303.125 250.076 280.967 304.544C279.984 306.836 279.329 310.329 277.037 311.53C249.53 236.54 218.311 162.86 190.804 87.7611C185.237 72.4793 171.811 40.715 172.793 25.4333C173.885 8.73245 197.572 14.5177 209.251 12.4437V0H0L11.0247 6.11271C23.5776 11.243 36.6763 15.6093 48.0285 23.2501C79.6836 44.7538 86.4512 68.6589 100.423 102.06C109.92 124.656 119.198 147.251 128.367 169.955L132.952 181.198C161.55 251.931 189.276 322.991 218.53 393.506L219.839 395.471L242.98 452.559C242.98 452.559 273.435 365.999 275.836 359.559L380.626 84.4864C388.594 82.4125 402.457 81.8667 406.714 90.7083C410.316 98.3492 411.08 117.561 411.407 126.621C413.591 182.617 413.481 249.093 410.316 304.762C409.879 313.167 410.643 332.161 404.531 338.601C400.71 342.749 389.686 348.643 384.555 351.918C383.573 352.573 382.7 351.809 383.245 354.21H498.405C498.95 354.21 503.535 352.9 502.007 351.154C496.876 350.935 494.584 344.495 492.183 342.749C488.799 340.238 484.105 341.875 480.94 336.199C477.447 330.087 476.246 314.259 475.918 306.836C472.644 239.924 477.556 171.702 477.119 104.789C478.429 98.895 478.647 89.7259 484.323 85.9055C485.306 85.2505 490.327 83.2857 491.091 83.2857H507.246V71.8244H386.411C394.161 54.5778 401.583 35.4756 415.665 22.3769V22.4861Z" fill="white"/>
<path d="M1263.69 71.9336H1137.62V78.0463C1144.82 79.247 1162.18 84.814 1165.78 91.145C1167.97 94.9655 1165.67 96.1662 1165.78 99.4408C1166 104.244 1167.64 110.356 1167.86 115.159C1168.29 126.293 1165.78 142.23 1169.93 151.726C1166.76 152.6 1167.86 154.564 1167.86 157.402L1171.02 156.42L1169.93 159.476L1167.86 159.04C1169.6 167.336 1165.67 209.688 1168.07 213.508C1168.4 214.054 1170.04 213.29 1169.93 214.163L1167.75 216.128L1168.07 274.308C1180.3 283.696 1193.62 292.428 1205.84 302.143C1215.45 309.784 1224.4 318.298 1234 326.048L1233.46 109.92C1235.42 102.279 1234.11 90.7084 1241.54 86.233L1240.66 84.3774C1245.79 85.5781 1250.16 83.9407 1252.67 79.1379L1263.59 71.8245L1263.69 71.9336Z" fill="white"/>
<path d="M1333.77 272.125C1327.99 239.487 1327.99 201.283 1331.37 168.318C1332.14 160.677 1333.88 152.927 1335.41 145.286L1332.46 142.775L1335.63 143.867C1335.85 138.955 1340.65 129.24 1340.32 124.983C1339.99 120.944 1335.52 111.229 1334.1 106.317C1331.92 98.7857 1329.62 91.1448 1328.31 83.3948C1322.42 86.8878 1316.53 90.599 1311.18 94.8561C1296.55 106.754 1281.49 127.275 1273.96 144.085C1267.08 159.695 1263.26 176.395 1260.53 193.096L1262.71 193.751L1260.64 195.388C1254.63 251.385 1277.12 313.386 1328.1 341.439L1352.44 322.882C1342.61 307.491 1337.16 289.917 1333.99 272.016L1333.77 272.125Z" fill="white"/>
<path d="M1749.65 73.7892L1750.2 71.9336H1685.14C1683.62 76.8456 1681.76 74.9899 1677.39 77.7188C1665.93 85.0323 1648.25 100.532 1637.66 109.92C1635.37 111.994 1621.51 124.437 1620.96 125.529C1620.2 126.948 1619.65 128.04 1619.87 129.677L1620.09 204.012C1628.16 207.068 1634.71 212.635 1643.56 213.29L1683.94 235.449L1684.6 222.459L1681.43 219.839L1684.6 219.294V206.85L1681.43 205.758L1684.6 204.667C1685.03 182.945 1683.62 160.895 1684.05 139.064C1684.27 127.821 1684.27 101.296 1687.33 91.6908C1691.8 77.5005 1716.25 83.5041 1726.4 88.8527C1729.02 90.2717 1732.19 92.7823 1734.48 94.8563C1737.65 86.9971 1746.6 81.321 1748.02 73.0251L1749.55 73.8984L1749.65 73.7892Z" fill="white"/>
<path d="M1684.6 267.759L1620.09 304.326C1618.45 316.333 1619.43 329.213 1612.77 339.91C1605.02 342.421 1596.73 342.858 1588.76 342.639V354.101L1656.76 353.882L1687.33 327.576C1684.49 307.819 1684.6 287.625 1684.6 267.649V267.759Z" fill="white"/>
<path d="M1498.05 250.075C1495.65 249.53 1496.41 250.403 1495.76 251.385C1494.12 253.896 1492.92 259.9 1492.59 260.227C1482.12 273.762 1480.26 278.565 1472.18 293.41C1453.84 327.249 1425.03 355.629 1383.22 345.587C1373.29 343.185 1365.21 337.509 1357.9 330.523C1356.8 330.523 1342.51 342.53 1340.65 344.277C1339.56 345.368 1338.25 346.132 1338.58 347.879C1370.67 359.449 1405.27 364.907 1437.25 350.171C1448.93 344.823 1452.75 337.837 1467.38 342.639C1477.97 346.132 1483.86 355.738 1490.74 358.794C1493.03 359.886 1495.65 359.231 1498.05 359.34L1497.83 319.171L1495.98 318.189C1500.24 313.495 1497.18 304.981 1498.05 298.868L1493.9 301.488C1493.58 298.868 1497.72 298.431 1498.05 297.122C1498.38 295.921 1498.38 284.132 1498.05 282.931C1497.83 282.058 1495.87 282.386 1495.98 281.731C1495.98 280.421 1497.83 279.111 1498.16 276.6C1499.25 268.632 1497.18 258.262 1498.16 249.966L1498.05 250.075ZM1451.77 340.675L1448.17 328.231L1451.88 331.287V340.675H1451.77ZM1471.31 322.118C1472.18 324.738 1471.75 326.484 1468.47 326.157C1464.87 325.175 1469.45 316.333 1472.07 317.861C1470.54 320.808 1475.13 322.009 1471.31 322.227V322.118Z" fill="white"/>
<path d="M1842.87 169.846L1856.96 131.314L1874.64 176.068C1878.57 171.156 1884.46 167.881 1889.16 163.515C1891.99 160.786 1901.49 151.29 1903.35 148.561C1904 147.688 1904.77 147.469 1904.33 145.941C1886.86 133.825 1872.89 116.251 1857.94 101.078L1855.32 100.096C1846.15 128.694 1833.6 156.311 1823.66 184.691C1822.79 187.311 1823.99 191.241 1820.93 190.804L1823.01 194.952L1819.95 193.86C1818.86 200.41 1815.59 206.304 1813.18 212.526C1812.64 213.945 1812.09 215.255 1811.66 216.565C1810.02 221.04 1808.71 225.734 1806.42 229.882L1808.38 232.392H1805.43L1793.97 265.03L1805.32 270.924L1814.38 245.928L1877.26 244.945C1876.39 241.561 1875.4 238.832 1877.26 235.558H1869.94L1869.4 238.723L1868.31 235.558C1859.03 237.086 1848.22 234.357 1839.05 235.558C1836.65 235.885 1838.07 237.741 1837.09 237.741L1835.89 235.667H1818.86L1824.1 219.512C1819.62 218.311 1824.97 215.91 1826.28 213.399C1828.47 209.36 1839.93 178.906 1840.36 175.304C1840.69 172.902 1838.29 171.811 1839.71 169.082L1842.87 170.174V169.846Z" fill="white"/>
<path d="M1246.01 350.499C1226.14 331.287 1201.15 309.674 1178.66 293.956C1175.39 291.664 1171.68 288.826 1167.96 287.516V314.041C1167.96 317.315 1166.33 326.812 1165.34 330.196C1161.63 343.404 1147.12 346.023 1137.73 354.101H1248.19C1248.52 352.245 1247.21 351.481 1246.12 350.389L1246.01 350.499Z" fill="white"/>
<path d="M1417.28 81.3208C1431.25 87.4335 1440.09 91.6906 1450.68 103.043C1454.83 107.409 1459.08 113.194 1461.7 118.652C1466.29 116.141 1464.98 120.508 1467.82 118.652C1468.8 123.564 1463.34 117.67 1463.67 121.272C1467.49 124.765 1467.16 132.842 1473.06 131.205L1471.09 135.571L1480.91 163.515C1484.08 162.969 1489.87 165.152 1490.74 160.895C1491.72 155.438 1489.97 147.469 1490.74 141.575L1486.59 142.666C1485.61 140.811 1485.17 134.261 1486.59 133.279C1490.52 130.768 1488.66 135.899 1490.63 136.335L1489.65 91.0357L1486.48 89.9441L1489.65 88.8526V66.4757C1480.81 64.7292 1475.78 74.2257 1469.13 78.8103C1464.43 81.9758 1459.74 84.8138 1453.73 84.1589C1451.77 83.9406 1450.13 82.7399 1448.28 82.4124C1447.19 82.3032 1445.11 83.3948 1444.78 83.1765C1444.57 82.9582 1445.33 81.1025 1444.13 80.011C1443.36 79.2469 1432.12 74.1166 1430.16 73.3525C1426.88 72.0426 1423.5 71.2785 1420.22 69.9687C1418.7 70.187 1415.75 77.937 1415.64 79.6835C1415.42 81.9758 1415.97 80.7751 1417.06 81.3208H1417.28Z" fill="white"/>
<path d="M1750.86 113.849C1758.17 126.511 1766.03 143.431 1773.01 156.966C1775.42 161.55 1776.29 171.156 1782.51 169.846V71.9336H1778.36L1777.82 75.0991L1777.27 72.0427H1767.12C1763.84 78.8104 1743.87 98.7859 1744.09 104.789C1744.09 107.955 1749.76 111.885 1750.96 113.958L1750.86 113.849Z" fill="white"/>
<path d="M1887.3 116.032C1894.94 124.11 1901.27 133.606 1911.1 139.392L1918.85 131.86L1916.77 130.332C1924.52 131.423 1918.19 116.36 1913.61 115.705L1915.57 114.613L1897.78 70.0779H1866.89L1861.54 86.0146C1861.76 88.1977 1869.51 97.6943 1871.47 100.096C1876.39 106.208 1881.95 110.575 1887.19 116.142L1887.3 116.032Z" fill="white"/>
<path d="M1618.89 109.374L1656.33 71.9336L1546.95 72.4794C1549.14 76.8456 1549.46 84.9231 1551.21 88.8527C1551.76 90.1626 1553.83 90.1626 1554.05 91.145C1554.16 91.9091 1553.07 93.6556 1553.39 95.2929C1554.27 100.096 1556.89 104.462 1556.45 109.483C1567.91 96.7119 1577.95 84.7048 1596.51 83.3949C1618.45 81.8667 1618.45 89.8351 1619 109.483L1618.89 109.374Z" fill="white"/>
<path d="M1681.43 252.695C1682.2 252.259 1685.04 250.84 1684.49 250.075L1619.87 219.839V279.22L1634.5 273.981L1633.4 271.907C1634.93 272.016 1636.02 272.889 1637.55 272.452C1643.88 271.142 1674.23 256.516 1681.32 252.586L1681.43 252.695Z" fill="white"/>
<path d="M1542.91 94.4196L1536.69 71.9336H1522.07V95.2929L1525.23 95.8387C1525.23 97.476 1522.39 97.3668 1522.07 98.6767C1520.86 103.698 1523.05 113.194 1522.07 118.761L1526.21 119.307L1521.96 121.599V145.286L1524.14 146.487L1522.07 147.688V169.41C1525.89 168.973 1525.34 174.758 1527.85 174.103C1531.34 173.23 1537.35 151.071 1539.09 146.814C1542.48 138.191 1546.08 129.677 1550.01 121.381L1544.01 97.0394C1538.88 99.2225 1540.73 97.0394 1543.02 94.5288L1542.91 94.4196Z" fill="white"/>
<path d="M1911.64 226.607C1914.15 230.209 1918.96 233.484 1922.78 236.213C1929.11 240.906 1935.87 244.618 1942.32 248.875C1943.08 246.146 1944.17 242.435 1944.72 239.706C1944.93 238.505 1943.95 237.086 1944.17 236.54C1944.28 236.213 1947.01 235.558 1947.01 231.519L1945.04 229.663L1946.03 224.97L1948.86 224.206C1948.86 217.875 1952.36 209.36 1952.03 203.466C1951.81 197.462 1942.75 183.927 1941.77 176.941C1940.35 176.614 1940.02 177.16 1939.15 177.924C1936.75 179.998 1927.25 193.096 1925.29 196.371C1923.32 199.646 1911.53 224.424 1911.53 226.498L1911.64 226.607Z" fill="white"/>
<path d="M1943.73 301.27C1942.32 301.379 1925.18 308.474 1924.63 309.456C1926.71 314.259 1927.36 324.083 1930.42 327.794C1931.51 329.104 1935.22 331.396 1936.97 332.706C1940.13 334.999 1953.99 344.604 1956.51 345.478C1957.82 345.914 1958.36 346.242 1959.89 345.914C1962.62 345.15 1975.61 331.287 1979.43 328.886C1973.75 326.048 1947.34 301.051 1943.73 301.488V301.27Z" fill="white"/>
<path d="M1804.34 331.833C1802.16 328.013 1800.74 323.21 1800.19 318.734L1740.81 354.101H1795.5C1801.29 354.101 1800.96 350.062 1802.49 347.988C1802.49 347.879 1804.12 348.534 1805.54 347.551C1808.16 345.587 1810.56 343.513 1812.75 341.002C1810.24 337.291 1806.85 335.981 1804.45 331.724L1804.34 331.833Z" fill="white"/>
<path d="M1907.49 186.438L1906.4 183.272L1910.99 184.145L1926.16 153.036L1878.68 186.438L1885.55 206.195C1887.08 206.741 1886.32 202.156 1888.61 204.121C1889.92 205.213 1889.92 211.98 1894.4 212.417C1900.95 204.23 1908.37 195.934 1910.55 185.346L1907.39 186.438H1907.49Z" fill="white"/>
<path d="M1922.67 277.146L1921.03 272.998L1925.18 276.055C1927.14 271.033 1939.7 266.995 1939.91 260.882C1939.91 259.136 1938.71 259.463 1938.17 258.917C1934.78 254.878 1930.96 253.787 1926.92 250.84C1922.01 247.347 1913.06 239.269 1908.48 236.977C1904.55 234.903 1902.25 247.674 1902.36 250.294L1914.7 283.368L1922.56 277.146H1922.67Z" fill="white"/>
<path d="M1955.96 295.812L1956.18 297.995L1960.76 301.597L1961.85 300.069C1967.97 309.347 1978.23 314.696 1986.52 321.9L1997.22 312.949L1984.34 283.586L1956.18 295.921L1955.96 295.812Z" fill="white"/>
<path d="M1798.99 307.71C1800.85 298.868 1800.3 289.481 1802.05 280.421C1798.99 279.329 1792.01 272.998 1789.17 276.055L1765.7 327.139L1798.88 307.71H1798.99Z" fill="white"/>
<path d="M1951.27 282.931C1960.33 281.294 1968.84 275.618 1976.48 272.234C1977.14 271.907 1978.55 272.562 1979.86 272.016C1987.94 268.523 1998.2 267.213 1989.8 256.843C1984.99 250.84 1983.47 251.931 1977.35 255.315L1981.5 262.628L1976.26 263.72C1976.04 262.301 1976.04 257.716 1973.75 258.59L1945.04 281.949C1946.79 284.46 1948.97 283.477 1951.37 283.041L1951.27 282.931Z" fill="white"/>
<path d="M1968.4 351.044V353.118C1969.28 353.118 1970.15 354.21 1970.48 354.21H2014.79L1987.29 335.435L1968.4 351.044Z" fill="white"/>
<path d="M1904.33 342.748V354.21H1941.88L1926.82 340.784L1904.33 342.748Z" fill="white"/>
<path d="M1711.12 344.386C1709.7 344.386 1703.26 341.439 1699.66 341.548C1694.2 341.548 1686.34 350.062 1682.52 354.101H1715.82V342.639C1713.85 341.875 1712.11 344.386 1711.12 344.277V344.386Z" fill="white"/>
<path d="M1966.66 238.942C1966.77 237.632 1963.82 231.301 1963.05 229.445C1962.62 228.244 1960.98 228.135 1960.98 227.917C1960.76 227.48 1961.64 224.206 1960.65 222.896C1957.49 222.35 1959.02 223.769 1958.58 225.406C1956.18 234.794 1954.1 244.509 1952.36 254.114C1955.96 253.132 1966.44 241.452 1966.77 238.832L1966.66 238.942Z" fill="white"/>
<path d="M2035.21 308.474L2024.18 323.974C2029.42 322.009 2041.54 327.248 2043.5 320.917C2044.92 316.442 2039.79 309.238 2035.21 308.474Z" fill="white"/>
<path d="M1823.55 343.731L1813.73 354.21H1833.49V342.749C1830.21 342.967 1826.39 341.875 1823.55 343.731Z" fill="white"/>
<path d="M2016.87 354.21H2031.49V342.749C2022.98 340.675 2020.69 348.316 2016.87 354.21Z" fill="white"/>
<path d="M2009.66 205.758C2009.66 193.969 1995.15 204.558 2000.28 212.417C2005.52 213.508 2009.55 211.434 2009.66 205.758Z" fill="white"/>
<path d="M2080.4 297.886C2080.4 297.886 2080.51 296.357 2080.18 296.03C2076.47 293.519 2070.35 296.03 2072.21 302.361C2074.83 311.093 2088.15 301.706 2082.36 296.357L2080.29 297.886H2080.4Z" fill="white"/>
<path d="M1968.73 148.233C1963.71 143.321 1955.3 153.582 1960.65 156.857C1964.58 159.258 1973.1 152.49 1968.73 148.233Z" fill="white"/>
<path d="M1263.69 353.118V342.749L1252.23 343.294L1263.69 353.118Z" fill="white"/>
<path d="M2136.39 122.145C2133.23 118.87 2127.44 124.219 2130.28 127.712C2133.99 132.187 2140.43 126.293 2136.39 122.145Z" fill="white"/>
<path d="M1353.31 101.624C1358.01 97.5852 1362.04 92.7824 1365.54 87.6521C1377.43 78.9196 1391.08 78.1555 1405.38 77.7189L1409.53 67.7857C1397.63 65.8209 1385.73 66.9125 1373.72 67.8949L1373.07 70.8421C1370.01 71.7153 1371.76 68.659 1369.47 68.659C1366.41 68.659 1358.99 70.7329 1355.71 71.7153C1354.18 72.152 1354.18 73.6801 1354.08 73.6801C1353.2 74.0076 1349.27 71.1696 1349.05 75.4266C1349.05 75.4266 1349.05 75.6449 1349.05 75.7541C1346.54 76.8456 1344.36 78.5921 1343.05 80.9936C1339.45 87.6521 1343.27 94.9655 1346.98 100.642C1348.51 102.934 1351.35 103.261 1353.31 101.515V101.624ZM1351.02 91.5817C1351.02 91.5817 1350.69 91.0359 1350.58 90.7084C1350.58 90.9267 1350.58 90.9267 1350.58 91.0359C1350.58 90.9267 1350.47 90.5993 1350.47 90.4901C1350.26 89.9443 1350.04 89.2894 1349.93 88.6345C1349.93 88.4161 1349.71 88.0887 1349.71 87.8704V87.6521C1349.71 87.3246 1349.71 86.7788 1349.71 86.233C1349.71 86.233 1349.71 86.233 1349.71 86.0147C1349.71 86.0147 1349.71 85.9056 1349.71 85.7964C1349.71 85.5781 1350.15 84.814 1349.71 85.3598C1349.71 85.2506 1349.82 85.1415 1349.93 85.0323C1349.93 84.9232 1350.15 84.7049 1350.15 84.5957C1350.58 86.9971 1350.91 89.5077 1351.35 91.8C1351.35 91.8 1351.24 91.9091 1351.13 92.0183C1351.13 91.8 1350.91 91.6908 1350.8 91.4725L1351.02 91.5817Z" fill="white"/>
</g>
<defs>
<clipPath id="clip0_22605_533">
<rect width="2137.7" height="452.45" fill="white"/>
</clipPath>
</defs>
</svg>
