<svg width="2187" height="1160" viewBox="0 0 2187 1160" fill="none" xmlns="http://www.w3.org/2000/svg">
<g clip-path="url(#clip0_22816_12)">
<path d="M339.647 284.622L322.436 288.252C320.823 291.882 324.722 299.68 323.243 301.966C322.571 303.041 315.982 307.209 314.503 307.209C313.696 307.209 306.839 295.916 306.704 308.822C311.814 309.226 316.52 306.537 317.999 312.318L324.991 307.075L326.739 310.57C329.697 306.94 346.37 313.662 347.446 315.679C349.866 319.578 346.774 323.074 347.043 325.359C347.312 327.107 352.69 327.779 351.749 331.275C355.245 329.393 359.01 326.704 356.858 322.67C359.682 320.923 363.85 327.107 365.06 329.124C374.607 344.719 383.347 373.088 389.801 391.103C416.559 465.049 437.131 541.414 466.04 614.687C446.678 621.813 456.897 633.644 473.167 633.913L508.53 728.159C511.353 726.143 510.95 723.454 511.219 720.496C512.967 698.178 508.126 670.348 507.588 647.761C505.303 544.103 514.984 440.983 509.471 337.459C508.126 310.974 504.093 284.219 502.479 257.867C501.538 242.944 504.093 225.6 502.479 211.08C500.059 190.107 472.763 165.369 457.569 151.924L462.679 128.934C485.94 133.236 508.53 140.63 531.657 145.605C579.794 155.957 629.948 161.201 677.547 173.032C700.674 178.679 737.113 196.022 758.088 196.56C764.811 196.694 776.241 192.258 781.081 196.829C783.636 199.249 790.09 218.34 791.972 223.18C812.545 278.975 831.638 335.308 856.11 389.49C850.059 403.876 862.699 420.278 874.935 426.059L908.012 494.358C910.432 494.223 910.701 491.669 911.508 490.056C929.526 455.369 951.443 406.699 964.754 369.995C972.553 348.35 992.184 293.899 991.108 273.463C990.571 261.363 986.402 251.952 978.2 243.078C973.36 237.835 963.678 234.205 961.93 226.273C957.09 202.879 1003.34 216.324 1014.5 217.13C1070.71 221.298 1127.85 219.416 1184.33 222.239C1191.05 222.508 1204.5 223.18 1210.14 224.121C1213.1 224.659 1215.12 227.483 1218.88 227.751C1222.11 227.886 1221.17 224.39 1222.65 224.121C1227.62 223.046 1234.89 227.348 1240.53 225.869L1240.8 235.146L1243.09 237.566C1265.27 235.146 1289.21 224.525 1310.99 222.643C1342.72 219.819 1409.01 229.634 1427.84 257.867C1431.74 263.783 1438.86 272.925 1429.32 275.076C1426.36 277.496 1429.72 283.815 1432.41 284.622L1439.94 283.009C1442.76 292.42 1445.85 301.831 1446.93 311.646C1448.14 323.746 1450.16 350.77 1448.81 361.929C1448.41 365.29 1443.84 365.021 1443.84 369.054C1443.84 372.146 1447.2 373.894 1448.01 376.449C1451.23 386.936 1447.2 401.187 1446.93 411.942C1445.85 478.09 1448.01 545.447 1445.32 611.326C1441.95 692.128 1436.44 758.679 1347.16 781.803C1308.7 791.752 1278.72 770.51 1240.67 771.585C1239.86 772.392 1241.61 784.223 1240.4 787.719C1239.32 790.811 1233.14 792.021 1231.25 795.92C1224.67 809.096 1234.89 814.339 1240.67 824.423V916.115L1245.64 917.19C1245.64 933.055 1253.84 946.096 1258.01 960.348L1103.79 1017.62C1105.53 1004.18 1123.42 1005.25 1126.78 998.127C1131.22 988.716 1121 987.775 1121.27 984.145L1128.8 961.961C1135.38 962.902 1142.65 954.298 1139.28 948.247C1137.94 945.693 1133.5 945.021 1132.29 943.004C1128.53 936.82 1133.1 907.645 1133.23 898.906C1133.77 872.017 1132.7 845.127 1133.23 818.238C1140.63 822.541 1145.33 817.969 1147.08 810.44C1147.08 804.256 1136.33 801.97 1131.49 804.39C1131.08 795.517 1132.02 786.375 1131.49 777.501C1123.69 613.477 1134.17 450.797 1129.74 287.042C1129.74 283.412 1128.26 280.32 1127.85 276.69L1136.33 275.48L1140.09 244.557C1136.06 240.255 1118.85 262.842 1118.17 267.144C1100.16 262.707 1082.27 259.615 1063.85 263.514V254.372C1058.07 245.364 1043.14 262.707 1060.36 266.069C1052.15 281.933 1045.43 298.605 1038.3 315.007C1005.36 390.969 970.133 469.351 937.459 546.926V698.447L933.156 696.968L930.332 701.001C933.963 707.724 936.652 713.908 937.324 721.706C938.265 732.193 939.476 815.146 936.786 819.314C935.845 820.793 929.929 818.642 937.459 825.633L935.576 1096.14L961.662 1158.52C962.065 1159.73 960.183 1159.73 959.107 1159.33C903.306 1141.45 855.572 1103.8 803.939 1077.85C803.133 1076.78 818.73 1062.93 820.344 1060.51C828.411 1048.01 832.714 993.556 833.521 976.616C838.765 860.858 834.462 732.058 829.89 616.166C829.352 604.066 831.369 589.68 829.89 578.118C828.008 563.866 812.41 530.12 806.091 515.331C784.846 465.452 758.492 417.993 736.171 368.651C718.826 330.334 705.111 290.403 688.303 251.952C684.539 243.482 675.53 220.626 670.823 214.441C667.462 210.139 640.973 200.593 634.788 199.787C592.03 194.006 589.34 243.482 585.844 274.673C569.171 422.295 588.265 574.891 585.844 723.588C585.038 773.602 581.945 824.423 582.349 874.168C582.617 897.158 580.466 920.283 585.71 942.735C582.752 943.542 582.214 941.525 580.466 940.181C564.062 927.543 537.439 898.234 522.379 882.1C417.769 769.703 297.965 579.462 242.163 436.143C236.113 420.547 246.466 427.538 245.794 413.556C244.18 408.85 235.709 410.598 232.213 412.48C221.591 385.994 210.162 359.777 199.674 333.157C171.303 261.632 145.083 164.831 101.921 103.389C82.1555 75.2897 58.8938 47.7283 34.6909 23.3935C42.4896 23.1247 42.7585 14.5201 43.4309 13.9823C44.641 12.9068 70.7263 23.528 72.8777 25.1413C76.9115 28.3681 75.8358 33.8803 81.4832 35.7626C87.1305 37.6448 89.1474 32.5359 93.7191 33.7459C151.806 59.8284 211.238 82.8187 271.341 104.061C274.837 107.288 277.795 110.111 280.081 114.413C295.544 144.529 302.402 196.694 315.579 231.381C322.571 249.532 332.118 266.337 339.916 284.219L339.647 284.622ZM164.176 101.238C155.705 103.658 156.243 120.06 168.614 116.296C176.95 113.741 173.992 98.4144 164.176 101.238ZM268.249 142.244C276.451 127.186 260.316 114.951 248.752 108.095C245.391 110.515 245.794 114.01 246.197 117.506C246.466 119.254 251.979 134.849 252.92 136.866C255.206 141.572 258.971 143.992 264.081 143.992L268.249 142.378V142.244ZM1356.71 253.7C1351.33 249.935 1341.92 260.556 1348.1 264.859C1355.5 270.102 1361.95 257.33 1356.71 253.7ZM1336.13 347.139C1333.71 345.929 1333.18 345.795 1332.64 342.837C1329.14 323.477 1338.15 293.361 1324.84 276.018C1316.1 264.724 1301.71 254.775 1286.79 255.313C1285.71 255.313 1285.71 258.136 1284.5 258.674C1271.32 263.649 1253.31 262.439 1245.64 276.555C1232.87 300.083 1238.92 342.972 1239.19 368.651C1239.59 419.471 1238.65 470.426 1239.19 521.247L1233.81 529.852C1233.81 533.482 1236.5 534.154 1239.05 532.541V585.512L1235.56 588.873L1239.05 589.68V724.798C1257.21 718.614 1272.67 741.201 1288.54 743.755C1314.62 747.923 1331.29 722.647 1334.39 699.657C1338.96 664.97 1332.64 627.056 1331.02 592.235C1330.62 583.899 1327.93 532.137 1329.68 529.314C1330.22 528.373 1333.58 528.104 1334.52 526.356L1329.28 521.247V446.63L1339.76 449.184C1341.38 443.268 1331.43 442.865 1331.02 441.252L1332.77 352.921C1334.92 350.097 1335.19 349.694 1336.4 347.005C1347.97 352.786 1349.31 353.593 1356.98 365.424C1359.53 369.458 1358.59 375.508 1365.04 376.449C1381.72 379.003 1376.61 364.752 1379.97 359.374C1380.37 358.836 1392.74 356.416 1384.94 351.307C1382.93 349.963 1379.56 350.904 1377.55 349.963C1367.33 345.123 1366.79 342.299 1353.75 347.005C1354.02 338.132 1347.56 332.619 1339.76 339.073C1335.87 342.299 1337.48 344.854 1336.4 347.005L1336.13 347.139ZM329.294 274.27C327.949 266.875 320.688 263.111 313.696 265.665V272.522C317.596 272.925 322.705 272.925 322.436 277.765H324.05C323.512 274.135 326.067 273.866 329.294 274.27ZM1178.55 279.648C1177.47 287.849 1163.62 304.386 1178.01 308.688C1200.46 315.276 1203.02 278.706 1178.55 279.648ZM247.407 312.856C241.222 306.537 231.138 318.771 239.205 323.746C246.063 328.048 253.055 318.637 247.407 312.856ZM318.806 322.805L311.007 327.914L308.318 322.805L301.461 327.107L308.318 329.662L304.822 333.964L308.318 334.77C310.335 348.215 302.671 363.407 317.865 371.205C330.235 367.038 319.478 359.509 318.806 352.786C317.865 343.913 326.47 336.922 334.403 336.518V340.821L339.647 341.627V334.77H344.891L343.547 331.678L346.505 330.468C345.429 326.973 336.017 327.645 332.79 328.048C332.252 337.594 331.983 332.888 327.949 335.308C326.739 336.115 328.487 338.938 325.663 338.266C325.798 332.485 322.84 329.393 316.923 329.527L318.671 322.67L318.806 322.805ZM1365.04 326.569C1363.03 327.242 1362.22 328.72 1362.08 330.737L1363.83 335.98C1377.41 337.997 1377.28 322.536 1364.91 326.569H1365.04ZM1219.69 372.819C1224.26 369.995 1219.96 360.719 1212.97 365.155C1207.32 371.743 1214.31 376.18 1219.69 372.819ZM833.521 376.583C830.832 373.491 812.948 397.019 824.243 400.649C836.613 404.682 833.386 383.305 833.521 376.583ZM358.203 399.439C353.093 400.918 337.093 422.967 345.832 424.984C351.749 422.295 369.363 416.379 371.783 411.136C375.817 402.128 367.077 396.75 358.203 399.439ZM251.576 404.548C244.987 408.581 251.172 418.396 258.299 413.825L261.66 408.581C259.912 406.161 254.13 403.069 251.71 404.548H251.576ZM1202.21 418.396C1194.68 420.547 1192.4 433.992 1201.81 434.664C1217.81 435.874 1216.2 414.363 1202.21 418.396ZM948.753 492.61C947.005 494.627 939.207 502.693 945.392 504.576C954.132 507.265 957.09 496.106 948.753 492.61ZM920.248 513.449C915.138 508.744 890.532 525.684 889.322 532.003C887.439 541.683 898.6 543.431 905.592 539.532C909.894 537.112 922.937 516.004 920.248 513.449ZM878.431 527.432C871.17 522.457 865.522 536.843 874.531 539.128C882.464 541.145 880.582 528.91 878.431 527.432ZM1187.15 542.893C1186.35 546.12 1180.43 557.144 1186.35 558.489C1193.34 559.967 1193.07 545.044 1187.15 542.893ZM310.2 546.388C307.915 544.775 302.94 550.825 301.729 552.707C303.477 559.699 310.066 560.505 313.562 553.917L310.2 546.388ZM1211.35 553.245C1211.35 557.816 1206.65 569.244 1215.39 566.824C1224.13 564.404 1221.04 552.842 1211.35 553.245ZM1153.67 564.001C1147.62 565.749 1146.14 576.101 1155.02 575.967C1165.64 575.967 1166.04 560.236 1153.67 564.001ZM921.996 697.102C915.945 695.086 909.894 703.018 906.936 703.825C903.44 704.631 892.28 699.254 889.322 708.799C883.809 727.084 915.273 718.748 921.189 709.337C917.424 703.69 921.861 703.152 921.861 697.237L921.996 697.102ZM1222.78 702.48C1216.2 703.959 1217.81 717.941 1225.88 716.059C1232.46 714.58 1230.85 700.598 1222.78 702.48ZM928.853 721.303L918.769 724.933C916.752 732.865 921.727 734.613 928.719 733.134C931.005 729.101 929.391 725.47 928.853 721.168V721.303ZM446.812 733.806C439.417 729.504 432.022 744.562 441.299 747.251C450.039 749.805 452.325 737.167 446.812 733.806ZM892.952 781.534C898.869 787.45 912.449 786.912 915.811 778.577C917.962 773.333 915.138 766.611 920.113 762.174C919.844 755.721 898.196 764.863 894.162 763.922C887.036 767.014 888.381 777.098 892.818 781.534H892.952ZM860.682 835.851C853.959 838.002 859.068 850.64 866.598 845.262C870.901 842.304 868.077 833.431 860.682 835.851ZM1184.73 875.781C1177.87 878.067 1179.89 890.167 1189.3 887.478C1197.91 885.058 1193.07 873.092 1184.73 875.781ZM897.255 879.277C889.053 881.562 892.145 895.276 901.692 892.587C912.583 889.629 906.129 876.722 897.255 879.277ZM1221.3 913.964C1207.32 919.476 1208.4 936.013 1224.67 926.198C1232.6 921.493 1227.49 912.754 1221.3 913.964ZM882.195 946.5C885.826 948.248 890.398 947.575 893.356 945.021C903.575 936.147 878.834 926.467 882.195 946.5ZM928.853 1005.52C912.18 1002.56 918.903 1019.37 927.24 1013.45L928.853 1005.52ZM898.868 1019.64C890.935 1021.65 894.969 1033.49 901.827 1031.47C907.877 1029.72 906.129 1017.76 898.868 1019.64ZM869.959 1043.7C869.018 1042.49 862.699 1042.36 861.354 1044.51L859.606 1052.31C865.388 1054.73 873.724 1049.08 869.959 1043.7ZM902.902 1087C883.406 1083.63 888.515 1104.34 898.196 1097.48L902.902 1087Z" fill="white"/>
<path d="M1807.55 347.14C1806.61 338.132 1809.3 326.032 1806.75 317.562C1804.73 310.974 1780.12 273.06 1774.48 265.262C1770.58 259.75 1767.21 259.077 1762.51 265.262C1757.94 271.043 1765.47 266.741 1764.26 272.657L1757.4 276.152L1764.26 279.648L1752.15 281.396L1755.65 272.791L1748.66 274.539L1750.41 288.387C1746.1 285.563 1742.34 290.941 1739.38 290C1734 288.387 1729.03 275.883 1739.38 274.808L1746.91 278.034L1743.41 264.186L1738.31 269.43L1734.94 259.75L1729.7 260.825V255.582L1738.31 257.33C1735.35 249.532 1746.1 248.187 1738.31 239.18C1740.73 233.533 1748.26 241.6 1750.41 236.625L1734.14 231.247L1731.18 238.104H1721.23C1720.42 230.575 1714.24 229.23 1715.58 221.298L1707.11 219.281C1710.61 226.407 1698.77 226.542 1701.06 219.281C1701.73 216.996 1706.03 217.399 1700.66 214.441C1677.93 201.535 1614.6 198.039 1592.28 210.677C1589.46 212.29 1588.92 217.668 1584.48 218.878C1580.18 220.088 1573.19 218.071 1570.5 219.55C1569.29 220.223 1567.94 226.542 1563.64 227.617C1559.61 228.693 1556.25 225.332 1551 226.81C1545.22 228.424 1513.89 251.817 1513.08 256.657C1512.68 258.809 1530.83 274.27 1508.92 277.9L1500.85 269.43C1493.59 282.606 1490.36 293.496 1488.75 308.419C1484.04 351.442 1487.4 390.835 1487 433.32C1486.6 490.728 1481.62 549.212 1481.62 606.486C1481.62 615.897 1483.23 660.668 1486.73 665.642L1546.97 712.698C1586.63 708.665 1626.17 715.656 1665.43 707.186C1695.82 700.598 1724.72 686.885 1755.52 681.103L1807.28 599.36L1805.67 509.819L1802.31 507.668L1696.76 533.078C1696.08 580 1699.72 637.14 1661.26 670.886C1640.42 666.987 1613.93 657.038 1608.69 633.913C1605.73 620.737 1607.07 560.909 1602.63 555.934H1602.5C1603.17 543.431 1603.98 531.062 1604.52 518.558C1604.65 513.987 1605.05 509.416 1604.65 504.845C1604.52 502.425 1604.25 500.005 1603.71 497.719L1807.55 479.434V363.273C1807.55 363.273 1804.46 363.676 1802.58 362.198C1792.09 354.4 1794.64 344.182 1807.55 347.677V347.14ZM1578.84 290.941C1569.96 297.26 1565.25 279.244 1580.45 283.009L1578.84 290.941ZM1686.27 450.125C1686.27 450.125 1686.54 451.201 1686.54 451.604C1686.13 454.562 1685.87 457.52 1685.46 460.478C1685.46 460.746 1685.46 460.881 1685.46 461.15C1685.46 461.688 1685.46 462.091 1685.33 462.629C1660.32 471.502 1628.32 471.368 1601.56 478.493C1601.83 460.209 1601.56 441.79 1600.75 423.505C1600.21 412.077 1598.74 400.515 1597.12 389.087C1597.12 388.952 1596.85 388.818 1596.85 388.683C1596.85 375.373 1596.58 361.929 1596.45 348.619C1596.45 346.871 1595.24 346.064 1594.03 345.795C1593.89 310.705 1598.6 278.034 1619.44 263.38C1633.69 253.296 1664.76 245.633 1674.84 264.321C1681.29 276.287 1687.61 324.149 1688.42 339.073C1689.63 362.332 1684.12 387.205 1686.67 410.195C1686.94 413.018 1687.75 415.438 1688.82 417.724C1687.34 425.925 1686.13 434.261 1686.27 442.731C1686.27 445.151 1686.54 447.571 1686.81 449.991L1686.27 450.125ZM1712.22 289.866C1716.39 289.866 1722.17 293.63 1722.57 297.663C1723.78 309.629 1709.8 298.874 1712.22 289.866ZM1745.03 339.073C1742.47 349.156 1722.04 328.855 1743.15 331.813C1743.95 333.829 1745.57 337.056 1745.03 339.073ZM1788.32 384.112C1780.26 392.986 1775.28 379.541 1771.11 373.894C1771.25 368.785 1784.83 375.508 1786.17 376.987C1787.52 378.331 1788.73 382.364 1788.19 384.112H1788.32ZM1790.48 326.838C1787.79 317.562 1801.64 316.217 1803.79 319.713C1809.7 328.989 1794.11 339.611 1790.48 326.838Z" fill="white"/>
<path d="M1890.65 203.282C1888.5 207.047 1891.99 209.736 1895.22 211.618L1902.62 207.585L1897.51 199.787L1960.57 205.165C1965.27 206.778 1962.32 219.416 1974.55 218.878C1979.53 218.609 1995.8 210.811 2002.79 208.795C2013.14 205.837 2029.01 201.131 2039.23 200.19C2068 197.367 2097.45 219.281 2125.96 222.508C2128.38 224.256 2140.61 266.069 2141.42 271.984C2142.76 280.858 2141.15 287.983 2143.7 297.394C2149.49 318.906 2169.79 331.006 2186.87 342.568L2108.88 386.129L2089.79 381.692C2088.57 387.608 2092.07 389.624 2095.03 393.792L2055.5 415.573L2056.98 423.236H2048.37C2051.73 413.825 2049.58 402.935 2049.98 392.851C2051.46 357.088 2057.92 298.604 2043.93 265.531C2037.48 250.338 2026.32 247.918 2010.86 246.708C1996.74 245.498 1990.02 244.692 1979.8 255.178C1966.62 268.623 1964.33 284.757 1963.26 302.772C1959.49 369.995 1966.08 445.823 1966.89 514.256C1967.29 551.094 1966.62 582.823 1965.14 619.93C1964.74 630.417 1962.59 663.894 1963.93 671.692C1964.06 672.902 1972.8 691.59 1974.15 694.145C1978.32 702.211 1985.04 707.186 1989.48 713.505C1990.55 714.984 1991.9 715.253 1991.23 717.807L1896.7 754.242C1893.07 742.545 1882.72 740.26 1875.19 750.074C1874.65 752.629 1883.25 757.603 1880.03 762.712L1850.85 775.081C1852.06 770.913 1840.63 755.721 1837 759.485L1839.69 780.325L1807.55 792.425L1838.75 742.142C1845.34 746.847 1850.85 748.864 1849.1 738.646L1842.11 737.84C1850.58 729.369 1851.12 711.623 1855.82 703.287C1856.23 702.615 1862.01 703.556 1862.82 699.791L1857.57 694.279C1859.05 652.466 1853.4 610.788 1854.21 568.975H1862.68L1861.2 557.547L1855.96 558.489C1854.21 550.422 1858.51 542.086 1858.78 534.826C1859.45 518.827 1854.75 499.467 1854.21 483.199C1852.06 431.034 1859.05 381.961 1852.33 329.124C1848.56 300.083 1841.44 271.043 1826.78 245.364C1841.17 230.037 1834.44 220.626 1816.16 230.978C1814.41 221.029 1799.62 214.979 1804.06 205.03C1809.7 208.391 1818.58 205.03 1814.41 198.173L1890.65 203.417V203.282ZM1980.87 241.331C1988 244.423 2017.31 242.137 2014.76 230.844C2009.24 212.694 1977.24 236.087 1980.87 241.331ZM2070.29 323.074C2060.88 325.897 2076.07 334.77 2081.31 325.359C2078.89 321.998 2073.78 321.998 2070.29 323.074ZM2145.45 338.401C2139.4 337.056 2124.61 345.392 2124.61 351.442C2124.61 353.727 2137.79 362.601 2140.21 365.424C2156.48 361.794 2147.07 349.022 2145.59 338.401H2145.45ZM2079.43 357.223C2080.91 356.282 2082.66 347.946 2078.89 347.408C2061.95 348.753 2071.5 362.332 2079.43 357.223ZM1900.6 362.87C1893.61 364.752 1890.38 378.062 1899.25 380.885C1914.58 385.86 1914.72 358.971 1900.6 362.87Z" fill="white"/>
<path d="M31.1948 7.529V19.6291C20.5725 15.5958 12.1014 10.7557 0 12.6379L10.3535 6.58788L5.24396 3.09228C11.4291 -5.9156 22.3204 7.529 31.1948 7.39455V7.529Z" fill="white"/>
</g>
<defs>
<clipPath id="clip0_22816_12">
<rect width="2187" height="1160" fill="white"/>
</clipPath>
</defs>
</svg>
